%TF.GenerationSoftware,Altium Limited,Altium Designer,20.0.9 (164)*%
G04 Layer_Color=0*
%FSLAX26Y26*%
%MOIN*%
%TF.FileFunction,Plated,1,6,PTH,Drill*%
%TF.Part,Single*%
G01*
G75*
%TA.AperFunction,ComponentDrill*%
%ADD263C,0.059055*%
%ADD264C,0.015000*%
%ADD265C,0.035000*%
%ADD266C,0.070866*%
%ADD267C,0.043307*%
%ADD268C,0.043307*%
%ADD269C,0.125000*%
%ADD270C,0.031000*%
%ADD271C,0.039000*%
%TA.AperFunction,ViaDrill,NotFilled*%
%ADD272C,0.010000*%
%ADD273C,0.015000*%
%ADD274C,0.020000*%
D263*
X2663504Y3487520D02*
D03*
Y3802480D02*
D03*
X2480433Y4670000D02*
D03*
X1909567D02*
D03*
X1730433D02*
D03*
X1159567D02*
D03*
X980433D02*
D03*
X409567D02*
D03*
D264*
X1065000Y80000D02*
D03*
X1800000Y125000D02*
D03*
X530000Y1095000D02*
D03*
D265*
X850630Y96890D02*
D03*
Y175630D02*
D03*
Y254370D02*
D03*
Y333110D02*
D03*
X929370D02*
D03*
Y254370D02*
D03*
Y175630D02*
D03*
Y96890D02*
D03*
X2055630D02*
D03*
Y175630D02*
D03*
X2134370D02*
D03*
Y96890D02*
D03*
Y254370D02*
D03*
Y333110D02*
D03*
X2055630D02*
D03*
Y254370D02*
D03*
X2405630Y448779D02*
D03*
X2484370D02*
D03*
Y527520D02*
D03*
Y606260D02*
D03*
X2405630D02*
D03*
Y527520D02*
D03*
Y685000D02*
D03*
Y763740D02*
D03*
X2484370D02*
D03*
Y685000D02*
D03*
Y842480D02*
D03*
Y921221D02*
D03*
X2405630D02*
D03*
Y842480D02*
D03*
X2450000Y1175000D02*
D03*
Y1275000D02*
D03*
X2350000Y1325000D02*
D03*
Y1225000D02*
D03*
Y1425000D02*
D03*
X2450000Y1375000D02*
D03*
D266*
X2350512Y4047953D02*
D03*
X2039488D02*
D03*
X1600512D02*
D03*
X1289488D02*
D03*
X850512D02*
D03*
X539488D02*
D03*
D267*
X2298425Y3175000D02*
D03*
Y3725000D02*
D03*
X2101575D02*
D03*
Y3175000D02*
D03*
X1723425Y3725000D02*
D03*
X1526575D02*
D03*
Y3175000D02*
D03*
X1723425D02*
D03*
X1148425Y3725000D02*
D03*
X951575D02*
D03*
X946575Y3180000D02*
D03*
X1143425D02*
D03*
X573425Y3725000D02*
D03*
X376575D02*
D03*
D268*
X150000Y545000D02*
D03*
Y645000D02*
D03*
Y745000D02*
D03*
Y845000D02*
D03*
X250000D02*
D03*
Y745000D02*
D03*
Y645000D02*
D03*
Y545000D02*
D03*
D269*
X175000Y175000D02*
D03*
X2725000D02*
D03*
Y4625000D02*
D03*
X175000D02*
D03*
D270*
X2665630Y543150D02*
D03*
X2744370D02*
D03*
Y621890D02*
D03*
X2665630D02*
D03*
Y700630D02*
D03*
X2744370D02*
D03*
Y779370D02*
D03*
X2665630D02*
D03*
Y858110D02*
D03*
X2744370D02*
D03*
Y936850D02*
D03*
X2665630D02*
D03*
D271*
X725000Y450000D02*
D03*
X1050000D02*
D03*
Y550000D02*
D03*
Y650000D02*
D03*
Y750000D02*
D03*
X725000D02*
D03*
Y650000D02*
D03*
Y550000D02*
D03*
X155000Y1610000D02*
D03*
Y1710000D02*
D03*
Y1810000D02*
D03*
Y1910000D02*
D03*
D272*
X650000Y275000D02*
D03*
X1105000Y500000D02*
D03*
X1425000Y325000D02*
D03*
X1510000Y365000D02*
D03*
X1925000Y350000D02*
D03*
X1915000Y205000D02*
D03*
X2350000Y75000D02*
D03*
X2245000Y930000D02*
D03*
X2175000Y1200000D02*
D03*
X2755000Y1770000D02*
D03*
X2740000Y1795000D02*
D03*
X2755000Y1820000D02*
D03*
X2280000Y2225000D02*
D03*
X2150000Y2725000D02*
D03*
Y2765000D02*
D03*
X2040000Y2705000D02*
D03*
X1800000Y2230000D02*
D03*
X2095000Y2125000D02*
D03*
X1505000Y2255000D02*
D03*
Y2315000D02*
D03*
X1725000Y2020000D02*
D03*
X1265000Y2350000D02*
D03*
X950000Y2220000D02*
D03*
X980000Y2165000D02*
D03*
X920000Y1890000D02*
D03*
X995000Y1785000D02*
D03*
X1175000Y1795000D02*
D03*
X1165000Y1720000D02*
D03*
X1095500Y1634500D02*
D03*
X1052500Y1642500D02*
D03*
X1025000Y1530000D02*
D03*
X1015000Y1495000D02*
D03*
Y1460000D02*
D03*
X1045000Y1440000D02*
D03*
X1065000Y1355000D02*
D03*
X1280000Y1365000D02*
D03*
Y1430000D02*
D03*
X1220000Y1510000D02*
D03*
X1140000Y1585000D02*
D03*
X1065000Y1315000D02*
D03*
X1015000D02*
D03*
X982000Y1297000D02*
D03*
X1005000Y1270000D02*
D03*
X995000Y1165000D02*
D03*
X980000Y1125000D02*
D03*
X940000Y1135000D02*
D03*
X1075000Y1120000D02*
D03*
X1150000Y1085000D02*
D03*
X1310000Y1080000D02*
D03*
X1285000Y1190000D02*
D03*
X1315000Y1260000D02*
D03*
Y1320000D02*
D03*
X1280000Y1330000D02*
D03*
X1095000Y1235000D02*
D03*
X1000000Y945000D02*
D03*
X1225000D02*
D03*
X1187412Y920000D02*
D03*
X1150000D02*
D03*
X1110000Y870000D02*
D03*
X1230000Y820000D02*
D03*
Y590000D02*
D03*
X1160000Y540000D02*
D03*
X945000Y910000D02*
D03*
X1350000Y829252D02*
D03*
X2070000Y910000D02*
D03*
X1735000Y1105000D02*
D03*
X1640000Y1075000D02*
D03*
X1540000Y1130000D02*
D03*
X1410000Y1145000D02*
D03*
X1400000Y1105000D02*
D03*
X1345000Y1075000D02*
D03*
X805000Y1780000D02*
D03*
X860000Y1890000D02*
D03*
X665000Y1840000D02*
D03*
X645000Y1805000D02*
D03*
X500000Y1875000D02*
D03*
X525000Y1770000D02*
D03*
X760000Y1775000D02*
D03*
X765000Y1600000D02*
D03*
X715000Y1610000D02*
D03*
X640000Y1625000D02*
D03*
X720000Y1520000D02*
D03*
X780000D02*
D03*
X840000D02*
D03*
Y1460000D02*
D03*
Y1400000D02*
D03*
X780000D02*
D03*
X720000D02*
D03*
Y1460000D02*
D03*
X780000D02*
D03*
X825000Y1615000D02*
D03*
X780000Y1340000D02*
D03*
Y1280000D02*
D03*
X720000D02*
D03*
Y1340000D02*
D03*
Y1190000D02*
D03*
X780000D02*
D03*
X795000Y1105000D02*
D03*
X735000Y1085000D02*
D03*
X675000Y1095000D02*
D03*
X650000Y1115000D02*
D03*
X635000Y1145000D02*
D03*
X550000Y1140000D02*
D03*
Y1185000D02*
D03*
X525000Y1215000D02*
D03*
X505000Y1295000D02*
D03*
X530000Y1320000D02*
D03*
X555000Y940000D02*
D03*
X615000Y935000D02*
D03*
X675000Y940000D02*
D03*
X830000D02*
D03*
X835000Y860000D02*
D03*
X900000Y750000D02*
D03*
X650000Y645000D02*
D03*
X638453Y885748D02*
D03*
X485000Y765000D02*
D03*
X420000Y1075000D02*
D03*
X445000Y1200000D02*
D03*
X360000Y1255000D02*
D03*
Y1290000D02*
D03*
X215000Y1250000D02*
D03*
X170000D02*
D03*
X145000Y1145000D02*
D03*
X150000Y1060000D02*
D03*
X95000Y1105000D02*
D03*
X260000Y1135000D02*
D03*
X305000D02*
D03*
X330000Y930000D02*
D03*
X395000Y660000D02*
D03*
X400000Y540000D02*
D03*
X260000Y1425000D02*
D03*
Y1465000D02*
D03*
X142000Y1435000D02*
D03*
X410000Y1775000D02*
D03*
X475000D02*
D03*
X440000Y1850000D02*
D03*
X730000Y2225000D02*
D03*
X775000Y2725000D02*
D03*
Y2765000D02*
D03*
X620000Y2835000D02*
D03*
X560000Y2840000D02*
D03*
Y2800000D02*
D03*
X540000Y2820000D02*
D03*
X520000Y2800000D02*
D03*
X500000Y2820000D02*
D03*
X520000Y2840000D02*
D03*
X480000D02*
D03*
Y2800000D02*
D03*
Y2690000D02*
D03*
Y2650000D02*
D03*
X520000D02*
D03*
X500000Y2670000D02*
D03*
X520000Y2690000D02*
D03*
X540000Y2670000D02*
D03*
X560000Y2650000D02*
D03*
Y2690000D02*
D03*
X540000Y3015000D02*
D03*
X255000Y3050000D02*
D03*
X80000Y3165000D02*
D03*
Y3300000D02*
D03*
X400000Y2840000D02*
D03*
X440000D02*
D03*
X460000Y2820000D02*
D03*
X420000D02*
D03*
X440000Y2800000D02*
D03*
X400000D02*
D03*
Y2690000D02*
D03*
X440000D02*
D03*
X420000Y2670000D02*
D03*
X440000Y2650000D02*
D03*
X400000D02*
D03*
X460000Y2670000D02*
D03*
X1710000Y3875000D02*
D03*
X1750000D02*
D03*
X1790000D02*
D03*
X1830000D02*
D03*
X1870000D02*
D03*
X2490000Y3965000D02*
D03*
Y4005000D02*
D03*
X2510000Y3985000D02*
D03*
X2530000Y4005000D02*
D03*
Y3965000D02*
D03*
Y4045000D02*
D03*
X2510000Y4025000D02*
D03*
X2490000Y4045000D02*
D03*
X2510000Y4065000D02*
D03*
X2530000Y4085000D02*
D03*
X2490000D02*
D03*
X2510000Y4105000D02*
D03*
X2530000Y4125000D02*
D03*
X2490000D02*
D03*
X1870000Y3915000D02*
D03*
X1830000D02*
D03*
X1790000D02*
D03*
X1750000D02*
D03*
X1770000Y3895000D02*
D03*
X1810000D02*
D03*
X1850000D02*
D03*
X1365000Y4505000D02*
D03*
X1325000D02*
D03*
X1345000Y4525000D02*
D03*
X1325000Y4545000D02*
D03*
X1365000D02*
D03*
X1710000Y3915000D02*
D03*
X1730000Y3895000D02*
D03*
X1305000Y4525000D02*
D03*
X1285000Y4545000D02*
D03*
Y4505000D02*
D03*
X1265000Y4525000D02*
D03*
X1245000Y4545000D02*
D03*
Y4505000D02*
D03*
X1225000Y4525000D02*
D03*
X1205000Y4545000D02*
D03*
Y4505000D02*
D03*
X705000D02*
D03*
Y4545000D02*
D03*
X685000Y4525000D02*
D03*
X665000Y4505000D02*
D03*
Y4545000D02*
D03*
Y4465000D02*
D03*
X685000Y4485000D02*
D03*
X705000Y4465000D02*
D03*
X685000Y4445000D02*
D03*
X665000Y4425000D02*
D03*
X705000D02*
D03*
X685000Y4405000D02*
D03*
X665000Y4385000D02*
D03*
X705000D02*
D03*
D273*
X530000Y320000D02*
D03*
X865000Y505000D02*
D03*
X1170000Y365000D02*
D03*
X1651000Y703000D02*
D03*
X1555000Y915000D02*
D03*
X1790000Y440000D02*
D03*
X2190000Y1290000D02*
D03*
X1980000Y2030000D02*
D03*
X1935000D02*
D03*
X1890000D02*
D03*
Y2075000D02*
D03*
Y2115000D02*
D03*
Y2155000D02*
D03*
X1935000D02*
D03*
Y2115000D02*
D03*
Y2075000D02*
D03*
X1980000D02*
D03*
Y2115000D02*
D03*
Y2155000D02*
D03*
X2185000Y2400000D02*
D03*
X2230000D02*
D03*
X2275000D02*
D03*
Y2450000D02*
D03*
Y2495000D02*
D03*
X2230000D02*
D03*
Y2450000D02*
D03*
X2185000D02*
D03*
Y2495000D02*
D03*
X2550000Y2425000D02*
D03*
X2140000Y2400000D02*
D03*
Y2450000D02*
D03*
Y2495000D02*
D03*
X1995000Y2400000D02*
D03*
Y2360000D02*
D03*
Y2320000D02*
D03*
Y2275000D02*
D03*
X1950000D02*
D03*
X1905000D02*
D03*
Y2320000D02*
D03*
Y2360000D02*
D03*
Y2400000D02*
D03*
X1950000D02*
D03*
Y2360000D02*
D03*
Y2320000D02*
D03*
X1385000Y3025000D02*
D03*
X2115000Y3060000D02*
D03*
X2345000D02*
D03*
X1125000Y3025000D02*
D03*
X945000Y2485000D02*
D03*
Y2440000D02*
D03*
Y2395000D02*
D03*
X1075000Y2310000D02*
D03*
X1115000D02*
D03*
X1155000D02*
D03*
Y2265000D02*
D03*
X1115000D02*
D03*
X1075000D02*
D03*
Y2220000D02*
D03*
X1115000D02*
D03*
X1155000D02*
D03*
Y2180000D02*
D03*
X1115000D02*
D03*
X1075000D02*
D03*
X900000Y2395000D02*
D03*
X855000D02*
D03*
X810000D02*
D03*
Y2440000D02*
D03*
Y2485000D02*
D03*
X855000D02*
D03*
Y2440000D02*
D03*
X900000D02*
D03*
Y2485000D02*
D03*
X735000D02*
D03*
Y2440000D02*
D03*
Y2395000D02*
D03*
X690000D02*
D03*
X645000D02*
D03*
X600000D02*
D03*
Y2440000D02*
D03*
X645000D02*
D03*
X690000D02*
D03*
Y2485000D02*
D03*
X645000D02*
D03*
X600000D02*
D03*
X295000Y2440000D02*
D03*
D274*
X1360000Y1740000D02*
D03*
X1635000Y1760000D02*
D03*
Y1710000D02*
D03*
X1770000D02*
D03*
Y1760000D02*
D03*
X2190000Y1835000D02*
D03*
Y1890000D02*
D03*
Y1975000D02*
D03*
X2245000D02*
D03*
Y2030000D02*
D03*
X2190000D02*
D03*
X2060000Y2495000D02*
D03*
Y2545000D02*
D03*
X2010000D02*
D03*
Y2495000D02*
D03*
X1960000D02*
D03*
Y2545000D02*
D03*
Y2595000D02*
D03*
X2080000Y2030000D02*
D03*
Y1975000D02*
D03*
X2135000D02*
D03*
Y2030000D02*
D03*
Y1890000D02*
D03*
Y1835000D02*
D03*
X2080000D02*
D03*
Y1890000D02*
D03*
X1770000Y1860000D02*
D03*
Y1810000D02*
D03*
X1725000Y2230000D02*
D03*
X1675000Y2240000D02*
D03*
X1330000D02*
D03*
X1450000Y2485000D02*
D03*
X1500000D02*
D03*
X1550000D02*
D03*
Y2550000D02*
D03*
X1500000D02*
D03*
X1450000D02*
D03*
Y2615000D02*
D03*
X1500000D02*
D03*
X1550000D02*
D03*
X1680000Y2185000D02*
D03*
Y2135000D02*
D03*
X1735000Y2185000D02*
D03*
X1330000Y2190000D02*
D03*
Y2140000D02*
D03*
X1360000Y1890000D02*
D03*
Y1840000D02*
D03*
Y1790000D02*
D03*
X1635000Y1810000D02*
D03*
Y1860000D02*
D03*
X1035000Y2410000D02*
D03*
Y2460000D02*
D03*
Y2510000D02*
D03*
Y2560000D02*
D03*
Y2610000D02*
D03*
X915000Y2115000D02*
D03*
Y2065000D02*
D03*
X860000D02*
D03*
Y2115000D02*
D03*
X810000D02*
D03*
Y2065000D02*
D03*
X1450000Y2680000D02*
D03*
X1500000D02*
D03*
X1550000D02*
D03*
Y2745000D02*
D03*
X1500000D02*
D03*
X1450000D02*
D03*
Y2815000D02*
D03*
X1500000D02*
D03*
X1550000D02*
D03*
Y2880000D02*
D03*
X1500000D02*
D03*
X1450000D02*
D03*
Y2945000D02*
D03*
X1500000D02*
D03*
X1550000D02*
D03*
X1980000Y2940000D02*
D03*
X2035000D02*
D03*
X2090000D02*
D03*
X2145000D02*
D03*
Y3000000D02*
D03*
X2090000D02*
D03*
X2035000D02*
D03*
X1980000D02*
D03*
X1960000Y2645000D02*
D03*
X2315000Y3105000D02*
D03*
X2370000D02*
D03*
X2420000D02*
D03*
Y3250000D02*
D03*
X2365000D02*
D03*
X2310000D02*
D03*
X2305000Y3655000D02*
D03*
X2360000D02*
D03*
X2415000D02*
D03*
Y3800000D02*
D03*
X2360000D02*
D03*
X2305000D02*
D03*
X2090000Y3795000D02*
D03*
X2035000D02*
D03*
X1980000D02*
D03*
Y3655000D02*
D03*
X2035000D02*
D03*
X2090000D02*
D03*
X1835000D02*
D03*
X1780000D02*
D03*
Y3795000D02*
D03*
X1835000D02*
D03*
X1830000Y3245000D02*
D03*
X1775000D02*
D03*
Y3105000D02*
D03*
X1830000D02*
D03*
X1990000D02*
D03*
X2045000D02*
D03*
X2100000D02*
D03*
Y3245000D02*
D03*
X2045000D02*
D03*
X1990000D02*
D03*
X1725000Y3655000D02*
D03*
Y3795000D02*
D03*
X1520000Y3800000D02*
D03*
X1465000D02*
D03*
X1410000D02*
D03*
Y3655000D02*
D03*
X1465000D02*
D03*
X1520000D02*
D03*
Y3245000D02*
D03*
X1465000D02*
D03*
X1410000D02*
D03*
Y3100000D02*
D03*
X1465000D02*
D03*
X1520000D02*
D03*
X1720000Y3105000D02*
D03*
Y3245000D02*
D03*
X1280000Y3655000D02*
D03*
X1225000D02*
D03*
X1170000D02*
D03*
Y3800000D02*
D03*
X1225000D02*
D03*
X1280000D02*
D03*
X1260000Y3250000D02*
D03*
X1205000D02*
D03*
X1150000D02*
D03*
Y3100000D02*
D03*
X1205000D02*
D03*
X1260000D02*
D03*
X950000Y3110000D02*
D03*
Y3250000D02*
D03*
X930000Y3000000D02*
D03*
X985000D02*
D03*
Y2940000D02*
D03*
X930000D02*
D03*
X1035000Y2660000D02*
D03*
X895000Y3110000D02*
D03*
X840000D02*
D03*
Y3250000D02*
D03*
X895000D02*
D03*
X875000Y3000000D02*
D03*
X820000D02*
D03*
Y2940000D02*
D03*
X875000D02*
D03*
%TF.MD5,5b825ecb1e160d4b9179194d0bbb63eb*%
M02*
