%TF.GenerationSoftware,Altium Limited,Altium Designer,20.0.9 (164)*%
G04 Layer_Color=9306309*
%FSLAX26Y26*%
%MOIN*%
%TF.FileFunction,Legend,Bot*%
%TF.Part,Single*%
G01*
G75*
%TA.AperFunction,NonConductor*%
%ADD53C,0.007000*%
%ADD106C,0.008000*%
%ADD107C,0.027559*%
%ADD108C,0.010000*%
%ADD109C,0.015000*%
%ADD110C,0.006000*%
%ADD111C,0.007008*%
%ADD112C,0.007500*%
%ADD113R,0.027559X0.027559*%
G36*
X3993056Y1113594D02*
X3993913Y1113498D01*
X3994960Y1113403D01*
X3997245Y1113022D01*
X3997435D01*
X3997816Y1112927D01*
X3998387Y1112737D01*
X3999149Y1112546D01*
X4000101Y1112261D01*
X4001148Y1111975D01*
X4003338Y1111214D01*
Y1103407D01*
X4003242Y1103502D01*
X4002862Y1103693D01*
X4002290Y1103978D01*
X4001624Y1104264D01*
X4000767Y1104645D01*
X3999815Y1105026D01*
X3997626Y1105692D01*
X3997530D01*
X3997150Y1105787D01*
X3996483Y1105978D01*
X3995722Y1106168D01*
X3994865Y1106263D01*
X3993818Y1106454D01*
X3991438Y1106549D01*
X3990676D01*
X3990105Y1106454D01*
X3989438Y1106358D01*
X3988677Y1106263D01*
X3986963Y1105787D01*
X3984964Y1105026D01*
X3983917Y1104550D01*
X3982965Y1103978D01*
X3981918Y1103312D01*
X3980966Y1102455D01*
X3980109Y1101503D01*
X3979252Y1100456D01*
Y1100361D01*
X3979062Y1100170D01*
X3978871Y1099790D01*
X3978586Y1099314D01*
X3978300Y1098647D01*
X3977919Y1097886D01*
X3977634Y1097029D01*
X3977253Y1095982D01*
X3976872Y1094744D01*
X3976491Y1093411D01*
X3976110Y1091983D01*
X3975825Y1090365D01*
X3975539Y1088556D01*
X3975349Y1086747D01*
X3975254Y1084748D01*
X3975163Y1082658D01*
X3975254Y1082749D01*
X3975539Y1083225D01*
X3976015Y1083986D01*
X3976586Y1084938D01*
X3977348Y1085986D01*
X3978300Y1087033D01*
X3979442Y1088080D01*
X3980680Y1089032D01*
X3980870Y1089127D01*
X3981346Y1089413D01*
X3982108Y1089794D01*
X3983060Y1090174D01*
X3984298Y1090555D01*
X3985630Y1090936D01*
X3987249Y1091222D01*
X3988867Y1091317D01*
X3989724D01*
X3990390Y1091222D01*
X3991152Y1091126D01*
X3992009Y1091031D01*
X3992961Y1090841D01*
X3994008Y1090650D01*
X3996293Y1089984D01*
X3997435Y1089508D01*
X3998578Y1088937D01*
X3999720Y1088270D01*
X4000862Y1087604D01*
X4001910Y1086652D01*
X4002862Y1085700D01*
X4002957Y1085605D01*
X4003052Y1085414D01*
X4003338Y1085129D01*
X4003623Y1084653D01*
X4004004Y1084082D01*
X4004480Y1083415D01*
X4004956Y1082558D01*
X4005432Y1081702D01*
X4005813Y1080654D01*
X4006289Y1079417D01*
X4006765Y1078179D01*
X4007146Y1076751D01*
X4007431Y1075228D01*
X4007717Y1073610D01*
X4007812Y1071896D01*
X4007907Y1069992D01*
Y1069897D01*
Y1069516D01*
Y1069040D01*
X4007812Y1068374D01*
X4007717Y1067517D01*
X4007622Y1066470D01*
X4007526Y1065422D01*
X4007241Y1064280D01*
X4006670Y1061710D01*
X4005718Y1059139D01*
X4005146Y1057806D01*
X4004480Y1056569D01*
X4003718Y1055426D01*
X4002766Y1054284D01*
X4002671Y1054189D01*
X4002576Y1054094D01*
X4002195Y1053808D01*
X4001814Y1053427D01*
X4001338Y1053046D01*
X4000672Y1052570D01*
X3999910Y1051999D01*
X3999054Y1051523D01*
X3998102Y1051047D01*
X3996959Y1050476D01*
X3995817Y1050000D01*
X3994579Y1049619D01*
X3993151Y1049238D01*
X3991628Y1049048D01*
X3990105Y1048858D01*
X3988391Y1048762D01*
X3987915D01*
X3987344Y1048858D01*
X3986582D01*
X3985726Y1049048D01*
X3984678Y1049143D01*
X3983536Y1049429D01*
X3982298Y1049714D01*
X3980966Y1050190D01*
X3979633Y1050666D01*
X3978300Y1051333D01*
X3977062Y1052094D01*
X3975730Y1052951D01*
X3974492Y1053998D01*
X3973445Y1055236D01*
X3972398Y1056569D01*
X3972302Y1056664D01*
X3972207Y1056950D01*
X3971922Y1057426D01*
X3971636Y1058092D01*
X3971255Y1058854D01*
X3970779Y1059901D01*
X3970303Y1061138D01*
X3969922Y1062566D01*
X3969446Y1064185D01*
X3968970Y1065994D01*
X3968494Y1067993D01*
X3968114Y1070182D01*
X3967828Y1072658D01*
X3967542Y1075228D01*
X3967447Y1078084D01*
X3967352Y1081130D01*
Y1081321D01*
Y1081797D01*
Y1082654D01*
X3967447Y1083701D01*
X3967542Y1085034D01*
X3967638Y1086557D01*
X3967828Y1088270D01*
X3968114Y1090079D01*
X3968399Y1092078D01*
X3968875Y1093982D01*
X3969351Y1096077D01*
X3969922Y1098076D01*
X3970589Y1099980D01*
X3971446Y1101884D01*
X3972398Y1103693D01*
X3973445Y1105311D01*
X3973540Y1105406D01*
X3973730Y1105692D01*
X3974111Y1106073D01*
X3974587Y1106644D01*
X3975254Y1107215D01*
X3976015Y1107977D01*
X3976872Y1108738D01*
X3977919Y1109500D01*
X3979157Y1110262D01*
X3980394Y1111023D01*
X3981918Y1111785D01*
X3983441Y1112356D01*
X3985154Y1112927D01*
X3986963Y1113308D01*
X3988962Y1113594D01*
X3991057Y1113689D01*
X3992199D01*
X3993056Y1113594D01*
D02*
G37*
G36*
X4044464Y1081892D02*
X4033897D01*
Y1094554D01*
X4044464D01*
Y1081892D01*
D02*
G37*
G36*
X3889383D02*
X3878816D01*
Y1094554D01*
X3889383D01*
Y1081892D01*
D02*
G37*
G36*
X4319878Y1050000D02*
X4312071D01*
Y1105311D01*
X4300838Y1072277D01*
X4294459D01*
X4283321Y1105311D01*
Y1050000D01*
X4275514D01*
Y1112642D01*
X4286748D01*
X4297601Y1080654D01*
X4308549Y1112642D01*
X4319878D01*
Y1050000D01*
D02*
G37*
G36*
X3935174Y1113594D02*
X3935936D01*
X3936793Y1113403D01*
X3937840Y1113308D01*
X3938887Y1113118D01*
X3941267Y1112546D01*
X3943742Y1111690D01*
X3944885Y1111214D01*
X3946122Y1110547D01*
X3947265Y1109881D01*
X3948312Y1109024D01*
X3948407Y1108929D01*
X3948598Y1108834D01*
X3948788Y1108548D01*
X3949169Y1108167D01*
X3949550Y1107691D01*
X3950026Y1107215D01*
X3951073Y1105787D01*
X3952120Y1104074D01*
X3952977Y1101979D01*
X3953358Y1100837D01*
X3953643Y1099599D01*
X3953738Y1098266D01*
X3953834Y1096934D01*
Y1096838D01*
Y1096743D01*
Y1096458D01*
Y1096077D01*
X3953643Y1095125D01*
X3953453Y1093887D01*
X3953072Y1092554D01*
X3952596Y1091126D01*
X3951834Y1089698D01*
X3950882Y1088270D01*
X3950787Y1088080D01*
X3950311Y1087699D01*
X3949740Y1087128D01*
X3948788Y1086366D01*
X3947646Y1085605D01*
X3946218Y1084748D01*
X3944504Y1084082D01*
X3942600Y1083415D01*
X3942695D01*
X3942886Y1083320D01*
X3943171Y1083225D01*
X3943647Y1083130D01*
X3944694Y1082654D01*
X3946027Y1082082D01*
X3947550Y1081321D01*
X3949074Y1080274D01*
X3950597Y1079036D01*
X3951930Y1077608D01*
X3952120Y1077418D01*
X3952501Y1076846D01*
X3952977Y1075990D01*
X3953643Y1074752D01*
X3954214Y1073324D01*
X3954786Y1071515D01*
X3955166Y1069516D01*
X3955262Y1067231D01*
Y1067136D01*
Y1066850D01*
Y1066374D01*
X3955166Y1065803D01*
X3955071Y1065042D01*
X3954976Y1064185D01*
X3954500Y1062281D01*
X3953834Y1060091D01*
X3953358Y1058949D01*
X3952786Y1057806D01*
X3952120Y1056759D01*
X3951263Y1055617D01*
X3950406Y1054570D01*
X3949359Y1053618D01*
X3949264Y1053522D01*
X3949074Y1053427D01*
X3948788Y1053142D01*
X3948312Y1052856D01*
X3947741Y1052475D01*
X3946979Y1052094D01*
X3946122Y1051618D01*
X3945170Y1051238D01*
X3944123Y1050762D01*
X3942886Y1050286D01*
X3941553Y1049905D01*
X3940125Y1049524D01*
X3938602Y1049238D01*
X3936983Y1048953D01*
X3935270Y1048858D01*
X3933366Y1048762D01*
X3931747D01*
X3930605Y1048858D01*
X3929272Y1048953D01*
X3927749Y1049048D01*
X3926226Y1049238D01*
X3924512Y1049524D01*
X3924322D01*
X3923750Y1049714D01*
X3922894Y1049810D01*
X3921751Y1050095D01*
X3920418Y1050476D01*
X3918895Y1050857D01*
X3915754Y1051904D01*
Y1060377D01*
X3915849D01*
X3915944Y1060282D01*
X3916515Y1059996D01*
X3917277Y1059615D01*
X3918419Y1059139D01*
X3919657Y1058568D01*
X3921085Y1057997D01*
X3922608Y1057426D01*
X3924131Y1056950D01*
X3924322D01*
X3924893Y1056759D01*
X3925654Y1056664D01*
X3926702Y1056474D01*
X3928034Y1056283D01*
X3929367Y1056093D01*
X3930890Y1055998D01*
X3932414Y1055902D01*
X3933080D01*
X3933556Y1055998D01*
X3934127D01*
X3934794Y1056093D01*
X3936317Y1056283D01*
X3938030Y1056664D01*
X3939839Y1057235D01*
X3941553Y1057997D01*
X3943076Y1059044D01*
X3943266Y1059234D01*
X3943647Y1059615D01*
X3944314Y1060377D01*
X3944980Y1061329D01*
X3945646Y1062662D01*
X3946313Y1064185D01*
X3946694Y1065994D01*
X3946884Y1068088D01*
Y1068183D01*
Y1068374D01*
Y1068659D01*
X3946789Y1068945D01*
X3946694Y1069992D01*
X3946408Y1071230D01*
X3945932Y1072562D01*
X3945266Y1073990D01*
X3944314Y1075418D01*
X3943076Y1076751D01*
X3942886Y1076846D01*
X3942410Y1077227D01*
X3941553Y1077798D01*
X3940410Y1078370D01*
X3938982Y1078941D01*
X3937269Y1079512D01*
X3935270Y1079893D01*
X3932985Y1079988D01*
X3926606D01*
Y1086938D01*
X3933937D01*
X3934984Y1087033D01*
X3936317Y1087223D01*
X3937840Y1087509D01*
X3939363Y1087985D01*
X3940791Y1088556D01*
X3942124Y1089413D01*
X3942314Y1089508D01*
X3942695Y1089889D01*
X3943171Y1090460D01*
X3943838Y1091317D01*
X3944409Y1092269D01*
X3944980Y1093506D01*
X3945361Y1094934D01*
X3945456Y1096553D01*
Y1096648D01*
Y1096743D01*
Y1097314D01*
X3945266Y1098171D01*
X3945075Y1099218D01*
X3944694Y1100456D01*
X3944218Y1101694D01*
X3943457Y1102836D01*
X3942410Y1103883D01*
X3942314Y1103978D01*
X3941838Y1104264D01*
X3941172Y1104740D01*
X3940220Y1105216D01*
X3938982Y1105692D01*
X3937459Y1106168D01*
X3935650Y1106454D01*
X3933651Y1106549D01*
X3932223D01*
X3931271Y1106454D01*
X3930129Y1106358D01*
X3928796Y1106168D01*
X3927463Y1105978D01*
X3925940Y1105692D01*
X3925750D01*
X3925274Y1105502D01*
X3924417Y1105311D01*
X3923370Y1105026D01*
X3922132Y1104740D01*
X3920799Y1104264D01*
X3919276Y1103788D01*
X3917658Y1103217D01*
Y1111023D01*
X3917753D01*
X3917848Y1111118D01*
X3918134D01*
X3918514Y1111214D01*
X3919466Y1111499D01*
X3920704Y1111785D01*
X3922037Y1112070D01*
X3923560Y1112451D01*
X3925083Y1112737D01*
X3926606Y1113022D01*
X3926797D01*
X3927273Y1113118D01*
X3928034Y1113213D01*
X3928986Y1113403D01*
X3930129Y1113498D01*
X3931271Y1113594D01*
X3933651Y1113689D01*
X3934508D01*
X3935174Y1113594D01*
D02*
G37*
G36*
X3677373D02*
X3678134D01*
X3678991Y1113403D01*
X3680038Y1113308D01*
X3681181Y1113022D01*
X3682418Y1112737D01*
X3683751Y1112261D01*
X3685084Y1111785D01*
X3686417Y1111118D01*
X3687654Y1110357D01*
X3688987Y1109500D01*
X3690225Y1108358D01*
X3691272Y1107215D01*
X3692319Y1105787D01*
X3692414Y1105692D01*
X3692510Y1105406D01*
X3692795Y1104930D01*
X3693081Y1104264D01*
X3693557Y1103502D01*
X3693938Y1102455D01*
X3694414Y1101218D01*
X3694890Y1099790D01*
X3695366Y1098171D01*
X3695842Y1096362D01*
X3696318Y1094363D01*
X3696698Y1092078D01*
X3696984Y1089698D01*
X3697270Y1087033D01*
X3697365Y1084177D01*
X3697460Y1081130D01*
Y1080940D01*
Y1080464D01*
Y1079607D01*
X3697365Y1078560D01*
X3697270Y1077227D01*
X3697174Y1075704D01*
X3696984Y1073990D01*
X3696698Y1072182D01*
X3696318Y1070278D01*
X3695937Y1068278D01*
X3695461Y1066279D01*
X3694890Y1064280D01*
X3694128Y1062376D01*
X3693271Y1060472D01*
X3692319Y1058663D01*
X3691272Y1057045D01*
X3691177Y1056950D01*
X3690986Y1056664D01*
X3690606Y1056283D01*
X3690130Y1055712D01*
X3689463Y1055141D01*
X3688702Y1054474D01*
X3687845Y1053713D01*
X3686798Y1052951D01*
X3685560Y1052094D01*
X3684227Y1051428D01*
X3682799Y1050666D01*
X3681276Y1050095D01*
X3679467Y1049524D01*
X3677658Y1049143D01*
X3675659Y1048858D01*
X3673565Y1048762D01*
X3672422D01*
X3671661Y1048858D01*
X3670709Y1048953D01*
X3669662Y1049048D01*
X3667377Y1049429D01*
X3667282D01*
X3666901Y1049524D01*
X3666234Y1049714D01*
X3665473Y1049905D01*
X3664616Y1050095D01*
X3663569Y1050476D01*
X3661474Y1051238D01*
Y1059044D01*
X3661570Y1058949D01*
X3661950Y1058758D01*
X3662426Y1058473D01*
X3663093Y1058187D01*
X3663950Y1057711D01*
X3664902Y1057330D01*
X3666996Y1056664D01*
X3667091D01*
X3667567Y1056569D01*
X3668138Y1056474D01*
X3668900Y1056283D01*
X3669852Y1056188D01*
X3670899Y1055998D01*
X3673279Y1055902D01*
X3674041D01*
X3674612Y1055998D01*
X3675278Y1056093D01*
X3676040Y1056188D01*
X3677849Y1056664D01*
X3679848Y1057330D01*
X3680800Y1057902D01*
X3681847Y1058473D01*
X3682799Y1059139D01*
X3683751Y1059901D01*
X3684703Y1060853D01*
X3685465Y1061900D01*
X3685560Y1061995D01*
X3685655Y1062186D01*
X3685846Y1062566D01*
X3686131Y1063042D01*
X3686417Y1063709D01*
X3686798Y1064470D01*
X3687178Y1065327D01*
X3687559Y1066470D01*
X3687940Y1067612D01*
X3688321Y1068945D01*
X3688702Y1070373D01*
X3688987Y1071991D01*
X3689273Y1073800D01*
X3689463Y1075609D01*
X3689654Y1077608D01*
Y1079798D01*
X3689558Y1079607D01*
X3689273Y1079131D01*
X3688797Y1078370D01*
X3688226Y1077418D01*
X3687369Y1076370D01*
X3686417Y1075323D01*
X3685274Y1074276D01*
X3684037Y1073324D01*
X3683846Y1073229D01*
X3683370Y1072943D01*
X3682704Y1072658D01*
X3681657Y1072277D01*
X3680514Y1071801D01*
X3679086Y1071515D01*
X3677563Y1071230D01*
X3675850Y1071134D01*
X3674993D01*
X3674326Y1071230D01*
X3673565Y1071325D01*
X3672708Y1071420D01*
X3671756Y1071610D01*
X3670709Y1071801D01*
X3668424Y1072467D01*
X3667282Y1072943D01*
X3666139Y1073514D01*
X3664997Y1074086D01*
X3663854Y1074847D01*
X3662807Y1075704D01*
X3661855Y1076656D01*
X3661760Y1076751D01*
X3661665Y1076942D01*
X3661379Y1077227D01*
X3661094Y1077703D01*
X3660713Y1078274D01*
X3660332Y1078941D01*
X3659856Y1079798D01*
X3659380Y1080750D01*
X3658904Y1081797D01*
X3658428Y1082939D01*
X3658047Y1084272D01*
X3657666Y1085700D01*
X3657381Y1087223D01*
X3657095Y1088842D01*
X3657000Y1090650D01*
X3656905Y1092459D01*
Y1092554D01*
Y1092935D01*
Y1093411D01*
X3657000Y1094173D01*
X3657095Y1094934D01*
X3657190Y1095982D01*
X3657286Y1097029D01*
X3657571Y1098171D01*
X3658142Y1100742D01*
X3658999Y1103312D01*
X3659570Y1104550D01*
X3660332Y1105787D01*
X3661094Y1107025D01*
X3661950Y1108072D01*
X3662046Y1108167D01*
X3662236Y1108358D01*
X3662522Y1108548D01*
X3662902Y1108929D01*
X3663474Y1109405D01*
X3664045Y1109881D01*
X3664806Y1110357D01*
X3665663Y1110928D01*
X3666615Y1111404D01*
X3667758Y1111880D01*
X3668900Y1112356D01*
X3670233Y1112832D01*
X3671566Y1113213D01*
X3673089Y1113403D01*
X3674612Y1113594D01*
X3676326Y1113689D01*
X3676802D01*
X3677373Y1113594D01*
D02*
G37*
G36*
X4248478Y1112546D02*
X4249334D01*
X4250382Y1112356D01*
X4251524Y1112261D01*
X4252666Y1112070D01*
X4255237Y1111499D01*
X4257902Y1110642D01*
X4259140Y1110071D01*
X4260378Y1109500D01*
X4261615Y1108738D01*
X4262662Y1107882D01*
X4262758Y1107786D01*
X4262853Y1107691D01*
X4263138Y1107406D01*
X4263519Y1107025D01*
X4263900Y1106454D01*
X4264376Y1105882D01*
X4264852Y1105216D01*
X4265423Y1104359D01*
X4265899Y1103407D01*
X4266375Y1102360D01*
X4266851Y1101218D01*
X4267232Y1099980D01*
X4267613Y1098647D01*
X4267898Y1097124D01*
X4267994Y1095601D01*
X4268089Y1093887D01*
Y1093792D01*
Y1093506D01*
Y1093030D01*
X4267994Y1092364D01*
X4267898Y1091602D01*
X4267803Y1090746D01*
X4267613Y1089698D01*
X4267422Y1088651D01*
X4266756Y1086462D01*
X4266375Y1085224D01*
X4265804Y1084082D01*
X4265138Y1082939D01*
X4264471Y1081892D01*
X4263614Y1080845D01*
X4262662Y1079893D01*
X4262567Y1079798D01*
X4262377Y1079702D01*
X4262091Y1079512D01*
X4261615Y1079131D01*
X4261044Y1078846D01*
X4260378Y1078465D01*
X4259616Y1077989D01*
X4258664Y1077608D01*
X4257617Y1077132D01*
X4256379Y1076751D01*
X4255142Y1076275D01*
X4253714Y1075990D01*
X4252095Y1075704D01*
X4250477Y1075418D01*
X4248668Y1075323D01*
X4246764Y1075228D01*
X4236958D01*
Y1050000D01*
X4228486D01*
Y1112642D01*
X4247811D01*
X4248478Y1112546D01*
D02*
G37*
G36*
X4104345Y1071801D02*
X4112722D01*
Y1064946D01*
X4104345D01*
Y1050000D01*
X4095872D01*
Y1064946D01*
X4069406D01*
Y1072943D01*
X4094539Y1112642D01*
X4104345D01*
Y1071801D01*
D02*
G37*
G36*
X4044464Y1050000D02*
X4033897D01*
Y1062757D01*
X4044464D01*
Y1050000D01*
D02*
G37*
G36*
X3889383D02*
X3878816D01*
Y1062757D01*
X3889383D01*
Y1050000D01*
D02*
G37*
G36*
X3831692Y1113594D02*
X3832454Y1113498D01*
X3833406Y1113403D01*
X3834358Y1113308D01*
X3835500Y1113118D01*
X3837880Y1112451D01*
X3840355Y1111594D01*
X3841593Y1111023D01*
X3842735Y1110357D01*
X3843973Y1109595D01*
X3845020Y1108738D01*
X3845115Y1108643D01*
X3845306Y1108548D01*
X3845496Y1108262D01*
X3845877Y1107882D01*
X3846353Y1107406D01*
X3846829Y1106834D01*
X3847305Y1106073D01*
X3847876Y1105311D01*
X3848828Y1103502D01*
X3849780Y1101313D01*
X3850161Y1100075D01*
X3850351Y1098838D01*
X3850542Y1097410D01*
X3850637Y1095982D01*
Y1095791D01*
Y1095315D01*
X3850542Y1094458D01*
X3850446Y1093506D01*
X3850161Y1092269D01*
X3849875Y1090841D01*
X3849399Y1089413D01*
X3848733Y1087890D01*
X3848638Y1087699D01*
X3848352Y1087223D01*
X3847876Y1086366D01*
X3847305Y1085319D01*
X3846448Y1083986D01*
X3845401Y1082463D01*
X3844068Y1080845D01*
X3842640Y1079036D01*
X3842545Y1078941D01*
X3842259Y1078560D01*
X3841688Y1077894D01*
X3840926Y1077037D01*
X3839974Y1075990D01*
X3838832Y1074657D01*
X3837499Y1073134D01*
X3835881Y1071420D01*
X3835786Y1071325D01*
X3835690Y1071230D01*
X3835405Y1070944D01*
X3835024Y1070563D01*
X3834548Y1069992D01*
X3833977Y1069421D01*
X3833310Y1068659D01*
X3832549Y1067898D01*
X3831597Y1066946D01*
X3830550Y1065803D01*
X3829502Y1064661D01*
X3828265Y1063423D01*
X3826932Y1061995D01*
X3825504Y1060472D01*
X3823886Y1058854D01*
X3822267Y1057140D01*
X3851018D01*
Y1050000D01*
X3813033D01*
Y1057140D01*
X3813128Y1057235D01*
X3813414Y1057521D01*
X3813794Y1057902D01*
X3814366Y1058568D01*
X3815032Y1059234D01*
X3815794Y1060091D01*
X3816650Y1061043D01*
X3817698Y1061995D01*
X3819792Y1064280D01*
X3822077Y1066660D01*
X3824362Y1069230D01*
X3826646Y1071610D01*
X3826742Y1071706D01*
X3826932Y1071896D01*
X3827218Y1072182D01*
X3827598Y1072658D01*
X3828646Y1073800D01*
X3829883Y1075133D01*
X3831216Y1076561D01*
X3832549Y1078084D01*
X3833786Y1079417D01*
X3834834Y1080559D01*
X3834929Y1080654D01*
X3835024Y1080750D01*
X3835214Y1081035D01*
X3835500Y1081416D01*
X3836262Y1082368D01*
X3837118Y1083510D01*
X3838070Y1084843D01*
X3838927Y1086271D01*
X3839784Y1087604D01*
X3840450Y1088842D01*
X3840546Y1089032D01*
X3840736Y1089413D01*
X3840926Y1089984D01*
X3841212Y1090841D01*
X3841498Y1091793D01*
X3841783Y1092935D01*
X3841878Y1094078D01*
X3841974Y1095315D01*
Y1095410D01*
Y1095506D01*
Y1095791D01*
Y1096172D01*
X3841783Y1097124D01*
X3841593Y1098266D01*
X3841212Y1099599D01*
X3840641Y1101027D01*
X3839879Y1102265D01*
X3838832Y1103502D01*
X3838737Y1103598D01*
X3838261Y1103978D01*
X3837594Y1104454D01*
X3836642Y1105026D01*
X3835405Y1105597D01*
X3833977Y1106073D01*
X3832263Y1106454D01*
X3830359Y1106549D01*
X3829693D01*
X3828931Y1106454D01*
X3827979Y1106358D01*
X3826742Y1106168D01*
X3825409Y1105978D01*
X3823886Y1105597D01*
X3822362Y1105121D01*
X3822172Y1105026D01*
X3821601Y1104835D01*
X3820839Y1104550D01*
X3819697Y1104074D01*
X3818364Y1103502D01*
X3816841Y1102741D01*
X3815222Y1101884D01*
X3813509Y1100932D01*
Y1109500D01*
X3813604D01*
X3813699Y1109595D01*
X3814270Y1109786D01*
X3815127Y1110166D01*
X3816174Y1110642D01*
X3817507Y1111118D01*
X3818935Y1111594D01*
X3821982Y1112546D01*
X3822077D01*
X3822172Y1112642D01*
X3822743Y1112737D01*
X3823505Y1112927D01*
X3824552Y1113118D01*
X3825790Y1113308D01*
X3827218Y1113498D01*
X3828646Y1113689D01*
X3831026D01*
X3831692Y1113594D01*
D02*
G37*
G36*
X3787805Y1057140D02*
X3800847D01*
Y1050000D01*
X3766290D01*
Y1057140D01*
X3779427D01*
Y1105026D01*
X3765242Y1101789D01*
Y1109500D01*
X3779332Y1112642D01*
X3787805D01*
Y1057140D01*
D02*
G37*
G36*
X3632724D02*
X3645766D01*
Y1050000D01*
X3611209D01*
Y1057140D01*
X3624346D01*
Y1105026D01*
X3610162Y1101789D01*
Y1109500D01*
X3624251Y1112642D01*
X3632724D01*
Y1057140D01*
D02*
G37*
G36*
X3529337D02*
X3542379D01*
Y1050000D01*
X3507822D01*
Y1057140D01*
X3520959D01*
Y1105026D01*
X3506774Y1101789D01*
Y1109500D01*
X3520864Y1112642D01*
X3529337D01*
Y1057140D01*
D02*
G37*
G36*
X3477643D02*
X3490686D01*
Y1050000D01*
X3456128D01*
Y1057140D01*
X3469266D01*
Y1105026D01*
X3455081Y1101789D01*
Y1109500D01*
X3469170Y1112642D01*
X3477643D01*
Y1057140D01*
D02*
G37*
G36*
X3366450Y1113594D02*
X3367211Y1113498D01*
X3368163Y1113403D01*
X3369115Y1113308D01*
X3370258Y1113118D01*
X3372638Y1112451D01*
X3375113Y1111594D01*
X3376350Y1111023D01*
X3377493Y1110357D01*
X3378730Y1109595D01*
X3379778Y1108738D01*
X3379873Y1108643D01*
X3380063Y1108548D01*
X3380254Y1108262D01*
X3380634Y1107882D01*
X3381110Y1107406D01*
X3381586Y1106834D01*
X3382062Y1106073D01*
X3382634Y1105311D01*
X3383586Y1103502D01*
X3384538Y1101313D01*
X3384918Y1100075D01*
X3385109Y1098838D01*
X3385299Y1097410D01*
X3385394Y1095982D01*
Y1095791D01*
Y1095315D01*
X3385299Y1094458D01*
X3385204Y1093506D01*
X3384918Y1092269D01*
X3384633Y1090841D01*
X3384157Y1089413D01*
X3383490Y1087890D01*
X3383395Y1087699D01*
X3383110Y1087223D01*
X3382634Y1086366D01*
X3382062Y1085319D01*
X3381206Y1083986D01*
X3380158Y1082463D01*
X3378826Y1080845D01*
X3377398Y1079036D01*
X3377302Y1078941D01*
X3377017Y1078560D01*
X3376446Y1077894D01*
X3375684Y1077037D01*
X3374732Y1075990D01*
X3373590Y1074657D01*
X3372257Y1073134D01*
X3370638Y1071420D01*
X3370543Y1071325D01*
X3370448Y1071230D01*
X3370162Y1070944D01*
X3369782Y1070563D01*
X3369306Y1069992D01*
X3368734Y1069421D01*
X3368068Y1068659D01*
X3367306Y1067898D01*
X3366354Y1066946D01*
X3365307Y1065803D01*
X3364260Y1064661D01*
X3363022Y1063423D01*
X3361690Y1061995D01*
X3360262Y1060472D01*
X3358643Y1058854D01*
X3357025Y1057140D01*
X3385775D01*
Y1050000D01*
X3347790D01*
Y1057140D01*
X3347886Y1057235D01*
X3348171Y1057521D01*
X3348552Y1057902D01*
X3349123Y1058568D01*
X3349790Y1059234D01*
X3350551Y1060091D01*
X3351408Y1061043D01*
X3352455Y1061995D01*
X3354550Y1064280D01*
X3356834Y1066660D01*
X3359119Y1069230D01*
X3361404Y1071610D01*
X3361499Y1071706D01*
X3361690Y1071896D01*
X3361975Y1072182D01*
X3362356Y1072658D01*
X3363403Y1073800D01*
X3364641Y1075133D01*
X3365974Y1076561D01*
X3367306Y1078084D01*
X3368544Y1079417D01*
X3369591Y1080559D01*
X3369686Y1080654D01*
X3369782Y1080750D01*
X3369972Y1081035D01*
X3370258Y1081416D01*
X3371019Y1082368D01*
X3371876Y1083510D01*
X3372828Y1084843D01*
X3373685Y1086271D01*
X3374542Y1087604D01*
X3375208Y1088842D01*
X3375303Y1089032D01*
X3375494Y1089413D01*
X3375684Y1089984D01*
X3375970Y1090841D01*
X3376255Y1091793D01*
X3376541Y1092935D01*
X3376636Y1094078D01*
X3376731Y1095315D01*
Y1095410D01*
Y1095506D01*
Y1095791D01*
Y1096172D01*
X3376541Y1097124D01*
X3376350Y1098266D01*
X3375970Y1099599D01*
X3375398Y1101027D01*
X3374637Y1102265D01*
X3373590Y1103502D01*
X3373494Y1103598D01*
X3373018Y1103978D01*
X3372352Y1104454D01*
X3371400Y1105026D01*
X3370162Y1105597D01*
X3368734Y1106073D01*
X3367021Y1106454D01*
X3365117Y1106549D01*
X3364450D01*
X3363689Y1106454D01*
X3362737Y1106358D01*
X3361499Y1106168D01*
X3360166Y1105978D01*
X3358643Y1105597D01*
X3357120Y1105121D01*
X3356930Y1105026D01*
X3356358Y1104835D01*
X3355597Y1104550D01*
X3354454Y1104074D01*
X3353122Y1103502D01*
X3351598Y1102741D01*
X3349980Y1101884D01*
X3348266Y1100932D01*
Y1109500D01*
X3348362D01*
X3348457Y1109595D01*
X3349028Y1109786D01*
X3349885Y1110166D01*
X3350932Y1110642D01*
X3352265Y1111118D01*
X3353693Y1111594D01*
X3356739Y1112546D01*
X3356834D01*
X3356930Y1112642D01*
X3357501Y1112737D01*
X3358262Y1112927D01*
X3359310Y1113118D01*
X3360547Y1113308D01*
X3361975Y1113498D01*
X3363403Y1113689D01*
X3365783D01*
X3366450Y1113594D01*
D02*
G37*
G36*
X3322562Y1057140D02*
X3335605D01*
Y1050000D01*
X3301047D01*
Y1057140D01*
X3314185D01*
Y1105026D01*
X3300000Y1101789D01*
Y1109500D01*
X3314090Y1112642D01*
X3322562D01*
Y1057140D01*
D02*
G37*
G36*
X4143567Y1113594D02*
X4144234D01*
X4145090Y1113403D01*
X4146042Y1113213D01*
X4147185Y1113022D01*
X4148327Y1112642D01*
X4149565Y1112261D01*
X4150802Y1111690D01*
X4152040Y1111023D01*
X4153278Y1110166D01*
X4154515Y1109214D01*
X4155753Y1108167D01*
X4156800Y1106834D01*
X4157847Y1105406D01*
X4157942Y1105311D01*
X4158038Y1105026D01*
X4158323Y1104550D01*
X4158609Y1103883D01*
X4159085Y1103026D01*
X4159466Y1101979D01*
X4159942Y1100742D01*
X4160418Y1099314D01*
X4160894Y1097695D01*
X4161370Y1095886D01*
X4161846Y1093887D01*
X4162226Y1091698D01*
X4162512Y1089318D01*
X4162798Y1086842D01*
X4162893Y1084082D01*
X4162988Y1081130D01*
Y1080940D01*
Y1080464D01*
Y1079607D01*
X4162893Y1078465D01*
X4162798Y1077132D01*
X4162702Y1075609D01*
X4162607Y1073895D01*
X4162322Y1072086D01*
X4162036Y1070182D01*
X4161750Y1068183D01*
X4160798Y1064185D01*
X4160227Y1062186D01*
X4159561Y1060377D01*
X4158799Y1058568D01*
X4157847Y1056950D01*
X4157752Y1056854D01*
X4157657Y1056569D01*
X4157276Y1056188D01*
X4156895Y1055712D01*
X4156324Y1055046D01*
X4155658Y1054379D01*
X4154896Y1053618D01*
X4154039Y1052856D01*
X4152992Y1052094D01*
X4151850Y1051333D01*
X4150612Y1050666D01*
X4149279Y1050000D01*
X4147756Y1049524D01*
X4146138Y1049143D01*
X4144424Y1048858D01*
X4142615Y1048762D01*
X4142139D01*
X4141663Y1048858D01*
X4140997D01*
X4140140Y1049048D01*
X4139188Y1049238D01*
X4138141Y1049429D01*
X4136998Y1049810D01*
X4135761Y1050190D01*
X4134523Y1050762D01*
X4133286Y1051428D01*
X4132048Y1052190D01*
X4130810Y1053142D01*
X4129573Y1054284D01*
X4128526Y1055522D01*
X4127478Y1056950D01*
X4127383Y1057045D01*
X4127288Y1057330D01*
X4127002Y1057806D01*
X4126717Y1058473D01*
X4126336Y1059330D01*
X4125860Y1060377D01*
X4125384Y1061614D01*
X4125003Y1063042D01*
X4124527Y1064661D01*
X4124051Y1066470D01*
X4123575Y1068469D01*
X4123194Y1070563D01*
X4122909Y1072943D01*
X4122623Y1075514D01*
X4122528Y1078179D01*
X4122433Y1081130D01*
Y1081321D01*
Y1081797D01*
Y1082654D01*
X4122528Y1083796D01*
X4122623Y1085129D01*
X4122718Y1086652D01*
X4122814Y1088366D01*
X4123099Y1090174D01*
X4123290Y1092174D01*
X4123670Y1094173D01*
X4124527Y1098171D01*
X4125098Y1100170D01*
X4125860Y1101979D01*
X4126622Y1103788D01*
X4127478Y1105406D01*
X4127574Y1105502D01*
X4127764Y1105787D01*
X4128050Y1106168D01*
X4128430Y1106739D01*
X4129002Y1107310D01*
X4129668Y1108072D01*
X4130430Y1108738D01*
X4131286Y1109595D01*
X4132334Y1110357D01*
X4133476Y1111118D01*
X4134714Y1111785D01*
X4136046Y1112356D01*
X4137474Y1112927D01*
X4139093Y1113308D01*
X4140806Y1113594D01*
X4142615Y1113689D01*
X4143091D01*
X4143567Y1113594D01*
D02*
G37*
G36*
X3560467Y1042098D02*
X3552470D01*
X3585505Y1112642D01*
X3593502D01*
X3560467Y1042098D01*
D02*
G37*
G36*
X3405386D02*
X3397390D01*
X3430424Y1112642D01*
X3438421D01*
X3405386Y1042098D01*
D02*
G37*
G36*
X3838356Y1205406D02*
X3830645D01*
Y1215212D01*
X3838356D01*
Y1205406D01*
D02*
G37*
G36*
X3734969D02*
X3727258D01*
Y1215212D01*
X3734969D01*
Y1205406D01*
D02*
G37*
G36*
X3954976Y1150000D02*
X3947265D01*
Y1155902D01*
X3947170Y1155712D01*
X3946884Y1155331D01*
X3946503Y1154665D01*
X3945837Y1153903D01*
X3945075Y1153046D01*
X3944218Y1152190D01*
X3943171Y1151333D01*
X3942029Y1150571D01*
X3941934Y1150476D01*
X3941458Y1150286D01*
X3940791Y1150000D01*
X3939934Y1149714D01*
X3938887Y1149334D01*
X3937650Y1149048D01*
X3936222Y1148858D01*
X3934698Y1148762D01*
X3933842D01*
X3933270Y1148858D01*
X3932604Y1148953D01*
X3931747Y1149143D01*
X3929843Y1149619D01*
X3928796Y1149905D01*
X3927654Y1150381D01*
X3926511Y1150857D01*
X3925464Y1151523D01*
X3924322Y1152285D01*
X3923274Y1153142D01*
X3922227Y1154189D01*
X3921275Y1155331D01*
X3921180Y1155426D01*
X3921085Y1155617D01*
X3920799Y1155998D01*
X3920514Y1156569D01*
X3920133Y1157235D01*
X3919752Y1157997D01*
X3919276Y1158949D01*
X3918895Y1160091D01*
X3918419Y1161329D01*
X3917943Y1162662D01*
X3917562Y1164185D01*
X3917182Y1165803D01*
X3916896Y1167517D01*
X3916610Y1169421D01*
X3916515Y1171420D01*
X3916420Y1173514D01*
Y1173610D01*
Y1173990D01*
Y1174657D01*
X3916515Y1175418D01*
X3916610Y1176370D01*
X3916706Y1177513D01*
X3916801Y1178750D01*
X3916991Y1180083D01*
X3917562Y1182939D01*
X3918514Y1185986D01*
X3918990Y1187414D01*
X3919657Y1188842D01*
X3920418Y1190270D01*
X3921275Y1191507D01*
X3921370Y1191602D01*
X3921466Y1191793D01*
X3921751Y1192078D01*
X3922227Y1192554D01*
X3922703Y1193030D01*
X3923274Y1193602D01*
X3924036Y1194173D01*
X3924798Y1194839D01*
X3925750Y1195410D01*
X3926702Y1195982D01*
X3928986Y1197029D01*
X3930319Y1197505D01*
X3931652Y1197790D01*
X3933175Y1197981D01*
X3934698Y1198076D01*
X3935365D01*
X3936222Y1197981D01*
X3937174Y1197886D01*
X3938316Y1197600D01*
X3939649Y1197314D01*
X3940886Y1196838D01*
X3942124Y1196172D01*
X3942314Y1196077D01*
X3942695Y1195791D01*
X3943266Y1195410D01*
X3944028Y1194839D01*
X3944790Y1194078D01*
X3945646Y1193126D01*
X3946503Y1192078D01*
X3947265Y1190841D01*
Y1215212D01*
X3954976D01*
Y1150000D01*
D02*
G37*
G36*
X3696508D02*
X3688797D01*
Y1155902D01*
X3688702Y1155712D01*
X3688416Y1155331D01*
X3688035Y1154665D01*
X3687369Y1153903D01*
X3686607Y1153046D01*
X3685750Y1152190D01*
X3684703Y1151333D01*
X3683561Y1150571D01*
X3683466Y1150476D01*
X3682990Y1150286D01*
X3682323Y1150000D01*
X3681466Y1149714D01*
X3680419Y1149334D01*
X3679182Y1149048D01*
X3677754Y1148858D01*
X3676230Y1148762D01*
X3675374D01*
X3674802Y1148858D01*
X3674136Y1148953D01*
X3673279Y1149143D01*
X3671375Y1149619D01*
X3670328Y1149905D01*
X3669186Y1150381D01*
X3668043Y1150857D01*
X3666996Y1151523D01*
X3665854Y1152285D01*
X3664806Y1153142D01*
X3663759Y1154189D01*
X3662807Y1155331D01*
X3662712Y1155426D01*
X3662617Y1155617D01*
X3662331Y1155998D01*
X3662046Y1156569D01*
X3661665Y1157235D01*
X3661284Y1157997D01*
X3660808Y1158949D01*
X3660427Y1160091D01*
X3659951Y1161329D01*
X3659475Y1162662D01*
X3659094Y1164185D01*
X3658714Y1165803D01*
X3658428Y1167517D01*
X3658142Y1169421D01*
X3658047Y1171420D01*
X3657952Y1173514D01*
Y1173610D01*
Y1173990D01*
Y1174657D01*
X3658047Y1175418D01*
X3658142Y1176370D01*
X3658238Y1177513D01*
X3658333Y1178750D01*
X3658523Y1180083D01*
X3659094Y1182939D01*
X3660046Y1185986D01*
X3660522Y1187414D01*
X3661189Y1188842D01*
X3661950Y1190270D01*
X3662807Y1191507D01*
X3662902Y1191602D01*
X3662998Y1191793D01*
X3663283Y1192078D01*
X3663759Y1192554D01*
X3664235Y1193030D01*
X3664806Y1193602D01*
X3665568Y1194173D01*
X3666330Y1194839D01*
X3667282Y1195410D01*
X3668234Y1195982D01*
X3670518Y1197029D01*
X3671851Y1197505D01*
X3673184Y1197790D01*
X3674707Y1197981D01*
X3676230Y1198076D01*
X3676897D01*
X3677754Y1197981D01*
X3678706Y1197886D01*
X3679848Y1197600D01*
X3681181Y1197314D01*
X3682418Y1196838D01*
X3683656Y1196172D01*
X3683846Y1196077D01*
X3684227Y1195791D01*
X3684798Y1195410D01*
X3685560Y1194839D01*
X3686322Y1194078D01*
X3687178Y1193126D01*
X3688035Y1192078D01*
X3688797Y1190841D01*
Y1215212D01*
X3696508D01*
Y1150000D01*
D02*
G37*
G36*
X3423379Y1197981D02*
X3424426Y1197886D01*
X3425664Y1197790D01*
X3428234Y1197314D01*
X3428425D01*
X3428806Y1197219D01*
X3429567Y1197029D01*
X3430424Y1196838D01*
X3431471Y1196553D01*
X3432614Y1196172D01*
X3435184Y1195220D01*
Y1187699D01*
X3434994Y1187794D01*
X3434613Y1187985D01*
X3433946Y1188366D01*
X3433090Y1188746D01*
X3432042Y1189222D01*
X3430900Y1189698D01*
X3428425Y1190555D01*
X3428234Y1190650D01*
X3427854Y1190746D01*
X3427187Y1190936D01*
X3426330Y1191126D01*
X3425283Y1191317D01*
X3424141Y1191412D01*
X3422903Y1191602D01*
X3420809D01*
X3419857Y1191507D01*
X3418714Y1191412D01*
X3417477Y1191222D01*
X3416144Y1190841D01*
X3414906Y1190460D01*
X3413859Y1189889D01*
X3413764Y1189794D01*
X3413478Y1189603D01*
X3413002Y1189127D01*
X3412622Y1188556D01*
X3412146Y1187890D01*
X3411670Y1186938D01*
X3411384Y1185890D01*
X3411289Y1184653D01*
Y1184558D01*
Y1184177D01*
X3411384Y1183606D01*
X3411574Y1182939D01*
X3411765Y1182178D01*
X3412050Y1181321D01*
X3412526Y1180654D01*
X3413193Y1179988D01*
X3413288Y1179893D01*
X3413574Y1179702D01*
X3414240Y1179417D01*
X3415097Y1179036D01*
X3415668Y1178846D01*
X3416334Y1178560D01*
X3417096Y1178370D01*
X3418048Y1178084D01*
X3419000Y1177798D01*
X3420142Y1177513D01*
X3421380Y1177227D01*
X3422713Y1176942D01*
X3425854Y1176370D01*
X3425950D01*
X3426140Y1176275D01*
X3426426D01*
X3426806Y1176180D01*
X3427854Y1175894D01*
X3429091Y1175418D01*
X3430519Y1174847D01*
X3431947Y1174086D01*
X3433280Y1173134D01*
X3434518Y1171991D01*
X3434613Y1171801D01*
X3434994Y1171420D01*
X3435470Y1170658D01*
X3436041Y1169706D01*
X3436612Y1168469D01*
X3437088Y1167041D01*
X3437469Y1165422D01*
X3437564Y1163518D01*
Y1163423D01*
Y1163233D01*
Y1162852D01*
X3437469Y1162376D01*
X3437374Y1161805D01*
X3437278Y1161138D01*
X3436993Y1159520D01*
X3436326Y1157806D01*
X3435470Y1155998D01*
X3434898Y1155141D01*
X3434232Y1154284D01*
X3433470Y1153427D01*
X3432614Y1152666D01*
X3432518D01*
X3432423Y1152475D01*
X3432138Y1152285D01*
X3431662Y1152094D01*
X3431186Y1151809D01*
X3430614Y1151428D01*
X3429853Y1151047D01*
X3428996Y1150762D01*
X3428139Y1150381D01*
X3427092Y1150000D01*
X3425950Y1149714D01*
X3424712Y1149334D01*
X3423379Y1149143D01*
X3421951Y1148953D01*
X3418810Y1148762D01*
X3417477D01*
X3416620Y1148858D01*
X3415478Y1148953D01*
X3414240Y1149048D01*
X3412907Y1149238D01*
X3411479Y1149524D01*
X3411289D01*
X3410813Y1149619D01*
X3410051Y1149810D01*
X3409004Y1150095D01*
X3407766Y1150381D01*
X3406434Y1150762D01*
X3404910Y1151142D01*
X3403292Y1151714D01*
Y1159710D01*
X3403387D01*
X3403482Y1159615D01*
X3404054Y1159330D01*
X3404815Y1158949D01*
X3405958Y1158473D01*
X3407195Y1157902D01*
X3408528Y1157330D01*
X3410051Y1156759D01*
X3411479Y1156283D01*
X3411670D01*
X3412146Y1156093D01*
X3412907Y1155998D01*
X3413954Y1155807D01*
X3415097Y1155617D01*
X3416334Y1155426D01*
X3417667Y1155331D01*
X3419000Y1155236D01*
X3419857D01*
X3420714Y1155331D01*
X3421856Y1155522D01*
X3423189Y1155712D01*
X3424426Y1156093D01*
X3425759Y1156569D01*
X3426902Y1157235D01*
X3426997Y1157330D01*
X3427378Y1157616D01*
X3427854Y1158092D01*
X3428330Y1158758D01*
X3428901Y1159615D01*
X3429282Y1160567D01*
X3429662Y1161710D01*
X3429758Y1163042D01*
Y1163138D01*
Y1163328D01*
X3429662Y1163518D01*
X3429567Y1163899D01*
X3429186Y1164851D01*
X3428901Y1165422D01*
X3428520Y1165994D01*
X3427949Y1166660D01*
X3427282Y1167231D01*
X3426426Y1167898D01*
X3425378Y1168469D01*
X3424236Y1169040D01*
X3422903Y1169611D01*
X3421285Y1170087D01*
X3419476Y1170468D01*
X3419095Y1170563D01*
X3416239Y1171134D01*
X3416144D01*
X3415954Y1171230D01*
X3415573Y1171325D01*
X3415192Y1171420D01*
X3414621Y1171515D01*
X3413954Y1171706D01*
X3412526Y1172182D01*
X3410908Y1172753D01*
X3409290Y1173514D01*
X3407862Y1174466D01*
X3406529Y1175514D01*
X3406434Y1175704D01*
X3406053Y1176085D01*
X3405577Y1176751D01*
X3405006Y1177798D01*
X3404434Y1178941D01*
X3403958Y1180464D01*
X3403578Y1182082D01*
X3403482Y1183986D01*
Y1184082D01*
Y1184272D01*
Y1184653D01*
X3403578Y1185129D01*
Y1185605D01*
X3403768Y1186271D01*
X3404054Y1187794D01*
X3404625Y1189413D01*
X3405386Y1191222D01*
X3406529Y1192840D01*
X3407290Y1193602D01*
X3408052Y1194363D01*
X3408147D01*
X3408242Y1194554D01*
X3408528Y1194744D01*
X3408909Y1194934D01*
X3409385Y1195220D01*
X3409956Y1195506D01*
X3410622Y1195886D01*
X3411384Y1196267D01*
X3412241Y1196553D01*
X3413288Y1196934D01*
X3414335Y1197219D01*
X3415478Y1197505D01*
X3416715Y1197695D01*
X3418143Y1197886D01*
X3421094Y1198076D01*
X3422427D01*
X3423379Y1197981D01*
D02*
G37*
G36*
X3994008Y1181892D02*
X3983441D01*
Y1194554D01*
X3994008D01*
Y1181892D01*
D02*
G37*
G36*
X3597405Y1150000D02*
X3589598D01*
Y1205311D01*
X3578365Y1172277D01*
X3571986D01*
X3560848Y1205311D01*
Y1150000D01*
X3553042D01*
Y1212642D01*
X3564275D01*
X3575128Y1180654D01*
X3586076Y1212642D01*
X3597405D01*
Y1150000D01*
D02*
G37*
G36*
X3994008D02*
X3983441D01*
Y1162757D01*
X3994008D01*
Y1150000D01*
D02*
G37*
G36*
X3838356Y1155998D02*
X3853683D01*
Y1150000D01*
X3815318D01*
Y1155998D01*
X3830645D01*
Y1190936D01*
X3818650D01*
Y1196934D01*
X3838356D01*
Y1155998D01*
D02*
G37*
G36*
X3800847Y1208834D02*
X3791327D01*
X3790661Y1208738D01*
X3789709Y1208643D01*
X3788757Y1208453D01*
X3787900Y1208072D01*
X3786948Y1207691D01*
X3786282Y1207120D01*
X3786186Y1207025D01*
X3785996Y1206834D01*
X3785806Y1206358D01*
X3785520Y1205692D01*
X3785139Y1204835D01*
X3784949Y1203788D01*
X3784758Y1202550D01*
X3784663Y1201027D01*
Y1196934D01*
X3800847D01*
Y1190936D01*
X3784663D01*
Y1150000D01*
X3776952D01*
Y1190936D01*
X3764386D01*
Y1196934D01*
X3776952D01*
Y1200170D01*
Y1200266D01*
Y1200551D01*
Y1200932D01*
X3777047Y1201408D01*
Y1202074D01*
X3777142Y1202836D01*
X3777428Y1204454D01*
X3777809Y1206358D01*
X3778475Y1208167D01*
X3779332Y1209976D01*
X3779903Y1210738D01*
X3780474Y1211499D01*
X3780665Y1211690D01*
X3781141Y1212070D01*
X3781998Y1212642D01*
X3783140Y1213403D01*
X3784758Y1214070D01*
X3786662Y1214641D01*
X3788852Y1215022D01*
X3791518Y1215212D01*
X3800847D01*
Y1208834D01*
D02*
G37*
G36*
X3734969Y1155998D02*
X3750296D01*
Y1150000D01*
X3711930D01*
Y1155998D01*
X3727258D01*
Y1190936D01*
X3715262D01*
Y1196934D01*
X3734969D01*
Y1155998D01*
D02*
G37*
G36*
X3471741Y1196934D02*
X3489258D01*
Y1190936D01*
X3471741D01*
Y1165422D01*
Y1165327D01*
Y1165232D01*
Y1164946D01*
Y1164566D01*
X3471836Y1163709D01*
X3472026Y1162566D01*
X3472217Y1161424D01*
X3472502Y1160186D01*
X3472978Y1159139D01*
X3473645Y1158187D01*
X3473740Y1158092D01*
X3474026Y1157902D01*
X3474502Y1157521D01*
X3475263Y1157235D01*
X3476215Y1156854D01*
X3477358Y1156474D01*
X3478786Y1156283D01*
X3480499Y1156188D01*
X3489258D01*
Y1150000D01*
X3478881D01*
X3478310Y1150095D01*
X3477643D01*
X3476786Y1150190D01*
X3474978Y1150476D01*
X3472978Y1150857D01*
X3470979Y1151428D01*
X3469075Y1152285D01*
X3468314Y1152856D01*
X3467552Y1153427D01*
X3467362Y1153618D01*
X3466981Y1154094D01*
X3466410Y1154950D01*
X3466124Y1155617D01*
X3465838Y1156283D01*
X3465458Y1157045D01*
X3465172Y1157902D01*
X3464886Y1158854D01*
X3464601Y1159996D01*
X3464315Y1161138D01*
X3464220Y1162471D01*
X3464030Y1163899D01*
Y1165422D01*
Y1190936D01*
X3451463D01*
Y1196934D01*
X3464030D01*
Y1210262D01*
X3471741D01*
Y1196934D01*
D02*
G37*
G36*
X3369591Y1197981D02*
X3370924Y1197886D01*
X3372447Y1197600D01*
X3374161Y1197314D01*
X3375779Y1196838D01*
X3377398Y1196267D01*
X3377493D01*
X3377588Y1196172D01*
X3378064Y1195982D01*
X3378826Y1195506D01*
X3379778Y1195030D01*
X3380920Y1194268D01*
X3382062Y1193411D01*
X3383110Y1192364D01*
X3384157Y1191126D01*
X3384252Y1191031D01*
X3384442Y1190746D01*
X3384633Y1190270D01*
X3385014Y1189698D01*
X3385394Y1188937D01*
X3385680Y1188080D01*
X3386061Y1187128D01*
X3386346Y1185986D01*
Y1185890D01*
X3386442Y1185414D01*
X3386632Y1184653D01*
X3386727Y1183701D01*
X3386918Y1182368D01*
X3387013Y1180845D01*
X3387108Y1178941D01*
Y1176751D01*
Y1150000D01*
X3379397D01*
Y1156950D01*
X3379302Y1156759D01*
X3378921Y1156283D01*
X3378350Y1155522D01*
X3377683Y1154570D01*
X3376731Y1153522D01*
X3375589Y1152475D01*
X3374351Y1151523D01*
X3373018Y1150666D01*
X3372828Y1150571D01*
X3372352Y1150381D01*
X3371590Y1150095D01*
X3370543Y1149714D01*
X3369210Y1149334D01*
X3367687Y1149048D01*
X3365878Y1148858D01*
X3363974Y1148762D01*
X3363308D01*
X3362832Y1148858D01*
X3362166D01*
X3361499Y1148953D01*
X3359881Y1149238D01*
X3358072Y1149714D01*
X3356168Y1150476D01*
X3354264Y1151428D01*
X3352550Y1152761D01*
Y1152856D01*
X3352360Y1152951D01*
X3351884Y1153522D01*
X3351218Y1154379D01*
X3350456Y1155617D01*
X3349599Y1157140D01*
X3348933Y1159044D01*
X3348457Y1161138D01*
X3348362Y1162376D01*
X3348266Y1163614D01*
Y1163709D01*
Y1163994D01*
Y1164375D01*
X3348362Y1164946D01*
X3348457Y1165518D01*
X3348552Y1166279D01*
X3348933Y1167993D01*
X3349504Y1169992D01*
X3350456Y1171896D01*
X3351122Y1172943D01*
X3351789Y1173800D01*
X3352550Y1174752D01*
X3353502Y1175514D01*
X3353598Y1175609D01*
X3353788Y1175704D01*
X3354074Y1175894D01*
X3354454Y1176180D01*
X3355026Y1176466D01*
X3355692Y1176846D01*
X3356454Y1177227D01*
X3357406Y1177608D01*
X3358453Y1177989D01*
X3359595Y1178274D01*
X3360833Y1178655D01*
X3362261Y1178941D01*
X3363689Y1179226D01*
X3365307Y1179417D01*
X3367116Y1179607D01*
X3379397D01*
Y1180750D01*
Y1180845D01*
Y1181035D01*
Y1181321D01*
X3379302Y1181702D01*
X3379206Y1182654D01*
X3379016Y1183891D01*
X3378635Y1185224D01*
X3378159Y1186557D01*
X3377398Y1187890D01*
X3376446Y1188937D01*
X3376350Y1189032D01*
X3375874Y1189318D01*
X3375208Y1189794D01*
X3374256Y1190270D01*
X3373018Y1190650D01*
X3371495Y1191126D01*
X3369686Y1191412D01*
X3367497Y1191507D01*
X3366830D01*
X3366069Y1191412D01*
X3365022D01*
X3363784Y1191222D01*
X3362451Y1191031D01*
X3361023Y1190746D01*
X3359500Y1190365D01*
X3359310Y1190270D01*
X3358834Y1190174D01*
X3358072Y1189889D01*
X3357025Y1189508D01*
X3355882Y1189032D01*
X3354550Y1188461D01*
X3353122Y1187794D01*
X3351694Y1187033D01*
Y1194744D01*
X3351789D01*
X3351884Y1194839D01*
X3352455Y1195030D01*
X3353217Y1195315D01*
X3354264Y1195696D01*
X3355502Y1196077D01*
X3356834Y1196458D01*
X3359786Y1197219D01*
X3359976D01*
X3360452Y1197314D01*
X3361214Y1197505D01*
X3362261Y1197695D01*
X3363403Y1197790D01*
X3364736Y1197981D01*
X3367497Y1198076D01*
X3368449D01*
X3369591Y1197981D01*
D02*
G37*
G36*
X3308473Y1157140D02*
X3338746D01*
Y1150000D01*
X3300000D01*
Y1212642D01*
X3308473D01*
Y1157140D01*
D02*
G37*
G36*
X3888336Y1197981D02*
X3889098Y1197886D01*
X3889954Y1197790D01*
X3890906Y1197600D01*
X3891954Y1197314D01*
X3894238Y1196553D01*
X3895476Y1196077D01*
X3896618Y1195506D01*
X3897761Y1194839D01*
X3898903Y1193982D01*
X3899950Y1193030D01*
X3900998Y1191983D01*
X3901093Y1191888D01*
X3901188Y1191698D01*
X3901474Y1191317D01*
X3901854Y1190841D01*
X3902235Y1190270D01*
X3902616Y1189508D01*
X3903092Y1188651D01*
X3903663Y1187604D01*
X3904139Y1186462D01*
X3904615Y1185224D01*
X3904996Y1183891D01*
X3905377Y1182368D01*
X3905758Y1180750D01*
X3906043Y1179036D01*
X3906138Y1177227D01*
X3906234Y1175323D01*
Y1171610D01*
X3872723D01*
Y1171325D01*
Y1171230D01*
Y1170944D01*
Y1170563D01*
X3872818Y1170087D01*
Y1169421D01*
X3872914Y1168659D01*
X3873199Y1166946D01*
X3873675Y1165042D01*
X3874437Y1163042D01*
X3875389Y1161138D01*
X3876722Y1159425D01*
X3876817D01*
X3876912Y1159234D01*
X3877483Y1158758D01*
X3878435Y1158092D01*
X3879673Y1157426D01*
X3881291Y1156664D01*
X3883195Y1155998D01*
X3885480Y1155522D01*
X3886718Y1155426D01*
X3888050Y1155331D01*
X3888717D01*
X3889478Y1155426D01*
X3890430Y1155522D01*
X3891573Y1155617D01*
X3892906Y1155807D01*
X3894238Y1156093D01*
X3895762Y1156474D01*
X3895952Y1156569D01*
X3896428Y1156664D01*
X3897285Y1156950D01*
X3898332Y1157330D01*
X3899665Y1157902D01*
X3901093Y1158473D01*
X3902711Y1159234D01*
X3904425Y1160091D01*
Y1152380D01*
X3904330D01*
X3904234Y1152285D01*
X3903663Y1152094D01*
X3902806Y1151809D01*
X3901664Y1151333D01*
X3900331Y1150952D01*
X3898903Y1150476D01*
X3895857Y1149714D01*
X3895666D01*
X3895190Y1149524D01*
X3894334Y1149429D01*
X3893382Y1149238D01*
X3892144Y1149048D01*
X3890811Y1148953D01*
X3887955Y1148762D01*
X3886908D01*
X3886146Y1148858D01*
X3885194Y1148953D01*
X3884147Y1149143D01*
X3883005Y1149334D01*
X3881672Y1149619D01*
X3879006Y1150381D01*
X3877578Y1150857D01*
X3876150Y1151523D01*
X3874722Y1152285D01*
X3873294Y1153142D01*
X3872057Y1154094D01*
X3870819Y1155236D01*
X3870724Y1155331D01*
X3870534Y1155522D01*
X3870248Y1155902D01*
X3869867Y1156474D01*
X3869391Y1157140D01*
X3868915Y1157902D01*
X3868344Y1158854D01*
X3867773Y1159996D01*
X3867202Y1161234D01*
X3866630Y1162566D01*
X3866154Y1164090D01*
X3865678Y1165708D01*
X3865298Y1167422D01*
X3865012Y1169326D01*
X3864822Y1171325D01*
X3864726Y1173419D01*
Y1173514D01*
Y1173895D01*
Y1174466D01*
X3864822Y1175323D01*
X3864917Y1176275D01*
X3865012Y1177322D01*
X3865202Y1178560D01*
X3865488Y1179893D01*
X3866154Y1182749D01*
X3866726Y1184177D01*
X3867297Y1185700D01*
X3867963Y1187223D01*
X3868725Y1188651D01*
X3869677Y1189984D01*
X3870724Y1191317D01*
X3870819Y1191412D01*
X3871010Y1191602D01*
X3871390Y1191983D01*
X3871866Y1192364D01*
X3872438Y1192840D01*
X3873199Y1193411D01*
X3874056Y1194078D01*
X3875008Y1194744D01*
X3876055Y1195315D01*
X3877293Y1195982D01*
X3878626Y1196553D01*
X3880054Y1197029D01*
X3881577Y1197410D01*
X3883195Y1197790D01*
X3885004Y1197981D01*
X3886813Y1198076D01*
X3887670D01*
X3888336Y1197981D01*
D02*
G37*
G36*
X3628440D02*
X3629297Y1197886D01*
X3630154Y1197695D01*
X3631201Y1197505D01*
X3632343Y1197314D01*
X3634818Y1196553D01*
X3636056Y1195982D01*
X3637294Y1195410D01*
X3638436Y1194649D01*
X3639674Y1193792D01*
X3640721Y1192840D01*
X3641768Y1191698D01*
X3641863Y1191602D01*
X3641958Y1191412D01*
X3642244Y1191031D01*
X3642625Y1190555D01*
X3643006Y1189889D01*
X3643386Y1189032D01*
X3643862Y1188080D01*
X3644434Y1187033D01*
X3644910Y1185795D01*
X3645386Y1184462D01*
X3645766Y1182939D01*
X3646147Y1181321D01*
X3646528Y1179512D01*
X3646814Y1177608D01*
X3646909Y1175609D01*
X3647004Y1173419D01*
Y1173324D01*
Y1172848D01*
Y1172277D01*
X3646909Y1171420D01*
X3646814Y1170468D01*
X3646718Y1169230D01*
X3646528Y1167993D01*
X3646338Y1166565D01*
X3645766Y1163614D01*
X3644814Y1160567D01*
X3644243Y1159044D01*
X3643482Y1157616D01*
X3642720Y1156283D01*
X3641768Y1155046D01*
X3641673Y1154950D01*
X3641578Y1154760D01*
X3641197Y1154474D01*
X3640816Y1154094D01*
X3640245Y1153618D01*
X3639674Y1153046D01*
X3638817Y1152475D01*
X3637960Y1151904D01*
X3637008Y1151333D01*
X3635866Y1150762D01*
X3634628Y1150190D01*
X3633295Y1149714D01*
X3631867Y1149334D01*
X3630249Y1149048D01*
X3628630Y1148858D01*
X3626822Y1148762D01*
X3625870D01*
X3625203Y1148858D01*
X3624442Y1148953D01*
X3623490Y1149143D01*
X3622442Y1149334D01*
X3621300Y1149524D01*
X3618920Y1150286D01*
X3617682Y1150762D01*
X3616445Y1151428D01*
X3615207Y1152094D01*
X3614065Y1152951D01*
X3613018Y1153903D01*
X3611970Y1155046D01*
X3611875Y1155141D01*
X3611780Y1155331D01*
X3611494Y1155712D01*
X3611209Y1156188D01*
X3610828Y1156854D01*
X3610352Y1157711D01*
X3609876Y1158663D01*
X3609400Y1159710D01*
X3608924Y1160948D01*
X3608448Y1162281D01*
X3608067Y1163804D01*
X3607591Y1165422D01*
X3607306Y1167231D01*
X3607020Y1169135D01*
X3606925Y1171230D01*
X3606830Y1173419D01*
Y1173514D01*
Y1173990D01*
Y1174562D01*
X3606925Y1175418D01*
X3607020Y1176370D01*
X3607115Y1177513D01*
X3607306Y1178750D01*
X3607496Y1180178D01*
X3608067Y1183130D01*
X3609019Y1186176D01*
X3609590Y1187604D01*
X3610257Y1189127D01*
X3611114Y1190460D01*
X3611970Y1191698D01*
X3612066Y1191793D01*
X3612256Y1191983D01*
X3612542Y1192269D01*
X3612922Y1192745D01*
X3613494Y1193221D01*
X3614065Y1193697D01*
X3614922Y1194268D01*
X3615778Y1194934D01*
X3616730Y1195506D01*
X3617873Y1196077D01*
X3619110Y1196553D01*
X3620443Y1197124D01*
X3621871Y1197505D01*
X3623394Y1197790D01*
X3625013Y1197981D01*
X3626822Y1198076D01*
X3627774D01*
X3628440Y1197981D01*
D02*
G37*
G36*
X3581506Y1313594D02*
X3582363Y1313498D01*
X3583410Y1313403D01*
X3585695Y1313022D01*
X3585886D01*
X3586266Y1312927D01*
X3586838Y1312737D01*
X3587599Y1312546D01*
X3588551Y1312261D01*
X3589598Y1311975D01*
X3591788Y1311214D01*
Y1303407D01*
X3591693Y1303502D01*
X3591312Y1303693D01*
X3590741Y1303978D01*
X3590074Y1304264D01*
X3589218Y1304645D01*
X3588266Y1305026D01*
X3586076Y1305692D01*
X3585981D01*
X3585600Y1305787D01*
X3584934Y1305978D01*
X3584172Y1306168D01*
X3583315Y1306263D01*
X3582268Y1306454D01*
X3579888Y1306549D01*
X3579126D01*
X3578555Y1306454D01*
X3577889Y1306358D01*
X3577127Y1306263D01*
X3575414Y1305787D01*
X3573414Y1305026D01*
X3572367Y1304550D01*
X3571415Y1303978D01*
X3570368Y1303312D01*
X3569416Y1302455D01*
X3568559Y1301503D01*
X3567702Y1300456D01*
Y1300361D01*
X3567512Y1300170D01*
X3567322Y1299790D01*
X3567036Y1299314D01*
X3566750Y1298647D01*
X3566370Y1297886D01*
X3566084Y1297029D01*
X3565703Y1295982D01*
X3565322Y1294744D01*
X3564942Y1293411D01*
X3564561Y1291983D01*
X3564275Y1290365D01*
X3563990Y1288556D01*
X3563799Y1286747D01*
X3563704Y1284748D01*
X3563613Y1282658D01*
X3563704Y1282749D01*
X3563990Y1283225D01*
X3564466Y1283986D01*
X3565037Y1284938D01*
X3565798Y1285986D01*
X3566750Y1287033D01*
X3567893Y1288080D01*
X3569130Y1289032D01*
X3569321Y1289127D01*
X3569797Y1289413D01*
X3570558Y1289794D01*
X3571510Y1290174D01*
X3572748Y1290555D01*
X3574081Y1290936D01*
X3575699Y1291222D01*
X3577318Y1291317D01*
X3578174D01*
X3578841Y1291222D01*
X3579602Y1291126D01*
X3580459Y1291031D01*
X3581411Y1290841D01*
X3582458Y1290650D01*
X3584743Y1289984D01*
X3585886Y1289508D01*
X3587028Y1288937D01*
X3588170Y1288270D01*
X3589313Y1287604D01*
X3590360Y1286652D01*
X3591312Y1285700D01*
X3591407Y1285605D01*
X3591502Y1285414D01*
X3591788Y1285129D01*
X3592074Y1284653D01*
X3592454Y1284082D01*
X3592930Y1283415D01*
X3593406Y1282558D01*
X3593882Y1281702D01*
X3594263Y1280654D01*
X3594739Y1279417D01*
X3595215Y1278179D01*
X3595596Y1276751D01*
X3595882Y1275228D01*
X3596167Y1273610D01*
X3596262Y1271896D01*
X3596358Y1269992D01*
Y1269897D01*
Y1269516D01*
Y1269040D01*
X3596262Y1268374D01*
X3596167Y1267517D01*
X3596072Y1266470D01*
X3595977Y1265422D01*
X3595691Y1264280D01*
X3595120Y1261710D01*
X3594168Y1259139D01*
X3593597Y1257806D01*
X3592930Y1256569D01*
X3592169Y1255426D01*
X3591217Y1254284D01*
X3591122Y1254189D01*
X3591026Y1254094D01*
X3590646Y1253808D01*
X3590265Y1253427D01*
X3589789Y1253046D01*
X3589122Y1252570D01*
X3588361Y1251999D01*
X3587504Y1251523D01*
X3586552Y1251047D01*
X3585410Y1250476D01*
X3584267Y1250000D01*
X3583030Y1249619D01*
X3581602Y1249238D01*
X3580078Y1249048D01*
X3578555Y1248858D01*
X3576842Y1248762D01*
X3576366D01*
X3575794Y1248858D01*
X3575033D01*
X3574176Y1249048D01*
X3573129Y1249143D01*
X3571986Y1249429D01*
X3570749Y1249714D01*
X3569416Y1250190D01*
X3568083Y1250666D01*
X3566750Y1251333D01*
X3565513Y1252094D01*
X3564180Y1252951D01*
X3562942Y1253998D01*
X3561895Y1255236D01*
X3560848Y1256569D01*
X3560753Y1256664D01*
X3560658Y1256950D01*
X3560372Y1257426D01*
X3560086Y1258092D01*
X3559706Y1258854D01*
X3559230Y1259901D01*
X3558754Y1261138D01*
X3558373Y1262566D01*
X3557897Y1264185D01*
X3557421Y1265994D01*
X3556945Y1267993D01*
X3556564Y1270182D01*
X3556278Y1272658D01*
X3555993Y1275228D01*
X3555898Y1278084D01*
X3555802Y1281130D01*
Y1281321D01*
Y1281797D01*
Y1282654D01*
X3555898Y1283701D01*
X3555993Y1285034D01*
X3556088Y1286557D01*
X3556278Y1288270D01*
X3556564Y1290079D01*
X3556850Y1292078D01*
X3557326Y1293982D01*
X3557802Y1296077D01*
X3558373Y1298076D01*
X3559039Y1299980D01*
X3559896Y1301884D01*
X3560848Y1303693D01*
X3561895Y1305311D01*
X3561990Y1305406D01*
X3562181Y1305692D01*
X3562562Y1306073D01*
X3563038Y1306644D01*
X3563704Y1307215D01*
X3564466Y1307977D01*
X3565322Y1308738D01*
X3566370Y1309500D01*
X3567607Y1310262D01*
X3568845Y1311023D01*
X3570368Y1311785D01*
X3571891Y1312356D01*
X3573605Y1312927D01*
X3575414Y1313308D01*
X3577413Y1313594D01*
X3579507Y1313689D01*
X3580650D01*
X3581506Y1313594D01*
D02*
G37*
G36*
X3842069D02*
X3843116Y1313498D01*
X3844354Y1313308D01*
X3846924Y1312832D01*
X3847114D01*
X3847495Y1312642D01*
X3848162Y1312451D01*
X3849018Y1312166D01*
X3850066Y1311785D01*
X3851208Y1311404D01*
X3853588Y1310262D01*
Y1301598D01*
X3853493Y1301694D01*
X3853017Y1301979D01*
X3852446Y1302455D01*
X3851589Y1303026D01*
X3850542Y1303598D01*
X3849399Y1304264D01*
X3848162Y1304835D01*
X3846829Y1305406D01*
X3846638Y1305502D01*
X3846258Y1305597D01*
X3845496Y1305882D01*
X3844639Y1306168D01*
X3843497Y1306358D01*
X3842354Y1306644D01*
X3841022Y1306739D01*
X3839689Y1306834D01*
X3838927D01*
X3838356Y1306739D01*
X3837690Y1306644D01*
X3836928Y1306454D01*
X3835119Y1306073D01*
X3833120Y1305311D01*
X3832073Y1304740D01*
X3831026Y1304169D01*
X3830074Y1303407D01*
X3829122Y1302550D01*
X3828265Y1301598D01*
X3827408Y1300456D01*
Y1300361D01*
X3827218Y1300170D01*
X3827027Y1299790D01*
X3826742Y1299218D01*
X3826456Y1298552D01*
X3826075Y1297790D01*
X3825790Y1296743D01*
X3825409Y1295696D01*
X3825028Y1294363D01*
X3824647Y1292935D01*
X3824266Y1291317D01*
X3823981Y1289603D01*
X3823695Y1287699D01*
X3823505Y1285700D01*
X3823410Y1283510D01*
X3823314Y1281130D01*
Y1280940D01*
Y1280559D01*
Y1279893D01*
X3823410Y1279036D01*
Y1277989D01*
X3823505Y1276751D01*
X3823695Y1275418D01*
X3823790Y1273895D01*
X3824362Y1270754D01*
X3825028Y1267612D01*
X3826075Y1264566D01*
X3826646Y1263138D01*
X3827408Y1261900D01*
X3827503Y1261805D01*
X3827598Y1261614D01*
X3827884Y1261329D01*
X3828170Y1260948D01*
X3828646Y1260472D01*
X3829122Y1259901D01*
X3829788Y1259330D01*
X3830454Y1258758D01*
X3831311Y1258187D01*
X3832168Y1257616D01*
X3833215Y1257045D01*
X3834358Y1256569D01*
X3835500Y1256188D01*
X3836833Y1255902D01*
X3838166Y1255712D01*
X3839689Y1255617D01*
X3840355D01*
X3841022Y1255712D01*
X3841974Y1255807D01*
X3843116Y1255902D01*
X3844354Y1256188D01*
X3845591Y1256474D01*
X3846924Y1256950D01*
X3847114Y1257045D01*
X3847495Y1257235D01*
X3848162Y1257521D01*
X3849114Y1257902D01*
X3850066Y1258473D01*
X3851208Y1259139D01*
X3852446Y1259996D01*
X3853588Y1260853D01*
Y1252190D01*
X3853493Y1252094D01*
X3853017Y1251904D01*
X3852350Y1251618D01*
X3851589Y1251238D01*
X3850542Y1250857D01*
X3849399Y1250381D01*
X3846924Y1249619D01*
X3846734D01*
X3846353Y1249524D01*
X3845686Y1249334D01*
X3844734Y1249238D01*
X3843687Y1249048D01*
X3842450Y1248858D01*
X3841117Y1248762D01*
X3839118D01*
X3838546Y1248858D01*
X3837690D01*
X3836738Y1249048D01*
X3835500Y1249238D01*
X3834262Y1249429D01*
X3832834Y1249810D01*
X3831406Y1250286D01*
X3829883Y1250857D01*
X3828360Y1251523D01*
X3826742Y1252380D01*
X3825218Y1253332D01*
X3823790Y1254474D01*
X3822362Y1255712D01*
X3821030Y1257235D01*
X3820934Y1257330D01*
X3820744Y1257616D01*
X3820458Y1258092D01*
X3819982Y1258758D01*
X3819506Y1259710D01*
X3818935Y1260758D01*
X3818364Y1261995D01*
X3817793Y1263423D01*
X3817126Y1265042D01*
X3816555Y1266755D01*
X3815984Y1268754D01*
X3815508Y1270849D01*
X3815032Y1273229D01*
X3814746Y1275704D01*
X3814556Y1278370D01*
X3814461Y1281130D01*
Y1281321D01*
Y1281797D01*
Y1282558D01*
X3814556Y1283701D01*
X3814651Y1284938D01*
X3814842Y1286462D01*
X3815032Y1288080D01*
X3815318Y1289889D01*
X3815603Y1291793D01*
X3816079Y1293697D01*
X3816650Y1295696D01*
X3817317Y1297695D01*
X3818078Y1299599D01*
X3818935Y1301503D01*
X3819982Y1303312D01*
X3821125Y1305026D01*
X3821220Y1305121D01*
X3821410Y1305406D01*
X3821791Y1305787D01*
X3822362Y1306358D01*
X3823029Y1307025D01*
X3823886Y1307786D01*
X3824838Y1308548D01*
X3825980Y1309405D01*
X3827218Y1310166D01*
X3828550Y1310928D01*
X3830074Y1311690D01*
X3831787Y1312356D01*
X3833596Y1312927D01*
X3835500Y1313308D01*
X3837499Y1313594D01*
X3839689Y1313689D01*
X3841117D01*
X3842069Y1313594D01*
D02*
G37*
G36*
X3477834Y1281892D02*
X3467266D01*
Y1294554D01*
X3477834D01*
Y1281892D01*
D02*
G37*
G36*
X3742014Y1270087D02*
X3720213D01*
Y1276942D01*
X3742014D01*
Y1270087D01*
D02*
G37*
G36*
X3440991Y1250000D02*
X3430234D01*
X3409099Y1301503D01*
Y1250000D01*
X3400912D01*
Y1312642D01*
X3411574D01*
X3432804Y1261043D01*
Y1312642D01*
X3440991D01*
Y1250000D01*
D02*
G37*
G36*
X4253142D02*
X4242861D01*
X4224582Y1312642D01*
X4233341D01*
X4248002Y1257045D01*
X4262662Y1312642D01*
X4271516D01*
X4253142Y1250000D01*
D02*
G37*
G36*
X4040561Y1313594D02*
X4041322D01*
X4042179Y1313403D01*
X4043226Y1313308D01*
X4044274Y1313118D01*
X4046654Y1312546D01*
X4049129Y1311690D01*
X4050271Y1311214D01*
X4051509Y1310547D01*
X4052651Y1309881D01*
X4053698Y1309024D01*
X4053794Y1308929D01*
X4053984Y1308834D01*
X4054174Y1308548D01*
X4054555Y1308167D01*
X4054936Y1307691D01*
X4055412Y1307215D01*
X4056459Y1305787D01*
X4057506Y1304074D01*
X4058363Y1301979D01*
X4058744Y1300837D01*
X4059030Y1299599D01*
X4059125Y1298266D01*
X4059220Y1296934D01*
Y1296838D01*
Y1296743D01*
Y1296458D01*
Y1296077D01*
X4059030Y1295125D01*
X4058839Y1293887D01*
X4058458Y1292554D01*
X4057982Y1291126D01*
X4057221Y1289698D01*
X4056269Y1288270D01*
X4056174Y1288080D01*
X4055698Y1287699D01*
X4055126Y1287128D01*
X4054174Y1286366D01*
X4053032Y1285605D01*
X4051604Y1284748D01*
X4049890Y1284082D01*
X4047986Y1283415D01*
X4048082D01*
X4048272Y1283320D01*
X4048558Y1283225D01*
X4049034Y1283130D01*
X4050081Y1282654D01*
X4051414Y1282082D01*
X4052937Y1281321D01*
X4054460Y1280274D01*
X4055983Y1279036D01*
X4057316Y1277608D01*
X4057506Y1277418D01*
X4057887Y1276846D01*
X4058363Y1275990D01*
X4059030Y1274752D01*
X4059601Y1273324D01*
X4060172Y1271515D01*
X4060553Y1269516D01*
X4060648Y1267231D01*
Y1267136D01*
Y1266850D01*
Y1266374D01*
X4060553Y1265803D01*
X4060458Y1265042D01*
X4060362Y1264185D01*
X4059886Y1262281D01*
X4059220Y1260091D01*
X4058744Y1258949D01*
X4058173Y1257806D01*
X4057506Y1256759D01*
X4056650Y1255617D01*
X4055793Y1254570D01*
X4054746Y1253618D01*
X4054650Y1253522D01*
X4054460Y1253427D01*
X4054174Y1253142D01*
X4053698Y1252856D01*
X4053127Y1252475D01*
X4052366Y1252094D01*
X4051509Y1251618D01*
X4050557Y1251238D01*
X4049510Y1250762D01*
X4048272Y1250286D01*
X4046939Y1249905D01*
X4045511Y1249524D01*
X4043988Y1249238D01*
X4042370Y1248953D01*
X4040656Y1248858D01*
X4038752Y1248762D01*
X4037134D01*
X4035991Y1248858D01*
X4034658Y1248953D01*
X4033135Y1249048D01*
X4031612Y1249238D01*
X4029898Y1249524D01*
X4029708D01*
X4029137Y1249714D01*
X4028280Y1249810D01*
X4027138Y1250095D01*
X4025805Y1250476D01*
X4024282Y1250857D01*
X4021140Y1251904D01*
Y1260377D01*
X4021235D01*
X4021330Y1260282D01*
X4021902Y1259996D01*
X4022663Y1259615D01*
X4023806Y1259139D01*
X4025043Y1258568D01*
X4026471Y1257997D01*
X4027994Y1257426D01*
X4029518Y1256950D01*
X4029708D01*
X4030279Y1256759D01*
X4031041Y1256664D01*
X4032088Y1256474D01*
X4033421Y1256283D01*
X4034754Y1256093D01*
X4036277Y1255998D01*
X4037800Y1255902D01*
X4038466D01*
X4038942Y1255998D01*
X4039514D01*
X4040180Y1256093D01*
X4041703Y1256283D01*
X4043417Y1256664D01*
X4045226Y1257235D01*
X4046939Y1257997D01*
X4048462Y1259044D01*
X4048653Y1259234D01*
X4049034Y1259615D01*
X4049700Y1260377D01*
X4050366Y1261329D01*
X4051033Y1262662D01*
X4051699Y1264185D01*
X4052080Y1265994D01*
X4052270Y1268088D01*
Y1268183D01*
Y1268374D01*
Y1268659D01*
X4052175Y1268945D01*
X4052080Y1269992D01*
X4051794Y1271230D01*
X4051318Y1272562D01*
X4050652Y1273990D01*
X4049700Y1275418D01*
X4048462Y1276751D01*
X4048272Y1276846D01*
X4047796Y1277227D01*
X4046939Y1277798D01*
X4045797Y1278370D01*
X4044369Y1278941D01*
X4042655Y1279512D01*
X4040656Y1279893D01*
X4038371Y1279988D01*
X4031993D01*
Y1286938D01*
X4039323D01*
X4040370Y1287033D01*
X4041703Y1287223D01*
X4043226Y1287509D01*
X4044750Y1287985D01*
X4046178Y1288556D01*
X4047510Y1289413D01*
X4047701Y1289508D01*
X4048082Y1289889D01*
X4048558Y1290460D01*
X4049224Y1291317D01*
X4049795Y1292269D01*
X4050366Y1293506D01*
X4050747Y1294934D01*
X4050842Y1296553D01*
Y1296648D01*
Y1296743D01*
Y1297314D01*
X4050652Y1298171D01*
X4050462Y1299218D01*
X4050081Y1300456D01*
X4049605Y1301694D01*
X4048843Y1302836D01*
X4047796Y1303883D01*
X4047701Y1303978D01*
X4047225Y1304264D01*
X4046558Y1304740D01*
X4045606Y1305216D01*
X4044369Y1305692D01*
X4042846Y1306168D01*
X4041037Y1306454D01*
X4039038Y1306549D01*
X4037610D01*
X4036658Y1306454D01*
X4035515Y1306358D01*
X4034182Y1306168D01*
X4032850Y1305978D01*
X4031326Y1305692D01*
X4031136D01*
X4030660Y1305502D01*
X4029803Y1305311D01*
X4028756Y1305026D01*
X4027518Y1304740D01*
X4026186Y1304264D01*
X4024662Y1303788D01*
X4023044Y1303217D01*
Y1311023D01*
X4023139D01*
X4023234Y1311118D01*
X4023520D01*
X4023901Y1311214D01*
X4024853Y1311499D01*
X4026090Y1311785D01*
X4027423Y1312070D01*
X4028946Y1312451D01*
X4030470Y1312737D01*
X4031993Y1313022D01*
X4032183D01*
X4032659Y1313118D01*
X4033421Y1313213D01*
X4034373Y1313403D01*
X4035515Y1313498D01*
X4036658Y1313594D01*
X4039038Y1313689D01*
X4039894D01*
X4040561Y1313594D01*
D02*
G37*
G36*
X4364812Y1271801D02*
X4373190D01*
Y1264946D01*
X4364812D01*
Y1250000D01*
X4356339D01*
Y1264946D01*
X4329874D01*
Y1272943D01*
X4355006Y1312642D01*
X4364812D01*
Y1271801D01*
D02*
G37*
G36*
X4216014Y1305502D02*
X4187264D01*
Y1286938D01*
X4214682D01*
Y1279798D01*
X4187264D01*
Y1257140D01*
X4216776D01*
Y1250000D01*
X4178791D01*
Y1312642D01*
X4216014D01*
Y1305502D01*
D02*
G37*
G36*
X4143853Y1312546D02*
X4144710D01*
X4145757Y1312356D01*
X4146804Y1312261D01*
X4148042Y1312070D01*
X4150612Y1311499D01*
X4153182Y1310642D01*
X4154515Y1310166D01*
X4155753Y1309500D01*
X4156990Y1308834D01*
X4158038Y1307977D01*
X4158133Y1307882D01*
X4158323Y1307786D01*
X4158514Y1307501D01*
X4158894Y1307120D01*
X4159275Y1306644D01*
X4159751Y1306073D01*
X4160322Y1305311D01*
X4160798Y1304550D01*
X4161274Y1303598D01*
X4161846Y1302646D01*
X4162322Y1301503D01*
X4162702Y1300266D01*
X4163083Y1299028D01*
X4163369Y1297600D01*
X4163464Y1296077D01*
X4163559Y1294458D01*
Y1294363D01*
Y1294173D01*
Y1293887D01*
X4163464Y1293411D01*
Y1292935D01*
X4163369Y1292269D01*
X4163178Y1290841D01*
X4162702Y1289222D01*
X4162131Y1287509D01*
X4161274Y1285890D01*
X4160132Y1284272D01*
X4159942Y1284082D01*
X4159466Y1283606D01*
X4158704Y1283034D01*
X4157657Y1282178D01*
X4156324Y1281416D01*
X4154706Y1280654D01*
X4152802Y1279988D01*
X4150612Y1279512D01*
X4150802D01*
X4151183Y1279322D01*
X4151754Y1279131D01*
X4152516Y1278750D01*
X4153373Y1278370D01*
X4154325Y1277798D01*
X4155277Y1277132D01*
X4156134Y1276275D01*
X4156229Y1276180D01*
X4156610Y1275799D01*
X4157086Y1275228D01*
X4157752Y1274276D01*
X4158609Y1273038D01*
X4159085Y1272277D01*
X4159561Y1271420D01*
X4160132Y1270468D01*
X4160703Y1269421D01*
X4161274Y1268278D01*
X4161941Y1267041D01*
X4170509Y1250000D01*
X4161370D01*
X4153849Y1265803D01*
Y1265898D01*
X4153754Y1266089D01*
X4153563Y1266470D01*
X4153278Y1266850D01*
X4152706Y1268088D01*
X4151945Y1269421D01*
X4150993Y1270849D01*
X4150041Y1272277D01*
X4148994Y1273514D01*
X4148518Y1274086D01*
X4148042Y1274466D01*
X4147946Y1274562D01*
X4147566Y1274752D01*
X4146994Y1275133D01*
X4146233Y1275514D01*
X4145281Y1275799D01*
X4144138Y1276180D01*
X4142806Y1276370D01*
X4141378Y1276466D01*
X4133286D01*
Y1250000D01*
X4124813D01*
Y1312642D01*
X4143091D01*
X4143853Y1312546D01*
D02*
G37*
G36*
X3957261Y1309024D02*
X3934794Y1250000D01*
X3926035D01*
X3947741Y1305502D01*
X3917848D01*
Y1312642D01*
X3957261D01*
Y1309024D01*
D02*
G37*
G36*
X3885385Y1313594D02*
X3886146Y1313498D01*
X3887098Y1313403D01*
X3888050Y1313308D01*
X3889193Y1313118D01*
X3891573Y1312451D01*
X3894048Y1311594D01*
X3895286Y1311023D01*
X3896428Y1310357D01*
X3897666Y1309595D01*
X3898713Y1308738D01*
X3898808Y1308643D01*
X3898998Y1308548D01*
X3899189Y1308262D01*
X3899570Y1307882D01*
X3900046Y1307406D01*
X3900522Y1306834D01*
X3900998Y1306073D01*
X3901569Y1305311D01*
X3902521Y1303502D01*
X3903473Y1301313D01*
X3903854Y1300075D01*
X3904044Y1298838D01*
X3904234Y1297410D01*
X3904330Y1295982D01*
Y1295791D01*
Y1295315D01*
X3904234Y1294458D01*
X3904139Y1293506D01*
X3903854Y1292269D01*
X3903568Y1290841D01*
X3903092Y1289413D01*
X3902426Y1287890D01*
X3902330Y1287699D01*
X3902045Y1287223D01*
X3901569Y1286366D01*
X3900998Y1285319D01*
X3900141Y1283986D01*
X3899094Y1282463D01*
X3897761Y1280845D01*
X3896333Y1279036D01*
X3896238Y1278941D01*
X3895952Y1278560D01*
X3895381Y1277894D01*
X3894619Y1277037D01*
X3893667Y1275990D01*
X3892525Y1274657D01*
X3891192Y1273134D01*
X3889574Y1271420D01*
X3889478Y1271325D01*
X3889383Y1271230D01*
X3889098Y1270944D01*
X3888717Y1270563D01*
X3888241Y1269992D01*
X3887670Y1269421D01*
X3887003Y1268659D01*
X3886242Y1267898D01*
X3885290Y1266946D01*
X3884242Y1265803D01*
X3883195Y1264661D01*
X3881958Y1263423D01*
X3880625Y1261995D01*
X3879197Y1260472D01*
X3877578Y1258854D01*
X3875960Y1257140D01*
X3904710D01*
Y1250000D01*
X3866726D01*
Y1257140D01*
X3866821Y1257235D01*
X3867106Y1257521D01*
X3867487Y1257902D01*
X3868058Y1258568D01*
X3868725Y1259234D01*
X3869486Y1260091D01*
X3870343Y1261043D01*
X3871390Y1261995D01*
X3873485Y1264280D01*
X3875770Y1266660D01*
X3878054Y1269230D01*
X3880339Y1271610D01*
X3880434Y1271706D01*
X3880625Y1271896D01*
X3880910Y1272182D01*
X3881291Y1272658D01*
X3882338Y1273800D01*
X3883576Y1275133D01*
X3884909Y1276561D01*
X3886242Y1278084D01*
X3887479Y1279417D01*
X3888526Y1280559D01*
X3888622Y1280654D01*
X3888717Y1280750D01*
X3888907Y1281035D01*
X3889193Y1281416D01*
X3889954Y1282368D01*
X3890811Y1283510D01*
X3891763Y1284843D01*
X3892620Y1286271D01*
X3893477Y1287604D01*
X3894143Y1288842D01*
X3894238Y1289032D01*
X3894429Y1289413D01*
X3894619Y1289984D01*
X3894905Y1290841D01*
X3895190Y1291793D01*
X3895476Y1292935D01*
X3895571Y1294078D01*
X3895666Y1295315D01*
Y1295410D01*
Y1295506D01*
Y1295791D01*
Y1296172D01*
X3895476Y1297124D01*
X3895286Y1298266D01*
X3894905Y1299599D01*
X3894334Y1301027D01*
X3893572Y1302265D01*
X3892525Y1303502D01*
X3892430Y1303598D01*
X3891954Y1303978D01*
X3891287Y1304454D01*
X3890335Y1305026D01*
X3889098Y1305597D01*
X3887670Y1306073D01*
X3885956Y1306454D01*
X3884052Y1306549D01*
X3883386D01*
X3882624Y1306454D01*
X3881672Y1306358D01*
X3880434Y1306168D01*
X3879102Y1305978D01*
X3877578Y1305597D01*
X3876055Y1305121D01*
X3875865Y1305026D01*
X3875294Y1304835D01*
X3874532Y1304550D01*
X3873390Y1304074D01*
X3872057Y1303502D01*
X3870534Y1302741D01*
X3868915Y1301884D01*
X3867202Y1300932D01*
Y1309500D01*
X3867297D01*
X3867392Y1309595D01*
X3867963Y1309786D01*
X3868820Y1310166D01*
X3869867Y1310642D01*
X3871200Y1311118D01*
X3872628Y1311594D01*
X3875674Y1312546D01*
X3875770D01*
X3875865Y1312642D01*
X3876436Y1312737D01*
X3877198Y1312927D01*
X3878245Y1313118D01*
X3879482Y1313308D01*
X3880910Y1313498D01*
X3882338Y1313689D01*
X3884718D01*
X3885385Y1313594D01*
D02*
G37*
G36*
X3776666Y1312546D02*
X3777714D01*
X3778856Y1312451D01*
X3780284Y1312261D01*
X3781712Y1311975D01*
X3783330Y1311690D01*
X3785044Y1311309D01*
X3786853Y1310738D01*
X3788566Y1310166D01*
X3790280Y1309405D01*
X3791994Y1308548D01*
X3793612Y1307501D01*
X3795135Y1306263D01*
X3796468Y1304930D01*
X3796563Y1304835D01*
X3796754Y1304550D01*
X3797134Y1304169D01*
X3797515Y1303502D01*
X3798086Y1302646D01*
X3798658Y1301694D01*
X3799229Y1300456D01*
X3799895Y1299123D01*
X3800562Y1297505D01*
X3801133Y1295791D01*
X3801704Y1293887D01*
X3802275Y1291698D01*
X3802656Y1289413D01*
X3803037Y1286842D01*
X3803227Y1284177D01*
X3803322Y1281226D01*
Y1281035D01*
Y1280559D01*
Y1279702D01*
X3803227Y1278560D01*
X3803132Y1277227D01*
X3802942Y1275704D01*
X3802751Y1274086D01*
X3802466Y1272277D01*
X3802085Y1270373D01*
X3801609Y1268374D01*
X3801133Y1266374D01*
X3800466Y1264470D01*
X3799610Y1262566D01*
X3798753Y1260758D01*
X3797706Y1259044D01*
X3796468Y1257521D01*
X3796373Y1257426D01*
X3796182Y1257235D01*
X3795706Y1256854D01*
X3795230Y1256378D01*
X3794469Y1255807D01*
X3793612Y1255141D01*
X3792565Y1254474D01*
X3791327Y1253808D01*
X3789899Y1253046D01*
X3788376Y1252380D01*
X3786567Y1251714D01*
X3784663Y1251142D01*
X3782664Y1250666D01*
X3780379Y1250286D01*
X3777904Y1250095D01*
X3775334Y1250000D01*
X3762672D01*
Y1312642D01*
X3776000D01*
X3776666Y1312546D01*
D02*
G37*
G36*
X3477834Y1250000D02*
X3467266D01*
Y1262757D01*
X3477834D01*
Y1250000D01*
D02*
G37*
G36*
X3319992Y1312546D02*
X3320849D01*
X3321896Y1312356D01*
X3323038Y1312261D01*
X3324181Y1312070D01*
X3326751Y1311499D01*
X3329417Y1310642D01*
X3330654Y1310071D01*
X3331892Y1309500D01*
X3333130Y1308738D01*
X3334177Y1307882D01*
X3334272Y1307786D01*
X3334367Y1307691D01*
X3334653Y1307406D01*
X3335034Y1307025D01*
X3335414Y1306454D01*
X3335890Y1305882D01*
X3336366Y1305216D01*
X3336938Y1304359D01*
X3337414Y1303407D01*
X3337890Y1302360D01*
X3338366Y1301218D01*
X3338746Y1299980D01*
X3339127Y1298647D01*
X3339413Y1297124D01*
X3339508Y1295601D01*
X3339603Y1293887D01*
Y1293792D01*
Y1293506D01*
Y1293030D01*
X3339508Y1292364D01*
X3339413Y1291602D01*
X3339318Y1290746D01*
X3339127Y1289698D01*
X3338937Y1288651D01*
X3338270Y1286462D01*
X3337890Y1285224D01*
X3337318Y1284082D01*
X3336652Y1282939D01*
X3335986Y1281892D01*
X3335129Y1280845D01*
X3334177Y1279893D01*
X3334082Y1279798D01*
X3333891Y1279702D01*
X3333606Y1279512D01*
X3333130Y1279131D01*
X3332558Y1278846D01*
X3331892Y1278465D01*
X3331130Y1277989D01*
X3330178Y1277608D01*
X3329131Y1277132D01*
X3327894Y1276751D01*
X3326656Y1276275D01*
X3325228Y1275990D01*
X3323610Y1275704D01*
X3321991Y1275418D01*
X3320182Y1275323D01*
X3318278Y1275228D01*
X3308473D01*
Y1250000D01*
X3300000D01*
Y1312642D01*
X3319326D01*
X3319992Y1312546D01*
D02*
G37*
G36*
X4300647Y1313594D02*
X4301314D01*
X4302170Y1313403D01*
X4303122Y1313213D01*
X4304265Y1313022D01*
X4305407Y1312642D01*
X4306645Y1312261D01*
X4307882Y1311690D01*
X4309120Y1311023D01*
X4310358Y1310166D01*
X4311595Y1309214D01*
X4312833Y1308167D01*
X4313880Y1306834D01*
X4314927Y1305406D01*
X4315022Y1305311D01*
X4315118Y1305026D01*
X4315403Y1304550D01*
X4315689Y1303883D01*
X4316165Y1303026D01*
X4316546Y1301979D01*
X4317022Y1300742D01*
X4317498Y1299314D01*
X4317974Y1297695D01*
X4318450Y1295886D01*
X4318926Y1293887D01*
X4319306Y1291698D01*
X4319592Y1289318D01*
X4319878Y1286842D01*
X4319973Y1284082D01*
X4320068Y1281130D01*
Y1280940D01*
Y1280464D01*
Y1279607D01*
X4319973Y1278465D01*
X4319878Y1277132D01*
X4319782Y1275609D01*
X4319687Y1273895D01*
X4319402Y1272086D01*
X4319116Y1270182D01*
X4318830Y1268183D01*
X4317878Y1264185D01*
X4317307Y1262186D01*
X4316641Y1260377D01*
X4315879Y1258568D01*
X4314927Y1256950D01*
X4314832Y1256854D01*
X4314737Y1256569D01*
X4314356Y1256188D01*
X4313975Y1255712D01*
X4313404Y1255046D01*
X4312738Y1254379D01*
X4311976Y1253618D01*
X4311119Y1252856D01*
X4310072Y1252094D01*
X4308930Y1251333D01*
X4307692Y1250666D01*
X4306359Y1250000D01*
X4304836Y1249524D01*
X4303218Y1249143D01*
X4301504Y1248858D01*
X4299695Y1248762D01*
X4299219D01*
X4298743Y1248858D01*
X4298077D01*
X4297220Y1249048D01*
X4296268Y1249238D01*
X4295221Y1249429D01*
X4294078Y1249810D01*
X4292841Y1250190D01*
X4291603Y1250762D01*
X4290366Y1251428D01*
X4289128Y1252190D01*
X4287890Y1253142D01*
X4286653Y1254284D01*
X4285606Y1255522D01*
X4284558Y1256950D01*
X4284463Y1257045D01*
X4284368Y1257330D01*
X4284082Y1257806D01*
X4283797Y1258473D01*
X4283416Y1259330D01*
X4282940Y1260377D01*
X4282464Y1261614D01*
X4282083Y1263042D01*
X4281607Y1264661D01*
X4281131Y1266470D01*
X4280655Y1268469D01*
X4280274Y1270563D01*
X4279989Y1272943D01*
X4279703Y1275514D01*
X4279608Y1278179D01*
X4279513Y1281130D01*
Y1281321D01*
Y1281797D01*
Y1282654D01*
X4279608Y1283796D01*
X4279703Y1285129D01*
X4279798Y1286652D01*
X4279894Y1288366D01*
X4280179Y1290174D01*
X4280370Y1292174D01*
X4280750Y1294173D01*
X4281607Y1298171D01*
X4282178Y1300170D01*
X4282940Y1301979D01*
X4283702Y1303788D01*
X4284558Y1305406D01*
X4284654Y1305502D01*
X4284844Y1305787D01*
X4285130Y1306168D01*
X4285510Y1306739D01*
X4286082Y1307310D01*
X4286748Y1308072D01*
X4287510Y1308738D01*
X4288366Y1309595D01*
X4289414Y1310357D01*
X4290556Y1311118D01*
X4291794Y1311785D01*
X4293126Y1312356D01*
X4294554Y1312927D01*
X4296173Y1313308D01*
X4297886Y1313594D01*
X4299695Y1313689D01*
X4300171D01*
X4300647Y1313594D01*
D02*
G37*
G36*
X3990486D02*
X3991152D01*
X3992009Y1313403D01*
X3992961Y1313213D01*
X3994103Y1313022D01*
X3995246Y1312642D01*
X3996483Y1312261D01*
X3997721Y1311690D01*
X3998958Y1311023D01*
X4000196Y1310166D01*
X4001434Y1309214D01*
X4002671Y1308167D01*
X4003718Y1306834D01*
X4004766Y1305406D01*
X4004861Y1305311D01*
X4004956Y1305026D01*
X4005242Y1304550D01*
X4005527Y1303883D01*
X4006003Y1303026D01*
X4006384Y1301979D01*
X4006860Y1300742D01*
X4007336Y1299314D01*
X4007812Y1297695D01*
X4008288Y1295886D01*
X4008764Y1293887D01*
X4009145Y1291698D01*
X4009430Y1289318D01*
X4009716Y1286842D01*
X4009811Y1284082D01*
X4009906Y1281130D01*
Y1280940D01*
Y1280464D01*
Y1279607D01*
X4009811Y1278465D01*
X4009716Y1277132D01*
X4009621Y1275609D01*
X4009526Y1273895D01*
X4009240Y1272086D01*
X4008954Y1270182D01*
X4008669Y1268183D01*
X4007717Y1264185D01*
X4007146Y1262186D01*
X4006479Y1260377D01*
X4005718Y1258568D01*
X4004766Y1256950D01*
X4004670Y1256854D01*
X4004575Y1256569D01*
X4004194Y1256188D01*
X4003814Y1255712D01*
X4003242Y1255046D01*
X4002576Y1254379D01*
X4001814Y1253618D01*
X4000958Y1252856D01*
X3999910Y1252094D01*
X3998768Y1251333D01*
X3997530Y1250666D01*
X3996198Y1250000D01*
X3994674Y1249524D01*
X3993056Y1249143D01*
X3991342Y1248858D01*
X3989534Y1248762D01*
X3989058D01*
X3988582Y1248858D01*
X3987915D01*
X3987058Y1249048D01*
X3986106Y1249238D01*
X3985059Y1249429D01*
X3983917Y1249810D01*
X3982679Y1250190D01*
X3981442Y1250762D01*
X3980204Y1251428D01*
X3978966Y1252190D01*
X3977729Y1253142D01*
X3976491Y1254284D01*
X3975444Y1255522D01*
X3974397Y1256950D01*
X3974302Y1257045D01*
X3974206Y1257330D01*
X3973921Y1257806D01*
X3973635Y1258473D01*
X3973254Y1259330D01*
X3972778Y1260377D01*
X3972302Y1261614D01*
X3971922Y1263042D01*
X3971446Y1264661D01*
X3970970Y1266470D01*
X3970494Y1268469D01*
X3970113Y1270563D01*
X3969827Y1272943D01*
X3969542Y1275514D01*
X3969446Y1278179D01*
X3969351Y1281130D01*
Y1281321D01*
Y1281797D01*
Y1282654D01*
X3969446Y1283796D01*
X3969542Y1285129D01*
X3969637Y1286652D01*
X3969732Y1288366D01*
X3970018Y1290174D01*
X3970208Y1292174D01*
X3970589Y1294173D01*
X3971446Y1298171D01*
X3972017Y1300170D01*
X3972778Y1301979D01*
X3973540Y1303788D01*
X3974397Y1305406D01*
X3974492Y1305502D01*
X3974682Y1305787D01*
X3974968Y1306168D01*
X3975349Y1306739D01*
X3975920Y1307310D01*
X3976586Y1308072D01*
X3977348Y1308738D01*
X3978205Y1309595D01*
X3979252Y1310357D01*
X3980394Y1311118D01*
X3981632Y1311785D01*
X3982965Y1312356D01*
X3984393Y1312927D01*
X3986011Y1313308D01*
X3987725Y1313594D01*
X3989534Y1313689D01*
X3990010D01*
X3990486Y1313594D01*
D02*
G37*
G36*
X3680324D02*
X3680990D01*
X3681847Y1313403D01*
X3682799Y1313213D01*
X3683942Y1313022D01*
X3685084Y1312642D01*
X3686322Y1312261D01*
X3687559Y1311690D01*
X3688797Y1311023D01*
X3690034Y1310166D01*
X3691272Y1309214D01*
X3692510Y1308167D01*
X3693557Y1306834D01*
X3694604Y1305406D01*
X3694699Y1305311D01*
X3694794Y1305026D01*
X3695080Y1304550D01*
X3695366Y1303883D01*
X3695842Y1303026D01*
X3696222Y1301979D01*
X3696698Y1300742D01*
X3697174Y1299314D01*
X3697650Y1297695D01*
X3698126Y1295886D01*
X3698602Y1293887D01*
X3698983Y1291698D01*
X3699269Y1289318D01*
X3699554Y1286842D01*
X3699650Y1284082D01*
X3699745Y1281130D01*
Y1280940D01*
Y1280464D01*
Y1279607D01*
X3699650Y1278465D01*
X3699554Y1277132D01*
X3699459Y1275609D01*
X3699364Y1273895D01*
X3699078Y1272086D01*
X3698793Y1270182D01*
X3698507Y1268183D01*
X3697555Y1264185D01*
X3696984Y1262186D01*
X3696318Y1260377D01*
X3695556Y1258568D01*
X3694604Y1256950D01*
X3694509Y1256854D01*
X3694414Y1256569D01*
X3694033Y1256188D01*
X3693652Y1255712D01*
X3693081Y1255046D01*
X3692414Y1254379D01*
X3691653Y1253618D01*
X3690796Y1252856D01*
X3689749Y1252094D01*
X3688606Y1251333D01*
X3687369Y1250666D01*
X3686036Y1250000D01*
X3684513Y1249524D01*
X3682894Y1249143D01*
X3681181Y1248858D01*
X3679372Y1248762D01*
X3678896D01*
X3678420Y1248858D01*
X3677754D01*
X3676897Y1249048D01*
X3675945Y1249238D01*
X3674898Y1249429D01*
X3673755Y1249810D01*
X3672518Y1250190D01*
X3671280Y1250762D01*
X3670042Y1251428D01*
X3668805Y1252190D01*
X3667567Y1253142D01*
X3666330Y1254284D01*
X3665282Y1255522D01*
X3664235Y1256950D01*
X3664140Y1257045D01*
X3664045Y1257330D01*
X3663759Y1257806D01*
X3663474Y1258473D01*
X3663093Y1259330D01*
X3662617Y1260377D01*
X3662141Y1261614D01*
X3661760Y1263042D01*
X3661284Y1264661D01*
X3660808Y1266470D01*
X3660332Y1268469D01*
X3659951Y1270563D01*
X3659666Y1272943D01*
X3659380Y1275514D01*
X3659285Y1278179D01*
X3659190Y1281130D01*
Y1281321D01*
Y1281797D01*
Y1282654D01*
X3659285Y1283796D01*
X3659380Y1285129D01*
X3659475Y1286652D01*
X3659570Y1288366D01*
X3659856Y1290174D01*
X3660046Y1292174D01*
X3660427Y1294173D01*
X3661284Y1298171D01*
X3661855Y1300170D01*
X3662617Y1301979D01*
X3663378Y1303788D01*
X3664235Y1305406D01*
X3664330Y1305502D01*
X3664521Y1305787D01*
X3664806Y1306168D01*
X3665187Y1306739D01*
X3665758Y1307310D01*
X3666425Y1308072D01*
X3667186Y1308738D01*
X3668043Y1309595D01*
X3669090Y1310357D01*
X3670233Y1311118D01*
X3671470Y1311785D01*
X3672803Y1312356D01*
X3674231Y1312927D01*
X3675850Y1313308D01*
X3677563Y1313594D01*
X3679372Y1313689D01*
X3679848D01*
X3680324Y1313594D01*
D02*
G37*
G36*
X3628630D02*
X3629297D01*
X3630154Y1313403D01*
X3631106Y1313213D01*
X3632248Y1313022D01*
X3633390Y1312642D01*
X3634628Y1312261D01*
X3635866Y1311690D01*
X3637103Y1311023D01*
X3638341Y1310166D01*
X3639578Y1309214D01*
X3640816Y1308167D01*
X3641863Y1306834D01*
X3642910Y1305406D01*
X3643006Y1305311D01*
X3643101Y1305026D01*
X3643386Y1304550D01*
X3643672Y1303883D01*
X3644148Y1303026D01*
X3644529Y1301979D01*
X3645005Y1300742D01*
X3645481Y1299314D01*
X3645957Y1297695D01*
X3646433Y1295886D01*
X3646909Y1293887D01*
X3647290Y1291698D01*
X3647575Y1289318D01*
X3647861Y1286842D01*
X3647956Y1284082D01*
X3648051Y1281130D01*
Y1280940D01*
Y1280464D01*
Y1279607D01*
X3647956Y1278465D01*
X3647861Y1277132D01*
X3647766Y1275609D01*
X3647670Y1273895D01*
X3647385Y1272086D01*
X3647099Y1270182D01*
X3646814Y1268183D01*
X3645862Y1264185D01*
X3645290Y1262186D01*
X3644624Y1260377D01*
X3643862Y1258568D01*
X3642910Y1256950D01*
X3642815Y1256854D01*
X3642720Y1256569D01*
X3642339Y1256188D01*
X3641958Y1255712D01*
X3641387Y1255046D01*
X3640721Y1254379D01*
X3639959Y1253618D01*
X3639102Y1252856D01*
X3638055Y1252094D01*
X3636913Y1251333D01*
X3635675Y1250666D01*
X3634342Y1250000D01*
X3632819Y1249524D01*
X3631201Y1249143D01*
X3629487Y1248858D01*
X3627678Y1248762D01*
X3627202D01*
X3626726Y1248858D01*
X3626060D01*
X3625203Y1249048D01*
X3624251Y1249238D01*
X3623204Y1249429D01*
X3622062Y1249810D01*
X3620824Y1250190D01*
X3619586Y1250762D01*
X3618349Y1251428D01*
X3617111Y1252190D01*
X3615874Y1253142D01*
X3614636Y1254284D01*
X3613589Y1255522D01*
X3612542Y1256950D01*
X3612446Y1257045D01*
X3612351Y1257330D01*
X3612066Y1257806D01*
X3611780Y1258473D01*
X3611399Y1259330D01*
X3610923Y1260377D01*
X3610447Y1261614D01*
X3610066Y1263042D01*
X3609590Y1264661D01*
X3609114Y1266470D01*
X3608638Y1268469D01*
X3608258Y1270563D01*
X3607972Y1272943D01*
X3607686Y1275514D01*
X3607591Y1278179D01*
X3607496Y1281130D01*
Y1281321D01*
Y1281797D01*
Y1282654D01*
X3607591Y1283796D01*
X3607686Y1285129D01*
X3607782Y1286652D01*
X3607877Y1288366D01*
X3608162Y1290174D01*
X3608353Y1292174D01*
X3608734Y1294173D01*
X3609590Y1298171D01*
X3610162Y1300170D01*
X3610923Y1301979D01*
X3611685Y1303788D01*
X3612542Y1305406D01*
X3612637Y1305502D01*
X3612827Y1305787D01*
X3613113Y1306168D01*
X3613494Y1306739D01*
X3614065Y1307310D01*
X3614731Y1308072D01*
X3615493Y1308738D01*
X3616350Y1309595D01*
X3617397Y1310357D01*
X3618539Y1311118D01*
X3619777Y1311785D01*
X3621110Y1312356D01*
X3622538Y1312927D01*
X3624156Y1313308D01*
X3625870Y1313594D01*
X3627678Y1313689D01*
X3628154D01*
X3628630Y1313594D01*
D02*
G37*
G36*
X3355692Y1242098D02*
X3347695D01*
X3380730Y1312642D01*
X3388726D01*
X3355692Y1242098D01*
D02*
G37*
G36*
X4118815Y1229722D02*
X4067122D01*
Y1233054D01*
X4118815D01*
Y1229722D01*
D02*
G37*
G36*
X4076656Y765117D02*
X4077418D01*
X4079131Y764926D01*
X4081035Y764641D01*
X4083130Y764165D01*
X4085319Y763594D01*
X4087414Y762832D01*
X4087509D01*
X4087699Y762737D01*
X4087985Y762642D01*
X4088366Y762451D01*
X4089318Y761880D01*
X4090555Y761118D01*
X4091888Y760166D01*
X4093316Y759024D01*
X4094649Y757691D01*
X4095791Y756073D01*
X4095886Y755882D01*
X4096267Y755311D01*
X4096743Y754359D01*
X4097314Y753217D01*
X4097886Y751694D01*
X4098362Y749980D01*
X4098838Y748076D01*
X4099028Y746077D01*
X4090936Y745506D01*
Y745601D01*
Y745791D01*
X4090841Y746077D01*
X4090746Y746458D01*
X4090555Y747600D01*
X4090174Y748933D01*
X4089508Y750361D01*
X4088746Y751884D01*
X4087794Y753312D01*
X4086462Y754550D01*
X4086271Y754645D01*
X4085795Y755026D01*
X4084843Y755502D01*
X4083606Y756168D01*
X4082082Y756739D01*
X4080083Y757215D01*
X4077798Y757596D01*
X4075228Y757691D01*
X4073990D01*
X4073324Y757596D01*
X4072658Y757501D01*
X4070944Y757310D01*
X4069135Y757025D01*
X4067326Y756454D01*
X4065613Y755787D01*
X4064756Y755311D01*
X4064090Y754835D01*
X4063899Y754740D01*
X4063518Y754359D01*
X4062947Y753693D01*
X4062376Y752931D01*
X4061710Y751884D01*
X4061138Y750742D01*
X4060758Y749409D01*
X4060567Y747981D01*
Y747790D01*
Y747410D01*
X4060662Y746743D01*
X4060853Y745982D01*
X4061138Y745125D01*
X4061614Y744173D01*
X4062186Y743221D01*
X4063042Y742364D01*
X4063138Y742269D01*
X4063614Y741983D01*
X4063899Y741793D01*
X4064375Y741507D01*
X4064851Y741222D01*
X4065518Y740936D01*
X4066279Y740555D01*
X4067231Y740270D01*
X4068278Y739794D01*
X4069421Y739413D01*
X4070754Y739032D01*
X4072277Y738556D01*
X4073990Y738175D01*
X4075799Y737699D01*
X4075894D01*
X4076275Y737604D01*
X4076751Y737509D01*
X4077513Y737318D01*
X4078370Y737128D01*
X4079322Y736842D01*
X4081511Y736366D01*
X4083796Y735700D01*
X4086176Y735034D01*
X4087223Y734748D01*
X4088270Y734367D01*
X4089222Y733986D01*
X4089984Y733701D01*
X4090079D01*
X4090270Y733606D01*
X4090555Y733415D01*
X4090936Y733225D01*
X4091888Y732654D01*
X4093126Y731892D01*
X4094458Y730940D01*
X4095886Y729893D01*
X4097124Y728560D01*
X4098266Y727132D01*
X4098362Y726942D01*
X4098647Y726466D01*
X4099123Y725609D01*
X4099599Y724562D01*
X4100075Y723229D01*
X4100551Y721706D01*
X4100837Y719992D01*
X4100932Y718088D01*
Y717993D01*
Y717898D01*
Y717612D01*
Y717231D01*
X4100742Y716184D01*
X4100551Y714946D01*
X4100170Y713423D01*
X4099694Y711805D01*
X4098933Y710091D01*
X4097981Y708378D01*
Y708282D01*
X4097886Y708187D01*
X4097410Y707616D01*
X4096743Y706854D01*
X4095791Y705807D01*
X4094649Y704760D01*
X4093126Y703522D01*
X4091507Y702475D01*
X4089508Y701428D01*
X4089413D01*
X4089222Y701333D01*
X4088937Y701238D01*
X4088556Y701047D01*
X4088080Y700857D01*
X4087414Y700666D01*
X4085986Y700190D01*
X4084082Y699714D01*
X4082082Y699334D01*
X4079702Y699048D01*
X4077227Y698953D01*
X4075799D01*
X4075038Y699048D01*
X4074181D01*
X4073229Y699143D01*
X4072182Y699238D01*
X4069897Y699524D01*
X4067422Y700000D01*
X4064946Y700571D01*
X4062662Y701428D01*
X4062566D01*
X4062376Y701523D01*
X4062090Y701714D01*
X4061710Y701904D01*
X4060662Y702475D01*
X4059330Y703332D01*
X4057806Y704379D01*
X4056283Y705712D01*
X4054760Y707235D01*
X4053427Y709044D01*
Y709139D01*
X4053332Y709234D01*
X4053142Y709520D01*
X4052951Y709996D01*
X4052666Y710472D01*
X4052380Y711043D01*
X4051714Y712471D01*
X4051142Y714185D01*
X4050571Y716089D01*
X4050190Y718278D01*
X4050000Y720658D01*
X4057997Y721325D01*
Y721230D01*
Y721134D01*
X4058092Y720563D01*
X4058282Y719611D01*
X4058473Y718469D01*
X4058854Y717231D01*
X4059330Y715898D01*
X4059901Y714566D01*
X4060567Y713328D01*
X4060662Y713233D01*
X4060948Y712852D01*
X4061424Y712281D01*
X4062186Y711614D01*
X4063042Y710758D01*
X4064185Y709996D01*
X4065518Y709139D01*
X4067041Y708378D01*
X4067136D01*
X4067231Y708282D01*
X4067802Y708092D01*
X4068754Y707806D01*
X4069897Y707426D01*
X4071325Y707045D01*
X4073038Y706759D01*
X4074847Y706569D01*
X4076846Y706474D01*
X4077703D01*
X4078560Y706569D01*
X4079702Y706664D01*
X4081035Y706854D01*
X4082463Y707045D01*
X4083891Y707426D01*
X4085319Y707902D01*
X4085510Y707997D01*
X4085890Y708187D01*
X4086557Y708473D01*
X4087414Y708949D01*
X4088270Y709520D01*
X4089222Y710186D01*
X4090079Y710948D01*
X4090841Y711805D01*
X4090936Y711900D01*
X4091126Y712281D01*
X4091412Y712757D01*
X4091793Y713423D01*
X4092174Y714280D01*
X4092459Y715232D01*
X4092650Y716279D01*
X4092745Y717326D01*
Y717422D01*
Y717802D01*
X4092650Y718374D01*
X4092554Y719135D01*
X4092364Y719992D01*
X4091983Y720849D01*
X4091602Y721706D01*
X4091031Y722562D01*
X4090936Y722658D01*
X4090746Y722943D01*
X4090270Y723324D01*
X4089698Y723895D01*
X4088842Y724466D01*
X4087890Y725133D01*
X4086652Y725799D01*
X4085224Y726370D01*
X4085129Y726466D01*
X4084653Y726561D01*
X4083986Y726846D01*
X4083415Y726942D01*
X4082844Y727132D01*
X4082082Y727322D01*
X4081321Y727608D01*
X4080369Y727894D01*
X4079322Y728179D01*
X4078179Y728465D01*
X4076846Y728750D01*
X4075418Y729131D01*
X4073800Y729512D01*
X4073705D01*
X4073419Y729607D01*
X4072943Y729702D01*
X4072372Y729893D01*
X4071610Y730083D01*
X4070849Y730274D01*
X4068945Y730845D01*
X4066850Y731416D01*
X4064851Y732082D01*
X4062947Y732749D01*
X4062186Y733130D01*
X4061424Y733510D01*
X4061329D01*
X4061234Y733606D01*
X4060662Y733986D01*
X4059901Y734462D01*
X4058854Y735129D01*
X4057711Y735986D01*
X4056569Y737033D01*
X4055522Y738175D01*
X4054570Y739413D01*
X4054474Y739603D01*
X4054189Y740079D01*
X4053903Y740841D01*
X4053522Y741793D01*
X4053046Y742935D01*
X4052761Y744363D01*
X4052475Y745886D01*
X4052380Y747505D01*
Y747600D01*
Y747695D01*
Y747981D01*
Y748362D01*
X4052570Y749218D01*
X4052761Y750456D01*
X4053046Y751884D01*
X4053522Y753407D01*
X4054189Y754930D01*
X4055046Y756549D01*
Y756644D01*
X4055141Y756739D01*
X4055522Y757215D01*
X4056188Y757977D01*
X4057140Y758929D01*
X4058282Y759976D01*
X4059615Y761118D01*
X4061234Y762166D01*
X4063138Y763022D01*
X4063233D01*
X4063423Y763118D01*
X4063709Y763213D01*
X4064090Y763403D01*
X4064566Y763498D01*
X4065137Y763689D01*
X4066565Y764165D01*
X4068374Y764546D01*
X4070373Y764831D01*
X4072562Y765117D01*
X4074847Y765212D01*
X4076085D01*
X4076656Y765117D01*
D02*
G37*
G36*
X4211650Y737985D02*
X4239734Y700000D01*
X4228500D01*
X4205747Y732273D01*
X4195275Y722182D01*
Y700000D01*
X4186802D01*
Y764070D01*
X4195275D01*
Y732368D01*
X4227072Y764070D01*
X4238591D01*
X4211650Y737985D01*
D02*
G37*
G36*
X4446889Y756549D02*
X4425754D01*
Y700000D01*
X4417282D01*
Y756549D01*
X4396147D01*
Y764070D01*
X4446889D01*
Y756549D01*
D02*
G37*
G36*
X4297139Y763974D02*
X4297901D01*
X4299519Y763784D01*
X4301423Y763594D01*
X4303327Y763213D01*
X4305326Y762737D01*
X4307040Y762070D01*
X4307135D01*
X4307230Y761975D01*
X4307802Y761690D01*
X4308563Y761214D01*
X4309610Y760642D01*
X4310753Y759786D01*
X4311895Y758738D01*
X4312942Y757501D01*
X4313990Y756073D01*
X4314085Y755882D01*
X4314370Y755406D01*
X4314846Y754550D01*
X4315322Y753502D01*
X4315703Y752265D01*
X4316179Y750837D01*
X4316465Y749218D01*
X4316560Y747600D01*
Y747410D01*
Y746934D01*
X4316465Y746077D01*
X4316274Y745125D01*
X4315989Y743887D01*
X4315608Y742650D01*
X4315037Y741222D01*
X4314275Y739889D01*
X4314180Y739698D01*
X4313894Y739318D01*
X4313323Y738651D01*
X4312657Y737794D01*
X4311705Y736842D01*
X4310467Y735890D01*
X4309134Y734938D01*
X4307516Y734082D01*
X4307611D01*
X4307802Y733986D01*
X4308087Y733891D01*
X4308468Y733796D01*
X4309515Y733320D01*
X4310848Y732749D01*
X4312276Y731892D01*
X4313704Y730845D01*
X4315227Y729607D01*
X4316465Y728179D01*
X4316560Y727989D01*
X4316941Y727418D01*
X4317512Y726561D01*
X4318083Y725418D01*
X4318654Y723990D01*
X4319226Y722372D01*
X4319606Y720563D01*
X4319702Y718564D01*
Y718469D01*
Y718374D01*
Y717802D01*
X4319606Y716946D01*
X4319511Y715803D01*
X4319226Y714470D01*
X4318940Y713042D01*
X4318464Y711614D01*
X4317798Y710091D01*
X4317702Y709901D01*
X4317417Y709425D01*
X4317036Y708758D01*
X4316465Y707902D01*
X4315798Y706950D01*
X4315037Y705998D01*
X4314085Y705046D01*
X4313038Y704189D01*
X4312942Y704094D01*
X4312562Y703808D01*
X4311895Y703427D01*
X4311134Y703046D01*
X4310086Y702475D01*
X4308944Y701999D01*
X4307516Y701523D01*
X4305993Y701047D01*
X4305802D01*
X4305231Y700857D01*
X4304374Y700762D01*
X4303137Y700571D01*
X4301614Y700381D01*
X4299900Y700190D01*
X4297901Y700095D01*
X4295711Y700000D01*
X4271340D01*
Y764070D01*
X4296568D01*
X4297139Y763974D01*
D02*
G37*
G36*
X4145486Y707521D02*
X4176997D01*
Y700000D01*
X4137013D01*
Y764070D01*
X4145486D01*
Y707521D01*
D02*
G37*
G36*
X4122447Y700000D02*
X4113974D01*
Y764070D01*
X4122447D01*
Y700000D01*
D02*
G37*
G36*
X4360923Y765117D02*
X4361685D01*
X4362542Y765022D01*
X4363589Y764831D01*
X4364731Y764641D01*
X4367206Y764165D01*
X4369872Y763403D01*
X4372633Y762356D01*
X4374061Y761690D01*
X4375394Y760928D01*
X4375489D01*
X4375679Y760738D01*
X4376060Y760452D01*
X4376536Y760166D01*
X4377202Y759690D01*
X4377869Y759214D01*
X4379392Y757882D01*
X4381201Y756168D01*
X4383010Y754169D01*
X4384723Y751789D01*
X4386246Y749123D01*
Y749028D01*
X4386437Y748742D01*
X4386627Y748362D01*
X4386818Y747790D01*
X4387103Y747029D01*
X4387484Y746172D01*
X4387770Y745220D01*
X4388150Y744078D01*
X4388531Y742935D01*
X4388817Y741602D01*
X4389198Y740174D01*
X4389483Y738651D01*
X4389864Y735414D01*
X4390054Y731892D01*
Y731797D01*
Y731416D01*
Y730940D01*
X4389959Y730274D01*
Y729417D01*
X4389864Y728370D01*
X4389769Y727322D01*
X4389578Y726085D01*
X4389102Y723419D01*
X4388341Y720468D01*
X4387389Y717422D01*
X4386056Y714470D01*
Y714375D01*
X4385866Y714185D01*
X4385675Y713709D01*
X4385294Y713233D01*
X4384914Y712566D01*
X4384438Y711900D01*
X4383200Y710186D01*
X4381582Y708282D01*
X4379678Y706378D01*
X4377488Y704474D01*
X4374918Y702856D01*
X4374822D01*
X4374632Y702666D01*
X4374156Y702475D01*
X4373680Y702285D01*
X4373014Y701999D01*
X4372157Y701618D01*
X4371300Y701238D01*
X4370253Y700952D01*
X4369110Y700571D01*
X4367968Y700190D01*
X4365302Y699524D01*
X4362446Y699143D01*
X4359400Y698953D01*
X4358543D01*
X4357877Y699048D01*
X4357020D01*
X4356163Y699143D01*
X4355116Y699334D01*
X4353974Y699524D01*
X4351403Y700000D01*
X4348642Y700762D01*
X4345882Y701809D01*
X4344454Y702475D01*
X4343121Y703237D01*
X4343026Y703332D01*
X4342835Y703427D01*
X4342454Y703713D01*
X4341978Y703998D01*
X4341407Y704474D01*
X4340741Y705046D01*
X4339122Y706378D01*
X4337409Y708092D01*
X4335600Y710091D01*
X4333886Y712471D01*
X4332363Y715137D01*
Y715232D01*
X4332173Y715518D01*
X4332078Y715898D01*
X4331792Y716470D01*
X4331506Y717136D01*
X4331221Y717993D01*
X4330935Y718945D01*
X4330554Y719992D01*
X4330174Y721134D01*
X4329888Y722372D01*
X4329317Y725133D01*
X4328936Y728084D01*
X4328746Y731226D01*
Y731416D01*
Y731892D01*
X4328841Y732749D01*
Y733891D01*
X4329031Y735224D01*
X4329222Y736747D01*
X4329507Y738461D01*
X4329793Y740270D01*
X4330269Y742269D01*
X4330840Y744268D01*
X4331506Y746362D01*
X4332363Y748457D01*
X4333315Y750551D01*
X4334458Y752455D01*
X4335790Y754359D01*
X4337314Y756168D01*
X4337409Y756263D01*
X4337694Y756549D01*
X4338170Y757025D01*
X4338837Y757596D01*
X4339694Y758262D01*
X4340741Y759024D01*
X4341978Y759881D01*
X4343311Y760738D01*
X4344834Y761499D01*
X4346453Y762356D01*
X4348262Y763118D01*
X4350261Y763784D01*
X4352355Y764355D01*
X4354545Y764831D01*
X4356925Y765117D01*
X4359400Y765212D01*
X4360257D01*
X4360923Y765117D01*
D02*
G37*
%LPC*%
G36*
X3975163Y1082658D02*
X3975158Y1082654D01*
Y1082558D01*
X3975163Y1082658D01*
D02*
G37*
G36*
X3988201Y1084653D02*
X3987725D01*
X3987344Y1084558D01*
X3986297Y1084462D01*
X3985059Y1084177D01*
X3983726Y1083701D01*
X3982298Y1083034D01*
X3980870Y1082082D01*
X3979633Y1080750D01*
X3979538Y1080559D01*
X3979157Y1080083D01*
X3978681Y1079131D01*
X3978110Y1077989D01*
X3977538Y1076370D01*
X3977062Y1074562D01*
X3976682Y1072467D01*
X3976586Y1069992D01*
Y1069897D01*
Y1069706D01*
Y1069326D01*
X3976682Y1068850D01*
Y1068278D01*
X3976777Y1067612D01*
X3976967Y1066089D01*
X3977348Y1064375D01*
X3977919Y1062566D01*
X3978586Y1060853D01*
X3979633Y1059234D01*
X3979823Y1059044D01*
X3980204Y1058663D01*
X3980870Y1057997D01*
X3981918Y1057330D01*
X3983155Y1056664D01*
X3984583Y1055998D01*
X3986297Y1055617D01*
X3988201Y1055426D01*
X3988772D01*
X3989153Y1055522D01*
X3990105Y1055617D01*
X3991342Y1055902D01*
X3992770Y1056283D01*
X3994103Y1056950D01*
X3995531Y1057806D01*
X3996674Y1059044D01*
X3996769Y1059234D01*
X3997150Y1059710D01*
X3997626Y1060567D01*
X3998102Y1061805D01*
X3998673Y1063328D01*
X3999054Y1065232D01*
X3999434Y1067422D01*
X3999530Y1069992D01*
Y1070087D01*
Y1070278D01*
Y1070658D01*
Y1071230D01*
X3999434Y1071801D01*
X3999339Y1072467D01*
X3999149Y1074086D01*
X3998863Y1075894D01*
X3998292Y1077703D01*
X3997626Y1079417D01*
X3996674Y1080940D01*
X3996578Y1081130D01*
X3996102Y1081511D01*
X3995436Y1082082D01*
X3994579Y1082844D01*
X3993342Y1083510D01*
X3991914Y1084082D01*
X3990200Y1084462D01*
X3988201Y1084653D01*
D02*
G37*
G36*
X3676516Y1107025D02*
X3675945D01*
X3675564Y1106930D01*
X3674612Y1106834D01*
X3673374Y1106549D01*
X3671946Y1106168D01*
X3670614Y1105502D01*
X3669186Y1104550D01*
X3668043Y1103312D01*
X3667948Y1103122D01*
X3667662Y1102646D01*
X3667186Y1101789D01*
X3666710Y1100551D01*
X3666139Y1099028D01*
X3665758Y1097124D01*
X3665378Y1094934D01*
X3665282Y1092364D01*
Y1092269D01*
Y1092078D01*
Y1091698D01*
Y1091222D01*
X3665378Y1090555D01*
X3665473Y1089889D01*
X3665663Y1088270D01*
X3665949Y1086557D01*
X3666425Y1084653D01*
X3667091Y1082939D01*
X3668043Y1081416D01*
X3668138Y1081226D01*
X3668614Y1080845D01*
X3669281Y1080274D01*
X3670138Y1079607D01*
X3671375Y1078941D01*
X3672803Y1078370D01*
X3674517Y1077989D01*
X3676516Y1077798D01*
X3677087D01*
X3677373Y1077894D01*
X3678420Y1077989D01*
X3679658Y1078274D01*
X3680990Y1078750D01*
X3682418Y1079417D01*
X3683751Y1080369D01*
X3684989Y1081606D01*
X3685084Y1081797D01*
X3685465Y1082368D01*
X3685941Y1083225D01*
X3686607Y1084462D01*
X3687178Y1085986D01*
X3687654Y1087794D01*
X3688035Y1089984D01*
X3688130Y1092364D01*
Y1092459D01*
Y1092650D01*
Y1093030D01*
Y1093506D01*
X3688035Y1094078D01*
X3687940Y1094744D01*
X3687750Y1096267D01*
X3687369Y1097981D01*
X3686798Y1099790D01*
X3686036Y1101503D01*
X3684989Y1103122D01*
X3684894Y1103312D01*
X3684418Y1103693D01*
X3683751Y1104359D01*
X3682799Y1105121D01*
X3681562Y1105787D01*
X3680134Y1106454D01*
X3678420Y1106834D01*
X3676516Y1107025D01*
D02*
G37*
G36*
X4246764Y1105692D02*
X4236958D01*
Y1082178D01*
X4247335D01*
X4247716Y1082273D01*
X4248763Y1082368D01*
X4250096Y1082558D01*
X4251524Y1082939D01*
X4253047Y1083510D01*
X4254570Y1084177D01*
X4255903Y1085224D01*
X4256094Y1085414D01*
X4256474Y1085795D01*
X4256950Y1086557D01*
X4257617Y1087509D01*
X4258188Y1088746D01*
X4258759Y1090174D01*
X4259140Y1091888D01*
X4259235Y1093887D01*
Y1093982D01*
Y1094173D01*
Y1094458D01*
X4259140Y1094839D01*
X4259045Y1095791D01*
X4258854Y1097124D01*
X4258378Y1098457D01*
X4257807Y1099885D01*
X4257046Y1101313D01*
X4255903Y1102550D01*
X4255713Y1102646D01*
X4255332Y1103026D01*
X4254570Y1103502D01*
X4253523Y1104169D01*
X4252286Y1104740D01*
X4250667Y1105216D01*
X4248858Y1105597D01*
X4246764Y1105692D01*
D02*
G37*
G36*
X4095872Y1104835D02*
X4076166Y1071801D01*
X4095872D01*
Y1104835D01*
D02*
G37*
G36*
X4142615Y1107025D02*
X4142044D01*
X4141663Y1106930D01*
X4140616Y1106644D01*
X4139283Y1106263D01*
X4137855Y1105406D01*
X4137094Y1104930D01*
X4136427Y1104264D01*
X4135666Y1103598D01*
X4134999Y1102646D01*
X4134333Y1101694D01*
X4133762Y1100551D01*
Y1100456D01*
X4133666Y1100266D01*
X4133476Y1099885D01*
X4133286Y1099314D01*
X4133095Y1098647D01*
X4132905Y1097886D01*
X4132619Y1096838D01*
X4132334Y1095696D01*
X4132048Y1094458D01*
X4131858Y1093030D01*
X4131572Y1091412D01*
X4131382Y1089698D01*
X4131191Y1087794D01*
X4131001Y1085700D01*
X4130906Y1083510D01*
Y1081130D01*
Y1080940D01*
Y1080559D01*
Y1079893D01*
X4131001Y1079036D01*
Y1077894D01*
X4131096Y1076656D01*
X4131191Y1075323D01*
X4131286Y1073895D01*
X4131572Y1070754D01*
X4132143Y1067517D01*
X4132429Y1065994D01*
X4132810Y1064470D01*
X4133286Y1063042D01*
X4133762Y1061805D01*
Y1061710D01*
X4133857Y1061519D01*
X4134047Y1061234D01*
X4134333Y1060853D01*
X4134999Y1059806D01*
X4135951Y1058663D01*
X4137189Y1057426D01*
X4138712Y1056474D01*
X4139569Y1055998D01*
X4140521Y1055712D01*
X4141568Y1055522D01*
X4142615Y1055426D01*
X4143186D01*
X4143567Y1055522D01*
X4144710Y1055807D01*
X4145947Y1056188D01*
X4147470Y1056950D01*
X4148137Y1057521D01*
X4148898Y1058092D01*
X4149660Y1058854D01*
X4150326Y1059710D01*
X4150993Y1060662D01*
X4151564Y1061805D01*
Y1061900D01*
X4151659Y1062090D01*
X4151850Y1062471D01*
X4152040Y1063042D01*
X4152230Y1063709D01*
X4152516Y1064470D01*
X4152802Y1065518D01*
X4153087Y1066660D01*
X4153278Y1067898D01*
X4153563Y1069326D01*
X4153849Y1070944D01*
X4154039Y1072658D01*
X4154230Y1074562D01*
X4154420Y1076561D01*
X4154515Y1078750D01*
Y1081130D01*
Y1081321D01*
Y1081702D01*
Y1082368D01*
Y1083225D01*
X4154420Y1084367D01*
X4154325Y1085605D01*
X4154230Y1086938D01*
X4154134Y1088461D01*
X4153754Y1091602D01*
X4153278Y1094839D01*
X4152897Y1096362D01*
X4152516Y1097886D01*
X4152040Y1099314D01*
X4151564Y1100551D01*
Y1100646D01*
X4151469Y1100837D01*
X4151278Y1101122D01*
X4150993Y1101598D01*
X4150326Y1102646D01*
X4149374Y1103788D01*
X4148042Y1105026D01*
X4146518Y1105978D01*
X4145662Y1106454D01*
X4144710Y1106739D01*
X4143662Y1106930D01*
X4142615Y1107025D01*
D02*
G37*
%LPD*%
G36*
X4143377Y1086938D02*
X4143948Y1086842D01*
X4144614Y1086652D01*
X4145281Y1086271D01*
X4145947Y1085890D01*
X4146614Y1085319D01*
X4146709Y1085224D01*
X4146899Y1085034D01*
X4147185Y1084653D01*
X4147470Y1084177D01*
X4147756Y1083606D01*
X4148042Y1082939D01*
X4148232Y1082178D01*
X4148327Y1081321D01*
Y1081226D01*
Y1080940D01*
X4148232Y1080559D01*
X4148137Y1079988D01*
X4147946Y1079322D01*
X4147566Y1078750D01*
X4147185Y1078084D01*
X4146614Y1077418D01*
X4146518Y1077322D01*
X4146328Y1077132D01*
X4145947Y1076942D01*
X4145471Y1076656D01*
X4144900Y1076275D01*
X4144234Y1076085D01*
X4143377Y1075894D01*
X4142520Y1075799D01*
X4142139D01*
X4141758Y1075894D01*
X4141187Y1075990D01*
X4140521Y1076180D01*
X4139950Y1076466D01*
X4139283Y1076846D01*
X4138617Y1077322D01*
X4138522Y1077418D01*
X4138426Y1077608D01*
X4138141Y1077989D01*
X4137855Y1078465D01*
X4137570Y1079036D01*
X4137379Y1079702D01*
X4137189Y1080464D01*
X4137094Y1081321D01*
Y1081416D01*
Y1081702D01*
X4137189Y1082178D01*
X4137284Y1082654D01*
X4137474Y1083320D01*
X4137760Y1083986D01*
X4138141Y1084653D01*
X4138712Y1085319D01*
X4138807Y1085414D01*
X4138998Y1085605D01*
X4139378Y1085890D01*
X4139759Y1086176D01*
X4140330Y1086462D01*
X4140997Y1086747D01*
X4141758Y1086938D01*
X4142520Y1087033D01*
X4142901D01*
X4143377Y1086938D01*
D02*
G37*
%LPC*%
G36*
X3935746Y1191507D02*
X3935174D01*
X3934889Y1191412D01*
X3933842Y1191317D01*
X3932604Y1190936D01*
X3931271Y1190365D01*
X3929843Y1189603D01*
X3928510Y1188461D01*
X3927939Y1187699D01*
X3927368Y1186938D01*
Y1186842D01*
X3927273Y1186747D01*
X3927082Y1186462D01*
X3926892Y1186081D01*
X3926702Y1185605D01*
X3926511Y1185034D01*
X3926226Y1184367D01*
X3925940Y1183510D01*
X3925654Y1182654D01*
X3925464Y1181606D01*
X3925178Y1180559D01*
X3924988Y1179322D01*
X3924798Y1177989D01*
X3924607Y1176561D01*
X3924512Y1175038D01*
Y1173419D01*
Y1173324D01*
Y1173038D01*
Y1172562D01*
X3924607Y1171896D01*
Y1171230D01*
X3924702Y1170278D01*
X3924893Y1168374D01*
X3925178Y1166089D01*
X3925750Y1163899D01*
X3926416Y1161710D01*
X3926892Y1160758D01*
X3927368Y1159806D01*
X3927463Y1159615D01*
X3927939Y1159139D01*
X3928606Y1158378D01*
X3929462Y1157616D01*
X3930700Y1156759D01*
X3932128Y1155998D01*
X3933842Y1155522D01*
X3934698Y1155426D01*
X3935746Y1155331D01*
X3936317D01*
X3936698Y1155426D01*
X3937650Y1155617D01*
X3938887Y1155902D01*
X3940315Y1156474D01*
X3941743Y1157235D01*
X3943076Y1158378D01*
X3943742Y1159139D01*
X3944314Y1159901D01*
Y1159996D01*
X3944409Y1160091D01*
X3944599Y1160377D01*
X3944790Y1160758D01*
X3944980Y1161234D01*
X3945266Y1161805D01*
X3945551Y1162471D01*
X3945837Y1163328D01*
X3946027Y1164185D01*
X3946313Y1165232D01*
X3946598Y1166279D01*
X3946789Y1167517D01*
X3946979Y1168850D01*
X3947170Y1170278D01*
X3947265Y1171801D01*
Y1173419D01*
Y1173514D01*
Y1173800D01*
Y1174276D01*
Y1174847D01*
X3947170Y1175609D01*
X3947074Y1176466D01*
X3946884Y1178465D01*
X3946503Y1180559D01*
X3946027Y1182844D01*
X3945266Y1184938D01*
X3944790Y1185986D01*
X3944314Y1186842D01*
Y1186938D01*
X3944218Y1187033D01*
X3943742Y1187604D01*
X3943076Y1188366D01*
X3942124Y1189222D01*
X3940886Y1190079D01*
X3939458Y1190746D01*
X3937745Y1191317D01*
X3936793Y1191412D01*
X3935746Y1191507D01*
D02*
G37*
G36*
X3677278D02*
X3676706D01*
X3676421Y1191412D01*
X3675374Y1191317D01*
X3674136Y1190936D01*
X3672803Y1190365D01*
X3671375Y1189603D01*
X3670042Y1188461D01*
X3669471Y1187699D01*
X3668900Y1186938D01*
Y1186842D01*
X3668805Y1186747D01*
X3668614Y1186462D01*
X3668424Y1186081D01*
X3668234Y1185605D01*
X3668043Y1185034D01*
X3667758Y1184367D01*
X3667472Y1183510D01*
X3667186Y1182654D01*
X3666996Y1181606D01*
X3666710Y1180559D01*
X3666520Y1179322D01*
X3666330Y1177989D01*
X3666139Y1176561D01*
X3666044Y1175038D01*
Y1173419D01*
Y1173324D01*
Y1173038D01*
Y1172562D01*
X3666139Y1171896D01*
Y1171230D01*
X3666234Y1170278D01*
X3666425Y1168374D01*
X3666710Y1166089D01*
X3667282Y1163899D01*
X3667948Y1161710D01*
X3668424Y1160758D01*
X3668900Y1159806D01*
X3668995Y1159615D01*
X3669471Y1159139D01*
X3670138Y1158378D01*
X3670994Y1157616D01*
X3672232Y1156759D01*
X3673660Y1155998D01*
X3675374Y1155522D01*
X3676230Y1155426D01*
X3677278Y1155331D01*
X3677849D01*
X3678230Y1155426D01*
X3679182Y1155617D01*
X3680419Y1155902D01*
X3681847Y1156474D01*
X3683275Y1157235D01*
X3684608Y1158378D01*
X3685274Y1159139D01*
X3685846Y1159901D01*
Y1159996D01*
X3685941Y1160091D01*
X3686131Y1160377D01*
X3686322Y1160758D01*
X3686512Y1161234D01*
X3686798Y1161805D01*
X3687083Y1162471D01*
X3687369Y1163328D01*
X3687559Y1164185D01*
X3687845Y1165232D01*
X3688130Y1166279D01*
X3688321Y1167517D01*
X3688511Y1168850D01*
X3688702Y1170278D01*
X3688797Y1171801D01*
Y1173419D01*
Y1173514D01*
Y1173800D01*
Y1174276D01*
Y1174847D01*
X3688702Y1175609D01*
X3688606Y1176466D01*
X3688416Y1178465D01*
X3688035Y1180559D01*
X3687559Y1182844D01*
X3686798Y1184938D01*
X3686322Y1185986D01*
X3685846Y1186842D01*
Y1186938D01*
X3685750Y1187033D01*
X3685274Y1187604D01*
X3684608Y1188366D01*
X3683656Y1189222D01*
X3682418Y1190079D01*
X3680990Y1190746D01*
X3679277Y1191317D01*
X3678325Y1191412D01*
X3677278Y1191507D01*
D02*
G37*
G36*
X3379397Y1173610D02*
X3368449D01*
X3367878Y1173514D01*
X3367211D01*
X3365783Y1173324D01*
X3364070Y1173038D01*
X3362356Y1172562D01*
X3360738Y1171991D01*
X3359310Y1171230D01*
X3359214Y1171134D01*
X3358834Y1170754D01*
X3358262Y1170182D01*
X3357691Y1169421D01*
X3357025Y1168469D01*
X3356549Y1167231D01*
X3356168Y1165803D01*
X3355978Y1164090D01*
Y1163899D01*
Y1163423D01*
X3356073Y1162662D01*
X3356263Y1161710D01*
X3356549Y1160662D01*
X3357025Y1159520D01*
X3357596Y1158473D01*
X3358453Y1157521D01*
X3358548Y1157426D01*
X3358929Y1157140D01*
X3359500Y1156759D01*
X3360357Y1156378D01*
X3361309Y1155998D01*
X3362546Y1155617D01*
X3363974Y1155331D01*
X3365593Y1155236D01*
X3366164D01*
X3366640Y1155331D01*
X3367211D01*
X3367782Y1155426D01*
X3369210Y1155807D01*
X3370829Y1156283D01*
X3372542Y1157045D01*
X3374161Y1158187D01*
X3374922Y1158854D01*
X3375589Y1159615D01*
Y1159710D01*
X3375779Y1159806D01*
X3375970Y1160091D01*
X3376160Y1160472D01*
X3376446Y1160853D01*
X3376731Y1161424D01*
X3377493Y1162757D01*
X3378159Y1164470D01*
X3378730Y1166565D01*
X3379206Y1169040D01*
X3379397Y1171801D01*
Y1173610D01*
D02*
G37*
G36*
X3886527Y1191507D02*
X3885956D01*
X3885575Y1191412D01*
X3884528Y1191317D01*
X3883290Y1191031D01*
X3881767Y1190650D01*
X3880244Y1189984D01*
X3878721Y1189032D01*
X3877293Y1187794D01*
X3877102Y1187604D01*
X3876722Y1187128D01*
X3876150Y1186271D01*
X3875484Y1185129D01*
X3874722Y1183701D01*
X3874056Y1181892D01*
X3873485Y1179798D01*
X3873104Y1177513D01*
X3898522Y1177608D01*
Y1177703D01*
Y1177894D01*
Y1178274D01*
X3898427Y1178750D01*
Y1179322D01*
X3898332Y1179893D01*
X3898046Y1181416D01*
X3897666Y1183130D01*
X3897094Y1184843D01*
X3896333Y1186462D01*
X3895286Y1187890D01*
X3895190Y1188080D01*
X3894714Y1188461D01*
X3894048Y1189032D01*
X3893096Y1189698D01*
X3891858Y1190365D01*
X3890335Y1190936D01*
X3888526Y1191317D01*
X3886527Y1191507D01*
D02*
G37*
G36*
X3626822D02*
X3626250D01*
X3625870Y1191412D01*
X3624822Y1191317D01*
X3623585Y1190936D01*
X3622157Y1190365D01*
X3620634Y1189603D01*
X3619206Y1188461D01*
X3618539Y1187699D01*
X3617968Y1186938D01*
Y1186842D01*
X3617873Y1186747D01*
X3617682Y1186462D01*
X3617492Y1186081D01*
X3617302Y1185605D01*
X3617016Y1185034D01*
X3616730Y1184367D01*
X3616540Y1183510D01*
X3616254Y1182654D01*
X3615969Y1181606D01*
X3615683Y1180559D01*
X3615493Y1179322D01*
X3615302Y1177989D01*
X3615112Y1176561D01*
X3615017Y1175038D01*
Y1173419D01*
Y1173324D01*
Y1173038D01*
Y1172562D01*
X3615112Y1171991D01*
Y1171230D01*
X3615207Y1170373D01*
X3615398Y1168374D01*
X3615778Y1166184D01*
X3616254Y1163899D01*
X3617016Y1161805D01*
X3617492Y1160853D01*
X3617968Y1159901D01*
Y1159806D01*
X3618158Y1159710D01*
X3618539Y1159234D01*
X3619206Y1158473D01*
X3620253Y1157616D01*
X3621490Y1156759D01*
X3623014Y1156093D01*
X3624822Y1155522D01*
X3625774Y1155426D01*
X3626822Y1155331D01*
X3627393D01*
X3627774Y1155426D01*
X3628821Y1155617D01*
X3630154Y1155902D01*
X3631582Y1156474D01*
X3633105Y1157235D01*
X3634533Y1158378D01*
X3635199Y1159139D01*
X3635770Y1159901D01*
Y1159996D01*
X3635866Y1160091D01*
X3636056Y1160377D01*
X3636246Y1160758D01*
X3636437Y1161234D01*
X3636722Y1161805D01*
X3637008Y1162471D01*
X3637294Y1163328D01*
X3637579Y1164185D01*
X3637865Y1165232D01*
X3638150Y1166279D01*
X3638341Y1167517D01*
X3638531Y1168850D01*
X3638722Y1170278D01*
X3638817Y1171801D01*
Y1173419D01*
Y1173514D01*
Y1173800D01*
Y1174276D01*
Y1174847D01*
X3638722Y1175609D01*
X3638626Y1176466D01*
X3638436Y1178465D01*
X3638055Y1180654D01*
X3637579Y1182939D01*
X3636818Y1185034D01*
X3636342Y1186081D01*
X3635770Y1186938D01*
Y1187033D01*
X3635675Y1187128D01*
X3635199Y1187699D01*
X3634533Y1188366D01*
X3633486Y1189222D01*
X3632248Y1190079D01*
X3630725Y1190841D01*
X3628916Y1191317D01*
X3627869Y1191412D01*
X3626822Y1191507D01*
D02*
G37*
G36*
X3563613Y1282658D02*
X3563609Y1282654D01*
Y1282558D01*
X3563613Y1282658D01*
D02*
G37*
G36*
X3576651Y1284653D02*
X3576175D01*
X3575794Y1284558D01*
X3574747Y1284462D01*
X3573510Y1284177D01*
X3572177Y1283701D01*
X3570749Y1283034D01*
X3569321Y1282082D01*
X3568083Y1280750D01*
X3567988Y1280559D01*
X3567607Y1280083D01*
X3567131Y1279131D01*
X3566560Y1277989D01*
X3565989Y1276370D01*
X3565513Y1274562D01*
X3565132Y1272467D01*
X3565037Y1269992D01*
Y1269897D01*
Y1269706D01*
Y1269326D01*
X3565132Y1268850D01*
Y1268278D01*
X3565227Y1267612D01*
X3565418Y1266089D01*
X3565798Y1264375D01*
X3566370Y1262566D01*
X3567036Y1260853D01*
X3568083Y1259234D01*
X3568274Y1259044D01*
X3568654Y1258663D01*
X3569321Y1257997D01*
X3570368Y1257330D01*
X3571606Y1256664D01*
X3573034Y1255998D01*
X3574747Y1255617D01*
X3576651Y1255426D01*
X3577222D01*
X3577603Y1255522D01*
X3578555Y1255617D01*
X3579793Y1255902D01*
X3581221Y1256283D01*
X3582554Y1256950D01*
X3583982Y1257806D01*
X3585124Y1259044D01*
X3585219Y1259234D01*
X3585600Y1259710D01*
X3586076Y1260567D01*
X3586552Y1261805D01*
X3587123Y1263328D01*
X3587504Y1265232D01*
X3587885Y1267422D01*
X3587980Y1269992D01*
Y1270087D01*
Y1270278D01*
Y1270658D01*
Y1271230D01*
X3587885Y1271801D01*
X3587790Y1272467D01*
X3587599Y1274086D01*
X3587314Y1275894D01*
X3586742Y1277703D01*
X3586076Y1279417D01*
X3585124Y1280940D01*
X3585029Y1281130D01*
X3584553Y1281511D01*
X3583886Y1282082D01*
X3583030Y1282844D01*
X3581792Y1283510D01*
X3580364Y1284082D01*
X3578650Y1284462D01*
X3576651Y1284653D01*
D02*
G37*
G36*
X4356339Y1304835D02*
X4336633Y1271801D01*
X4356339D01*
Y1304835D01*
D02*
G37*
G36*
X4142139Y1305692D02*
X4133286D01*
Y1283415D01*
X4143567D01*
X4144614Y1283606D01*
X4145947Y1283796D01*
X4147375Y1284082D01*
X4148898Y1284558D01*
X4150326Y1285224D01*
X4151564Y1286081D01*
X4151659Y1286176D01*
X4152040Y1286557D01*
X4152516Y1287223D01*
X4153087Y1288175D01*
X4153658Y1289318D01*
X4154134Y1290746D01*
X4154515Y1292459D01*
X4154610Y1294458D01*
Y1294554D01*
Y1294744D01*
Y1294934D01*
Y1295315D01*
X4154420Y1296362D01*
X4154230Y1297505D01*
X4153849Y1298838D01*
X4153278Y1300266D01*
X4152421Y1301598D01*
X4151374Y1302741D01*
X4151183Y1302836D01*
X4150802Y1303217D01*
X4150041Y1303693D01*
X4149089Y1304264D01*
X4147756Y1304740D01*
X4146138Y1305216D01*
X4144329Y1305597D01*
X4142139Y1305692D01*
D02*
G37*
G36*
X3775143D02*
X3771145D01*
Y1256950D01*
X3776190D01*
X3776857Y1257045D01*
X3777714Y1257140D01*
X3778761Y1257235D01*
X3779808Y1257426D01*
X3781046Y1257616D01*
X3783521Y1258187D01*
X3785996Y1259139D01*
X3787138Y1259806D01*
X3788186Y1260472D01*
X3789233Y1261234D01*
X3790090Y1262186D01*
X3790185Y1262281D01*
X3790280Y1262471D01*
X3790470Y1262757D01*
X3790756Y1263233D01*
X3791042Y1263804D01*
X3791422Y1264566D01*
X3791803Y1265518D01*
X3792279Y1266565D01*
X3792660Y1267707D01*
X3793041Y1269135D01*
X3793422Y1270658D01*
X3793707Y1272467D01*
X3793993Y1274371D01*
X3794183Y1276466D01*
X3794374Y1278750D01*
Y1281226D01*
Y1281416D01*
Y1281797D01*
Y1282558D01*
X3794278Y1283510D01*
Y1284653D01*
X3794183Y1285890D01*
X3793993Y1287318D01*
X3793802Y1288842D01*
X3793326Y1291983D01*
X3792565Y1295125D01*
X3792089Y1296648D01*
X3791518Y1298076D01*
X3790851Y1299314D01*
X3790090Y1300361D01*
Y1300456D01*
X3789899Y1300551D01*
X3789614Y1300837D01*
X3789233Y1301218D01*
X3788757Y1301598D01*
X3788186Y1302074D01*
X3787519Y1302550D01*
X3786662Y1303026D01*
X3785710Y1303502D01*
X3784568Y1303978D01*
X3783426Y1304454D01*
X3781998Y1304835D01*
X3780474Y1305216D01*
X3778856Y1305502D01*
X3777047Y1305597D01*
X3775143Y1305692D01*
D02*
G37*
G36*
X3318278D02*
X3308473D01*
Y1282178D01*
X3318850D01*
X3319230Y1282273D01*
X3320278Y1282368D01*
X3321610Y1282558D01*
X3323038Y1282939D01*
X3324562Y1283510D01*
X3326085Y1284177D01*
X3327418Y1285224D01*
X3327608Y1285414D01*
X3327989Y1285795D01*
X3328465Y1286557D01*
X3329131Y1287509D01*
X3329702Y1288746D01*
X3330274Y1290174D01*
X3330654Y1291888D01*
X3330750Y1293887D01*
Y1293982D01*
Y1294173D01*
Y1294458D01*
X3330654Y1294839D01*
X3330559Y1295791D01*
X3330369Y1297124D01*
X3329893Y1298457D01*
X3329322Y1299885D01*
X3328560Y1301313D01*
X3327418Y1302550D01*
X3327227Y1302646D01*
X3326846Y1303026D01*
X3326085Y1303502D01*
X3325038Y1304169D01*
X3323800Y1304740D01*
X3322182Y1305216D01*
X3320373Y1305597D01*
X3318278Y1305692D01*
D02*
G37*
G36*
X4299695Y1307025D02*
X4299124D01*
X4298743Y1306930D01*
X4297696Y1306644D01*
X4296363Y1306263D01*
X4294935Y1305406D01*
X4294174Y1304930D01*
X4293507Y1304264D01*
X4292746Y1303598D01*
X4292079Y1302646D01*
X4291413Y1301694D01*
X4290842Y1300551D01*
Y1300456D01*
X4290746Y1300266D01*
X4290556Y1299885D01*
X4290366Y1299314D01*
X4290175Y1298647D01*
X4289985Y1297886D01*
X4289699Y1296838D01*
X4289414Y1295696D01*
X4289128Y1294458D01*
X4288938Y1293030D01*
X4288652Y1291412D01*
X4288462Y1289698D01*
X4288271Y1287794D01*
X4288081Y1285700D01*
X4287986Y1283510D01*
Y1281130D01*
Y1280940D01*
Y1280559D01*
Y1279893D01*
X4288081Y1279036D01*
Y1277894D01*
X4288176Y1276656D01*
X4288271Y1275323D01*
X4288366Y1273895D01*
X4288652Y1270754D01*
X4289223Y1267517D01*
X4289509Y1265994D01*
X4289890Y1264470D01*
X4290366Y1263042D01*
X4290842Y1261805D01*
Y1261710D01*
X4290937Y1261519D01*
X4291127Y1261234D01*
X4291413Y1260853D01*
X4292079Y1259806D01*
X4293031Y1258663D01*
X4294269Y1257426D01*
X4295792Y1256474D01*
X4296649Y1255998D01*
X4297601Y1255712D01*
X4298648Y1255522D01*
X4299695Y1255426D01*
X4300266D01*
X4300647Y1255522D01*
X4301790Y1255807D01*
X4303027Y1256188D01*
X4304550Y1256950D01*
X4305217Y1257521D01*
X4305978Y1258092D01*
X4306740Y1258854D01*
X4307406Y1259710D01*
X4308073Y1260662D01*
X4308644Y1261805D01*
Y1261900D01*
X4308739Y1262090D01*
X4308930Y1262471D01*
X4309120Y1263042D01*
X4309310Y1263709D01*
X4309596Y1264470D01*
X4309882Y1265518D01*
X4310167Y1266660D01*
X4310358Y1267898D01*
X4310643Y1269326D01*
X4310929Y1270944D01*
X4311119Y1272658D01*
X4311310Y1274562D01*
X4311500Y1276561D01*
X4311595Y1278750D01*
Y1281130D01*
Y1281321D01*
Y1281702D01*
Y1282368D01*
Y1283225D01*
X4311500Y1284367D01*
X4311405Y1285605D01*
X4311310Y1286938D01*
X4311214Y1288461D01*
X4310834Y1291602D01*
X4310358Y1294839D01*
X4309977Y1296362D01*
X4309596Y1297886D01*
X4309120Y1299314D01*
X4308644Y1300551D01*
Y1300646D01*
X4308549Y1300837D01*
X4308358Y1301122D01*
X4308073Y1301598D01*
X4307406Y1302646D01*
X4306454Y1303788D01*
X4305122Y1305026D01*
X4303598Y1305978D01*
X4302742Y1306454D01*
X4301790Y1306739D01*
X4300742Y1306930D01*
X4299695Y1307025D01*
D02*
G37*
%LPD*%
G36*
X4300457Y1286938D02*
X4301028Y1286842D01*
X4301694Y1286652D01*
X4302361Y1286271D01*
X4303027Y1285890D01*
X4303694Y1285319D01*
X4303789Y1285224D01*
X4303979Y1285034D01*
X4304265Y1284653D01*
X4304550Y1284177D01*
X4304836Y1283606D01*
X4305122Y1282939D01*
X4305312Y1282178D01*
X4305407Y1281321D01*
Y1281226D01*
Y1280940D01*
X4305312Y1280559D01*
X4305217Y1279988D01*
X4305026Y1279322D01*
X4304646Y1278750D01*
X4304265Y1278084D01*
X4303694Y1277418D01*
X4303598Y1277322D01*
X4303408Y1277132D01*
X4303027Y1276942D01*
X4302551Y1276656D01*
X4301980Y1276275D01*
X4301314Y1276085D01*
X4300457Y1275894D01*
X4299600Y1275799D01*
X4299219D01*
X4298838Y1275894D01*
X4298267Y1275990D01*
X4297601Y1276180D01*
X4297030Y1276466D01*
X4296363Y1276846D01*
X4295697Y1277322D01*
X4295602Y1277418D01*
X4295506Y1277608D01*
X4295221Y1277989D01*
X4294935Y1278465D01*
X4294650Y1279036D01*
X4294459Y1279702D01*
X4294269Y1280464D01*
X4294174Y1281321D01*
Y1281416D01*
Y1281702D01*
X4294269Y1282178D01*
X4294364Y1282654D01*
X4294554Y1283320D01*
X4294840Y1283986D01*
X4295221Y1284653D01*
X4295792Y1285319D01*
X4295887Y1285414D01*
X4296078Y1285605D01*
X4296458Y1285890D01*
X4296839Y1286176D01*
X4297410Y1286462D01*
X4298077Y1286747D01*
X4298838Y1286938D01*
X4299600Y1287033D01*
X4299981D01*
X4300457Y1286938D01*
D02*
G37*
%LPC*%
G36*
X3989534Y1307025D02*
X3988962D01*
X3988582Y1306930D01*
X3987534Y1306644D01*
X3986202Y1306263D01*
X3984774Y1305406D01*
X3984012Y1304930D01*
X3983346Y1304264D01*
X3982584Y1303598D01*
X3981918Y1302646D01*
X3981251Y1301694D01*
X3980680Y1300551D01*
Y1300456D01*
X3980585Y1300266D01*
X3980394Y1299885D01*
X3980204Y1299314D01*
X3980014Y1298647D01*
X3979823Y1297886D01*
X3979538Y1296838D01*
X3979252Y1295696D01*
X3978966Y1294458D01*
X3978776Y1293030D01*
X3978490Y1291412D01*
X3978300Y1289698D01*
X3978110Y1287794D01*
X3977919Y1285700D01*
X3977824Y1283510D01*
Y1281130D01*
Y1280940D01*
Y1280559D01*
Y1279893D01*
X3977919Y1279036D01*
Y1277894D01*
X3978014Y1276656D01*
X3978110Y1275323D01*
X3978205Y1273895D01*
X3978490Y1270754D01*
X3979062Y1267517D01*
X3979347Y1265994D01*
X3979728Y1264470D01*
X3980204Y1263042D01*
X3980680Y1261805D01*
Y1261710D01*
X3980775Y1261519D01*
X3980966Y1261234D01*
X3981251Y1260853D01*
X3981918Y1259806D01*
X3982870Y1258663D01*
X3984107Y1257426D01*
X3985630Y1256474D01*
X3986487Y1255998D01*
X3987439Y1255712D01*
X3988486Y1255522D01*
X3989534Y1255426D01*
X3990105D01*
X3990486Y1255522D01*
X3991628Y1255807D01*
X3992866Y1256188D01*
X3994389Y1256950D01*
X3995055Y1257521D01*
X3995817Y1258092D01*
X3996578Y1258854D01*
X3997245Y1259710D01*
X3997911Y1260662D01*
X3998482Y1261805D01*
Y1261900D01*
X3998578Y1262090D01*
X3998768Y1262471D01*
X3998958Y1263042D01*
X3999149Y1263709D01*
X3999434Y1264470D01*
X3999720Y1265518D01*
X4000006Y1266660D01*
X4000196Y1267898D01*
X4000482Y1269326D01*
X4000767Y1270944D01*
X4000958Y1272658D01*
X4001148Y1274562D01*
X4001338Y1276561D01*
X4001434Y1278750D01*
Y1281130D01*
Y1281321D01*
Y1281702D01*
Y1282368D01*
Y1283225D01*
X4001338Y1284367D01*
X4001243Y1285605D01*
X4001148Y1286938D01*
X4001053Y1288461D01*
X4000672Y1291602D01*
X4000196Y1294839D01*
X3999815Y1296362D01*
X3999434Y1297886D01*
X3998958Y1299314D01*
X3998482Y1300551D01*
Y1300646D01*
X3998387Y1300837D01*
X3998197Y1301122D01*
X3997911Y1301598D01*
X3997245Y1302646D01*
X3996293Y1303788D01*
X3994960Y1305026D01*
X3993437Y1305978D01*
X3992580Y1306454D01*
X3991628Y1306739D01*
X3990581Y1306930D01*
X3989534Y1307025D01*
D02*
G37*
%LPD*%
G36*
X3990295Y1286938D02*
X3990866Y1286842D01*
X3991533Y1286652D01*
X3992199Y1286271D01*
X3992866Y1285890D01*
X3993532Y1285319D01*
X3993627Y1285224D01*
X3993818Y1285034D01*
X3994103Y1284653D01*
X3994389Y1284177D01*
X3994674Y1283606D01*
X3994960Y1282939D01*
X3995150Y1282178D01*
X3995246Y1281321D01*
Y1281226D01*
Y1280940D01*
X3995150Y1280559D01*
X3995055Y1279988D01*
X3994865Y1279322D01*
X3994484Y1278750D01*
X3994103Y1278084D01*
X3993532Y1277418D01*
X3993437Y1277322D01*
X3993246Y1277132D01*
X3992866Y1276942D01*
X3992390Y1276656D01*
X3991818Y1276275D01*
X3991152Y1276085D01*
X3990295Y1275894D01*
X3989438Y1275799D01*
X3989058D01*
X3988677Y1275894D01*
X3988106Y1275990D01*
X3987439Y1276180D01*
X3986868Y1276466D01*
X3986202Y1276846D01*
X3985535Y1277322D01*
X3985440Y1277418D01*
X3985345Y1277608D01*
X3985059Y1277989D01*
X3984774Y1278465D01*
X3984488Y1279036D01*
X3984298Y1279702D01*
X3984107Y1280464D01*
X3984012Y1281321D01*
Y1281416D01*
Y1281702D01*
X3984107Y1282178D01*
X3984202Y1282654D01*
X3984393Y1283320D01*
X3984678Y1283986D01*
X3985059Y1284653D01*
X3985630Y1285319D01*
X3985726Y1285414D01*
X3985916Y1285605D01*
X3986297Y1285890D01*
X3986678Y1286176D01*
X3987249Y1286462D01*
X3987915Y1286747D01*
X3988677Y1286938D01*
X3989438Y1287033D01*
X3989819D01*
X3990295Y1286938D01*
D02*
G37*
%LPC*%
G36*
X3679372Y1307025D02*
X3678801D01*
X3678420Y1306930D01*
X3677373Y1306644D01*
X3676040Y1306263D01*
X3674612Y1305406D01*
X3673850Y1304930D01*
X3673184Y1304264D01*
X3672422Y1303598D01*
X3671756Y1302646D01*
X3671090Y1301694D01*
X3670518Y1300551D01*
Y1300456D01*
X3670423Y1300266D01*
X3670233Y1299885D01*
X3670042Y1299314D01*
X3669852Y1298647D01*
X3669662Y1297886D01*
X3669376Y1296838D01*
X3669090Y1295696D01*
X3668805Y1294458D01*
X3668614Y1293030D01*
X3668329Y1291412D01*
X3668138Y1289698D01*
X3667948Y1287794D01*
X3667758Y1285700D01*
X3667662Y1283510D01*
Y1281130D01*
Y1280940D01*
Y1280559D01*
Y1279893D01*
X3667758Y1279036D01*
Y1277894D01*
X3667853Y1276656D01*
X3667948Y1275323D01*
X3668043Y1273895D01*
X3668329Y1270754D01*
X3668900Y1267517D01*
X3669186Y1265994D01*
X3669566Y1264470D01*
X3670042Y1263042D01*
X3670518Y1261805D01*
Y1261710D01*
X3670614Y1261519D01*
X3670804Y1261234D01*
X3671090Y1260853D01*
X3671756Y1259806D01*
X3672708Y1258663D01*
X3673946Y1257426D01*
X3675469Y1256474D01*
X3676326Y1255998D01*
X3677278Y1255712D01*
X3678325Y1255522D01*
X3679372Y1255426D01*
X3679943D01*
X3680324Y1255522D01*
X3681466Y1255807D01*
X3682704Y1256188D01*
X3684227Y1256950D01*
X3684894Y1257521D01*
X3685655Y1258092D01*
X3686417Y1258854D01*
X3687083Y1259710D01*
X3687750Y1260662D01*
X3688321Y1261805D01*
Y1261900D01*
X3688416Y1262090D01*
X3688606Y1262471D01*
X3688797Y1263042D01*
X3688987Y1263709D01*
X3689273Y1264470D01*
X3689558Y1265518D01*
X3689844Y1266660D01*
X3690034Y1267898D01*
X3690320Y1269326D01*
X3690606Y1270944D01*
X3690796Y1272658D01*
X3690986Y1274562D01*
X3691177Y1276561D01*
X3691272Y1278750D01*
Y1281130D01*
Y1281321D01*
Y1281702D01*
Y1282368D01*
Y1283225D01*
X3691177Y1284367D01*
X3691082Y1285605D01*
X3690986Y1286938D01*
X3690891Y1288461D01*
X3690510Y1291602D01*
X3690034Y1294839D01*
X3689654Y1296362D01*
X3689273Y1297886D01*
X3688797Y1299314D01*
X3688321Y1300551D01*
Y1300646D01*
X3688226Y1300837D01*
X3688035Y1301122D01*
X3687750Y1301598D01*
X3687083Y1302646D01*
X3686131Y1303788D01*
X3684798Y1305026D01*
X3683275Y1305978D01*
X3682418Y1306454D01*
X3681466Y1306739D01*
X3680419Y1306930D01*
X3679372Y1307025D01*
D02*
G37*
%LPD*%
G36*
X3680134Y1286938D02*
X3680705Y1286842D01*
X3681371Y1286652D01*
X3682038Y1286271D01*
X3682704Y1285890D01*
X3683370Y1285319D01*
X3683466Y1285224D01*
X3683656Y1285034D01*
X3683942Y1284653D01*
X3684227Y1284177D01*
X3684513Y1283606D01*
X3684798Y1282939D01*
X3684989Y1282178D01*
X3685084Y1281321D01*
Y1281226D01*
Y1280940D01*
X3684989Y1280559D01*
X3684894Y1279988D01*
X3684703Y1279322D01*
X3684322Y1278750D01*
X3683942Y1278084D01*
X3683370Y1277418D01*
X3683275Y1277322D01*
X3683085Y1277132D01*
X3682704Y1276942D01*
X3682228Y1276656D01*
X3681657Y1276275D01*
X3680990Y1276085D01*
X3680134Y1275894D01*
X3679277Y1275799D01*
X3678896D01*
X3678515Y1275894D01*
X3677944Y1275990D01*
X3677278Y1276180D01*
X3676706Y1276466D01*
X3676040Y1276846D01*
X3675374Y1277322D01*
X3675278Y1277418D01*
X3675183Y1277608D01*
X3674898Y1277989D01*
X3674612Y1278465D01*
X3674326Y1279036D01*
X3674136Y1279702D01*
X3673946Y1280464D01*
X3673850Y1281321D01*
Y1281416D01*
Y1281702D01*
X3673946Y1282178D01*
X3674041Y1282654D01*
X3674231Y1283320D01*
X3674517Y1283986D01*
X3674898Y1284653D01*
X3675469Y1285319D01*
X3675564Y1285414D01*
X3675754Y1285605D01*
X3676135Y1285890D01*
X3676516Y1286176D01*
X3677087Y1286462D01*
X3677754Y1286747D01*
X3678515Y1286938D01*
X3679277Y1287033D01*
X3679658D01*
X3680134Y1286938D01*
D02*
G37*
%LPC*%
G36*
X3627678Y1307025D02*
X3627107D01*
X3626726Y1306930D01*
X3625679Y1306644D01*
X3624346Y1306263D01*
X3622918Y1305406D01*
X3622157Y1304930D01*
X3621490Y1304264D01*
X3620729Y1303598D01*
X3620062Y1302646D01*
X3619396Y1301694D01*
X3618825Y1300551D01*
Y1300456D01*
X3618730Y1300266D01*
X3618539Y1299885D01*
X3618349Y1299314D01*
X3618158Y1298647D01*
X3617968Y1297886D01*
X3617682Y1296838D01*
X3617397Y1295696D01*
X3617111Y1294458D01*
X3616921Y1293030D01*
X3616635Y1291412D01*
X3616445Y1289698D01*
X3616254Y1287794D01*
X3616064Y1285700D01*
X3615969Y1283510D01*
Y1281130D01*
Y1280940D01*
Y1280559D01*
Y1279893D01*
X3616064Y1279036D01*
Y1277894D01*
X3616159Y1276656D01*
X3616254Y1275323D01*
X3616350Y1273895D01*
X3616635Y1270754D01*
X3617206Y1267517D01*
X3617492Y1265994D01*
X3617873Y1264470D01*
X3618349Y1263042D01*
X3618825Y1261805D01*
Y1261710D01*
X3618920Y1261519D01*
X3619110Y1261234D01*
X3619396Y1260853D01*
X3620062Y1259806D01*
X3621014Y1258663D01*
X3622252Y1257426D01*
X3623775Y1256474D01*
X3624632Y1255998D01*
X3625584Y1255712D01*
X3626631Y1255522D01*
X3627678Y1255426D01*
X3628250D01*
X3628630Y1255522D01*
X3629773Y1255807D01*
X3631010Y1256188D01*
X3632534Y1256950D01*
X3633200Y1257521D01*
X3633962Y1258092D01*
X3634723Y1258854D01*
X3635390Y1259710D01*
X3636056Y1260662D01*
X3636627Y1261805D01*
Y1261900D01*
X3636722Y1262090D01*
X3636913Y1262471D01*
X3637103Y1263042D01*
X3637294Y1263709D01*
X3637579Y1264470D01*
X3637865Y1265518D01*
X3638150Y1266660D01*
X3638341Y1267898D01*
X3638626Y1269326D01*
X3638912Y1270944D01*
X3639102Y1272658D01*
X3639293Y1274562D01*
X3639483Y1276561D01*
X3639578Y1278750D01*
Y1281130D01*
Y1281321D01*
Y1281702D01*
Y1282368D01*
Y1283225D01*
X3639483Y1284367D01*
X3639388Y1285605D01*
X3639293Y1286938D01*
X3639198Y1288461D01*
X3638817Y1291602D01*
X3638341Y1294839D01*
X3637960Y1296362D01*
X3637579Y1297886D01*
X3637103Y1299314D01*
X3636627Y1300551D01*
Y1300646D01*
X3636532Y1300837D01*
X3636342Y1301122D01*
X3636056Y1301598D01*
X3635390Y1302646D01*
X3634438Y1303788D01*
X3633105Y1305026D01*
X3631582Y1305978D01*
X3630725Y1306454D01*
X3629773Y1306739D01*
X3628726Y1306930D01*
X3627678Y1307025D01*
D02*
G37*
%LPD*%
G36*
X3628440Y1286938D02*
X3629011Y1286842D01*
X3629678Y1286652D01*
X3630344Y1286271D01*
X3631010Y1285890D01*
X3631677Y1285319D01*
X3631772Y1285224D01*
X3631962Y1285034D01*
X3632248Y1284653D01*
X3632534Y1284177D01*
X3632819Y1283606D01*
X3633105Y1282939D01*
X3633295Y1282178D01*
X3633390Y1281321D01*
Y1281226D01*
Y1280940D01*
X3633295Y1280559D01*
X3633200Y1279988D01*
X3633010Y1279322D01*
X3632629Y1278750D01*
X3632248Y1278084D01*
X3631677Y1277418D01*
X3631582Y1277322D01*
X3631391Y1277132D01*
X3631010Y1276942D01*
X3630534Y1276656D01*
X3629963Y1276275D01*
X3629297Y1276085D01*
X3628440Y1275894D01*
X3627583Y1275799D01*
X3627202D01*
X3626822Y1275894D01*
X3626250Y1275990D01*
X3625584Y1276180D01*
X3625013Y1276466D01*
X3624346Y1276846D01*
X3623680Y1277322D01*
X3623585Y1277418D01*
X3623490Y1277608D01*
X3623204Y1277989D01*
X3622918Y1278465D01*
X3622633Y1279036D01*
X3622442Y1279702D01*
X3622252Y1280464D01*
X3622157Y1281321D01*
Y1281416D01*
Y1281702D01*
X3622252Y1282178D01*
X3622347Y1282654D01*
X3622538Y1283320D01*
X3622823Y1283986D01*
X3623204Y1284653D01*
X3623775Y1285319D01*
X3623870Y1285414D01*
X3624061Y1285605D01*
X3624442Y1285890D01*
X3624822Y1286176D01*
X3625394Y1286462D01*
X3626060Y1286747D01*
X3626822Y1286938D01*
X3627583Y1287033D01*
X3627964D01*
X3628440Y1286938D01*
D02*
G37*
%LPC*%
G36*
X4294950Y756549D02*
X4279813D01*
Y737128D01*
X4295521D01*
X4296758Y737223D01*
X4297996Y737318D01*
X4299329Y737414D01*
X4300566Y737604D01*
X4301614Y737794D01*
X4301804Y737890D01*
X4302185Y737985D01*
X4302756Y738175D01*
X4303422Y738556D01*
X4304184Y738937D01*
X4305041Y739508D01*
X4305802Y740174D01*
X4306469Y740936D01*
X4306564Y741031D01*
X4306754Y741317D01*
X4307040Y741888D01*
X4307326Y742554D01*
X4307611Y743316D01*
X4307897Y744268D01*
X4308087Y745410D01*
X4308182Y746648D01*
Y746838D01*
Y747219D01*
X4308087Y747790D01*
X4307992Y748552D01*
X4307802Y749409D01*
X4307516Y750361D01*
X4307135Y751313D01*
X4306564Y752265D01*
X4306469Y752360D01*
X4306278Y752646D01*
X4305898Y753122D01*
X4305422Y753598D01*
X4304850Y754169D01*
X4304089Y754740D01*
X4303232Y755216D01*
X4302185Y755597D01*
X4302090D01*
X4301614Y755787D01*
X4300947Y755882D01*
X4299995Y756073D01*
X4298662Y756263D01*
X4296949Y756358D01*
X4294950Y756549D01*
D02*
G37*
G36*
X4296758Y729607D02*
X4279813D01*
Y707521D01*
X4297996D01*
X4299900Y707616D01*
X4300757Y707711D01*
X4301518Y707806D01*
X4301614D01*
X4301994Y707902D01*
X4302566Y707997D01*
X4303232Y708187D01*
X4304850Y708758D01*
X4305612Y709139D01*
X4306374Y709520D01*
X4306469Y709615D01*
X4306754Y709710D01*
X4307040Y709996D01*
X4307516Y710472D01*
X4308087Y710948D01*
X4308563Y711519D01*
X4309134Y712281D01*
X4309610Y713042D01*
X4309706Y713138D01*
X4309801Y713423D01*
X4309991Y713994D01*
X4310277Y714661D01*
X4310562Y715422D01*
X4310753Y716374D01*
X4310848Y717422D01*
X4310943Y718564D01*
Y718754D01*
Y719135D01*
X4310848Y719802D01*
X4310753Y720658D01*
X4310467Y721610D01*
X4310182Y722658D01*
X4309706Y723705D01*
X4309039Y724752D01*
X4308944Y724847D01*
X4308658Y725228D01*
X4308278Y725609D01*
X4307706Y726180D01*
X4306945Y726846D01*
X4306088Y727418D01*
X4305041Y727989D01*
X4303898Y728465D01*
X4303708Y728560D01*
X4303327Y728655D01*
X4302566Y728846D01*
X4301518Y729036D01*
X4300186Y729226D01*
X4298567Y729417D01*
X4296758Y729607D01*
D02*
G37*
G36*
X4359400Y757882D02*
X4358543D01*
X4357877Y757786D01*
X4357115Y757691D01*
X4356258Y757596D01*
X4355211Y757406D01*
X4354164Y757120D01*
X4351689Y756358D01*
X4350451Y755882D01*
X4349118Y755311D01*
X4347786Y754550D01*
X4346548Y753693D01*
X4345215Y752741D01*
X4343978Y751694D01*
X4343882Y751598D01*
X4343692Y751408D01*
X4343406Y751027D01*
X4342930Y750551D01*
X4342454Y749790D01*
X4341978Y748933D01*
X4341312Y747981D01*
X4340741Y746838D01*
X4340170Y745410D01*
X4339598Y743887D01*
X4339027Y742269D01*
X4338551Y740365D01*
X4338075Y738366D01*
X4337790Y736081D01*
X4337599Y733701D01*
X4337504Y731035D01*
Y730940D01*
Y730559D01*
Y729893D01*
X4337599Y729131D01*
X4337694Y728179D01*
X4337790Y727037D01*
X4337980Y725799D01*
X4338266Y724371D01*
X4339027Y721515D01*
X4339503Y719992D01*
X4340074Y718469D01*
X4340836Y716946D01*
X4341693Y715422D01*
X4342645Y714090D01*
X4343692Y712757D01*
X4343787Y712662D01*
X4343978Y712471D01*
X4344358Y712186D01*
X4344834Y711710D01*
X4345406Y711234D01*
X4346167Y710662D01*
X4347024Y710091D01*
X4347976Y709520D01*
X4349023Y708854D01*
X4350261Y708282D01*
X4351498Y707711D01*
X4352926Y707235D01*
X4354354Y706759D01*
X4355973Y706474D01*
X4357591Y706283D01*
X4359305Y706188D01*
X4360257D01*
X4360923Y706283D01*
X4361685Y706378D01*
X4362637Y706569D01*
X4363779Y706759D01*
X4364922Y707045D01*
X4366159Y707330D01*
X4367397Y707806D01*
X4368730Y708378D01*
X4370062Y709044D01*
X4371395Y709806D01*
X4372633Y710662D01*
X4373870Y711710D01*
X4375108Y712852D01*
X4375203Y712947D01*
X4375394Y713138D01*
X4375679Y713518D01*
X4376060Y714090D01*
X4376536Y714756D01*
X4377107Y715613D01*
X4377583Y716660D01*
X4378250Y717802D01*
X4378821Y719040D01*
X4379297Y720468D01*
X4379868Y722086D01*
X4380344Y723800D01*
X4380725Y725609D01*
X4381010Y727608D01*
X4381201Y729702D01*
X4381296Y731987D01*
Y732082D01*
Y732368D01*
Y732749D01*
Y733320D01*
X4381201Y733986D01*
Y734748D01*
X4381106Y735605D01*
X4381010Y736652D01*
X4380630Y738746D01*
X4380154Y741031D01*
X4379487Y743316D01*
X4378630Y745601D01*
Y745696D01*
X4378535Y745886D01*
X4378345Y746172D01*
X4378154Y746553D01*
X4377488Y747600D01*
X4376631Y748933D01*
X4375584Y750361D01*
X4374251Y751884D01*
X4372633Y753312D01*
X4370824Y754645D01*
X4370729D01*
X4370634Y754740D01*
X4370348Y754930D01*
X4369967Y755121D01*
X4369491Y755406D01*
X4368920Y755692D01*
X4367492Y756263D01*
X4365778Y756834D01*
X4363874Y757406D01*
X4361685Y757786D01*
X4359400Y757882D01*
D02*
G37*
%LPD*%
D53*
X675000Y400000D02*
Y800000D01*
X775000D01*
Y400000D01*
X675000D01*
X1000000D02*
Y800000D01*
X1100000D01*
Y400000D01*
X1000000D01*
X1110000Y720000D02*
Y810000D01*
X1020000D01*
X785000D02*
Y720000D01*
Y810000D02*
X695000D01*
X205000Y1560000D02*
Y1960000D01*
X105000D01*
Y1560000D01*
X205000D01*
X215000Y1880000D02*
Y1970000D01*
X125000D01*
X917047Y2977244D02*
X1247756D01*
Y3115039D01*
Y3245811D02*
Y3382756D01*
X917047D01*
X842244Y3295354D01*
Y3245811D01*
Y3115040D02*
Y3054646D01*
X917047Y2977244D01*
X1422244Y2972244D02*
Y3109189D01*
Y3239961D02*
Y3377756D01*
X1752953D01*
X1827756Y3300354D01*
Y3239960D01*
X1875094Y3252803D02*
X1914465D01*
X1894780Y3234299D02*
Y3272685D01*
X1997244Y3290354D02*
X2072047Y3377756D01*
X2402756D01*
Y3240811D01*
Y3110039D02*
Y2972244D01*
X2072047D01*
X1997244Y3049646D01*
Y3110040D01*
X1949906Y3097197D02*
X1910535D01*
X1930220Y3115701D02*
Y3077315D01*
X1827756Y3059646D02*
Y3109189D01*
Y3059646D02*
X1752953Y2972244D01*
X1422244D01*
X1997244Y3240811D02*
Y3290354D01*
X2402756Y3522244D02*
Y3660039D01*
Y3790811D02*
Y3927756D01*
X2072047D01*
X1997244Y3840354D01*
Y3790811D01*
X1914465Y3802803D02*
X1875094D01*
X1894780Y3784299D02*
Y3822685D01*
X1827756Y3850354D02*
X1752953Y3927756D01*
X1422244D01*
Y3789961D01*
Y3659189D02*
Y3522244D01*
X1752953D01*
X1827756Y3609646D01*
Y3659189D01*
X1910535Y3647197D02*
X1949906D01*
X1930220Y3665701D02*
Y3627315D01*
X1997244Y3599646D02*
Y3660040D01*
Y3599646D02*
X2072047Y3522244D01*
X2402756D01*
X2730009Y3160000D02*
X2770000D01*
X2750956D02*
Y3142861D01*
X2749052Y3137148D01*
X2747148Y3135243D01*
X2743339Y3133339D01*
X2737626D01*
X2733817Y3135243D01*
X2731913Y3137148D01*
X2730009Y3142861D01*
Y3160000D01*
Y3097728D02*
X2775713Y3124389D01*
X2770000Y3095061D02*
X2730009D01*
X2770000Y3068401D01*
X2730009D01*
X2743339Y3055451D02*
X2745243Y3057355D01*
X2747148Y3055451D01*
X2745243Y3053547D01*
X2743339Y3055451D01*
X2766191D02*
X2768096Y3057355D01*
X2770000Y3055451D01*
X2768096Y3053547D01*
X2766191Y3055451D01*
X2764287Y3011460D02*
X2768096Y3007652D01*
X2770000Y3001939D01*
Y3000034D01*
X2768096Y2994321D01*
X2764287Y2990513D01*
X2758574Y2988608D01*
X2756669D01*
X2750956Y2990513D01*
X2747148Y2994321D01*
X2745243Y3000034D01*
Y3001939D01*
X2747148Y3007652D01*
X2750956Y3011460D01*
X2756669Y3013365D01*
X2764287Y3011460D01*
X2756669Y3013365D02*
X2747148D01*
X2737626Y3011460D01*
X2731913Y3007652D01*
X2730009Y3001939D01*
Y2998130D01*
X2731913Y2992417D01*
X2735722Y2990513D01*
X2737626Y2977944D02*
X2747148Y2979848D01*
X2752861D01*
X2762383Y2977944D01*
X2768096Y2974135D01*
X2770000Y2968422D01*
Y2964613D01*
X2768096Y2958900D01*
X2762383Y2955092D01*
X2752861Y2953187D01*
X2747148D01*
X2737626Y2955092D01*
X2731913Y2958900D01*
X2730009Y2964613D01*
Y2968422D01*
X2731913Y2974135D01*
X2737626Y2977944D01*
Y2942332D02*
X2747148Y2944237D01*
X2752861D01*
X2762383Y2942332D01*
X2768096Y2938524D01*
X2770000Y2932811D01*
Y2929002D01*
X2768096Y2923289D01*
X2762383Y2919480D01*
X2752861Y2917576D01*
X2747148D01*
X2737626Y2919480D01*
X2731913Y2923289D01*
X2730009Y2929002D01*
Y2932811D01*
X2731913Y2938524D01*
X2737626Y2942332D01*
X2752861Y2908625D02*
Y2874347D01*
X2770000Y2862540D02*
X2730009D01*
Y2849209D01*
X2731913Y2843497D01*
X2735722Y2839688D01*
X2739530Y2837783D01*
X2745243Y2835879D01*
X2754765D01*
X2760478Y2837783D01*
X2764287Y2839688D01*
X2768096Y2843497D01*
X2770000Y2849209D01*
Y2862540D01*
X2764287Y2823120D02*
X2768096Y2819311D01*
X2770000Y2815503D01*
Y2807885D01*
X2768096Y2804076D01*
X2764287Y2800268D01*
X2760478Y2798363D01*
X2770000Y2787128D02*
Y2760467D01*
Y2743899D02*
X2730009Y2724855D01*
Y2751516D01*
X2731913Y2766180D02*
X2733817Y2764275D01*
X2737626Y2762371D01*
X2741435D01*
X2745243Y2764275D01*
X2750956Y2768084D01*
X2770000Y2787128D01*
X2739530Y2785223D02*
X2737626D01*
X2733817Y2783319D01*
X2731913Y2781414D01*
X2730009Y2777606D01*
Y2769988D01*
X2731913Y2766180D01*
X2735722Y2800268D02*
X2731913Y2804076D01*
X2730009Y2807885D01*
Y2815503D01*
X2731913Y2819311D01*
X2735722Y2823120D01*
X2739530Y2825024D01*
X2745243Y2826929D01*
X2754765D01*
X2760478Y2825024D01*
X2764287Y2823120D01*
X2739530Y2798363D02*
X2735722Y2800268D01*
X2737626Y2714000D02*
X2747148Y2715905D01*
X2752861D01*
X2762383Y2714000D01*
X2768096Y2710192D01*
X2770000Y2704479D01*
Y2700670D01*
X2768096Y2694957D01*
X2762383Y2691148D01*
X2752861Y2689244D01*
X2747148D01*
X2737626Y2691148D01*
X2731913Y2694957D01*
X2730009Y2700670D01*
Y2704479D01*
X2731913Y2710192D01*
X2737626Y2714000D01*
X2730009Y2676485D02*
Y2655537D01*
X2745243Y2666963D01*
Y2661250D01*
X2747148Y2657441D01*
X2749052Y2655537D01*
X2754765Y2653632D01*
X2758574D01*
X2764287Y2655537D01*
X2768096Y2659345D01*
X2770000Y2665059D01*
Y2670772D01*
X2768096Y2676485D01*
X2766191Y2678389D01*
X2762383Y2680293D01*
X2783331Y2644682D02*
Y2614212D01*
X2770000Y2609071D02*
X2730009D01*
Y2591931D01*
X2731913Y2586218D01*
X2733817Y2584314D01*
X2737626Y2582410D01*
X2741435D01*
X2745243Y2584314D01*
X2747148Y2586218D01*
X2749052Y2591931D01*
Y2609071D01*
Y2595740D02*
X2770000Y2582410D01*
Y2573459D02*
Y2548703D01*
Y2526803D02*
X2730009Y2542037D01*
Y2548703D02*
Y2573459D01*
X2770000D01*
X2749052D02*
Y2558224D01*
X2770000Y2526803D02*
X2730009Y2511568D01*
X2731913Y2500713D02*
X2737626Y2504522D01*
X2747148Y2506426D01*
X2752861D01*
X2762383Y2504522D01*
X2768096Y2500713D01*
X2770000Y2495000D01*
Y2491191D01*
X2768096Y2485478D01*
X2762383Y2481669D01*
X2752861Y2479765D01*
X2747148D01*
X2737626Y2481669D01*
X2731913Y2485478D01*
X2730009Y2491191D01*
Y2495000D01*
X2731913Y2500713D01*
X2730009Y2451771D02*
X2756669Y2470815D01*
Y2442249D01*
X2770000Y2451771D02*
X2730009D01*
X2860006Y1395000D02*
X2890000D01*
X2875717D02*
Y1382146D01*
X2874289Y1377861D01*
X2872861Y1376433D01*
X2870004Y1375004D01*
X2865720D01*
X2862863Y1376433D01*
X2861435Y1377861D01*
X2860006Y1382146D01*
Y1395000D01*
X2864291Y1365435D02*
X2867148Y1366863D01*
X2871433Y1368291D01*
X2878574D01*
X2882859Y1366863D01*
X2885715Y1365435D01*
X2888572Y1362578D01*
X2890000Y1359722D01*
Y1354009D01*
X2888572Y1351152D01*
X2885715Y1348296D01*
X2882859Y1346867D01*
X2890000Y1338441D02*
X2860006D01*
Y1325586D01*
X2861435Y1321302D01*
X2862863Y1319873D01*
X2865720Y1318445D01*
X2868576D01*
X2871433Y1319873D01*
X2872861Y1321302D01*
X2874289Y1325586D01*
X2875717Y1321302D01*
X2877146Y1319873D01*
X2880002Y1318445D01*
X2884287D01*
X2887144Y1319873D01*
X2888572Y1321302D01*
X2890000Y1325586D01*
Y1338441D01*
X2874289D02*
Y1325586D01*
X2867148Y1346867D02*
X2864291Y1348296D01*
X2861435Y1351152D01*
X2860006Y1354009D01*
Y1359722D01*
X2861435Y1362578D01*
X2864291Y1365435D01*
X2860006Y1288166D02*
X2890000D01*
Y1269598D01*
Y1264599D02*
X2860006D01*
Y1254601D01*
X2861435Y1250317D01*
X2864291Y1247460D01*
X2867148Y1246032D01*
X2871433Y1244604D01*
X2878574D01*
X2882859Y1246032D01*
X2885715Y1247460D01*
X2888572Y1250317D01*
X2890000Y1254601D01*
Y1264599D01*
X2874289Y1276740D02*
Y1288166D01*
X2860006D02*
Y1269598D01*
X2864291Y1235034D02*
X2867148Y1236462D01*
X2871433Y1237891D01*
X2878574D01*
X2882859Y1236462D01*
X2885715Y1235034D01*
X2888572Y1232178D01*
X2890000Y1229321D01*
Y1223608D01*
X2888572Y1220752D01*
X2885715Y1217895D01*
X2882859Y1216467D01*
X2878574D01*
Y1223608D01*
X2874289Y1209611D02*
Y1198185D01*
X2860006Y1191044D02*
Y1209611D01*
X2890000D01*
Y1191044D01*
X2867148Y1216467D02*
X2864291Y1217895D01*
X2861435Y1220752D01*
X2860006Y1223608D01*
Y1229321D01*
X2861435Y1232178D01*
X2864291Y1235034D01*
X775221Y3082315D02*
Y3120701D01*
X794905Y3102197D02*
X755535D01*
X652756Y3109189D02*
Y3059646D01*
X577953Y2972244D01*
X247244D01*
Y3109189D01*
Y3239961D02*
Y3377756D01*
X577953D01*
X652756Y3300354D01*
Y3239960D01*
X675095Y3267803D02*
X714465D01*
X694779Y3249299D02*
Y3287685D01*
X922047Y3522244D02*
X1252756D01*
Y3660039D01*
Y3790811D02*
Y3927756D01*
X922047D01*
X847244Y3840354D01*
Y3790811D01*
X764465Y3802803D02*
X725095D01*
X744779Y3784299D02*
Y3822685D01*
X677756Y3850354D02*
X602953Y3927756D01*
X272244D01*
Y3789961D01*
Y3659189D02*
Y3522244D01*
X602953D01*
X677756Y3609646D01*
Y3659189D01*
X760535Y3647197D02*
X799905D01*
X780221Y3665701D02*
Y3627315D01*
X847244Y3599646D02*
Y3660040D01*
Y3599646D02*
X922047Y3522244D01*
X1351988Y4090276D02*
X1445000D01*
Y4824528D01*
X1756024D01*
Y4731516D01*
X1883976D02*
Y4824528D01*
X2195000D01*
X2506024D01*
Y4731516D01*
X2195000Y4824528D02*
Y4090276D01*
X2288012D01*
X2195000D02*
Y4824528D01*
Y4712323D02*
X2435512D01*
Y4627677D02*
X2195000D01*
Y4712323D01*
X1960512D01*
Y4627677D02*
X2195000D01*
Y4712323D01*
X2506024Y4606516D02*
Y4090276D01*
X2413012D01*
X2195000D02*
X2101988D01*
X1976988D02*
X1883976D01*
Y4606516D01*
X1756024D02*
Y4090276D01*
X1663012D01*
X1538012D02*
X1445000D01*
Y4824528D01*
X1133976D01*
Y4731516D01*
X1006024D02*
Y4824528D01*
X695000D01*
X383976D01*
Y4731516D01*
X460512Y4712323D02*
X695000D01*
X935512D01*
Y4627677D02*
X695000D01*
Y4712323D01*
Y4627677D01*
X460512D01*
X383976Y4606516D02*
Y4090276D01*
X476988D01*
X677756Y3850354D02*
Y3789960D01*
X913012Y4090276D02*
X1006024D01*
Y4606516D01*
X1133976D02*
Y4090276D01*
X1226988D01*
X1445000Y4627677D02*
Y4712323D01*
X1685512D01*
Y4627677D02*
X1445000D01*
Y4712323D01*
X1210512D01*
Y4627677D02*
X1445000D01*
X1827756Y3850354D02*
Y3789960D01*
X695000Y4824528D02*
Y4090276D01*
Y4824528D01*
Y4090276D02*
X788012D01*
X695000D02*
X601988D01*
D106*
X308392Y340000D02*
X323389Y363566D01*
X319104D02*
X338386D01*
X348455Y367851D02*
Y357139D01*
X350597Y350712D01*
X352740Y346427D01*
X357025Y342142D01*
X363452Y340000D01*
X378449D01*
Y384990D01*
X363452D01*
X357025Y382848D01*
X352740Y378563D01*
X350597Y374278D01*
X348455Y367851D01*
X338386Y384990D02*
Y340000D01*
X319104Y363566D02*
X312677Y365709D01*
X310535Y367851D01*
X308392Y372136D01*
Y376421D01*
X310535Y380706D01*
X312677Y382848D01*
X319104Y384990D01*
X338386D01*
X397087Y382848D02*
X392803Y378563D01*
X390660Y374278D01*
X388518Y367851D01*
Y357139D01*
X390660Y350712D01*
X392803Y346427D01*
X397087Y342142D01*
X403515Y340000D01*
X418511D01*
Y384990D01*
X403515D01*
X397087Y382848D01*
X446148Y384990D02*
X463288Y340000D01*
X456860Y354997D02*
X435436D01*
X429009Y340000D02*
X446148Y384990D01*
X501636D02*
X531630Y333573D01*
X577049Y346427D02*
X581334Y342142D01*
X587761Y340000D01*
X596330D01*
X602758Y342142D01*
X607042Y346427D01*
X621611D02*
X619468Y352854D01*
Y384990D01*
X602758Y382848D02*
X607042Y378563D01*
Y374278D01*
X604900Y369994D01*
X602758Y367851D01*
X598473Y365709D01*
X585618Y361424D01*
X581334Y359282D01*
X579191Y357139D01*
X577049Y352854D01*
Y346427D01*
Y378563D02*
X581334Y382848D01*
X587761Y384990D01*
X596330D01*
X602758Y382848D01*
X649462Y384990D02*
Y352854D01*
X647319Y346427D01*
X643035Y342142D01*
X636607Y340000D01*
X632323D01*
X625895Y342142D01*
X621611Y346427D01*
X669815Y340000D02*
Y384990D01*
X684812D02*
X654818D01*
X712448D02*
X729588Y340000D01*
X749940D02*
Y384990D01*
X764937D02*
X734944D01*
X712448D02*
X695309Y340000D01*
X701736Y354997D02*
X723160D01*
X775006Y352854D02*
Y346427D01*
X779291Y342142D01*
X785718Y340000D01*
X794288D01*
X800715Y342142D01*
X805000Y346427D01*
X802858Y369994D02*
X800715Y367851D01*
X796430Y365709D01*
X783576Y361424D01*
X779291Y359282D01*
X777149Y357139D01*
X775006Y352854D01*
Y378563D02*
X779291Y382848D01*
X785718Y384990D01*
X794288D01*
X800715Y382848D01*
X805000Y378563D01*
Y374278D01*
X802858Y369994D01*
X1386732Y1233257D02*
G03*
X1463257Y1156732I76525J0D01*
G01*
X2029338D01*
D02*
G03*
X2103268Y1230662I0J73930D01*
G01*
Y1388228D01*
Y1644528D02*
Y1789284D01*
D02*
G03*
X2019284Y1873268I-83983J0D01*
G01*
X1471159D01*
D02*
G03*
X1384764Y1786873I0J-86395D01*
G01*
Y1644528D01*
X1386732Y1388228D02*
Y1233257D01*
X2312995Y1035000D02*
Y1565000D01*
X2905000D01*
Y1510000D01*
Y1565000D01*
X2885000D01*
X2905000Y1490000D02*
Y1460000D01*
Y1490000D01*
Y1440000D02*
Y1410000D01*
Y1440000D01*
Y1390000D02*
Y1360000D01*
Y1390000D01*
Y1340000D02*
Y1310000D01*
Y1340000D01*
Y1290000D02*
Y1260000D01*
Y1290000D01*
Y1240000D02*
Y1210000D01*
Y1240000D01*
Y1190000D02*
Y1160000D01*
Y1190000D01*
Y1140000D02*
Y1110000D01*
Y1140000D01*
Y1090000D02*
Y1035000D01*
Y1090000D01*
Y1035000D02*
X2312995D01*
X2885000D02*
X2905000D01*
X1962321Y3111314D02*
G03*
X2437679Y3111314I237679J63686D01*
G01*
Y3238686D02*
G03*
X1962321Y3238686I-237679J-63686D01*
G01*
X1862679D02*
G03*
X1387321Y3238686I-237679J-63686D01*
G01*
Y3111314D02*
G03*
X1862679Y3111314I237679J63686D01*
G01*
X1962321Y3661314D02*
G03*
X2437679Y3661314I237679J63686D01*
G01*
Y3788686D02*
G03*
X1962321Y3788686I-237679J-63686D01*
G01*
X1862679D02*
G03*
X1387321Y3788686I-237679J-63686D01*
G01*
Y3661314D02*
G03*
X1862679Y3661314I237679J63686D01*
G01*
X812321D02*
G03*
X1287679Y3661314I237679J63686D01*
G01*
Y3788686D02*
G03*
X812321Y3788686I-237679J-63686D01*
G01*
X712679D02*
G03*
X237321Y3788686I-237679J-63686D01*
G01*
Y3661314D02*
G03*
X712679Y3661314I237679J63686D01*
G01*
X1282679Y3243686D02*
G03*
X807321Y3243686I-237679J-63686D01*
G01*
Y3116314D02*
G03*
X1282679Y3116314I237679J63686D01*
G01*
D107*
X2563110Y3585945D02*
Y3704055D01*
D108*
X487894Y425000D02*
X504557Y451185D01*
X499796D02*
X521220D01*
X532408Y455946D02*
Y444043D01*
X534789Y436902D01*
X537169Y432141D01*
X541930Y427380D01*
X549071Y425000D01*
X565735D01*
Y474989D01*
X549071D01*
X541930Y472609D01*
X537169Y467848D01*
X534789Y463087D01*
X532408Y455946D01*
X521220Y474989D02*
Y425000D01*
X499796Y451185D02*
X492655Y453565D01*
X490274Y455946D01*
X487894Y460707D01*
Y465467D01*
X490274Y470228D01*
X492655Y472609D01*
X499796Y474989D01*
X521220D01*
X581683Y467848D02*
X579303Y463087D01*
X576923Y455946D01*
Y444043D01*
X579303Y436902D01*
X581683Y432141D01*
X586444Y427380D01*
X593586Y425000D01*
X610249D01*
Y474989D01*
X593586D01*
X586444Y472609D01*
X581683Y467848D01*
X640957Y474989D02*
X660000Y425000D01*
X652859Y441663D02*
X629054D01*
X621913Y425000D02*
X640957Y474989D01*
X862169Y467848D02*
X859789Y463087D01*
X857408Y455946D01*
Y444043D01*
X859789Y436902D01*
X862169Y432141D01*
X866930Y427380D01*
X874071Y425000D01*
X890734D01*
Y474989D01*
X874071D01*
X866930Y472609D01*
X862169Y467848D01*
X904541Y474989D02*
Y425000D01*
X937867Y474989D01*
Y425000D01*
X956435Y427380D02*
X951674Y432141D01*
X949293Y436902D01*
Y444043D01*
X961196D01*
Y425000D02*
X956435Y427380D01*
X961196Y425000D02*
X970717D01*
X975478Y427380D01*
X980239Y432141D01*
X982620Y436902D01*
X985000Y444043D01*
Y455946D01*
X982620Y463087D01*
X980239Y467848D01*
X975478Y472609D01*
X970717Y474989D01*
X961196D01*
X956435Y472609D01*
X951674Y467848D01*
X949293Y463087D01*
X999023Y371418D02*
X1004736Y377131D01*
X1010449Y379987D01*
X1021875D01*
X1027588Y377131D01*
X1033301Y371418D01*
X1036158Y365704D01*
X1039014Y357135D01*
Y342852D01*
X1036158Y334283D01*
X1033301Y328570D01*
X1027588Y322856D01*
X1021875Y320000D01*
X1010449D01*
X1004736Y322856D01*
X999023Y328570D01*
X996166Y334283D01*
Y365704D02*
X999023Y371418D01*
X1055296Y368561D02*
Y362848D01*
X1058153Y357135D01*
X1063866Y348565D01*
X1092431Y320000D01*
X1052440D01*
X1055296Y368561D02*
X1058153Y374274D01*
X1061009Y377131D01*
X1066723Y379987D01*
X1078149D01*
X1083862Y377131D01*
X1086718Y374274D01*
X1089575Y368561D01*
Y365704D01*
X1105000Y379987D02*
Y320000D01*
X980239Y527380D02*
X985000Y532141D01*
X980239Y527380D02*
X973098Y525000D01*
X963576D01*
X956435Y527380D01*
X951674Y532141D01*
Y539283D01*
X954054Y544043D01*
X956435Y546424D01*
X961196Y548804D01*
X975478Y553565D01*
X980239Y555946D01*
X982620Y558326D01*
X985000Y563087D01*
Y567848D01*
X980239Y572609D01*
X973098Y574989D01*
X963576D01*
X956435Y572609D01*
X951674Y567848D01*
X940486Y574989D02*
Y525000D01*
X923823D01*
X916681Y527380D01*
X911920Y532141D01*
X909540Y536902D01*
X907159Y544043D01*
Y555946D01*
X909540Y563087D01*
X911920Y567848D01*
X916681Y572609D01*
X923823Y574989D01*
X940486D01*
X935725Y632141D02*
X930964Y627380D01*
X926203Y625000D01*
X916681D01*
X911920Y627380D01*
X907159Y632141D01*
X904779Y636902D01*
Y663087D02*
X907159Y667848D01*
X911920Y672609D01*
X916681Y674989D01*
X926203D01*
X930964Y672609D01*
X935725Y667848D01*
X938105Y663087D01*
X940486Y655946D01*
Y644043D01*
X938105Y636902D01*
X935725Y632141D01*
X951674D02*
X956435Y627380D01*
X963576Y625000D01*
X973098D01*
X980239Y627380D01*
X985000Y632141D01*
X982620Y658326D02*
X980239Y655946D01*
X975478Y653565D01*
X961196Y648804D01*
X956435Y646424D01*
X954054Y644043D01*
X951674Y639283D01*
Y632141D01*
Y667848D02*
X956435Y672609D01*
X963576Y674989D01*
X973098D01*
X980239Y672609D01*
X985000Y667848D01*
Y663087D01*
X982620Y658326D01*
X965957Y725000D02*
X985000Y774989D01*
X946913D02*
X965957Y725000D01*
X940486D02*
Y774989D01*
X923823D01*
X916681Y772609D01*
X911920Y767848D01*
X909540Y763087D01*
X907159Y755946D01*
Y744043D01*
X909540Y736902D01*
X911920Y732141D01*
X916681Y727380D01*
X923823Y725000D01*
X940486D01*
X895971D02*
Y774989D01*
X879308D01*
X872167Y772609D01*
X867406Y767848D01*
X865026Y763087D01*
X862645Y755946D01*
Y744043D01*
X865026Y736902D01*
X867406Y732141D01*
X872167Y727380D01*
X879308Y725000D01*
X895971D01*
X890735Y674989D02*
Y625000D01*
X862169D01*
X876928Y574989D02*
X895971Y525000D01*
X888830Y541663D02*
X865026D01*
X857884Y525000D02*
X876928Y574989D01*
X660000D02*
X640957Y525000D01*
X621913Y574989D01*
X615486D02*
Y525000D01*
X598823D01*
X591681Y527380D01*
X586920Y532141D01*
X584540Y536902D01*
X582159Y544043D01*
Y555946D01*
X584540Y563087D01*
X586920Y567848D01*
X591681Y572609D01*
X598823Y574989D01*
X615486D01*
X570971D02*
Y525000D01*
X554308D01*
X547167Y527380D01*
X542406Y532141D01*
X540026Y536902D01*
X537645Y544043D01*
Y555946D01*
X540026Y563087D01*
X542406Y567848D01*
X547167Y572609D01*
X554308Y574989D01*
X570971D01*
X565734Y625000D02*
Y674989D01*
X549071D01*
X541930Y672609D01*
X537169Y667848D01*
X534789Y663087D01*
X532408Y655946D01*
Y644043D01*
X534789Y636902D01*
X537169Y632141D01*
X541930Y627380D01*
X549071Y625000D01*
X565734D01*
X579541D02*
X612867Y674989D01*
Y625000D01*
X631435Y627380D02*
X626674Y632141D01*
X624293Y636902D01*
Y644043D01*
X636196D01*
Y625000D02*
X631435Y627380D01*
X636196Y625000D02*
X645717D01*
X650478Y627380D01*
X655239Y632141D01*
X657620Y636902D01*
X660000Y644043D01*
Y655946D01*
X657620Y663087D01*
X655239Y667848D01*
X650478Y672609D01*
X645717Y674989D01*
X636196D01*
X631435Y672609D01*
X626674Y667848D01*
X624293Y663087D01*
X579541Y674989D02*
Y625000D01*
X576208Y725000D02*
X557165Y774989D01*
X538121Y725000D01*
X545263Y741663D02*
X569067D01*
X598823Y725000D02*
Y774989D01*
X615486D02*
X582159D01*
X626674Y767848D02*
X631435Y772609D01*
X638576Y774989D01*
X648098D01*
X655239Y772609D01*
X660000Y767848D01*
Y763087D01*
X657620Y758326D01*
X655239Y755946D01*
X650478Y753565D01*
X636196Y748804D01*
X631435Y746424D01*
X629054Y744043D01*
X626674Y739283D01*
Y732141D01*
X631435Y727380D01*
X638576Y725000D01*
X648098D01*
X655239Y727380D01*
X660000Y732141D01*
X509794Y725000D02*
Y774989D01*
X526457D02*
X493131D01*
X487180D02*
Y739283D01*
X484800Y732141D01*
X480039Y727380D01*
X472897Y725000D01*
X468136D01*
X460995Y727380D01*
X456234Y732141D01*
X453854Y739283D01*
Y774989D01*
X440047Y767848D02*
Y763087D01*
X437667Y758326D01*
X435286Y755946D01*
X430525Y753565D01*
X416243Y748804D01*
X411482Y746424D01*
X409101Y744043D01*
X406721Y739283D01*
Y732141D01*
X411482Y727380D01*
X418623Y725000D01*
X428145D01*
X435286Y727380D01*
X440047Y732141D01*
Y767848D02*
X435286Y772609D01*
X428145Y774989D01*
X418623D01*
X411482Y772609D01*
X406721Y767848D01*
X479287Y1477857D02*
X485000Y1483570D01*
X479287Y1477857D02*
X470717Y1475000D01*
X459291D01*
X450722Y1477857D01*
X445009Y1483570D01*
Y1492139D01*
X447865Y1497852D01*
X450722Y1500709D01*
X456435Y1503565D01*
X473574Y1509278D01*
X479287Y1512135D01*
X482144Y1514991D01*
X485000Y1520705D01*
Y1526418D01*
X479287Y1532131D01*
X470717Y1534987D01*
X459291D01*
X450722Y1532131D01*
X445009Y1526418D01*
X431583Y1534987D02*
Y1475000D01*
X394448D01*
X384450D02*
Y1534987D01*
X358741D01*
X350172Y1532131D01*
X347315Y1529274D01*
X344459Y1523561D01*
Y1517848D01*
X347315Y1512135D01*
X350172Y1509278D01*
X358741Y1506422D01*
X384450D01*
X364454D02*
X344459Y1475000D01*
X308181D02*
X331033Y1534987D01*
X285329D02*
X308181Y1475000D01*
X266190Y1477857D02*
X260477Y1475000D01*
X249051D01*
X243338Y1477857D01*
X237625Y1483570D01*
X234768Y1489283D01*
X231911Y1497852D01*
Y1512135D01*
X234768Y1520705D01*
X237625Y1526418D01*
X243338Y1532131D01*
X249051Y1534987D01*
X260477D01*
X266190Y1532131D01*
X271903Y1526418D01*
X274759Y1520705D01*
X277616Y1512135D01*
Y1497852D01*
X274759Y1489283D01*
X271903Y1483570D01*
X266190Y1477857D01*
X170782Y1475000D02*
X136503D01*
X129933D02*
X92798D01*
X82800D02*
Y1534987D01*
X62805D01*
X54235Y1532131D01*
X48522Y1526418D01*
X45666Y1520705D01*
X42809Y1512135D01*
Y1497852D01*
X45666Y1489283D01*
X48522Y1483570D01*
X54235Y1477857D01*
X62805Y1475000D01*
X82800D01*
X129933D02*
Y1534987D01*
X92798D01*
X107081Y1506422D02*
X129933D01*
X170782Y1534987D02*
Y1475000D01*
X251280Y1585000D02*
Y1634989D01*
X267943D02*
X234617D01*
X281750D02*
Y1599283D01*
X284130Y1592141D01*
X288891Y1587380D01*
X296032Y1585000D01*
X300793D01*
X307934Y1587380D01*
X312695Y1592141D01*
X315076Y1599283D01*
Y1634989D01*
X331501Y1627848D02*
X336262Y1632609D01*
X341022Y1634989D01*
X350544D01*
X355305Y1632609D01*
X360066Y1627848D01*
X362447Y1623087D01*
X364827Y1615946D01*
Y1604043D01*
X362447Y1596902D01*
X360066Y1592141D01*
X355305Y1587380D01*
X350544Y1585000D01*
X341022D01*
X336262Y1587380D01*
X331501Y1592141D01*
X329120Y1596902D01*
X326740Y1604043D01*
Y1615946D01*
X329120Y1623087D01*
X331501Y1627848D01*
X376015Y1625467D02*
Y1620707D01*
X378395Y1615946D01*
X380776Y1613565D01*
X387917Y1611185D01*
X380776Y1608804D01*
X378395Y1606424D01*
X376015Y1601663D01*
Y1594522D01*
X378395Y1589761D01*
X380776Y1587380D01*
X387917Y1585000D01*
X409341D01*
Y1634989D01*
X387917D01*
X380776Y1632609D01*
X378395Y1630228D01*
X376015Y1625467D01*
X387917Y1611185D02*
X409341D01*
X426957D02*
X446000D01*
Y1634989D02*
Y1585000D01*
Y1634989D02*
X415054D01*
X415000Y1685000D02*
Y1734989D01*
X360488Y1727848D02*
X362868Y1723087D01*
X365249Y1715946D01*
Y1704043D01*
X362868Y1696902D01*
X360488Y1692141D01*
X355727Y1687380D01*
X350966Y1685000D01*
X341444D01*
X336683Y1687380D01*
X331923Y1692141D01*
X329542Y1696902D01*
X327162Y1704043D01*
Y1715946D01*
X329542Y1723087D01*
X331923Y1727848D01*
X336683Y1732609D01*
X341444Y1734989D01*
X350966D01*
X355727Y1732609D01*
X360488Y1727848D01*
X315498Y1734989D02*
Y1699283D01*
X313117Y1692141D01*
X308356Y1687380D01*
X301215Y1685000D01*
X296454D01*
X289313Y1687380D01*
X284552Y1692141D01*
X282171Y1699283D01*
Y1734989D01*
X268365D02*
X235039D01*
X251702D02*
Y1685000D01*
X394448Y1534987D02*
X431583D01*
Y1506422D02*
X408731D01*
X329000Y1785000D02*
Y1834989D01*
X279249D02*
Y1785000D01*
X268775D02*
Y1834989D01*
X235449Y1785000D01*
Y1834989D01*
X234750Y1880000D02*
X268076Y1929989D01*
Y1880000D01*
X278550D02*
Y1929989D01*
X234750D02*
Y1880000D01*
X331395Y1884761D02*
X333776Y1882380D01*
X340917Y1880000D01*
X362341D01*
Y1929989D01*
X340917D01*
X333776Y1927609D01*
X331395Y1925228D01*
X329015Y1920467D01*
Y1915707D01*
X331395Y1910946D01*
X333776Y1908565D01*
X340917Y1906185D01*
X333776Y1903804D01*
X331395Y1901424D01*
X329015Y1896663D01*
Y1889522D01*
X331395Y1884761D01*
X340917Y1906185D02*
X362341D01*
X379957D02*
X399000D01*
Y1929989D02*
Y1880000D01*
Y1929989D02*
X368054D01*
X2554593Y3240000D02*
X2573637Y3289989D01*
X2589586Y3287609D02*
X2596727Y3289989D01*
X2606249D01*
X2613390Y3287609D01*
X2615771Y3282848D01*
Y3278087D01*
X2613390Y3273326D01*
X2608630Y3270946D01*
X2599108Y3268565D01*
X2591966Y3266185D01*
X2587206Y3261424D01*
X2584825Y3256663D01*
Y3249522D01*
X2587206Y3244761D01*
X2589586Y3242380D01*
X2596727Y3240000D01*
X2606249D01*
X2613390Y3242380D01*
X2615771Y3244761D01*
X2618151Y3249522D01*
Y3256663D01*
X2615771Y3261424D01*
X2611010Y3266185D01*
X2603869Y3268565D01*
X2594347Y3270946D01*
X2589586Y3273326D01*
X2587206Y3278087D01*
Y3282848D01*
X2589586Y3287609D01*
X2535550Y3289989D02*
X2554593Y3240000D01*
X2576890Y3365472D02*
X2813110D01*
Y3924528D01*
X2576890D01*
Y3365472D01*
X2634100Y3289989D02*
X2657905D01*
X2660285Y3268565D01*
X2657905Y3270946D01*
X2650763Y3273326D01*
X2643622D01*
X2636481Y3270946D01*
X2631720Y3266185D01*
X2629339Y3259044D01*
Y3254283D01*
X2631720Y3247141D01*
X2636481Y3242380D01*
X2643622Y3240000D01*
X2650763D01*
X2657905Y3242380D01*
X2660285Y3244761D01*
X2662666Y3249522D01*
X2752884Y3240000D02*
X2771928Y3289989D01*
X2790971Y3240000D01*
X2809301Y3242380D02*
X2804540Y3249522D01*
X2802160Y3261424D01*
Y3268565D01*
X2804540Y3280468D01*
X2809301Y3287609D01*
X2816442Y3289989D01*
X2821203D01*
X2828344Y3287609D01*
X2833105Y3280468D01*
X2835486Y3268565D01*
Y3261424D01*
X2833105Y3249522D01*
X2828344Y3242380D01*
X2821203Y3240000D01*
X2816442D01*
X2809301Y3242380D01*
X2783830Y3256663D02*
X2760026D01*
X2846674Y3259044D02*
Y3254283D01*
X2849054Y3247141D01*
X2853815Y3242380D01*
X2860956Y3240000D01*
X2868098D01*
X2875239Y3242380D01*
X2877620Y3244761D01*
X2880000Y3249522D01*
X2863337Y3270946D02*
X2856196D01*
X2851435Y3268565D01*
X2849054Y3266185D01*
X2846674Y3259044D01*
X2863337Y3270946D02*
X2849054Y3289989D01*
X2875239D01*
X2455148Y4310000D02*
X2478000Y4369987D01*
X2432296D02*
X2455148Y4310000D01*
X2424583D02*
Y4369987D01*
X2398874D01*
X2390305Y4367131D01*
X2387448Y4364274D01*
X2384591Y4358561D01*
Y4352848D01*
X2387448Y4347135D01*
X2390305Y4344278D01*
X2398874Y4341422D01*
X2390305Y4338565D01*
X2387448Y4335709D01*
X2384591Y4329996D01*
Y4321426D01*
X2387448Y4315713D01*
X2390305Y4312856D01*
X2398874Y4310000D01*
X2424583D01*
Y4341422D02*
X2398874D01*
X2362596Y4329996D02*
X2334031D01*
X2325461Y4310000D02*
X2348314Y4369987D01*
X2371166Y4310000D01*
X2291469D02*
Y4369987D01*
X2311464D02*
X2271473D01*
X2264331Y4361418D02*
X2235766Y4344278D01*
Y4361418D02*
X2264331Y4344278D01*
X2250049Y4335709D02*
Y4369987D01*
X1721000D02*
Y4310000D01*
Y4338565D02*
X1695291D01*
X1686722Y4341422D01*
X1683865Y4344278D01*
X1681009Y4349991D01*
Y4358561D01*
X1683865Y4364274D01*
X1686722Y4367131D01*
X1695291Y4369987D01*
X1721000D01*
X1644731D02*
X1667583Y4310000D01*
X1659013Y4329996D02*
X1630448D01*
X1621878Y4310000D02*
X1644731Y4369987D01*
X1607881D02*
Y4310000D01*
X1567890D02*
X1607881Y4369987D01*
X1567890D02*
Y4310000D01*
X1551322D02*
X1514187D01*
X1504189D02*
X1469911D01*
X1504189D02*
Y4369987D01*
X1514187D02*
X1551322D01*
Y4310000D01*
Y4341422D02*
X1528470D01*
X1416208Y4369987D02*
Y4310000D01*
X1403639D02*
Y4369987D01*
X1363648Y4310000D01*
Y4369987D01*
X1347080Y4361418D02*
X1318515Y4344278D01*
Y4361418D02*
X1347080Y4344278D01*
X1332797Y4335709D02*
Y4369987D01*
X814000D02*
Y4310000D01*
X794004D01*
X785435Y4312856D01*
X779722Y4318570D01*
X776865Y4324283D01*
X774009Y4332852D01*
Y4347135D01*
X776865Y4355704D01*
X779722Y4361418D01*
X785435Y4367131D01*
X794004Y4369987D01*
X814000D01*
X749157Y4367131D02*
X754870Y4361418D01*
X757726Y4355704D01*
X760583Y4347135D01*
Y4332852D01*
X757726Y4324283D01*
X754870Y4318570D01*
X749157Y4312856D01*
X743444Y4310000D01*
X732018D01*
X726304Y4312856D01*
X720591Y4318570D01*
X717735Y4324283D01*
Y4355704D02*
X720591Y4361418D01*
X726304Y4367131D01*
X732018Y4369987D01*
X743444D01*
X749157Y4367131D01*
X653749Y4369987D02*
Y4310000D01*
X641180D02*
Y4369987D01*
X601188Y4310000D01*
Y4369987D01*
X584621Y4361418D02*
X556055Y4344278D01*
Y4361418D02*
X584621Y4344278D01*
X570338Y4335709D02*
Y4369987D01*
D109*
X1155000Y870000D02*
Y1650000D01*
X2255000D01*
Y899760D01*
Y870000D02*
Y1195040D01*
Y870000D02*
X1855000D01*
X1555000D02*
X1155000D01*
D110*
X721629Y825000D02*
Y864991D01*
X740673Y838331D01*
X712108D01*
X750957Y834522D02*
X752861Y828809D01*
X754765Y826904D01*
X758574Y825000D01*
X762383D01*
X766191Y826904D01*
X768096Y828809D01*
X770000Y834522D01*
Y838331D01*
X750957Y834522D02*
Y864991D01*
X1042821Y864278D02*
X1044725Y868087D01*
X1050438Y869991D01*
X1054247D01*
X1059960Y868087D01*
X1063768Y862374D01*
X1065673Y852852D01*
Y843331D01*
X1063768Y835713D01*
X1059960Y831904D01*
X1054247Y830000D01*
X1052342D01*
X1046629Y831904D01*
X1042821Y835713D01*
X1040916Y841426D01*
Y843331D01*
X1042821Y849043D01*
X1046629Y852852D01*
X1052342Y854757D01*
X1054247D01*
X1059960Y852852D01*
X1063768Y849043D01*
X1065673Y843331D01*
X1075957Y839522D02*
X1077861Y833809D01*
X1079765Y831904D01*
X1083574Y830000D01*
X1087383D01*
X1091191Y831904D01*
X1093096Y833809D01*
X1095000Y839522D01*
Y843331D01*
X1075957Y839522D02*
Y869991D01*
X2178246Y1680000D02*
Y1719991D01*
X2183959Y1714278D01*
X2187768Y1712374D01*
X2215000Y1719991D02*
Y1680000D01*
X2192148D01*
X2775916Y1634991D02*
X2787342Y1619757D01*
X2781629D01*
X2777821Y1617852D01*
X2775916Y1615948D01*
X2774012Y1610235D01*
Y1606426D01*
X2775916Y1600713D01*
X2779725Y1596904D01*
X2785438Y1595000D01*
X2791151D01*
X2796864Y1596904D01*
X2798769Y1598809D01*
X2800673Y1602617D01*
X2810956Y1604522D02*
X2812861Y1598809D01*
X2814765Y1596904D01*
X2818574Y1595000D01*
X2822383D01*
X2826191Y1596904D01*
X2828096Y1598809D01*
X2830000Y1604522D01*
Y1608331D01*
X2810956Y1604522D02*
Y1634991D01*
X2796864D02*
X2775916D01*
X2825009Y1909889D02*
X2844052Y1925124D01*
X2865000D01*
Y1944739D02*
Y1967591D01*
X2825009D01*
Y1978636D02*
X2865000D01*
X2825009Y2005297D01*
X2865000D01*
X2859287Y2018437D02*
X2855478Y2016533D01*
X2849765Y2014629D01*
X2840243D01*
X2834530Y2016533D01*
X2830722Y2018437D01*
X2826913Y2022246D01*
X2825009Y2026055D01*
Y2033672D01*
X2826913Y2037481D01*
X2830722Y2041290D01*
X2834530Y2043194D01*
X2840243Y2045098D01*
X2849765D01*
X2855478Y2043194D01*
X2859287Y2041290D01*
X2863096Y2037481D01*
X2865000Y2033672D01*
Y2026055D01*
X2863096Y2022246D01*
X2859287Y2018437D01*
X2865000Y2083185D02*
Y2107942D01*
X2825009D01*
Y2083185D01*
X2844052Y2092707D02*
Y2107942D01*
X2847861Y2120701D02*
X2849765Y2118797D01*
X2853574Y2116892D01*
X2859287D01*
X2863096Y2120701D01*
X2865000Y2126414D01*
Y2134032D01*
X2863096Y2139745D01*
X2859287Y2143553D01*
Y2156503D02*
X2853574Y2154599D01*
X2825009D01*
X2826913Y2139745D02*
X2830722Y2143553D01*
X2834530D01*
X2838339Y2141649D01*
X2840243Y2139745D01*
X2842148Y2135936D01*
X2845956Y2124510D01*
X2847861Y2120701D01*
X2826913D02*
X2825009Y2126414D01*
Y2134032D01*
X2826913Y2139745D01*
Y2120701D02*
X2830722Y2116892D01*
X2859287Y2156503D02*
X2863096Y2160312D01*
X2865000Y2166025D01*
Y2169833D01*
X2863096Y2175546D01*
X2859287Y2179355D01*
X2853574Y2181260D01*
X2825009D01*
X2770000Y2193356D02*
X2768096Y2191452D01*
X2766191Y2193356D01*
X2768096Y2195260D01*
X2770000Y2193356D01*
X2747148D02*
X2745243Y2191452D01*
X2743339Y2193356D01*
X2745243Y2195260D01*
X2747148Y2193356D01*
X2762383Y2151270D02*
X2766191Y2149366D01*
X2768096Y2147461D01*
X2770000Y2141748D01*
Y2136035D01*
X2768096Y2130322D01*
X2764287Y2126513D01*
X2758574Y2124609D01*
X2754765D01*
X2749052Y2126513D01*
X2747148Y2128418D01*
X2745243Y2132227D01*
Y2137939D01*
X2730009Y2126513D01*
Y2147461D01*
Y2115659D02*
Y2088998D01*
X2770000Y2108041D01*
X2768096Y2074334D02*
X2770000Y2068621D01*
Y2064812D01*
X2768096Y2059099D01*
X2762383Y2055291D01*
X2752861Y2053386D01*
X2747148D01*
X2737626Y2055291D01*
X2731913Y2059099D01*
X2730009Y2064812D01*
Y2068621D01*
X2731913Y2074334D01*
X2737626Y2078143D01*
X2747148Y2080047D01*
X2752861D01*
X2762383Y2078143D01*
X2768096Y2074334D01*
X2770000Y2044436D02*
X2730009D01*
X2749052D02*
Y2017775D01*
Y2006730D02*
Y1989590D01*
X2747148Y1983877D01*
X2745243Y1981973D01*
X2741435Y1980069D01*
X2737626D01*
X2733817Y1981973D01*
X2731913Y1983877D01*
X2730009Y1989590D01*
Y2006730D01*
X2770000D01*
Y2017775D02*
X2730009D01*
X2749052Y1993399D02*
X2770000Y1980069D01*
X2825009Y1940359D02*
X2844052Y1925124D01*
X2840243Y2223536D02*
X2842148Y2225441D01*
X2844052Y2231153D01*
Y2248293D01*
Y2234962D02*
X2865000Y2221632D01*
Y2248293D02*
X2825009D01*
Y2231153D01*
X2826913Y2225441D01*
X2828817Y2223536D01*
X2832626Y2221632D01*
X2836435D01*
X2840243Y2223536D01*
X2844052Y2264480D02*
Y2279715D01*
X2825009D02*
X2865000D01*
Y2254958D01*
Y2291141D02*
X2825009D01*
X2865000Y2306376D01*
X2825009Y2321610D01*
X2865000D01*
X2859287Y2334750D02*
X2855478Y2332846D01*
X2849765Y2330942D01*
X2840243D01*
X2834530Y2332846D01*
X2830722Y2334750D01*
X2826913Y2338559D01*
X2825009Y2342368D01*
Y2349985D01*
X2826913Y2353794D01*
X2830722Y2357603D01*
X2834530Y2359507D01*
X2840243Y2361411D01*
X2849765D01*
X2855478Y2359507D01*
X2859287Y2357603D01*
X2863096Y2353794D01*
X2865000Y2349985D01*
Y2342368D01*
X2863096Y2338559D01*
X2859287Y2334750D01*
X2865000Y2379503D02*
X2825009D01*
Y2392833D02*
Y2366172D01*
X2830722Y2401784D02*
X2826913Y2405592D01*
X2825009Y2411305D01*
Y2418923D01*
X2826913Y2424636D01*
X2830722Y2428445D01*
X2834530D01*
X2838339Y2426540D01*
X2840243Y2424636D01*
X2842148Y2420827D01*
X2845956Y2409401D01*
X2847861Y2405592D01*
X2849765Y2403688D01*
X2853574Y2401784D01*
X2859287D01*
X2863096Y2405592D01*
X2865000Y2411305D01*
Y2418923D01*
X2863096Y2424636D01*
X2859287Y2428445D01*
Y2441394D02*
X2853574Y2439490D01*
X2825009D01*
Y2466151D02*
X2853574D01*
X2859287Y2464246D01*
X2863096Y2460438D01*
X2865000Y2454725D01*
Y2450916D01*
X2863096Y2445203D01*
X2859287Y2441394D01*
Y2479291D02*
X2855478Y2477386D01*
X2859287Y2479291D02*
X2863096Y2483099D01*
X2865000Y2486908D01*
Y2494526D01*
X2863096Y2498334D01*
X2859287Y2502143D01*
X2855478Y2504047D01*
X2849765Y2505952D01*
X2840243D01*
X2834530Y2504047D01*
X2830722Y2502143D01*
X2826913Y2498334D01*
X2825009Y2494526D01*
Y2486908D01*
X2826913Y2483099D01*
X2830722Y2479291D01*
X2834530Y2477386D01*
X2832626Y2546324D02*
X2836435D01*
X2840243Y2548228D01*
X2842148Y2550133D01*
X2844052Y2555846D01*
Y2572985D01*
X2840243Y2582316D02*
X2834530Y2584221D01*
X2830722Y2586125D01*
X2826913Y2589934D01*
X2825009Y2593742D01*
Y2601360D01*
X2826913Y2605169D01*
X2830722Y2608977D01*
X2834530Y2610881D01*
X2840243Y2612786D01*
X2849765D01*
X2855478Y2610881D01*
X2859287Y2608977D01*
X2863096Y2605169D01*
X2865000Y2601360D01*
Y2593742D01*
X2863096Y2589934D01*
X2859287Y2586125D01*
X2855478Y2584221D01*
X2849765Y2582316D01*
X2840243D01*
X2825009Y2572985D02*
X2865000D01*
Y2546324D02*
X2844052Y2559654D01*
X2825009Y2555846D02*
X2826913Y2550133D01*
X2828817Y2548228D01*
X2832626Y2546324D01*
X2825009Y2555846D02*
Y2572985D01*
Y2617356D02*
Y2642113D01*
X2865000D01*
X2844052D02*
Y2626878D01*
X2847861Y2653920D02*
Y2688198D01*
X2865000Y2692579D02*
Y2715431D01*
X2825009D01*
Y2739997D02*
X2865000Y2755232D01*
Y2763611D02*
X2825009D01*
Y2768372D02*
Y2795033D01*
Y2806078D02*
X2865000D01*
X2825009Y2832739D01*
X2865000D01*
Y2839404D02*
Y2864161D01*
X2825009D01*
Y2839404D01*
X2844052Y2848926D02*
Y2864161D01*
X2840243Y2873111D02*
X2849765D01*
X2855478Y2875015D01*
X2859287Y2876920D01*
X2863096Y2880729D01*
X2865000Y2886442D01*
Y2899772D01*
X2825009D01*
Y2886442D01*
X2826913Y2880729D01*
X2830722Y2876920D01*
X2834530Y2875015D01*
X2840243Y2873111D01*
X2825009Y2908151D02*
X2865000D01*
Y2937478D02*
X2825009D01*
Y2912722D01*
X2844052Y2922244D02*
Y2937478D01*
X2825009Y2948524D02*
X2865000D01*
X2825009Y2975185D01*
X2865000D01*
X2859287Y2988325D02*
X2855478Y2986420D01*
X2849765Y2984516D01*
X2840243D01*
X2834530Y2986420D01*
X2830722Y2988325D01*
X2826913Y2992133D01*
X2825009Y2995942D01*
Y3003559D01*
X2826913Y3007368D01*
X2830722Y3011177D01*
X2834530Y3013081D01*
X2840243Y3014986D01*
X2849765D01*
X2855478Y3013081D01*
X2859287Y3011177D01*
X2863096Y3007368D01*
X2865000Y3003559D01*
Y2995942D01*
X2863096Y2992133D01*
X2859287Y2988325D01*
Y3028126D02*
X2855478Y3026221D01*
X2859287Y3028126D02*
X2863096Y3031934D01*
X2865000Y3035743D01*
Y3043360D01*
X2863096Y3047169D01*
X2859287Y3050978D01*
X2855478Y3052882D01*
X2849765Y3054787D01*
X2840243D01*
X2834530Y3052882D01*
X2830722Y3050978D01*
X2826913Y3047169D01*
X2825009Y3043360D01*
Y3035743D01*
X2826913Y3031934D01*
X2830722Y3028126D01*
X2834530Y3026221D01*
X2825009Y2781702D02*
X2865000D01*
X2851669Y2749519D02*
Y2730475D01*
X2865000Y2724762D02*
X2825009Y2739997D01*
Y2279715D02*
Y2254958D01*
X2770000Y2240203D02*
X2730009Y2255438D01*
X2770000Y2270673D01*
X2756669Y2264960D02*
Y2245916D01*
X2749052Y2230872D02*
Y2213733D01*
X2750956Y2208020D01*
X2752861Y2206115D01*
X2756669Y2204211D01*
X2762383D01*
X2766191Y2206115D01*
X2768096Y2208020D01*
X2770000Y2213733D01*
Y2230872D01*
X2730009D01*
Y2213733D01*
X2731913Y2208020D01*
X2733817Y2206115D01*
X2737626Y2204211D01*
X2741435D01*
X2745243Y2206115D01*
X2747148Y2208020D01*
X2749052Y2213733D01*
Y2284765D02*
Y2300000D01*
X2730009D02*
X2770000D01*
X2730009D02*
Y2275243D01*
X2825009Y3094588D02*
X2865000D01*
X2859287Y3107347D02*
X2863096Y3111155D01*
X2865000Y3116869D01*
Y3130199D01*
X2825009D01*
Y3116869D01*
X2826913Y3111155D01*
X2830722Y3107347D01*
X2834530Y3105442D01*
X2840243Y3103538D01*
X2849765D01*
X2855478Y3105442D01*
X2859287Y3107347D01*
X2865000Y3139530D02*
X2825009Y3154765D01*
X2865000Y3170000D01*
X2851669Y3164287D02*
Y3145243D01*
X2725000Y3305000D02*
Y3344991D01*
X2700243D01*
X2695673D02*
Y3305000D01*
Y3325948D02*
X2669012D01*
Y3344991D02*
Y3305000D01*
X2648445D02*
Y3344991D01*
X2654158Y3339278D01*
X2657967Y3337374D01*
X2709765Y3325948D02*
X2725000D01*
X2026191Y3490713D02*
X2022383Y3486904D01*
X2018574Y3485000D01*
X2010957D01*
X2007148Y3486904D01*
X2003339Y3490713D01*
X2001435Y3494522D01*
Y3515470D02*
X2003339Y3519278D01*
X2007148Y3523087D01*
X2010957Y3524991D01*
X2018574D01*
X2022383Y3523087D01*
X2026191Y3519278D01*
X2028096Y3515470D01*
X2030000Y3509757D01*
Y3500235D01*
X2028096Y3494522D01*
X2026191Y3490713D01*
X1982582Y3485000D02*
X1963538Y3524991D01*
X1990199D01*
X1872383Y3523087D02*
X1876191Y3519278D01*
X1878096Y3515470D01*
X1880000Y3509757D01*
Y3500235D01*
X1878096Y3494522D01*
X1876191Y3490713D01*
X1872383Y3486904D01*
X1868574Y3485000D01*
X1860957D01*
X1857148Y3486904D01*
X1853339Y3490713D01*
X1851435Y3494522D01*
Y3515470D02*
X1853339Y3519278D01*
X1857148Y3523087D01*
X1860957Y3524991D01*
X1868574D01*
X1872383Y3523087D01*
X1840199Y3517374D02*
X1836390Y3519278D01*
X1830677Y3524991D01*
Y3485000D01*
X1831131Y3418214D02*
X1834940Y3420118D01*
X1842558D01*
X1846366Y3418214D01*
X1850175Y3414405D01*
X1852079Y3410597D01*
X1853984Y3404883D01*
Y3395362D01*
X1852079Y3389649D01*
X1850175Y3385840D01*
X1846366Y3382031D01*
X1842558Y3380127D01*
X1834940D01*
X1831131Y3382031D01*
X1827323Y3385840D01*
X1825418Y3389649D01*
X1814183Y3387744D02*
X1812278Y3383936D01*
X1810374Y3382031D01*
X1804661Y3380127D01*
X1798948D01*
X1793235Y3382031D01*
X1789426Y3385840D01*
X1787522Y3391553D01*
Y3395362D01*
X1789426Y3401075D01*
X1791331Y3402979D01*
X1795139Y3404883D01*
X1800852D01*
X1789426Y3420118D01*
X1810374D01*
X1827323Y3414405D02*
X1831131Y3418214D01*
X1827323Y3414405D02*
X1825418Y3410597D01*
X1934924Y3403087D02*
X1940637Y3404991D01*
X1944446D01*
X1950159Y3403087D01*
X1953967Y3397374D01*
X1955872Y3387852D01*
Y3382139D01*
X1953967Y3372617D01*
X1950159Y3366904D01*
X1944446Y3365000D01*
X1940637D01*
X1934924Y3366904D01*
X1931115Y3372617D01*
X1929211Y3382139D01*
Y3387852D01*
X1931115Y3397374D01*
X1934924Y3403087D01*
X1975677Y3404991D02*
Y3365000D01*
X1998339Y3370713D02*
X1996435Y3374522D01*
X1998339Y3370713D02*
X2002148Y3366904D01*
X2005957Y3365000D01*
X2013574D01*
X2017383Y3366904D01*
X2021191Y3370713D01*
X2023096Y3374522D01*
X2025000Y3380235D01*
Y3389757D01*
X2023096Y3395470D01*
X2021191Y3399278D01*
X2017383Y3403087D01*
X2013574Y3404991D01*
X2005957D01*
X2002148Y3403087D01*
X1998339Y3399278D01*
X1996435Y3395470D01*
X1985199Y3397374D02*
X1981390Y3399278D01*
X1975677Y3404991D01*
X2524012Y4490000D02*
X2550673D01*
X2531629Y4509043D01*
X2527821Y4514757D01*
X2525916Y4518565D01*
Y4522374D01*
X2527821Y4526183D01*
X2529725Y4528087D01*
X2533534Y4529991D01*
X2541151D01*
X2544960Y4528087D01*
X2546864Y4526183D01*
X2548769Y4522374D01*
Y4520470D01*
X2560956Y4529991D02*
Y4499522D01*
X2562861Y4493809D01*
X2564765Y4491904D01*
X2568574Y4490000D01*
X2572383D01*
X2576191Y4491904D01*
X2578096Y4493809D01*
X2580000Y4499522D01*
Y4503331D01*
X1815512D02*
Y4499522D01*
X1813607Y4493809D01*
X1811703Y4491904D01*
X1807894Y4490000D01*
X1804086D01*
X1800277Y4491904D01*
X1798372Y4493809D01*
X1796468Y4499522D01*
Y4529991D01*
X1786185Y4522374D02*
X1782376Y4524278D01*
X1776663Y4529991D01*
Y4490000D01*
X1076191Y4491904D02*
X1078096Y4493809D01*
X1080000Y4499522D01*
Y4503331D01*
X1076191Y4491904D02*
X1072383Y4490000D01*
X1068574D01*
X1064765Y4491904D01*
X1062861Y4493809D01*
X1060957Y4499522D01*
Y4529991D01*
X1050673D02*
X1024012D01*
X1043055Y4490000D01*
X877383Y3523087D02*
X881191Y3519278D01*
X883096Y3515470D01*
X885000Y3509757D01*
Y3500235D01*
X883096Y3494522D01*
X881191Y3490713D01*
X877383Y3486904D01*
X873574Y3485000D01*
X865957D01*
X862148Y3486904D01*
X858339Y3490713D01*
X856435Y3494522D01*
X843295Y3490713D02*
X841390Y3486904D01*
X835677Y3485000D01*
X831869D01*
X826155Y3486904D01*
X822347Y3492617D01*
X820442Y3502139D01*
Y3511661D01*
X822347Y3505948D01*
X826155Y3502139D01*
X831869Y3500235D01*
X833773D01*
X839486Y3502139D01*
X843295Y3505948D01*
X845199Y3511661D01*
Y3513565D01*
X843295Y3519278D01*
X839486Y3523087D01*
X833773Y3524991D01*
X831869D01*
X826155Y3523087D01*
X822347Y3519278D01*
X820442Y3511661D01*
X856435Y3515470D02*
X858339Y3519278D01*
X862148Y3523087D01*
X865957Y3524991D01*
X873574D01*
X877383Y3523087D01*
X722383D02*
X726191Y3519278D01*
X728096Y3515470D01*
X730000Y3509757D01*
Y3500235D01*
X728096Y3494522D01*
X726191Y3490713D01*
X722383Y3486904D01*
X718574Y3485000D01*
X710957D01*
X707148Y3486904D01*
X703339Y3490713D01*
X701435Y3494522D01*
X690199Y3492617D02*
X688295Y3488809D01*
X686390Y3486904D01*
X680677Y3485000D01*
X674964D01*
X669251Y3486904D01*
X665442Y3490713D01*
X663538Y3496426D01*
Y3500235D01*
X665442Y3505948D01*
X669251Y3509757D01*
X674964Y3511661D01*
X680677D01*
X686390Y3509757D01*
X688295Y3507852D01*
X686390Y3524991D01*
X667347D01*
X703339Y3519278D02*
X707148Y3523087D01*
X710957Y3524991D01*
X718574D01*
X722383Y3523087D01*
X703339Y3519278D02*
X701435Y3515470D01*
X807139Y3435118D02*
X826183Y3408457D01*
X797617D01*
X807139Y3395127D02*
Y3435118D01*
X839323Y3429405D02*
X843131Y3433214D01*
X846940Y3435118D01*
X854558D01*
X858366Y3433214D01*
X862175Y3429405D01*
X864079Y3425596D01*
X865984Y3419883D01*
Y3410361D01*
X864079Y3404648D01*
X862175Y3400840D01*
X858366Y3397031D01*
X854558Y3395127D01*
X846940D01*
X843131Y3397031D01*
X839323Y3400840D01*
X837418Y3404648D01*
Y3425596D02*
X839323Y3429405D01*
X427383Y3428087D02*
X431191Y3424278D01*
X433096Y3420470D01*
X435000Y3414757D01*
Y3405235D01*
X433096Y3399522D01*
X431191Y3395713D01*
X427383Y3391904D01*
X423574Y3390000D01*
X415957D01*
X412148Y3391904D01*
X408339Y3395713D01*
X406435Y3399522D01*
X395199Y3397617D02*
Y3403331D01*
X393295Y3407139D01*
X389486Y3410948D01*
X383773Y3412852D01*
X376156Y3414757D01*
X372347Y3416661D01*
X370442Y3420470D01*
Y3424278D01*
X372347Y3428087D01*
X378060Y3429991D01*
X385677D01*
X391390Y3428087D01*
X393295Y3424278D01*
Y3420470D01*
X391390Y3416661D01*
X387582Y3414757D01*
X379964Y3412852D01*
X374251Y3410948D01*
X370442Y3407139D01*
X368538Y3403331D01*
Y3397617D01*
X370442Y3393809D01*
X372347Y3391904D01*
X378060Y3390000D01*
X385677D01*
X391390Y3391904D01*
X393295Y3393809D01*
X395199Y3397617D01*
X406435Y3420470D02*
X408339Y3424278D01*
X412148Y3428087D01*
X415957Y3429991D01*
X423574D01*
X427383Y3428087D01*
X185957Y2024991D02*
Y1994522D01*
X187861Y1988809D01*
X189765Y1986904D01*
X193574Y1985000D01*
X197383D01*
X201191Y1986904D01*
X203096Y1988809D01*
X205000Y1994522D01*
Y1998331D01*
X175673Y2017374D02*
X171864Y2019278D01*
X166151Y2024991D01*
Y1985000D01*
X136824D02*
Y2024991D01*
X142537Y2019278D01*
X146346Y2017374D01*
D111*
X2385945Y356222D02*
X2425307D01*
X2419684Y350599D01*
X2417809Y346850D01*
X2425307Y379464D02*
Y400082D01*
X2410312Y388836D01*
Y394459D01*
X2408437Y398208D01*
X2406563Y400082D01*
X2400940Y401957D01*
X2397191D01*
X2391568Y400082D01*
X2387819Y396334D01*
X2385945Y390711D01*
Y385087D01*
X2387819Y379464D01*
X2389694Y377590D01*
X2393442Y375716D01*
X2477806D02*
Y403831D01*
X2464685Y394459D02*
X2504047D01*
X2477806Y375716D01*
X2464685Y356222D02*
X2504047D01*
X2498424Y350599D01*
X2496549Y346850D01*
Y962465D02*
X2500298Y964339D01*
X2502172Y966214D01*
X2504047Y969962D01*
Y977460D01*
X2502172Y981209D01*
X2500298Y983083D01*
X2496549Y984957D01*
X2492801D01*
X2489052Y983083D01*
X2483429Y979334D01*
X2464685Y960591D01*
Y986832D01*
X2494675Y962465D02*
X2496549D01*
X2419684Y964339D02*
X2425307Y969962D01*
X2385945D01*
X2419684Y964339D02*
X2417809Y960591D01*
D112*
X2300728Y4547136D02*
X2365000D01*
X2075000D02*
X2010728D01*
X2042864Y4579272D02*
Y4515000D01*
X1610000Y4547136D02*
X1545728D01*
X1320000D02*
X1255728D01*
X1287864Y4579272D02*
Y4515000D01*
X865000Y4547136D02*
X800728D01*
X575000D02*
X510728D01*
X542864Y4579272D02*
Y4515000D01*
D113*
X2826886Y3379256D02*
D03*
X2826886Y3910744D02*
D03*
%TF.MD5,de3bc8822f8dea1a6ea0800c249bac7c*%
M02*
