M48
;Layer_Color=9279657
;FILE_FORMAT=2:5
INCH
;TYPE=PLATED
T1F00S00C0.01000
T2F00S00C0.01500
T3F00S00C0.02000
T4F00S00C0.03100
T5F00S00C0.03500
T6F00S00C0.03900
T7F00S00C0.04331
T8F00S00C0.05906
T9F00S00C0.07087
T10F00S00C0.12500
%
T01
X0065000Y0027500
X0142500Y0032500
X0151000Y0036500
X0192500Y0035000
X0191500Y0020500
X0235000Y0007500
X0224500Y0093000
X0207000Y0091000
X0217500Y0120000
X0275500Y0177000
X0274000Y0179500
X0275500Y0182000
X0172500Y0202000
X0117500Y0179500
X0116500Y0172000
X0109550Y0163450
X0105250Y0164250
X0102500Y0153000
X0101500Y0149500
Y0146000
X0104500Y0144000
X0106500Y0135500
Y0131500
X0101500
X0098200Y0129700
X0100500Y0127000
X0099500Y0116500
X0098000Y0112500
X0094000Y0113500
X0107500Y0112000
X0115000Y0108500
X0131000Y0108000
X0134500Y0107500
X0140000Y0110500
X0141000Y0114500
X0154000Y0113000
X0164000Y0107500
X0173500Y0110500
X0128500Y0119000
X0131500Y0126000
Y0132000
X0128000Y0133000
Y0136500
Y0143000
X0122000Y0151000
X0114000Y0158500
X0099500Y0178500
X0092000Y0189000
X0086000
X0080500Y0178000
X0076000Y0177500
X0064500Y0180500
X0066500Y0184000
X0050000Y0187500
X0044000Y0185000
X0047500Y0177500
X0052500Y0177000
X0064000Y0162500
X0071500Y0161000
X0076500Y0160000
X0082500Y0161500
X0084000Y0152000
X0078000
X0072000
Y0146000
Y0140000
X0078000
X0084000
Y0146000
X0078000
Y0134000
Y0128000
X0072000
Y0134000
Y0119000
X0078000
X0079500Y0110500
X0073500Y0108500
X0067500Y0109500
X0065000Y0111500
X0063500Y0114500
X0055000Y0114000
Y0118500
X0052500Y0121500
X0044500Y0120000
X0050500Y0129500
X0053000Y0132000
X0055500Y0094000
X0061500Y0093500
X0067500Y0094000
X0063845Y0088575
X0083500Y0086000
X0083000Y0094000
X0094500Y0091000
X0100000Y0094500
X0115000Y0092000
X0118741
X0122500Y0094500
X0123000Y0082000
X0135000Y0082925
X0111000Y0087000
X0090000Y0075000
X0065000Y0064500
X0048500Y0076500
X0110500Y0050000
X0116000Y0054000
X0123000Y0059000
X0109500Y0123500
X0036000Y0125500
Y0129000
X0021500Y0125000
X0017000
X0014500Y0114500
X0015000Y0106000
X0009500Y0110500
X0026000Y0113500
X0030500
X0042000Y0107500
X0033000Y0093000
X0039500Y0066000
X0040000Y0054000
X0026000Y0142500
Y0146500
X0014200Y0143500
X0041000Y0177500
X0040000Y0265000
Y0269000
X0042000Y0267000
Y0282000
X0040000Y0284000
Y0280000
X0025500Y0305000
X0008000Y0316500
Y0330000
X0054000Y0301500
Y0282000
X0056000Y0280000
Y0284000
X0052000
Y0280000
X0050000Y0282000
X0048000Y0280000
X0046000Y0282000
X0048000Y0284000
X0044000
Y0280000
Y0269000
Y0265000
X0048000
X0046000Y0267000
X0048000Y0269000
X0050000Y0267000
X0052000Y0265000
Y0269000
X0054000Y0267000
X0056000Y0265000
Y0269000
X0062000Y0283500
X0077500Y0276500
Y0272500
X0073000Y0222500
X0095000Y0222000
X0098000Y0216500
X0126500Y0235000
X0150500Y0231500
Y0225500
X0180000Y0223000
X0209500Y0212500
X0228000Y0222500
X0215000Y0272500
Y0276500
X0204000Y0270500
X0249000Y0396500
Y0400500
X0251000Y0398500
X0253000Y0400500
Y0396500
Y0404500
X0251000Y0402500
X0249000Y0404500
X0251000Y0406500
X0253000Y0408500
X0249000
X0251000Y0410500
X0253000Y0412500
X0249000
X0187000Y0391500
X0183000
X0179000
X0175000
X0171000
X0173000Y0389500
X0175000Y0387500
X0171000
X0179000
X0177000Y0389500
X0181000
X0183000Y0387500
X0187000
X0185000Y0389500
X0136500Y0450500
X0132500
X0134500Y0452500
X0132500Y0454500
X0136500
X0128500
X0130500Y0452500
X0128500Y0450500
X0126500Y0452500
X0124500Y0454500
Y0450500
X0122500Y0452500
X0120500Y0454500
Y0450500
X0070500
Y0454500
X0068500Y0452500
X0066500Y0450500
Y0454500
Y0446500
X0068500Y0448500
X0070500Y0446500
X0068500Y0444500
X0066500Y0442500
X0070500
X0068500Y0440500
X0066500Y0438500
X0070500
T02
X0053000Y0032000
X0117000Y0036500
X0106500Y0008000
X0180000Y0012500
X0179000Y0044000
X0219000Y0129000
X0155500Y0091500
X0165100Y0070300
X0086500Y0050500
X0053000Y0109500
X0029500Y0244000
X0060000
Y0239500
X0064500
X0069000
X0073500
Y0244000
Y0248500
X0069000
Y0244000
X0064500
Y0248500
X0060000
X0081000
Y0244000
Y0239500
X0085500
X0090000
Y0244000
X0094500
Y0239500
Y0248500
X0090000
X0085500
Y0244000
X0107500Y0231000
X0111500
X0115500
Y0226500
X0111500
X0107500
Y0222000
Y0218000
X0111500
Y0222000
X0115500
Y0218000
X0189000Y0215500
Y0211500
Y0207500
Y0203000
X0193500
X0198000
Y0207500
Y0211500
Y0215500
X0193500
Y0211500
Y0207500
X0195000Y0227500
X0199500
Y0232000
Y0236000
Y0240000
X0195000
Y0236000
Y0232000
X0190500
Y0236000
Y0240000
Y0227500
X0138500Y0302500
X0112500
X0211500Y0306000
X0234500
X0227500Y0249500
X0223000
Y0245000
X0218500
X0214000
Y0249500
X0218500
Y0240000
X0223000
X0227500
Y0245000
X0214000Y0240000
X0255000Y0242500
T03
X0208000Y0183500
X0213500
X0219000
Y0189000
X0213500
X0208000
Y0197500
X0213500
X0219000
X0224500
X0177000Y0186000
Y0181000
Y0176000
Y0171000
X0163500
Y0176000
Y0181000
Y0186000
X0136000Y0184000
Y0179000
Y0174000
Y0189000
X0133000Y0214000
Y0219000
Y0224000
X0167500
X0172500Y0223000
X0173500Y0218500
X0168000
Y0213500
X0155000Y0248500
X0150000
X0145000
Y0255000
X0150000
X0155000
Y0261500
X0150000
X0145000
Y0268000
X0150000
X0155000
Y0274500
X0150000
X0145000
Y0281500
X0150000
X0155000
Y0288000
X0150000
X0145000
Y0294500
X0150000
X0155000
X0152000Y0310000
X0146500
X0141000
Y0324500
X0146500
X0152000
X0172000
X0177500
X0183000
Y0310500
X0177500
X0172000
X0199000
X0198000Y0300000
Y0294000
X0199000Y0324500
X0196000Y0264500
Y0259500
Y0254500
Y0249500
X0103500Y0251000
Y0246000
Y0241000
Y0256000
Y0261000
Y0266000
X0098500Y0294000
X0093000
X0087500
X0082000
Y0300000
X0087500
X0093000
X0098500
X0095000Y0311000
X0089500
X0084000
Y0325000
X0089500
X0095000
X0115000
X0120500
X0126000
Y0310000
X0120500
X0115000
X0091500Y0211500
Y0206500
X0086000
Y0211500
X0081000
Y0206500
X0208000Y0203000
X0213500
X0219000
X0224500
X0206000Y0249500
Y0254500
X0201000
Y0249500
X0203500Y0294000
X0209000
X0214500
Y0300000
X0209000
X0203500
X0204500Y0310500
X0210000
Y0324500
X0204500
X0231000Y0325000
X0236500
X0242000
Y0310500
X0237000
X0231500
X0230500Y0365500
X0236000
X0241500
Y0380000
X0236000
X0230500
X0209000Y0379500
X0203500
Y0365500
X0209000
X0198000
Y0379500
X0183500
X0178000
X0172500
Y0365500
X0178000
X0183500
X0152000
X0146500
X0141000
X0128000
X0122500
X0117000
Y0380000
X0122500
X0128000
X0141000
X0146500
X0152000
T04
X0266563Y0054315
X0274437
Y0062189
X0266563
Y0070063
X0274437
Y0077937
X0266563
Y0085811
X0274437
Y0093685
X0266563
T05
X0085063Y0009689
X0092937
Y0017563
Y0025437
Y0033311
X0085063
Y0025437
Y0017563
X0205563
X0213437
Y0009689
X0205563
Y0025437
Y0033311
X0213437
Y0025437
X0240563Y0044878
X0248437
Y0052752
Y0060626
X0240563
Y0052752
Y0068500
Y0076374
X0248437
Y0068500
Y0084248
Y0092122
X0240563
Y0084248
X0245000Y0117500
Y0127500
Y0137500
X0235000Y0142500
Y0132500
Y0122500
T06
X0072500Y0045000
X0105000
Y0055000
Y0065000
Y0075000
X0072500
Y0065000
Y0055000
X0015500Y0161000
Y0171000
Y0181000
Y0191000
T07
X0015000Y0054500
Y0064500
Y0074500
Y0084500
X0025000
Y0074500
Y0064500
Y0054500
X0094657Y0318000
X0114342
X0152657Y0317500
X0172343
X0210157
X0229842
Y0372500
X0210157
X0172343
X0152657
X0114842
X0095157
X0057342
X0037657
T08
X0266350Y0348752
Y0380248
X0248043Y0467000
X0190957
X0173043
X0115957
X0098043
X0040957
T09
X0203949Y0404795
X0235051
X0160051
X0128949
X0085051
X0053949
T10
X0017500Y0017500
X0272500
Y0462500
X0017500
M30
