%TF.GenerationSoftware,Altium Limited,Altium Designer,20.0.9 (164)*%
G04 Layer_Color=255*
%FSLAX26Y26*%
%MOIN*%
%TF.FileFunction,Pads,Top*%
%TF.Part,Single*%
G01*
G75*
%TA.AperFunction,SMDPad,CuDef*%
G04:AMPARAMS|DCode=10|XSize=126mil|YSize=80mil|CornerRadius=8mil|HoleSize=0mil|Usage=FLASHONLY|Rotation=180.000|XOffset=0mil|YOffset=0mil|HoleType=Round|Shape=RoundedRectangle|*
%AMROUNDEDRECTD10*
21,1,0.126000,0.064000,0,0,180.0*
21,1,0.110000,0.080000,0,0,180.0*
1,1,0.016000,-0.055000,0.032000*
1,1,0.016000,0.055000,0.032000*
1,1,0.016000,0.055000,-0.032000*
1,1,0.016000,-0.055000,-0.032000*
%
%ADD10ROUNDEDRECTD10*%
G04:AMPARAMS|DCode=11|XSize=285mil|YSize=80mil|CornerRadius=4mil|HoleSize=0mil|Usage=FLASHONLY|Rotation=180.000|XOffset=0mil|YOffset=0mil|HoleType=Round|Shape=RoundedRectangle|*
%AMROUNDEDRECTD11*
21,1,0.285000,0.072000,0,0,180.0*
21,1,0.277000,0.080000,0,0,180.0*
1,1,0.008000,-0.138500,0.036000*
1,1,0.008000,0.138500,0.036000*
1,1,0.008000,0.138500,-0.036000*
1,1,0.008000,-0.138500,-0.036000*
%
%ADD11ROUNDEDRECTD11*%
G04:AMPARAMS|DCode=12|XSize=126mil|YSize=78mil|CornerRadius=7.8mil|HoleSize=0mil|Usage=FLASHONLY|Rotation=180.000|XOffset=0mil|YOffset=0mil|HoleType=Round|Shape=RoundedRectangle|*
%AMROUNDEDRECTD12*
21,1,0.126000,0.062400,0,0,180.0*
21,1,0.110400,0.078000,0,0,180.0*
1,1,0.015600,-0.055200,0.031200*
1,1,0.015600,0.055200,0.031200*
1,1,0.015600,0.055200,-0.031200*
1,1,0.015600,-0.055200,-0.031200*
%
%ADD12ROUNDEDRECTD12*%
G04:AMPARAMS|DCode=13|XSize=27.559mil|YSize=9.842mil|CornerRadius=0.984mil|HoleSize=0mil|Usage=FLASHONLY|Rotation=180.000|XOffset=0mil|YOffset=0mil|HoleType=Round|Shape=RoundedRectangle|*
%AMROUNDEDRECTD13*
21,1,0.027559,0.007874,0,0,180.0*
21,1,0.025591,0.009842,0,0,180.0*
1,1,0.001968,-0.012795,0.003937*
1,1,0.001968,0.012795,0.003937*
1,1,0.001968,0.012795,-0.003937*
1,1,0.001968,-0.012795,-0.003937*
%
%ADD13ROUNDEDRECTD13*%
G04:AMPARAMS|DCode=14|XSize=70.866mil|YSize=9.842mil|CornerRadius=0.984mil|HoleSize=0mil|Usage=FLASHONLY|Rotation=180.000|XOffset=0mil|YOffset=0mil|HoleType=Round|Shape=RoundedRectangle|*
%AMROUNDEDRECTD14*
21,1,0.070866,0.007874,0,0,180.0*
21,1,0.068898,0.009842,0,0,180.0*
1,1,0.001968,-0.034449,0.003937*
1,1,0.001968,0.034449,0.003937*
1,1,0.001968,0.034449,-0.003937*
1,1,0.001968,-0.034449,-0.003937*
%
%ADD14ROUNDEDRECTD14*%
G04:AMPARAMS|DCode=15|XSize=27.559mil|YSize=9.842mil|CornerRadius=0.984mil|HoleSize=0mil|Usage=FLASHONLY|Rotation=90.000|XOffset=0mil|YOffset=0mil|HoleType=Round|Shape=RoundedRectangle|*
%AMROUNDEDRECTD15*
21,1,0.027559,0.007874,0,0,90.0*
21,1,0.025591,0.009842,0,0,90.0*
1,1,0.001968,0.003937,0.012795*
1,1,0.001968,0.003937,-0.012795*
1,1,0.001968,-0.003937,-0.012795*
1,1,0.001968,-0.003937,0.012795*
%
%ADD15ROUNDEDRECTD15*%
G04:AMPARAMS|DCode=16|XSize=59.055mil|YSize=9.842mil|CornerRadius=0.984mil|HoleSize=0mil|Usage=FLASHONLY|Rotation=180.000|XOffset=0mil|YOffset=0mil|HoleType=Round|Shape=RoundedRectangle|*
%AMROUNDEDRECTD16*
21,1,0.059055,0.007874,0,0,180.0*
21,1,0.057087,0.009842,0,0,180.0*
1,1,0.001968,-0.028543,0.003937*
1,1,0.001968,0.028543,0.003937*
1,1,0.001968,0.028543,-0.003937*
1,1,0.001968,-0.028543,-0.003937*
%
%ADD16ROUNDEDRECTD16*%
%ADD17R,0.124016X0.369291*%
G04:AMPARAMS|DCode=18|XSize=70.866mil|YSize=45.276mil|CornerRadius=6.791mil|HoleSize=0mil|Usage=FLASHONLY|Rotation=90.000|XOffset=0mil|YOffset=0mil|HoleType=Round|Shape=RoundedRectangle|*
%AMROUNDEDRECTD18*
21,1,0.070866,0.031693,0,0,90.0*
21,1,0.057283,0.045276,0,0,90.0*
1,1,0.013583,0.015847,0.028642*
1,1,0.013583,0.015847,-0.028642*
1,1,0.013583,-0.015847,-0.028642*
1,1,0.013583,-0.015847,0.028642*
%
%ADD18ROUNDEDRECTD18*%
G04:AMPARAMS|DCode=19|XSize=30mil|YSize=34mil|CornerRadius=3.75mil|HoleSize=0mil|Usage=FLASHONLY|Rotation=0.000|XOffset=0mil|YOffset=0mil|HoleType=Round|Shape=RoundedRectangle|*
%AMROUNDEDRECTD19*
21,1,0.030000,0.026500,0,0,0.0*
21,1,0.022500,0.034000,0,0,0.0*
1,1,0.007500,0.011250,-0.013250*
1,1,0.007500,-0.011250,-0.013250*
1,1,0.007500,-0.011250,0.013250*
1,1,0.007500,0.011250,0.013250*
%
%ADD19ROUNDEDRECTD19*%
G04:AMPARAMS|DCode=20|XSize=100mil|YSize=65mil|CornerRadius=9.75mil|HoleSize=0mil|Usage=FLASHONLY|Rotation=180.000|XOffset=0mil|YOffset=0mil|HoleType=Round|Shape=RoundedRectangle|*
%AMROUNDEDRECTD20*
21,1,0.100000,0.045500,0,0,180.0*
21,1,0.080500,0.065000,0,0,180.0*
1,1,0.019500,-0.040250,0.022750*
1,1,0.019500,0.040250,0.022750*
1,1,0.019500,0.040250,-0.022750*
1,1,0.019500,-0.040250,-0.022750*
%
%ADD20ROUNDEDRECTD20*%
G04:AMPARAMS|DCode=21|XSize=150mil|YSize=80mil|CornerRadius=4mil|HoleSize=0mil|Usage=FLASHONLY|Rotation=0.000|XOffset=0mil|YOffset=0mil|HoleType=Round|Shape=RoundedRectangle|*
%AMROUNDEDRECTD21*
21,1,0.150000,0.072000,0,0,0.0*
21,1,0.142000,0.080000,0,0,0.0*
1,1,0.008000,0.071000,-0.036000*
1,1,0.008000,-0.071000,-0.036000*
1,1,0.008000,-0.071000,0.036000*
1,1,0.008000,0.071000,0.036000*
%
%ADD21ROUNDEDRECTD21*%
%TA.AperFunction,FiducialPad,Global*%
%ADD22C,0.040000*%
%TA.AperFunction,SMDPad,CuDef*%
G04:AMPARAMS|DCode=23|XSize=74mil|YSize=24mil|CornerRadius=3.6mil|HoleSize=0mil|Usage=FLASHONLY|Rotation=180.000|XOffset=0mil|YOffset=0mil|HoleType=Round|Shape=RoundedRectangle|*
%AMROUNDEDRECTD23*
21,1,0.074000,0.016800,0,0,180.0*
21,1,0.066800,0.024000,0,0,180.0*
1,1,0.007200,-0.033400,0.008400*
1,1,0.007200,0.033400,0.008400*
1,1,0.007200,0.033400,-0.008400*
1,1,0.007200,-0.033400,-0.008400*
%
%ADD23ROUNDEDRECTD23*%
G04:AMPARAMS|DCode=24|XSize=23.622mil|YSize=39.37mil|CornerRadius=3.543mil|HoleSize=0mil|Usage=FLASHONLY|Rotation=180.000|XOffset=0mil|YOffset=0mil|HoleType=Round|Shape=RoundedRectangle|*
%AMROUNDEDRECTD24*
21,1,0.023622,0.032283,0,0,180.0*
21,1,0.016535,0.039370,0,0,180.0*
1,1,0.007087,-0.008268,0.016142*
1,1,0.007087,0.008268,0.016142*
1,1,0.007087,0.008268,-0.016142*
1,1,0.007087,-0.008268,-0.016142*
%
%ADD24ROUNDEDRECTD24*%
G04:AMPARAMS|DCode=25|XSize=23.622mil|YSize=39.37mil|CornerRadius=3.543mil|HoleSize=0mil|Usage=FLASHONLY|Rotation=270.000|XOffset=0mil|YOffset=0mil|HoleType=Round|Shape=RoundedRectangle|*
%AMROUNDEDRECTD25*
21,1,0.023622,0.032283,0,0,270.0*
21,1,0.016535,0.039370,0,0,270.0*
1,1,0.007087,-0.016142,-0.008268*
1,1,0.007087,-0.016142,0.008268*
1,1,0.007087,0.016142,0.008268*
1,1,0.007087,0.016142,-0.008268*
%
%ADD25ROUNDEDRECTD25*%
G04:AMPARAMS|DCode=26|XSize=38mil|YSize=36mil|CornerRadius=3.42mil|HoleSize=0mil|Usage=FLASHONLY|Rotation=0.000|XOffset=0mil|YOffset=0mil|HoleType=Round|Shape=RoundedRectangle|*
%AMROUNDEDRECTD26*
21,1,0.038000,0.029160,0,0,0.0*
21,1,0.031160,0.036000,0,0,0.0*
1,1,0.006840,0.015580,-0.014580*
1,1,0.006840,-0.015580,-0.014580*
1,1,0.006840,-0.015580,0.014580*
1,1,0.006840,0.015580,0.014580*
%
%ADD26ROUNDEDRECTD26*%
%ADD27R,0.064961X0.053150*%
G04:AMPARAMS|DCode=28|XSize=27.559mil|YSize=9.842mil|CornerRadius=1.476mil|HoleSize=0mil|Usage=FLASHONLY|Rotation=180.000|XOffset=0mil|YOffset=0mil|HoleType=Round|Shape=RoundedRectangle|*
%AMROUNDEDRECTD28*
21,1,0.027559,0.006890,0,0,180.0*
21,1,0.024606,0.009842,0,0,180.0*
1,1,0.002953,-0.012303,0.003445*
1,1,0.002953,0.012303,0.003445*
1,1,0.002953,0.012303,-0.003445*
1,1,0.002953,-0.012303,-0.003445*
%
%ADD28ROUNDEDRECTD28*%
%ADD29R,0.065000X0.013000*%
G04:AMPARAMS|DCode=30|XSize=86.614mil|YSize=55.118mil|CornerRadius=5.512mil|HoleSize=0mil|Usage=FLASHONLY|Rotation=270.000|XOffset=0mil|YOffset=0mil|HoleType=Round|Shape=RoundedRectangle|*
%AMROUNDEDRECTD30*
21,1,0.086614,0.044094,0,0,270.0*
21,1,0.075591,0.055118,0,0,270.0*
1,1,0.011024,-0.022047,-0.037795*
1,1,0.011024,-0.022047,0.037795*
1,1,0.011024,0.022047,0.037795*
1,1,0.011024,0.022047,-0.037795*
%
%ADD30ROUNDEDRECTD30*%
G04:AMPARAMS|DCode=31|XSize=55.118mil|YSize=35.433mil|CornerRadius=3.543mil|HoleSize=0mil|Usage=FLASHONLY|Rotation=180.000|XOffset=0mil|YOffset=0mil|HoleType=Round|Shape=RoundedRectangle|*
%AMROUNDEDRECTD31*
21,1,0.055118,0.028346,0,0,180.0*
21,1,0.048032,0.035433,0,0,180.0*
1,1,0.007087,-0.024016,0.014173*
1,1,0.007087,0.024016,0.014173*
1,1,0.007087,0.024016,-0.014173*
1,1,0.007087,-0.024016,-0.014173*
%
%ADD31ROUNDEDRECTD31*%
G04:AMPARAMS|DCode=32|XSize=70mil|YSize=50mil|CornerRadius=3mil|HoleSize=0mil|Usage=FLASHONLY|Rotation=180.000|XOffset=0mil|YOffset=0mil|HoleType=Round|Shape=RoundedRectangle|*
%AMROUNDEDRECTD32*
21,1,0.070000,0.044000,0,0,180.0*
21,1,0.064000,0.050000,0,0,180.0*
1,1,0.006000,-0.032000,0.022000*
1,1,0.006000,0.032000,0.022000*
1,1,0.006000,0.032000,-0.022000*
1,1,0.006000,-0.032000,-0.022000*
%
%ADD32ROUNDEDRECTD32*%
G04:AMPARAMS|DCode=33|XSize=23.622mil|YSize=24.803mil|CornerRadius=1.181mil|HoleSize=0mil|Usage=FLASHONLY|Rotation=90.000|XOffset=0mil|YOffset=0mil|HoleType=Round|Shape=RoundedRectangle|*
%AMROUNDEDRECTD33*
21,1,0.023622,0.022441,0,0,90.0*
21,1,0.021260,0.024803,0,0,90.0*
1,1,0.002362,0.011220,0.010630*
1,1,0.002362,0.011220,-0.010630*
1,1,0.002362,-0.011220,-0.010630*
1,1,0.002362,-0.011220,0.010630*
%
%ADD33ROUNDEDRECTD33*%
G04:AMPARAMS|DCode=34|XSize=66mil|YSize=65mil|CornerRadius=3.25mil|HoleSize=0mil|Usage=FLASHONLY|Rotation=270.000|XOffset=0mil|YOffset=0mil|HoleType=Round|Shape=RoundedRectangle|*
%AMROUNDEDRECTD34*
21,1,0.066000,0.058500,0,0,270.0*
21,1,0.059500,0.065000,0,0,270.0*
1,1,0.006500,-0.029250,-0.029750*
1,1,0.006500,-0.029250,0.029750*
1,1,0.006500,0.029250,0.029750*
1,1,0.006500,0.029250,-0.029750*
%
%ADD34ROUNDEDRECTD34*%
%ADD35R,0.106299X0.216535*%
G04:AMPARAMS|DCode=36|XSize=80mil|YSize=30mil|CornerRadius=3.75mil|HoleSize=0mil|Usage=FLASHONLY|Rotation=0.000|XOffset=0mil|YOffset=0mil|HoleType=Round|Shape=RoundedRectangle|*
%AMROUNDEDRECTD36*
21,1,0.080000,0.022500,0,0,0.0*
21,1,0.072500,0.030000,0,0,0.0*
1,1,0.007500,0.036250,-0.011250*
1,1,0.007500,-0.036250,-0.011250*
1,1,0.007500,-0.036250,0.011250*
1,1,0.007500,0.036250,0.011250*
%
%ADD36ROUNDEDRECTD36*%
G04:AMPARAMS|DCode=37|XSize=110mil|YSize=30mil|CornerRadius=1.5mil|HoleSize=0mil|Usage=FLASHONLY|Rotation=0.000|XOffset=0mil|YOffset=0mil|HoleType=Round|Shape=RoundedRectangle|*
%AMROUNDEDRECTD37*
21,1,0.110000,0.027000,0,0,0.0*
21,1,0.107000,0.030000,0,0,0.0*
1,1,0.003000,0.053500,-0.013500*
1,1,0.003000,-0.053500,-0.013500*
1,1,0.003000,-0.053500,0.013500*
1,1,0.003000,0.053500,0.013500*
%
%ADD37ROUNDEDRECTD37*%
G04:AMPARAMS|DCode=38|XSize=80mil|YSize=30mil|CornerRadius=1.5mil|HoleSize=0mil|Usage=FLASHONLY|Rotation=0.000|XOffset=0mil|YOffset=0mil|HoleType=Round|Shape=RoundedRectangle|*
%AMROUNDEDRECTD38*
21,1,0.080000,0.027000,0,0,0.0*
21,1,0.077000,0.030000,0,0,0.0*
1,1,0.003000,0.038500,-0.013500*
1,1,0.003000,-0.038500,-0.013500*
1,1,0.003000,-0.038500,0.013500*
1,1,0.003000,0.038500,0.013500*
%
%ADD38ROUNDEDRECTD38*%
G04:AMPARAMS|DCode=39|XSize=195mil|YSize=140mil|CornerRadius=7mil|HoleSize=0mil|Usage=FLASHONLY|Rotation=270.000|XOffset=0mil|YOffset=0mil|HoleType=Round|Shape=RoundedRectangle|*
%AMROUNDEDRECTD39*
21,1,0.195000,0.126000,0,0,270.0*
21,1,0.181000,0.140000,0,0,270.0*
1,1,0.014000,-0.063000,-0.090500*
1,1,0.014000,-0.063000,0.090500*
1,1,0.014000,0.063000,0.090500*
1,1,0.014000,0.063000,-0.090500*
%
%ADD39ROUNDEDRECTD39*%
G04:AMPARAMS|DCode=40|XSize=80mil|YSize=30mil|CornerRadius=3.75mil|HoleSize=0mil|Usage=FLASHONLY|Rotation=90.000|XOffset=0mil|YOffset=0mil|HoleType=Round|Shape=RoundedRectangle|*
%AMROUNDEDRECTD40*
21,1,0.080000,0.022500,0,0,90.0*
21,1,0.072500,0.030000,0,0,90.0*
1,1,0.007500,0.011250,0.036250*
1,1,0.007500,0.011250,-0.036250*
1,1,0.007500,-0.011250,-0.036250*
1,1,0.007500,-0.011250,0.036250*
%
%ADD40ROUNDEDRECTD40*%
G04:AMPARAMS|DCode=41|XSize=110mil|YSize=30mil|CornerRadius=1.5mil|HoleSize=0mil|Usage=FLASHONLY|Rotation=90.000|XOffset=0mil|YOffset=0mil|HoleType=Round|Shape=RoundedRectangle|*
%AMROUNDEDRECTD41*
21,1,0.110000,0.027000,0,0,90.0*
21,1,0.107000,0.030000,0,0,90.0*
1,1,0.003000,0.013500,0.053500*
1,1,0.003000,0.013500,-0.053500*
1,1,0.003000,-0.013500,-0.053500*
1,1,0.003000,-0.013500,0.053500*
%
%ADD41ROUNDEDRECTD41*%
G04:AMPARAMS|DCode=42|XSize=80mil|YSize=30mil|CornerRadius=1.5mil|HoleSize=0mil|Usage=FLASHONLY|Rotation=90.000|XOffset=0mil|YOffset=0mil|HoleType=Round|Shape=RoundedRectangle|*
%AMROUNDEDRECTD42*
21,1,0.080000,0.027000,0,0,90.0*
21,1,0.077000,0.030000,0,0,90.0*
1,1,0.003000,0.013500,0.038500*
1,1,0.003000,0.013500,-0.038500*
1,1,0.003000,-0.013500,-0.038500*
1,1,0.003000,-0.013500,0.038500*
%
%ADD42ROUNDEDRECTD42*%
G04:AMPARAMS|DCode=43|XSize=195mil|YSize=140mil|CornerRadius=7mil|HoleSize=0mil|Usage=FLASHONLY|Rotation=0.000|XOffset=0mil|YOffset=0mil|HoleType=Round|Shape=RoundedRectangle|*
%AMROUNDEDRECTD43*
21,1,0.195000,0.126000,0,0,0.0*
21,1,0.181000,0.140000,0,0,0.0*
1,1,0.014000,0.090500,-0.063000*
1,1,0.014000,-0.090500,-0.063000*
1,1,0.014000,-0.090500,0.063000*
1,1,0.014000,0.090500,0.063000*
%
%ADD43ROUNDEDRECTD43*%
G04:AMPARAMS|DCode=44|XSize=70.866mil|YSize=45.276mil|CornerRadius=6.791mil|HoleSize=0mil|Usage=FLASHONLY|Rotation=180.000|XOffset=0mil|YOffset=0mil|HoleType=Round|Shape=RoundedRectangle|*
%AMROUNDEDRECTD44*
21,1,0.070866,0.031693,0,0,180.0*
21,1,0.057283,0.045276,0,0,180.0*
1,1,0.013583,-0.028642,0.015847*
1,1,0.013583,0.028642,0.015847*
1,1,0.013583,0.028642,-0.015847*
1,1,0.013583,-0.028642,-0.015847*
%
%ADD44ROUNDEDRECTD44*%
G04:AMPARAMS|DCode=45|XSize=126mil|YSize=40mil|CornerRadius=7mil|HoleSize=0mil|Usage=FLASHONLY|Rotation=90.000|XOffset=0mil|YOffset=0mil|HoleType=Round|Shape=RoundedRectangle|*
%AMROUNDEDRECTD45*
21,1,0.126000,0.026000,0,0,90.0*
21,1,0.112000,0.040000,0,0,90.0*
1,1,0.014000,0.013000,0.056000*
1,1,0.014000,0.013000,-0.056000*
1,1,0.014000,-0.013000,-0.056000*
1,1,0.014000,-0.013000,0.056000*
%
%ADD45ROUNDEDRECTD45*%
G04:AMPARAMS|DCode=46|XSize=30mil|YSize=34mil|CornerRadius=3.75mil|HoleSize=0mil|Usage=FLASHONLY|Rotation=90.000|XOffset=0mil|YOffset=0mil|HoleType=Round|Shape=RoundedRectangle|*
%AMROUNDEDRECTD46*
21,1,0.030000,0.026500,0,0,90.0*
21,1,0.022500,0.034000,0,0,90.0*
1,1,0.007500,0.013250,0.011250*
1,1,0.007500,0.013250,-0.011250*
1,1,0.007500,-0.013250,-0.011250*
1,1,0.007500,-0.013250,0.011250*
%
%ADD46ROUNDEDRECTD46*%
G04:AMPARAMS|DCode=47|XSize=106mil|YSize=45mil|CornerRadius=3.6mil|HoleSize=0mil|Usage=FLASHONLY|Rotation=270.000|XOffset=0mil|YOffset=0mil|HoleType=Round|Shape=RoundedRectangle|*
%AMROUNDEDRECTD47*
21,1,0.106000,0.037800,0,0,270.0*
21,1,0.098800,0.045000,0,0,270.0*
1,1,0.007200,-0.018900,-0.049400*
1,1,0.007200,-0.018900,0.049400*
1,1,0.007200,0.018900,0.049400*
1,1,0.007200,0.018900,-0.049400*
%
%ADD47ROUNDEDRECTD47*%
G04:AMPARAMS|DCode=48|XSize=31mil|YSize=31mil|CornerRadius=1.55mil|HoleSize=0mil|Usage=FLASHONLY|Rotation=0.000|XOffset=0mil|YOffset=0mil|HoleType=Round|Shape=RoundedRectangle|*
%AMROUNDEDRECTD48*
21,1,0.031000,0.027900,0,0,0.0*
21,1,0.027900,0.031000,0,0,0.0*
1,1,0.003100,0.013950,-0.013950*
1,1,0.003100,-0.013950,-0.013950*
1,1,0.003100,-0.013950,0.013950*
1,1,0.003100,0.013950,0.013950*
%
%ADD48ROUNDEDRECTD48*%
G04:AMPARAMS|DCode=49|XSize=55.118mil|YSize=41.339mil|CornerRadius=6.201mil|HoleSize=0mil|Usage=FLASHONLY|Rotation=180.000|XOffset=0mil|YOffset=0mil|HoleType=Round|Shape=RoundedRectangle|*
%AMROUNDEDRECTD49*
21,1,0.055118,0.028937,0,0,180.0*
21,1,0.042717,0.041339,0,0,180.0*
1,1,0.012402,-0.021358,0.014469*
1,1,0.012402,0.021358,0.014469*
1,1,0.012402,0.021358,-0.014469*
1,1,0.012402,-0.021358,-0.014469*
%
%ADD49ROUNDEDRECTD49*%
G04:AMPARAMS|DCode=50|XSize=55.118mil|YSize=41.339mil|CornerRadius=6.201mil|HoleSize=0mil|Usage=FLASHONLY|Rotation=90.000|XOffset=0mil|YOffset=0mil|HoleType=Round|Shape=RoundedRectangle|*
%AMROUNDEDRECTD50*
21,1,0.055118,0.028937,0,0,90.0*
21,1,0.042717,0.041339,0,0,90.0*
1,1,0.012402,0.014469,0.021358*
1,1,0.012402,0.014469,-0.021358*
1,1,0.012402,-0.014469,-0.021358*
1,1,0.012402,-0.014469,0.021358*
%
%ADD50ROUNDEDRECTD50*%
G04:AMPARAMS|DCode=51|XSize=38mil|YSize=36mil|CornerRadius=3.42mil|HoleSize=0mil|Usage=FLASHONLY|Rotation=90.000|XOffset=0mil|YOffset=0mil|HoleType=Round|Shape=RoundedRectangle|*
%AMROUNDEDRECTD51*
21,1,0.038000,0.029160,0,0,90.0*
21,1,0.031160,0.036000,0,0,90.0*
1,1,0.006840,0.014580,0.015580*
1,1,0.006840,0.014580,-0.015580*
1,1,0.006840,-0.014580,-0.015580*
1,1,0.006840,-0.014580,0.015580*
%
%ADD51ROUNDEDRECTD51*%
%ADD52R,0.040000X0.030000*%
%TA.AperFunction,ComponentPad*%
%ADD65C,0.137795*%
%TA.AperFunction,TestPad*%
%ADD66C,0.050000*%
%TA.AperFunction,ComponentPad*%
%ADD67C,0.050000*%
G04:AMPARAMS|DCode=68|XSize=50mil|YSize=50mil|CornerRadius=5mil|HoleSize=0mil|Usage=FLASHONLY|Rotation=90.000|XOffset=0mil|YOffset=0mil|HoleType=Round|Shape=RoundedRectangle|*
%AMROUNDEDRECTD68*
21,1,0.050000,0.040000,0,0,90.0*
21,1,0.040000,0.050000,0,0,90.0*
1,1,0.010000,0.020000,0.020000*
1,1,0.010000,0.020000,-0.020000*
1,1,0.010000,-0.020000,-0.020000*
1,1,0.010000,-0.020000,0.020000*
%
%ADD68ROUNDEDRECTD68*%
%ADD69C,0.110000*%
%ADD70C,0.098425*%
%ADD71R,0.181102X0.078740*%
G04:AMPARAMS|DCode=72|XSize=60mil|YSize=60mil|CornerRadius=9mil|HoleSize=0mil|Usage=FLASHONLY|Rotation=270.000|XOffset=0mil|YOffset=0mil|HoleType=Round|Shape=RoundedRectangle|*
%AMROUNDEDRECTD72*
21,1,0.060000,0.042000,0,0,270.0*
21,1,0.042000,0.060000,0,0,270.0*
1,1,0.018000,-0.021000,-0.021000*
1,1,0.018000,-0.021000,0.021000*
1,1,0.018000,0.021000,0.021000*
1,1,0.018000,0.021000,-0.021000*
%
%ADD72ROUNDEDRECTD72*%
%ADD73C,0.060000*%
%ADD74C,0.125000*%
%ADD75C,0.290000*%
%ADD76C,0.053000*%
G04:AMPARAMS|DCode=77|XSize=76mil|YSize=76mil|CornerRadius=11.4mil|HoleSize=0mil|Usage=FLASHONLY|Rotation=270.000|XOffset=0mil|YOffset=0mil|HoleType=Round|Shape=RoundedRectangle|*
%AMROUNDEDRECTD77*
21,1,0.076000,0.053200,0,0,270.0*
21,1,0.053200,0.076000,0,0,270.0*
1,1,0.022800,-0.026600,-0.026600*
1,1,0.022800,-0.026600,0.026600*
1,1,0.022800,0.026600,0.026600*
1,1,0.022800,0.026600,-0.026600*
%
%ADD77ROUNDEDRECTD77*%
%ADD78C,0.076000*%
D10*
X1500000Y2163000D02*
D03*
Y2407000D02*
D03*
X2150000Y2867000D02*
D03*
X775000D02*
D03*
Y2623000D02*
D03*
D11*
X1500000Y2220000D02*
D03*
Y2350000D02*
D03*
X2150000Y2680000D02*
D03*
Y2810000D02*
D03*
X775000D02*
D03*
Y2680000D02*
D03*
D12*
X2150000Y2623000D02*
D03*
D13*
X903858Y1167992D02*
D03*
Y1384527D02*
D03*
Y1404213D02*
D03*
Y1423898D02*
D03*
Y1443583D02*
D03*
Y1463268D02*
D03*
Y1482953D02*
D03*
Y1502638D02*
D03*
Y1522323D02*
D03*
Y1542008D02*
D03*
X636142D02*
D03*
Y1502638D02*
D03*
Y1482953D02*
D03*
Y1463268D02*
D03*
Y1443583D02*
D03*
Y1404213D02*
D03*
Y1384527D02*
D03*
Y1167992D02*
D03*
D14*
X657795Y1187677D02*
D03*
Y1207362D02*
D03*
Y1227047D02*
D03*
Y1246732D02*
D03*
X882205D02*
D03*
Y1266417D02*
D03*
Y1286102D02*
D03*
Y1305787D02*
D03*
Y1325472D02*
D03*
Y1345158D02*
D03*
Y1227047D02*
D03*
Y1207362D02*
D03*
Y1187677D02*
D03*
Y1364842D02*
D03*
D15*
X661732Y1142402D02*
D03*
X681417D02*
D03*
X701102D02*
D03*
X720787D02*
D03*
X740472D02*
D03*
X760157D02*
D03*
X779842D02*
D03*
X799527D02*
D03*
X819212D02*
D03*
X838898D02*
D03*
X858583D02*
D03*
X878268D02*
D03*
X878268Y1567598D02*
D03*
X858583D02*
D03*
X838898D02*
D03*
X819213D02*
D03*
X799528D02*
D03*
X760158D02*
D03*
X740472D02*
D03*
X720787D02*
D03*
X681417D02*
D03*
X661732D02*
D03*
D16*
X651890Y1286102D02*
D03*
Y1305787D02*
D03*
Y1325472D02*
D03*
Y1364842D02*
D03*
D17*
X770000Y1355000D02*
D03*
D18*
X1772913Y1940000D02*
D03*
X1887087D02*
D03*
X1415000Y2065000D02*
D03*
X1295000D02*
D03*
X1227087D02*
D03*
X1112913D02*
D03*
X610000Y3115000D02*
D03*
X490000D02*
D03*
D19*
X585000Y495000D02*
D03*
X645000D02*
D03*
X1255000Y450000D02*
D03*
X1315000D02*
D03*
X1370000Y400000D02*
D03*
X1430000D02*
D03*
X1470000Y100000D02*
D03*
X1530000D02*
D03*
X1515000Y830000D02*
D03*
X1575000D02*
D03*
X1980000Y950000D02*
D03*
X2040000D02*
D03*
Y1145000D02*
D03*
X1995000D02*
D03*
X1935000D02*
D03*
X2100000D02*
D03*
X1370000Y1165000D02*
D03*
Y1110000D02*
D03*
X1345000Y1290000D02*
D03*
X1240000Y1390000D02*
D03*
X1180000D02*
D03*
X1140000Y1465000D02*
D03*
X1080000D02*
D03*
X1160000Y1680000D02*
D03*
X1220000D02*
D03*
X1195000Y1755000D02*
D03*
X1135000D02*
D03*
X1180000Y1335000D02*
D03*
X1240000D02*
D03*
X1285000Y1290000D02*
D03*
X1240000Y1235000D02*
D03*
X1180000D02*
D03*
X1120000Y1190000D02*
D03*
X1060000D02*
D03*
X1180000Y1085000D02*
D03*
X1240000D02*
D03*
X1310000Y1110000D02*
D03*
Y1165000D02*
D03*
X1185000Y1025000D02*
D03*
X1125000D02*
D03*
X1160000Y770000D02*
D03*
X1220000D02*
D03*
X935000Y665000D02*
D03*
X855000Y1035000D02*
D03*
X795000D02*
D03*
X765000Y890000D02*
D03*
X825000D02*
D03*
X875000Y665000D02*
D03*
X615000Y735000D02*
D03*
X555000D02*
D03*
X515000D02*
D03*
X455000D02*
D03*
X140000Y1415000D02*
D03*
X80000D02*
D03*
X480000Y3050000D02*
D03*
X540000D02*
D03*
X2375000Y305000D02*
D03*
X2435000D02*
D03*
D20*
X1395000Y505000D02*
D03*
X1625000D02*
D03*
D21*
X530000Y320000D02*
D03*
X865000Y505000D02*
D03*
X1170000Y365000D02*
D03*
X1651000Y703000D02*
D03*
X1555000Y915000D02*
D03*
X1790000Y440000D02*
D03*
X2190000Y1290000D02*
D03*
X2550000Y2425000D02*
D03*
X2345000Y3060000D02*
D03*
X2115000D02*
D03*
X1385000Y3025000D02*
D03*
X1125000D02*
D03*
X295000Y2440000D02*
D03*
D22*
X2650000Y375000D02*
D03*
X2525000Y4550000D02*
D03*
X375000D02*
D03*
D23*
X1907000Y530000D02*
D03*
Y580000D02*
D03*
Y630000D02*
D03*
Y680000D02*
D03*
X2133000D02*
D03*
Y630000D02*
D03*
Y580000D02*
D03*
Y530000D02*
D03*
D24*
X577598Y557756D02*
D03*
X652402D02*
D03*
X615000Y652244D02*
D03*
X497401Y972756D02*
D03*
X137401Y1477756D02*
D03*
X62598D02*
D03*
X100000Y1572244D02*
D03*
X460000Y1067244D02*
D03*
X422598Y972756D02*
D03*
X1842599Y907244D02*
D03*
X1917402D02*
D03*
X1965000Y832244D02*
D03*
X1880000Y812756D02*
D03*
X1927598Y737756D02*
D03*
X2002401D02*
D03*
X2132598Y722756D02*
D03*
X2207401D02*
D03*
X2170000Y817244D02*
D03*
X1917401Y957756D02*
D03*
X1842598D02*
D03*
X1880000Y1052244D02*
D03*
D25*
X547244Y792598D02*
D03*
Y867402D02*
D03*
X452756Y830000D02*
D03*
X1992756Y1045000D02*
D03*
X2087244Y1082401D02*
D03*
Y1007598D02*
D03*
D26*
X1130000Y1345000D02*
D03*
Y1405000D02*
D03*
X910000Y1675000D02*
D03*
Y1735000D02*
D03*
X805000Y1750000D02*
D03*
Y1690000D02*
D03*
X745000Y1040000D02*
D03*
Y980000D02*
D03*
X425000Y1685000D02*
D03*
Y1745000D02*
D03*
X255000Y1345000D02*
D03*
Y1285000D02*
D03*
Y1235000D02*
D03*
Y1175000D02*
D03*
X175000Y1145000D02*
D03*
Y1085000D02*
D03*
X1830000Y590000D02*
D03*
Y530000D02*
D03*
X2295000Y130000D02*
D03*
Y70000D02*
D03*
D27*
X308898Y3175315D02*
D03*
D28*
X252795Y3155630D02*
D03*
Y3175315D02*
D03*
Y3195000D02*
D03*
X365000D02*
D03*
Y3175315D02*
D03*
Y3155630D02*
D03*
D29*
X2295000Y166600D02*
D03*
Y192200D02*
D03*
Y217800D02*
D03*
Y243400D02*
D03*
X2525000D02*
D03*
Y217800D02*
D03*
Y192200D02*
D03*
Y166600D02*
D03*
D30*
X605000Y1702598D02*
D03*
X685000D02*
D03*
D31*
X605000Y1802992D02*
D03*
X685000D02*
D03*
D32*
X365000Y1828071D02*
D03*
X455000D02*
D03*
Y1961929D02*
D03*
X365000D02*
D03*
D33*
X415000Y3167441D02*
D03*
Y3222559D02*
D03*
D34*
X144449Y3070000D02*
D03*
X325551D02*
D03*
X370551Y3280000D02*
D03*
X189449D02*
D03*
D35*
X1863268Y2585000D02*
D03*
Y2845000D02*
D03*
X1646732D02*
D03*
X1348268Y2840000D02*
D03*
Y2585000D02*
D03*
X1646732D02*
D03*
X1131732Y2840000D02*
D03*
Y2585000D02*
D03*
D36*
X1785000Y2020000D02*
D03*
Y2070000D02*
D03*
Y2120000D02*
D03*
Y2170000D02*
D03*
Y2260000D02*
D03*
Y2310000D02*
D03*
Y2360000D02*
D03*
Y2410000D02*
D03*
X1285000Y2320000D02*
D03*
Y2270000D02*
D03*
Y2220000D02*
D03*
Y2170000D02*
D03*
X490000Y3200000D02*
D03*
Y3250000D02*
D03*
Y3300000D02*
D03*
Y3350000D02*
D03*
D37*
X2020000Y2020000D02*
D03*
Y2260000D02*
D03*
X1050000Y2320000D02*
D03*
X725000Y3200000D02*
D03*
D38*
X2035000Y2070000D02*
D03*
Y2120000D02*
D03*
Y2170000D02*
D03*
Y2310000D02*
D03*
Y2360000D02*
D03*
Y2410000D02*
D03*
X1035000Y2270000D02*
D03*
Y2220000D02*
D03*
Y2170000D02*
D03*
X740000Y3250000D02*
D03*
Y3300000D02*
D03*
Y3350000D02*
D03*
D39*
X1935000Y2095000D02*
D03*
Y2335000D02*
D03*
X1135000Y2245000D02*
D03*
X640000Y3275000D02*
D03*
D40*
X2180000Y2285000D02*
D03*
X2230000D02*
D03*
X2280000D02*
D03*
X2130000D02*
D03*
X950000Y2280000D02*
D03*
X900000D02*
D03*
X850000D02*
D03*
X800000D02*
D03*
X740000D02*
D03*
X690000D02*
D03*
X640000D02*
D03*
X590000D02*
D03*
D41*
X2280000Y2520000D02*
D03*
X950000Y2515000D02*
D03*
X740000D02*
D03*
D42*
X2180000Y2535000D02*
D03*
X2230000D02*
D03*
X2130000D02*
D03*
X900000Y2530000D02*
D03*
X850000D02*
D03*
X800000D02*
D03*
X690000D02*
D03*
X640000D02*
D03*
X590000D02*
D03*
D43*
X2205000Y2435000D02*
D03*
X875000Y2430000D02*
D03*
X665000D02*
D03*
D44*
X1700000Y1970000D02*
D03*
Y2090000D02*
D03*
D45*
X2533000Y1250000D02*
D03*
X2777000D02*
D03*
X2737000Y1690000D02*
D03*
X2493000D02*
D03*
D46*
X495000Y595000D02*
D03*
Y655000D02*
D03*
X600000Y800000D02*
D03*
Y860000D02*
D03*
X795000Y640000D02*
D03*
Y580000D02*
D03*
X1200000Y620000D02*
D03*
X1260000D02*
D03*
Y680000D02*
D03*
X1200000D02*
D03*
X1430000Y1265000D02*
D03*
Y1325000D02*
D03*
X1830000Y695000D02*
D03*
Y635000D02*
D03*
X2070000Y740000D02*
D03*
Y800000D02*
D03*
X2270000Y405000D02*
D03*
Y345000D02*
D03*
X2210000Y870000D02*
D03*
Y930000D02*
D03*
X2255000Y1145000D02*
D03*
Y1205000D02*
D03*
X1790000D02*
D03*
Y1250000D02*
D03*
Y1310000D02*
D03*
Y1145000D02*
D03*
X920000Y1790000D02*
D03*
Y1850000D02*
D03*
X995000Y1745000D02*
D03*
Y1685000D02*
D03*
X1055000D02*
D03*
Y1745000D02*
D03*
X1185000Y1595000D02*
D03*
Y1535000D02*
D03*
X1120000Y1140000D02*
D03*
Y1080000D02*
D03*
X1075000Y1050000D02*
D03*
X1020000D02*
D03*
Y990000D02*
D03*
X1075000D02*
D03*
X960000D02*
D03*
Y1050000D02*
D03*
X755000Y1685000D02*
D03*
Y1745000D02*
D03*
X525000D02*
D03*
Y1685000D02*
D03*
X555000Y1045000D02*
D03*
X615000D02*
D03*
Y985000D02*
D03*
X555000D02*
D03*
X675000D02*
D03*
Y1045000D02*
D03*
X475000Y1685000D02*
D03*
Y1745000D02*
D03*
X470000Y1175000D02*
D03*
X410000D02*
D03*
Y1115000D02*
D03*
X470000D02*
D03*
X115000Y1085000D02*
D03*
Y1145000D02*
D03*
X195000Y1285000D02*
D03*
Y1345000D02*
D03*
X435000Y655000D02*
D03*
Y595000D02*
D03*
X530000Y1875000D02*
D03*
Y1935000D02*
D03*
X860000Y1850000D02*
D03*
Y1790000D02*
D03*
X80000Y3200000D02*
D03*
Y3260000D02*
D03*
Y3340000D02*
D03*
Y3400000D02*
D03*
D47*
X325000Y1260000D02*
D03*
X445000D02*
D03*
Y1445000D02*
D03*
X325000D02*
D03*
D48*
X1159000Y865000D02*
D03*
X1221000D02*
D03*
X1394000Y830000D02*
D03*
X1456000D02*
D03*
D49*
X345000Y1097599D02*
D03*
Y1172402D02*
D03*
X195000Y1467599D02*
D03*
Y1542402D02*
D03*
D50*
X257599Y1540000D02*
D03*
X332402D02*
D03*
D51*
X765000Y830000D02*
D03*
X825000D02*
D03*
X1125000Y965000D02*
D03*
X1185000D02*
D03*
X1180000Y1135000D02*
D03*
Y1185000D02*
D03*
X1240000D02*
D03*
Y1135000D02*
D03*
Y1285000D02*
D03*
X1180000D02*
D03*
X1095000Y1270000D02*
D03*
X1035000D02*
D03*
X1310000Y1215000D02*
D03*
X1370000D02*
D03*
X1245000Y1450000D02*
D03*
X1185000D02*
D03*
X1115000Y1525000D02*
D03*
Y1585000D02*
D03*
X1055000D02*
D03*
Y1525000D02*
D03*
X1240000Y1540000D02*
D03*
Y1595000D02*
D03*
X1300000D02*
D03*
Y1540000D02*
D03*
X860000Y975000D02*
D03*
X800000D02*
D03*
X290000Y1085000D02*
D03*
X230000D02*
D03*
D52*
X1640000Y1310000D02*
D03*
X1730000D02*
D03*
D65*
X2663504Y3487520D02*
D03*
Y3802480D02*
D03*
D66*
X1065000Y80000D02*
D03*
X1800000Y125000D02*
D03*
X530000Y1095000D02*
D03*
D67*
X850630Y96890D02*
D03*
Y175630D02*
D03*
Y254370D02*
D03*
Y333110D02*
D03*
X929370D02*
D03*
Y254370D02*
D03*
Y175630D02*
D03*
X2055630D02*
D03*
X2134370D02*
D03*
Y254370D02*
D03*
Y333110D02*
D03*
X2055630D02*
D03*
Y254370D02*
D03*
Y96890D02*
D03*
X2405630Y448779D02*
D03*
X2484370D02*
D03*
Y527520D02*
D03*
Y606260D02*
D03*
X2405630D02*
D03*
Y527520D02*
D03*
Y685000D02*
D03*
Y763740D02*
D03*
X2484370D02*
D03*
Y685000D02*
D03*
Y842480D02*
D03*
Y921221D02*
D03*
X2405630Y842480D02*
D03*
D68*
X929370Y96890D02*
D03*
X2134370D02*
D03*
X2405630Y921221D02*
D03*
X2665630Y936850D02*
D03*
D69*
X2350512Y4047953D02*
D03*
X2039488D02*
D03*
X1600512D02*
D03*
X1289488D02*
D03*
X850512D02*
D03*
X539488D02*
D03*
D70*
X2480433Y4670000D02*
D03*
X1909567D02*
D03*
X1730433D02*
D03*
X1159567D02*
D03*
X980433D02*
D03*
X409567D02*
D03*
D71*
X2358425Y3175000D02*
D03*
Y3725000D02*
D03*
X2041575D02*
D03*
X1783425D02*
D03*
Y3175000D02*
D03*
X2041575D02*
D03*
X1466575Y3725000D02*
D03*
Y3175000D02*
D03*
X1208425Y3725000D02*
D03*
X1203425Y3180000D02*
D03*
X891575Y3725000D02*
D03*
X633425D02*
D03*
X886575Y3180000D02*
D03*
X316575Y3725000D02*
D03*
D72*
X150000Y845000D02*
D03*
D73*
X150000Y545000D02*
D03*
Y645000D02*
D03*
Y745000D02*
D03*
X250000D02*
D03*
Y845000D02*
D03*
Y645000D02*
D03*
Y545000D02*
D03*
X2545000Y85000D02*
D03*
X2450000Y1175000D02*
D03*
Y1275000D02*
D03*
X2350000Y1325000D02*
D03*
Y1225000D02*
D03*
Y1425000D02*
D03*
X2450000Y1375000D02*
D03*
X85000Y4355000D02*
D03*
D74*
X2700000Y1100000D02*
D03*
Y1500000D02*
D03*
D75*
X175000Y175000D02*
D03*
X2725000D02*
D03*
Y4625000D02*
D03*
X175000D02*
D03*
D76*
X2665630Y543150D02*
D03*
X2744370D02*
D03*
Y621890D02*
D03*
X2665630D02*
D03*
Y700630D02*
D03*
X2744370D02*
D03*
Y779370D02*
D03*
X2665630D02*
D03*
Y858110D02*
D03*
X2744370D02*
D03*
Y936850D02*
D03*
D77*
X725000Y750000D02*
D03*
X1050000D02*
D03*
X155000Y1910000D02*
D03*
D78*
X725000Y450000D02*
D03*
X1050000D02*
D03*
Y550000D02*
D03*
Y650000D02*
D03*
X725000D02*
D03*
Y550000D02*
D03*
X155000Y1610000D02*
D03*
Y1710000D02*
D03*
Y1810000D02*
D03*
%TF.MD5,332896fceeb3babf390d916c124e7cdd*%
M02*
