%TF.GenerationSoftware,Altium Limited,Altium Designer,20.0.9 (164)*%
G04 Layer_Color=8388736*
%FSLAX26Y26*%
%MOIN*%
%TF.FileFunction,Soldermask,Top*%
%TF.Part,Single*%
G01*
G75*
%TA.AperFunction,ViaPad*%
%ADD79C,0.024000*%
%ADD80C,0.030000*%
%TA.AperFunction,FiducialPad,Global*%
%ADD114C,0.080000*%
%TA.AperFunction,ComponentPad*%
%ADD120C,0.126299*%
%ADD122C,0.065000*%
%ADD124C,0.115000*%
%ADD125C,0.103425*%
G04:AMPARAMS|DCode=127|XSize=81mil|YSize=81mil|CornerRadius=13.9mil|HoleSize=0mil|Usage=FLASHONLY|Rotation=270.000|XOffset=0mil|YOffset=0mil|HoleType=Round|Shape=RoundedRectangle|*
%AMROUNDEDRECTD127*
21,1,0.081000,0.053200,0,0,270.0*
21,1,0.053200,0.081000,0,0,270.0*
1,1,0.027800,-0.026600,-0.026600*
1,1,0.027800,-0.026600,0.026600*
1,1,0.027800,0.026600,0.026600*
1,1,0.027800,0.026600,-0.026600*
%
%ADD127ROUNDEDRECTD127*%
%ADD128C,0.081000*%
%ADD129C,0.064000*%
%ADD130C,0.129000*%
%ADD131C,0.295000*%
%ADD132C,0.058000*%
G04:AMPARAMS|DCode=133|XSize=55mil|YSize=55mil|CornerRadius=7.5mil|HoleSize=0mil|Usage=FLASHONLY|Rotation=270.000|XOffset=0mil|YOffset=0mil|HoleType=Round|Shape=RoundedRectangle|*
%AMROUNDEDRECTD133*
21,1,0.055000,0.040000,0,0,270.0*
21,1,0.040000,0.055000,0,0,270.0*
1,1,0.015000,-0.020000,-0.020000*
1,1,0.015000,-0.020000,0.020000*
1,1,0.015000,0.020000,0.020000*
1,1,0.015000,0.020000,-0.020000*
%
%ADD133ROUNDEDRECTD133*%
G04:AMPARAMS|DCode=134|XSize=65mil|YSize=65mil|CornerRadius=11.5mil|HoleSize=0mil|Usage=FLASHONLY|Rotation=270.000|XOffset=0mil|YOffset=0mil|HoleType=Round|Shape=RoundedRectangle|*
%AMROUNDEDRECTD134*
21,1,0.065000,0.042000,0,0,270.0*
21,1,0.042000,0.065000,0,0,270.0*
1,1,0.023000,-0.021000,-0.021000*
1,1,0.023000,-0.021000,0.021000*
1,1,0.023000,0.021000,0.021000*
1,1,0.023000,0.021000,-0.021000*
%
%ADD134ROUNDEDRECTD134*%
%TA.AperFunction,ViaPad*%
%ADD135C,0.028000*%
%TA.AperFunction,TestPad*%
%ADD136C,0.028000*%
%TA.AperFunction,ViaPad*%
%ADD137C,0.034000*%
%ADD138C,0.044000*%
%TA.AperFunction,NonConductor*%
%ADD190R,0.025197X0.154724*%
%TA.AperFunction,SMDPad,CuDef*%
G04:AMPARAMS|DCode=191|XSize=131mil|YSize=85mil|CornerRadius=10.5mil|HoleSize=0mil|Usage=FLASHONLY|Rotation=180.000|XOffset=0mil|YOffset=0mil|HoleType=Round|Shape=RoundedRectangle|*
%AMROUNDEDRECTD191*
21,1,0.131000,0.064000,0,0,180.0*
21,1,0.110000,0.085000,0,0,180.0*
1,1,0.021000,-0.055000,0.032000*
1,1,0.021000,0.055000,0.032000*
1,1,0.021000,0.055000,-0.032000*
1,1,0.021000,-0.055000,-0.032000*
%
%ADD191ROUNDEDRECTD191*%
G04:AMPARAMS|DCode=192|XSize=290mil|YSize=85mil|CornerRadius=6.5mil|HoleSize=0mil|Usage=FLASHONLY|Rotation=180.000|XOffset=0mil|YOffset=0mil|HoleType=Round|Shape=RoundedRectangle|*
%AMROUNDEDRECTD192*
21,1,0.290000,0.072000,0,0,180.0*
21,1,0.277000,0.085000,0,0,180.0*
1,1,0.013000,-0.138500,0.036000*
1,1,0.013000,0.138500,0.036000*
1,1,0.013000,0.138500,-0.036000*
1,1,0.013000,-0.138500,-0.036000*
%
%ADD192ROUNDEDRECTD192*%
G04:AMPARAMS|DCode=193|XSize=131mil|YSize=83mil|CornerRadius=10.3mil|HoleSize=0mil|Usage=FLASHONLY|Rotation=180.000|XOffset=0mil|YOffset=0mil|HoleType=Round|Shape=RoundedRectangle|*
%AMROUNDEDRECTD193*
21,1,0.131000,0.062400,0,0,180.0*
21,1,0.110400,0.083000,0,0,180.0*
1,1,0.020600,-0.055200,0.031200*
1,1,0.020600,0.055200,0.031200*
1,1,0.020600,0.055200,-0.031200*
1,1,0.020600,-0.055200,-0.031200*
%
%ADD193ROUNDEDRECTD193*%
G04:AMPARAMS|DCode=194|XSize=31.496mil|YSize=13.78mil|CornerRadius=2.953mil|HoleSize=0mil|Usage=FLASHONLY|Rotation=180.000|XOffset=0mil|YOffset=0mil|HoleType=Round|Shape=RoundedRectangle|*
%AMROUNDEDRECTD194*
21,1,0.031496,0.007874,0,0,180.0*
21,1,0.025591,0.013780,0,0,180.0*
1,1,0.005905,-0.012795,0.003937*
1,1,0.005905,0.012795,0.003937*
1,1,0.005905,0.012795,-0.003937*
1,1,0.005905,-0.012795,-0.003937*
%
%ADD194ROUNDEDRECTD194*%
G04:AMPARAMS|DCode=195|XSize=74.803mil|YSize=13.78mil|CornerRadius=2.953mil|HoleSize=0mil|Usage=FLASHONLY|Rotation=180.000|XOffset=0mil|YOffset=0mil|HoleType=Round|Shape=RoundedRectangle|*
%AMROUNDEDRECTD195*
21,1,0.074803,0.007874,0,0,180.0*
21,1,0.068898,0.013780,0,0,180.0*
1,1,0.005905,-0.034449,0.003937*
1,1,0.005905,0.034449,0.003937*
1,1,0.005905,0.034449,-0.003937*
1,1,0.005905,-0.034449,-0.003937*
%
%ADD195ROUNDEDRECTD195*%
G04:AMPARAMS|DCode=196|XSize=31.496mil|YSize=13.78mil|CornerRadius=2.953mil|HoleSize=0mil|Usage=FLASHONLY|Rotation=90.000|XOffset=0mil|YOffset=0mil|HoleType=Round|Shape=RoundedRectangle|*
%AMROUNDEDRECTD196*
21,1,0.031496,0.007874,0,0,90.0*
21,1,0.025591,0.013780,0,0,90.0*
1,1,0.005905,0.003937,0.012795*
1,1,0.005905,0.003937,-0.012795*
1,1,0.005905,-0.003937,-0.012795*
1,1,0.005905,-0.003937,0.012795*
%
%ADD196ROUNDEDRECTD196*%
G04:AMPARAMS|DCode=197|XSize=62.992mil|YSize=13.78mil|CornerRadius=2.953mil|HoleSize=0mil|Usage=FLASHONLY|Rotation=180.000|XOffset=0mil|YOffset=0mil|HoleType=Round|Shape=RoundedRectangle|*
%AMROUNDEDRECTD197*
21,1,0.062992,0.007874,0,0,180.0*
21,1,0.057087,0.013780,0,0,180.0*
1,1,0.005905,-0.028543,0.003937*
1,1,0.005905,0.028543,0.003937*
1,1,0.005905,0.028543,-0.003937*
1,1,0.005905,-0.028543,-0.003937*
%
%ADD197ROUNDEDRECTD197*%
%ADD198R,0.127953X0.373228*%
G04:AMPARAMS|DCode=199|XSize=75.866mil|YSize=50.276mil|CornerRadius=9.291mil|HoleSize=0mil|Usage=FLASHONLY|Rotation=90.000|XOffset=0mil|YOffset=0mil|HoleType=Round|Shape=RoundedRectangle|*
%AMROUNDEDRECTD199*
21,1,0.075866,0.031693,0,0,90.0*
21,1,0.057283,0.050276,0,0,90.0*
1,1,0.018583,0.015847,0.028642*
1,1,0.018583,0.015847,-0.028642*
1,1,0.018583,-0.015847,-0.028642*
1,1,0.018583,-0.015847,0.028642*
%
%ADD199ROUNDEDRECTD199*%
G04:AMPARAMS|DCode=200|XSize=35mil|YSize=39mil|CornerRadius=6.25mil|HoleSize=0mil|Usage=FLASHONLY|Rotation=0.000|XOffset=0mil|YOffset=0mil|HoleType=Round|Shape=RoundedRectangle|*
%AMROUNDEDRECTD200*
21,1,0.035000,0.026500,0,0,0.0*
21,1,0.022500,0.039000,0,0,0.0*
1,1,0.012500,0.011250,-0.013250*
1,1,0.012500,-0.011250,-0.013250*
1,1,0.012500,-0.011250,0.013250*
1,1,0.012500,0.011250,0.013250*
%
%ADD200ROUNDEDRECTD200*%
G04:AMPARAMS|DCode=201|XSize=104mil|YSize=69mil|CornerRadius=11.75mil|HoleSize=0mil|Usage=FLASHONLY|Rotation=180.000|XOffset=0mil|YOffset=0mil|HoleType=Round|Shape=RoundedRectangle|*
%AMROUNDEDRECTD201*
21,1,0.104000,0.045500,0,0,180.0*
21,1,0.080500,0.069000,0,0,180.0*
1,1,0.023500,-0.040250,0.022750*
1,1,0.023500,0.040250,0.022750*
1,1,0.023500,0.040250,-0.022750*
1,1,0.023500,-0.040250,-0.022750*
%
%ADD201ROUNDEDRECTD201*%
G04:AMPARAMS|DCode=202|XSize=155mil|YSize=85mil|CornerRadius=6.5mil|HoleSize=0mil|Usage=FLASHONLY|Rotation=0.000|XOffset=0mil|YOffset=0mil|HoleType=Round|Shape=RoundedRectangle|*
%AMROUNDEDRECTD202*
21,1,0.155000,0.072000,0,0,0.0*
21,1,0.142000,0.085000,0,0,0.0*
1,1,0.013000,0.071000,-0.036000*
1,1,0.013000,-0.071000,-0.036000*
1,1,0.013000,-0.071000,0.036000*
1,1,0.013000,0.071000,0.036000*
%
%ADD202ROUNDEDRECTD202*%
G04:AMPARAMS|DCode=203|XSize=79mil|YSize=29mil|CornerRadius=6.1mil|HoleSize=0mil|Usage=FLASHONLY|Rotation=180.000|XOffset=0mil|YOffset=0mil|HoleType=Round|Shape=RoundedRectangle|*
%AMROUNDEDRECTD203*
21,1,0.079000,0.016800,0,0,180.0*
21,1,0.066800,0.029000,0,0,180.0*
1,1,0.012200,-0.033400,0.008400*
1,1,0.012200,0.033400,0.008400*
1,1,0.012200,0.033400,-0.008400*
1,1,0.012200,-0.033400,-0.008400*
%
%ADD203ROUNDEDRECTD203*%
G04:AMPARAMS|DCode=204|XSize=28.622mil|YSize=44.37mil|CornerRadius=6.043mil|HoleSize=0mil|Usage=FLASHONLY|Rotation=180.000|XOffset=0mil|YOffset=0mil|HoleType=Round|Shape=RoundedRectangle|*
%AMROUNDEDRECTD204*
21,1,0.028622,0.032283,0,0,180.0*
21,1,0.016535,0.044370,0,0,180.0*
1,1,0.012087,-0.008268,0.016142*
1,1,0.012087,0.008268,0.016142*
1,1,0.012087,0.008268,-0.016142*
1,1,0.012087,-0.008268,-0.016142*
%
%ADD204ROUNDEDRECTD204*%
G04:AMPARAMS|DCode=205|XSize=28.622mil|YSize=44.37mil|CornerRadius=6.043mil|HoleSize=0mil|Usage=FLASHONLY|Rotation=270.000|XOffset=0mil|YOffset=0mil|HoleType=Round|Shape=RoundedRectangle|*
%AMROUNDEDRECTD205*
21,1,0.028622,0.032283,0,0,270.0*
21,1,0.016535,0.044370,0,0,270.0*
1,1,0.012087,-0.016142,-0.008268*
1,1,0.012087,-0.016142,0.008268*
1,1,0.012087,0.016142,0.008268*
1,1,0.012087,0.016142,-0.008268*
%
%ADD205ROUNDEDRECTD205*%
G04:AMPARAMS|DCode=206|XSize=43mil|YSize=41mil|CornerRadius=5.92mil|HoleSize=0mil|Usage=FLASHONLY|Rotation=0.000|XOffset=0mil|YOffset=0mil|HoleType=Round|Shape=RoundedRectangle|*
%AMROUNDEDRECTD206*
21,1,0.043000,0.029160,0,0,0.0*
21,1,0.031160,0.041000,0,0,0.0*
1,1,0.011840,0.015580,-0.014580*
1,1,0.011840,-0.015580,-0.014580*
1,1,0.011840,-0.015580,0.014580*
1,1,0.011840,0.015580,0.014580*
%
%ADD206ROUNDEDRECTD206*%
%ADD207R,0.068961X0.057150*%
G04:AMPARAMS|DCode=208|XSize=31.559mil|YSize=13.842mil|CornerRadius=3.476mil|HoleSize=0mil|Usage=FLASHONLY|Rotation=180.000|XOffset=0mil|YOffset=0mil|HoleType=Round|Shape=RoundedRectangle|*
%AMROUNDEDRECTD208*
21,1,0.031559,0.006890,0,0,180.0*
21,1,0.024606,0.013842,0,0,180.0*
1,1,0.006953,-0.012303,0.003445*
1,1,0.006953,0.012303,0.003445*
1,1,0.006953,0.012303,-0.003445*
1,1,0.006953,-0.012303,-0.003445*
%
%ADD208ROUNDEDRECTD208*%
%ADD209R,0.069000X0.017000*%
G04:AMPARAMS|DCode=210|XSize=91.614mil|YSize=60.118mil|CornerRadius=8.012mil|HoleSize=0mil|Usage=FLASHONLY|Rotation=270.000|XOffset=0mil|YOffset=0mil|HoleType=Round|Shape=RoundedRectangle|*
%AMROUNDEDRECTD210*
21,1,0.091614,0.044094,0,0,270.0*
21,1,0.075591,0.060118,0,0,270.0*
1,1,0.016024,-0.022047,-0.037795*
1,1,0.016024,-0.022047,0.037795*
1,1,0.016024,0.022047,0.037795*
1,1,0.016024,0.022047,-0.037795*
%
%ADD210ROUNDEDRECTD210*%
G04:AMPARAMS|DCode=211|XSize=60.118mil|YSize=40.433mil|CornerRadius=6.043mil|HoleSize=0mil|Usage=FLASHONLY|Rotation=180.000|XOffset=0mil|YOffset=0mil|HoleType=Round|Shape=RoundedRectangle|*
%AMROUNDEDRECTD211*
21,1,0.060118,0.028346,0,0,180.0*
21,1,0.048032,0.040433,0,0,180.0*
1,1,0.012087,-0.024016,0.014173*
1,1,0.012087,0.024016,0.014173*
1,1,0.012087,0.024016,-0.014173*
1,1,0.012087,-0.024016,-0.014173*
%
%ADD211ROUNDEDRECTD211*%
G04:AMPARAMS|DCode=212|XSize=75mil|YSize=55mil|CornerRadius=5.5mil|HoleSize=0mil|Usage=FLASHONLY|Rotation=180.000|XOffset=0mil|YOffset=0mil|HoleType=Round|Shape=RoundedRectangle|*
%AMROUNDEDRECTD212*
21,1,0.075000,0.044000,0,0,180.0*
21,1,0.064000,0.055000,0,0,180.0*
1,1,0.011000,-0.032000,0.022000*
1,1,0.011000,0.032000,0.022000*
1,1,0.011000,0.032000,-0.022000*
1,1,0.011000,-0.032000,-0.022000*
%
%ADD212ROUNDEDRECTD212*%
G04:AMPARAMS|DCode=213|XSize=28.622mil|YSize=29.803mil|CornerRadius=3.681mil|HoleSize=0mil|Usage=FLASHONLY|Rotation=90.000|XOffset=0mil|YOffset=0mil|HoleType=Round|Shape=RoundedRectangle|*
%AMROUNDEDRECTD213*
21,1,0.028622,0.022441,0,0,90.0*
21,1,0.021260,0.029803,0,0,90.0*
1,1,0.007362,0.011220,0.010630*
1,1,0.007362,0.011220,-0.010630*
1,1,0.007362,-0.011220,-0.010630*
1,1,0.007362,-0.011220,0.010630*
%
%ADD213ROUNDEDRECTD213*%
G04:AMPARAMS|DCode=214|XSize=71mil|YSize=70mil|CornerRadius=5.75mil|HoleSize=0mil|Usage=FLASHONLY|Rotation=270.000|XOffset=0mil|YOffset=0mil|HoleType=Round|Shape=RoundedRectangle|*
%AMROUNDEDRECTD214*
21,1,0.071000,0.058500,0,0,270.0*
21,1,0.059500,0.070000,0,0,270.0*
1,1,0.011500,-0.029250,-0.029750*
1,1,0.011500,-0.029250,0.029750*
1,1,0.011500,0.029250,0.029750*
1,1,0.011500,0.029250,-0.029750*
%
%ADD214ROUNDEDRECTD214*%
%ADD215R,0.110299X0.220535*%
G04:AMPARAMS|DCode=216|XSize=85mil|YSize=35mil|CornerRadius=6.25mil|HoleSize=0mil|Usage=FLASHONLY|Rotation=0.000|XOffset=0mil|YOffset=0mil|HoleType=Round|Shape=RoundedRectangle|*
%AMROUNDEDRECTD216*
21,1,0.085000,0.022500,0,0,0.0*
21,1,0.072500,0.035000,0,0,0.0*
1,1,0.012500,0.036250,-0.011250*
1,1,0.012500,-0.036250,-0.011250*
1,1,0.012500,-0.036250,0.011250*
1,1,0.012500,0.036250,0.011250*
%
%ADD216ROUNDEDRECTD216*%
G04:AMPARAMS|DCode=217|XSize=115mil|YSize=35mil|CornerRadius=4mil|HoleSize=0mil|Usage=FLASHONLY|Rotation=0.000|XOffset=0mil|YOffset=0mil|HoleType=Round|Shape=RoundedRectangle|*
%AMROUNDEDRECTD217*
21,1,0.115000,0.027000,0,0,0.0*
21,1,0.107000,0.035000,0,0,0.0*
1,1,0.008000,0.053500,-0.013500*
1,1,0.008000,-0.053500,-0.013500*
1,1,0.008000,-0.053500,0.013500*
1,1,0.008000,0.053500,0.013500*
%
%ADD217ROUNDEDRECTD217*%
G04:AMPARAMS|DCode=218|XSize=85mil|YSize=35mil|CornerRadius=4mil|HoleSize=0mil|Usage=FLASHONLY|Rotation=0.000|XOffset=0mil|YOffset=0mil|HoleType=Round|Shape=RoundedRectangle|*
%AMROUNDEDRECTD218*
21,1,0.085000,0.027000,0,0,0.0*
21,1,0.077000,0.035000,0,0,0.0*
1,1,0.008000,0.038500,-0.013500*
1,1,0.008000,-0.038500,-0.013500*
1,1,0.008000,-0.038500,0.013500*
1,1,0.008000,0.038500,0.013500*
%
%ADD218ROUNDEDRECTD218*%
G04:AMPARAMS|DCode=219|XSize=200mil|YSize=145mil|CornerRadius=9.5mil|HoleSize=0mil|Usage=FLASHONLY|Rotation=270.000|XOffset=0mil|YOffset=0mil|HoleType=Round|Shape=RoundedRectangle|*
%AMROUNDEDRECTD219*
21,1,0.200000,0.126000,0,0,270.0*
21,1,0.181000,0.145000,0,0,270.0*
1,1,0.019000,-0.063000,-0.090500*
1,1,0.019000,-0.063000,0.090500*
1,1,0.019000,0.063000,0.090500*
1,1,0.019000,0.063000,-0.090500*
%
%ADD219ROUNDEDRECTD219*%
G04:AMPARAMS|DCode=220|XSize=85mil|YSize=35mil|CornerRadius=6.25mil|HoleSize=0mil|Usage=FLASHONLY|Rotation=90.000|XOffset=0mil|YOffset=0mil|HoleType=Round|Shape=RoundedRectangle|*
%AMROUNDEDRECTD220*
21,1,0.085000,0.022500,0,0,90.0*
21,1,0.072500,0.035000,0,0,90.0*
1,1,0.012500,0.011250,0.036250*
1,1,0.012500,0.011250,-0.036250*
1,1,0.012500,-0.011250,-0.036250*
1,1,0.012500,-0.011250,0.036250*
%
%ADD220ROUNDEDRECTD220*%
G04:AMPARAMS|DCode=221|XSize=115mil|YSize=35mil|CornerRadius=4mil|HoleSize=0mil|Usage=FLASHONLY|Rotation=90.000|XOffset=0mil|YOffset=0mil|HoleType=Round|Shape=RoundedRectangle|*
%AMROUNDEDRECTD221*
21,1,0.115000,0.027000,0,0,90.0*
21,1,0.107000,0.035000,0,0,90.0*
1,1,0.008000,0.013500,0.053500*
1,1,0.008000,0.013500,-0.053500*
1,1,0.008000,-0.013500,-0.053500*
1,1,0.008000,-0.013500,0.053500*
%
%ADD221ROUNDEDRECTD221*%
G04:AMPARAMS|DCode=222|XSize=85mil|YSize=35mil|CornerRadius=4mil|HoleSize=0mil|Usage=FLASHONLY|Rotation=90.000|XOffset=0mil|YOffset=0mil|HoleType=Round|Shape=RoundedRectangle|*
%AMROUNDEDRECTD222*
21,1,0.085000,0.027000,0,0,90.0*
21,1,0.077000,0.035000,0,0,90.0*
1,1,0.008000,0.013500,0.038500*
1,1,0.008000,0.013500,-0.038500*
1,1,0.008000,-0.013500,-0.038500*
1,1,0.008000,-0.013500,0.038500*
%
%ADD222ROUNDEDRECTD222*%
G04:AMPARAMS|DCode=223|XSize=200mil|YSize=145mil|CornerRadius=9.5mil|HoleSize=0mil|Usage=FLASHONLY|Rotation=0.000|XOffset=0mil|YOffset=0mil|HoleType=Round|Shape=RoundedRectangle|*
%AMROUNDEDRECTD223*
21,1,0.200000,0.126000,0,0,0.0*
21,1,0.181000,0.145000,0,0,0.0*
1,1,0.019000,0.090500,-0.063000*
1,1,0.019000,-0.090500,-0.063000*
1,1,0.019000,-0.090500,0.063000*
1,1,0.019000,0.090500,0.063000*
%
%ADD223ROUNDEDRECTD223*%
G04:AMPARAMS|DCode=224|XSize=75.866mil|YSize=50.276mil|CornerRadius=9.291mil|HoleSize=0mil|Usage=FLASHONLY|Rotation=180.000|XOffset=0mil|YOffset=0mil|HoleType=Round|Shape=RoundedRectangle|*
%AMROUNDEDRECTD224*
21,1,0.075866,0.031693,0,0,180.0*
21,1,0.057283,0.050276,0,0,180.0*
1,1,0.018583,-0.028642,0.015847*
1,1,0.018583,0.028642,0.015847*
1,1,0.018583,0.028642,-0.015847*
1,1,0.018583,-0.028642,-0.015847*
%
%ADD224ROUNDEDRECTD224*%
G04:AMPARAMS|DCode=225|XSize=131mil|YSize=45mil|CornerRadius=9.5mil|HoleSize=0mil|Usage=FLASHONLY|Rotation=90.000|XOffset=0mil|YOffset=0mil|HoleType=Round|Shape=RoundedRectangle|*
%AMROUNDEDRECTD225*
21,1,0.131000,0.026000,0,0,90.0*
21,1,0.112000,0.045000,0,0,90.0*
1,1,0.019000,0.013000,0.056000*
1,1,0.019000,0.013000,-0.056000*
1,1,0.019000,-0.013000,-0.056000*
1,1,0.019000,-0.013000,0.056000*
%
%ADD225ROUNDEDRECTD225*%
G04:AMPARAMS|DCode=226|XSize=35mil|YSize=39mil|CornerRadius=6.25mil|HoleSize=0mil|Usage=FLASHONLY|Rotation=90.000|XOffset=0mil|YOffset=0mil|HoleType=Round|Shape=RoundedRectangle|*
%AMROUNDEDRECTD226*
21,1,0.035000,0.026500,0,0,90.0*
21,1,0.022500,0.039000,0,0,90.0*
1,1,0.012500,0.013250,0.011250*
1,1,0.012500,0.013250,-0.011250*
1,1,0.012500,-0.013250,-0.011250*
1,1,0.012500,-0.013250,0.011250*
%
%ADD226ROUNDEDRECTD226*%
G04:AMPARAMS|DCode=227|XSize=111mil|YSize=50mil|CornerRadius=6.1mil|HoleSize=0mil|Usage=FLASHONLY|Rotation=270.000|XOffset=0mil|YOffset=0mil|HoleType=Round|Shape=RoundedRectangle|*
%AMROUNDEDRECTD227*
21,1,0.111000,0.037800,0,0,270.0*
21,1,0.098800,0.050000,0,0,270.0*
1,1,0.012200,-0.018900,-0.049400*
1,1,0.012200,-0.018900,0.049400*
1,1,0.012200,0.018900,0.049400*
1,1,0.012200,0.018900,-0.049400*
%
%ADD227ROUNDEDRECTD227*%
G04:AMPARAMS|DCode=228|XSize=36mil|YSize=36mil|CornerRadius=4.05mil|HoleSize=0mil|Usage=FLASHONLY|Rotation=0.000|XOffset=0mil|YOffset=0mil|HoleType=Round|Shape=RoundedRectangle|*
%AMROUNDEDRECTD228*
21,1,0.036000,0.027900,0,0,0.0*
21,1,0.027900,0.036000,0,0,0.0*
1,1,0.008100,0.013950,-0.013950*
1,1,0.008100,-0.013950,-0.013950*
1,1,0.008100,-0.013950,0.013950*
1,1,0.008100,0.013950,0.013950*
%
%ADD228ROUNDEDRECTD228*%
G04:AMPARAMS|DCode=229|XSize=60.118mil|YSize=46.339mil|CornerRadius=8.701mil|HoleSize=0mil|Usage=FLASHONLY|Rotation=180.000|XOffset=0mil|YOffset=0mil|HoleType=Round|Shape=RoundedRectangle|*
%AMROUNDEDRECTD229*
21,1,0.060118,0.028937,0,0,180.0*
21,1,0.042717,0.046339,0,0,180.0*
1,1,0.017402,-0.021358,0.014469*
1,1,0.017402,0.021358,0.014469*
1,1,0.017402,0.021358,-0.014469*
1,1,0.017402,-0.021358,-0.014469*
%
%ADD229ROUNDEDRECTD229*%
G04:AMPARAMS|DCode=230|XSize=60.118mil|YSize=46.339mil|CornerRadius=8.701mil|HoleSize=0mil|Usage=FLASHONLY|Rotation=90.000|XOffset=0mil|YOffset=0mil|HoleType=Round|Shape=RoundedRectangle|*
%AMROUNDEDRECTD230*
21,1,0.060118,0.028937,0,0,90.0*
21,1,0.042717,0.046339,0,0,90.0*
1,1,0.017402,0.014469,0.021358*
1,1,0.017402,0.014469,-0.021358*
1,1,0.017402,-0.014469,-0.021358*
1,1,0.017402,-0.014469,0.021358*
%
%ADD230ROUNDEDRECTD230*%
G04:AMPARAMS|DCode=231|XSize=43mil|YSize=41mil|CornerRadius=5.92mil|HoleSize=0mil|Usage=FLASHONLY|Rotation=90.000|XOffset=0mil|YOffset=0mil|HoleType=Round|Shape=RoundedRectangle|*
%AMROUNDEDRECTD231*
21,1,0.043000,0.029160,0,0,90.0*
21,1,0.031160,0.041000,0,0,90.0*
1,1,0.011840,0.014580,0.015580*
1,1,0.011840,0.014580,-0.015580*
1,1,0.011840,-0.014580,-0.015580*
1,1,0.011840,-0.014580,0.015580*
%
%ADD231ROUNDEDRECTD231*%
%ADD232R,0.044000X0.034000*%
%TA.AperFunction,ComponentPad*%
%ADD233C,0.142795*%
%TA.AperFunction,TestPad*%
%ADD234C,0.055000*%
%TA.AperFunction,ComponentPad*%
%ADD235C,0.055000*%
%ADD236R,0.185102X0.082740*%
G36*
X3993056Y1113594D02*
X3993913Y1113498D01*
X3994960Y1113403D01*
X3997245Y1113022D01*
X3997435D01*
X3997816Y1112927D01*
X3998387Y1112737D01*
X3999149Y1112546D01*
X4000101Y1112261D01*
X4001148Y1111975D01*
X4003338Y1111214D01*
Y1103407D01*
X4003242Y1103502D01*
X4002862Y1103693D01*
X4002290Y1103978D01*
X4001624Y1104264D01*
X4000767Y1104645D01*
X3999815Y1105026D01*
X3997626Y1105692D01*
X3997530D01*
X3997150Y1105787D01*
X3996483Y1105978D01*
X3995722Y1106168D01*
X3994865Y1106263D01*
X3993818Y1106454D01*
X3991438Y1106549D01*
X3990676D01*
X3990105Y1106454D01*
X3989438Y1106358D01*
X3988677Y1106263D01*
X3986963Y1105787D01*
X3984964Y1105026D01*
X3983917Y1104550D01*
X3982965Y1103978D01*
X3981918Y1103312D01*
X3980966Y1102455D01*
X3980109Y1101503D01*
X3979252Y1100456D01*
Y1100361D01*
X3979062Y1100170D01*
X3978871Y1099790D01*
X3978586Y1099314D01*
X3978300Y1098647D01*
X3977919Y1097886D01*
X3977634Y1097029D01*
X3977253Y1095982D01*
X3976872Y1094744D01*
X3976491Y1093411D01*
X3976110Y1091983D01*
X3975825Y1090365D01*
X3975539Y1088556D01*
X3975349Y1086747D01*
X3975254Y1084748D01*
X3975163Y1082658D01*
X3975254Y1082749D01*
X3975539Y1083225D01*
X3976015Y1083986D01*
X3976586Y1084938D01*
X3977348Y1085986D01*
X3978300Y1087033D01*
X3979442Y1088080D01*
X3980680Y1089032D01*
X3980870Y1089127D01*
X3981346Y1089413D01*
X3982108Y1089794D01*
X3983060Y1090174D01*
X3984298Y1090555D01*
X3985630Y1090936D01*
X3987249Y1091222D01*
X3988867Y1091317D01*
X3989724D01*
X3990390Y1091222D01*
X3991152Y1091126D01*
X3992009Y1091031D01*
X3992961Y1090841D01*
X3994008Y1090650D01*
X3996293Y1089984D01*
X3997435Y1089508D01*
X3998578Y1088937D01*
X3999720Y1088270D01*
X4000862Y1087604D01*
X4001910Y1086652D01*
X4002862Y1085700D01*
X4002957Y1085605D01*
X4003052Y1085414D01*
X4003338Y1085129D01*
X4003623Y1084653D01*
X4004004Y1084082D01*
X4004480Y1083415D01*
X4004956Y1082558D01*
X4005432Y1081702D01*
X4005813Y1080654D01*
X4006289Y1079417D01*
X4006765Y1078179D01*
X4007146Y1076751D01*
X4007431Y1075228D01*
X4007717Y1073610D01*
X4007812Y1071896D01*
X4007907Y1069992D01*
Y1069897D01*
Y1069516D01*
Y1069040D01*
X4007812Y1068374D01*
X4007717Y1067517D01*
X4007622Y1066470D01*
X4007526Y1065422D01*
X4007241Y1064280D01*
X4006670Y1061710D01*
X4005718Y1059139D01*
X4005146Y1057806D01*
X4004480Y1056569D01*
X4003718Y1055426D01*
X4002766Y1054284D01*
X4002671Y1054189D01*
X4002576Y1054094D01*
X4002195Y1053808D01*
X4001814Y1053427D01*
X4001338Y1053046D01*
X4000672Y1052570D01*
X3999910Y1051999D01*
X3999054Y1051523D01*
X3998102Y1051047D01*
X3996959Y1050476D01*
X3995817Y1050000D01*
X3994579Y1049619D01*
X3993151Y1049238D01*
X3991628Y1049048D01*
X3990105Y1048858D01*
X3988391Y1048762D01*
X3987915D01*
X3987344Y1048858D01*
X3986582D01*
X3985726Y1049048D01*
X3984678Y1049143D01*
X3983536Y1049429D01*
X3982298Y1049714D01*
X3980966Y1050190D01*
X3979633Y1050666D01*
X3978300Y1051333D01*
X3977062Y1052094D01*
X3975730Y1052951D01*
X3974492Y1053998D01*
X3973445Y1055236D01*
X3972398Y1056569D01*
X3972302Y1056664D01*
X3972207Y1056950D01*
X3971922Y1057426D01*
X3971636Y1058092D01*
X3971255Y1058854D01*
X3970779Y1059901D01*
X3970303Y1061138D01*
X3969922Y1062566D01*
X3969446Y1064185D01*
X3968970Y1065994D01*
X3968494Y1067993D01*
X3968114Y1070182D01*
X3967828Y1072658D01*
X3967542Y1075228D01*
X3967447Y1078084D01*
X3967352Y1081130D01*
Y1081321D01*
Y1081797D01*
Y1082654D01*
X3967447Y1083701D01*
X3967542Y1085034D01*
X3967638Y1086557D01*
X3967828Y1088270D01*
X3968114Y1090079D01*
X3968399Y1092078D01*
X3968875Y1093982D01*
X3969351Y1096077D01*
X3969922Y1098076D01*
X3970589Y1099980D01*
X3971446Y1101884D01*
X3972398Y1103693D01*
X3973445Y1105311D01*
X3973540Y1105406D01*
X3973730Y1105692D01*
X3974111Y1106073D01*
X3974587Y1106644D01*
X3975254Y1107215D01*
X3976015Y1107977D01*
X3976872Y1108738D01*
X3977919Y1109500D01*
X3979157Y1110262D01*
X3980394Y1111023D01*
X3981918Y1111785D01*
X3983441Y1112356D01*
X3985154Y1112927D01*
X3986963Y1113308D01*
X3988962Y1113594D01*
X3991057Y1113689D01*
X3992199D01*
X3993056Y1113594D01*
D02*
G37*
G36*
X4044464Y1081892D02*
X4033897D01*
Y1094554D01*
X4044464D01*
Y1081892D01*
D02*
G37*
G36*
X3889383D02*
X3878816D01*
Y1094554D01*
X3889383D01*
Y1081892D01*
D02*
G37*
G36*
X4319878Y1050000D02*
X4312071D01*
Y1105311D01*
X4300838Y1072277D01*
X4294459D01*
X4283321Y1105311D01*
Y1050000D01*
X4275514D01*
Y1112642D01*
X4286748D01*
X4297601Y1080654D01*
X4308549Y1112642D01*
X4319878D01*
Y1050000D01*
D02*
G37*
G36*
X3935174Y1113594D02*
X3935936D01*
X3936793Y1113403D01*
X3937840Y1113308D01*
X3938887Y1113118D01*
X3941267Y1112546D01*
X3943742Y1111690D01*
X3944885Y1111214D01*
X3946122Y1110547D01*
X3947265Y1109881D01*
X3948312Y1109024D01*
X3948407Y1108929D01*
X3948598Y1108834D01*
X3948788Y1108548D01*
X3949169Y1108167D01*
X3949550Y1107691D01*
X3950026Y1107215D01*
X3951073Y1105787D01*
X3952120Y1104074D01*
X3952977Y1101979D01*
X3953358Y1100837D01*
X3953643Y1099599D01*
X3953738Y1098266D01*
X3953834Y1096934D01*
Y1096838D01*
Y1096743D01*
Y1096458D01*
Y1096077D01*
X3953643Y1095125D01*
X3953453Y1093887D01*
X3953072Y1092554D01*
X3952596Y1091126D01*
X3951834Y1089698D01*
X3950882Y1088270D01*
X3950787Y1088080D01*
X3950311Y1087699D01*
X3949740Y1087128D01*
X3948788Y1086366D01*
X3947646Y1085605D01*
X3946218Y1084748D01*
X3944504Y1084082D01*
X3942600Y1083415D01*
X3942695D01*
X3942886Y1083320D01*
X3943171Y1083225D01*
X3943647Y1083130D01*
X3944694Y1082654D01*
X3946027Y1082082D01*
X3947550Y1081321D01*
X3949074Y1080274D01*
X3950597Y1079036D01*
X3951930Y1077608D01*
X3952120Y1077418D01*
X3952501Y1076846D01*
X3952977Y1075990D01*
X3953643Y1074752D01*
X3954214Y1073324D01*
X3954786Y1071515D01*
X3955166Y1069516D01*
X3955262Y1067231D01*
Y1067136D01*
Y1066850D01*
Y1066374D01*
X3955166Y1065803D01*
X3955071Y1065042D01*
X3954976Y1064185D01*
X3954500Y1062281D01*
X3953834Y1060091D01*
X3953358Y1058949D01*
X3952786Y1057806D01*
X3952120Y1056759D01*
X3951263Y1055617D01*
X3950406Y1054570D01*
X3949359Y1053618D01*
X3949264Y1053522D01*
X3949074Y1053427D01*
X3948788Y1053142D01*
X3948312Y1052856D01*
X3947741Y1052475D01*
X3946979Y1052094D01*
X3946122Y1051618D01*
X3945170Y1051238D01*
X3944123Y1050762D01*
X3942886Y1050286D01*
X3941553Y1049905D01*
X3940125Y1049524D01*
X3938602Y1049238D01*
X3936983Y1048953D01*
X3935270Y1048858D01*
X3933366Y1048762D01*
X3931747D01*
X3930605Y1048858D01*
X3929272Y1048953D01*
X3927749Y1049048D01*
X3926226Y1049238D01*
X3924512Y1049524D01*
X3924322D01*
X3923750Y1049714D01*
X3922894Y1049810D01*
X3921751Y1050095D01*
X3920418Y1050476D01*
X3918895Y1050857D01*
X3915754Y1051904D01*
Y1060377D01*
X3915849D01*
X3915944Y1060282D01*
X3916515Y1059996D01*
X3917277Y1059615D01*
X3918419Y1059139D01*
X3919657Y1058568D01*
X3921085Y1057997D01*
X3922608Y1057426D01*
X3924131Y1056950D01*
X3924322D01*
X3924893Y1056759D01*
X3925654Y1056664D01*
X3926702Y1056474D01*
X3928034Y1056283D01*
X3929367Y1056093D01*
X3930890Y1055998D01*
X3932414Y1055902D01*
X3933080D01*
X3933556Y1055998D01*
X3934127D01*
X3934794Y1056093D01*
X3936317Y1056283D01*
X3938030Y1056664D01*
X3939839Y1057235D01*
X3941553Y1057997D01*
X3943076Y1059044D01*
X3943266Y1059234D01*
X3943647Y1059615D01*
X3944314Y1060377D01*
X3944980Y1061329D01*
X3945646Y1062662D01*
X3946313Y1064185D01*
X3946694Y1065994D01*
X3946884Y1068088D01*
Y1068183D01*
Y1068374D01*
Y1068659D01*
X3946789Y1068945D01*
X3946694Y1069992D01*
X3946408Y1071230D01*
X3945932Y1072562D01*
X3945266Y1073990D01*
X3944314Y1075418D01*
X3943076Y1076751D01*
X3942886Y1076846D01*
X3942410Y1077227D01*
X3941553Y1077798D01*
X3940410Y1078370D01*
X3938982Y1078941D01*
X3937269Y1079512D01*
X3935270Y1079893D01*
X3932985Y1079988D01*
X3926606D01*
Y1086938D01*
X3933937D01*
X3934984Y1087033D01*
X3936317Y1087223D01*
X3937840Y1087509D01*
X3939363Y1087985D01*
X3940791Y1088556D01*
X3942124Y1089413D01*
X3942314Y1089508D01*
X3942695Y1089889D01*
X3943171Y1090460D01*
X3943838Y1091317D01*
X3944409Y1092269D01*
X3944980Y1093506D01*
X3945361Y1094934D01*
X3945456Y1096553D01*
Y1096648D01*
Y1096743D01*
Y1097314D01*
X3945266Y1098171D01*
X3945075Y1099218D01*
X3944694Y1100456D01*
X3944218Y1101694D01*
X3943457Y1102836D01*
X3942410Y1103883D01*
X3942314Y1103978D01*
X3941838Y1104264D01*
X3941172Y1104740D01*
X3940220Y1105216D01*
X3938982Y1105692D01*
X3937459Y1106168D01*
X3935650Y1106454D01*
X3933651Y1106549D01*
X3932223D01*
X3931271Y1106454D01*
X3930129Y1106358D01*
X3928796Y1106168D01*
X3927463Y1105978D01*
X3925940Y1105692D01*
X3925750D01*
X3925274Y1105502D01*
X3924417Y1105311D01*
X3923370Y1105026D01*
X3922132Y1104740D01*
X3920799Y1104264D01*
X3919276Y1103788D01*
X3917658Y1103217D01*
Y1111023D01*
X3917753D01*
X3917848Y1111118D01*
X3918134D01*
X3918514Y1111214D01*
X3919466Y1111499D01*
X3920704Y1111785D01*
X3922037Y1112070D01*
X3923560Y1112451D01*
X3925083Y1112737D01*
X3926606Y1113022D01*
X3926797D01*
X3927273Y1113118D01*
X3928034Y1113213D01*
X3928986Y1113403D01*
X3930129Y1113498D01*
X3931271Y1113594D01*
X3933651Y1113689D01*
X3934508D01*
X3935174Y1113594D01*
D02*
G37*
G36*
X3677373D02*
X3678134D01*
X3678991Y1113403D01*
X3680038Y1113308D01*
X3681181Y1113022D01*
X3682418Y1112737D01*
X3683751Y1112261D01*
X3685084Y1111785D01*
X3686417Y1111118D01*
X3687654Y1110357D01*
X3688987Y1109500D01*
X3690225Y1108358D01*
X3691272Y1107215D01*
X3692319Y1105787D01*
X3692414Y1105692D01*
X3692510Y1105406D01*
X3692795Y1104930D01*
X3693081Y1104264D01*
X3693557Y1103502D01*
X3693938Y1102455D01*
X3694414Y1101218D01*
X3694890Y1099790D01*
X3695366Y1098171D01*
X3695842Y1096362D01*
X3696318Y1094363D01*
X3696698Y1092078D01*
X3696984Y1089698D01*
X3697270Y1087033D01*
X3697365Y1084177D01*
X3697460Y1081130D01*
Y1080940D01*
Y1080464D01*
Y1079607D01*
X3697365Y1078560D01*
X3697270Y1077227D01*
X3697174Y1075704D01*
X3696984Y1073990D01*
X3696698Y1072182D01*
X3696318Y1070278D01*
X3695937Y1068278D01*
X3695461Y1066279D01*
X3694890Y1064280D01*
X3694128Y1062376D01*
X3693271Y1060472D01*
X3692319Y1058663D01*
X3691272Y1057045D01*
X3691177Y1056950D01*
X3690986Y1056664D01*
X3690606Y1056283D01*
X3690130Y1055712D01*
X3689463Y1055141D01*
X3688702Y1054474D01*
X3687845Y1053713D01*
X3686798Y1052951D01*
X3685560Y1052094D01*
X3684227Y1051428D01*
X3682799Y1050666D01*
X3681276Y1050095D01*
X3679467Y1049524D01*
X3677658Y1049143D01*
X3675659Y1048858D01*
X3673565Y1048762D01*
X3672422D01*
X3671661Y1048858D01*
X3670709Y1048953D01*
X3669662Y1049048D01*
X3667377Y1049429D01*
X3667282D01*
X3666901Y1049524D01*
X3666234Y1049714D01*
X3665473Y1049905D01*
X3664616Y1050095D01*
X3663569Y1050476D01*
X3661474Y1051238D01*
Y1059044D01*
X3661570Y1058949D01*
X3661950Y1058758D01*
X3662426Y1058473D01*
X3663093Y1058187D01*
X3663950Y1057711D01*
X3664902Y1057330D01*
X3666996Y1056664D01*
X3667091D01*
X3667567Y1056569D01*
X3668138Y1056474D01*
X3668900Y1056283D01*
X3669852Y1056188D01*
X3670899Y1055998D01*
X3673279Y1055902D01*
X3674041D01*
X3674612Y1055998D01*
X3675278Y1056093D01*
X3676040Y1056188D01*
X3677849Y1056664D01*
X3679848Y1057330D01*
X3680800Y1057902D01*
X3681847Y1058473D01*
X3682799Y1059139D01*
X3683751Y1059901D01*
X3684703Y1060853D01*
X3685465Y1061900D01*
X3685560Y1061995D01*
X3685655Y1062186D01*
X3685846Y1062566D01*
X3686131Y1063042D01*
X3686417Y1063709D01*
X3686798Y1064470D01*
X3687178Y1065327D01*
X3687559Y1066470D01*
X3687940Y1067612D01*
X3688321Y1068945D01*
X3688702Y1070373D01*
X3688987Y1071991D01*
X3689273Y1073800D01*
X3689463Y1075609D01*
X3689654Y1077608D01*
Y1079798D01*
X3689558Y1079607D01*
X3689273Y1079131D01*
X3688797Y1078370D01*
X3688226Y1077418D01*
X3687369Y1076370D01*
X3686417Y1075323D01*
X3685274Y1074276D01*
X3684037Y1073324D01*
X3683846Y1073229D01*
X3683370Y1072943D01*
X3682704Y1072658D01*
X3681657Y1072277D01*
X3680514Y1071801D01*
X3679086Y1071515D01*
X3677563Y1071230D01*
X3675850Y1071134D01*
X3674993D01*
X3674326Y1071230D01*
X3673565Y1071325D01*
X3672708Y1071420D01*
X3671756Y1071610D01*
X3670709Y1071801D01*
X3668424Y1072467D01*
X3667282Y1072943D01*
X3666139Y1073514D01*
X3664997Y1074086D01*
X3663854Y1074847D01*
X3662807Y1075704D01*
X3661855Y1076656D01*
X3661760Y1076751D01*
X3661665Y1076942D01*
X3661379Y1077227D01*
X3661094Y1077703D01*
X3660713Y1078274D01*
X3660332Y1078941D01*
X3659856Y1079798D01*
X3659380Y1080750D01*
X3658904Y1081797D01*
X3658428Y1082939D01*
X3658047Y1084272D01*
X3657666Y1085700D01*
X3657381Y1087223D01*
X3657095Y1088842D01*
X3657000Y1090650D01*
X3656905Y1092459D01*
Y1092554D01*
Y1092935D01*
Y1093411D01*
X3657000Y1094173D01*
X3657095Y1094934D01*
X3657190Y1095982D01*
X3657286Y1097029D01*
X3657571Y1098171D01*
X3658142Y1100742D01*
X3658999Y1103312D01*
X3659570Y1104550D01*
X3660332Y1105787D01*
X3661094Y1107025D01*
X3661950Y1108072D01*
X3662046Y1108167D01*
X3662236Y1108358D01*
X3662522Y1108548D01*
X3662902Y1108929D01*
X3663474Y1109405D01*
X3664045Y1109881D01*
X3664806Y1110357D01*
X3665663Y1110928D01*
X3666615Y1111404D01*
X3667758Y1111880D01*
X3668900Y1112356D01*
X3670233Y1112832D01*
X3671566Y1113213D01*
X3673089Y1113403D01*
X3674612Y1113594D01*
X3676326Y1113689D01*
X3676802D01*
X3677373Y1113594D01*
D02*
G37*
G36*
X4248478Y1112546D02*
X4249334D01*
X4250382Y1112356D01*
X4251524Y1112261D01*
X4252666Y1112070D01*
X4255237Y1111499D01*
X4257902Y1110642D01*
X4259140Y1110071D01*
X4260378Y1109500D01*
X4261615Y1108738D01*
X4262662Y1107882D01*
X4262758Y1107786D01*
X4262853Y1107691D01*
X4263138Y1107406D01*
X4263519Y1107025D01*
X4263900Y1106454D01*
X4264376Y1105882D01*
X4264852Y1105216D01*
X4265423Y1104359D01*
X4265899Y1103407D01*
X4266375Y1102360D01*
X4266851Y1101218D01*
X4267232Y1099980D01*
X4267613Y1098647D01*
X4267898Y1097124D01*
X4267994Y1095601D01*
X4268089Y1093887D01*
Y1093792D01*
Y1093506D01*
Y1093030D01*
X4267994Y1092364D01*
X4267898Y1091602D01*
X4267803Y1090746D01*
X4267613Y1089698D01*
X4267422Y1088651D01*
X4266756Y1086462D01*
X4266375Y1085224D01*
X4265804Y1084082D01*
X4265138Y1082939D01*
X4264471Y1081892D01*
X4263614Y1080845D01*
X4262662Y1079893D01*
X4262567Y1079798D01*
X4262377Y1079702D01*
X4262091Y1079512D01*
X4261615Y1079131D01*
X4261044Y1078846D01*
X4260378Y1078465D01*
X4259616Y1077989D01*
X4258664Y1077608D01*
X4257617Y1077132D01*
X4256379Y1076751D01*
X4255142Y1076275D01*
X4253714Y1075990D01*
X4252095Y1075704D01*
X4250477Y1075418D01*
X4248668Y1075323D01*
X4246764Y1075228D01*
X4236958D01*
Y1050000D01*
X4228486D01*
Y1112642D01*
X4247811D01*
X4248478Y1112546D01*
D02*
G37*
G36*
X4104345Y1071801D02*
X4112722D01*
Y1064946D01*
X4104345D01*
Y1050000D01*
X4095872D01*
Y1064946D01*
X4069406D01*
Y1072943D01*
X4094539Y1112642D01*
X4104345D01*
Y1071801D01*
D02*
G37*
G36*
X4044464Y1050000D02*
X4033897D01*
Y1062757D01*
X4044464D01*
Y1050000D01*
D02*
G37*
G36*
X3889383D02*
X3878816D01*
Y1062757D01*
X3889383D01*
Y1050000D01*
D02*
G37*
G36*
X3831692Y1113594D02*
X3832454Y1113498D01*
X3833406Y1113403D01*
X3834358Y1113308D01*
X3835500Y1113118D01*
X3837880Y1112451D01*
X3840355Y1111594D01*
X3841593Y1111023D01*
X3842735Y1110357D01*
X3843973Y1109595D01*
X3845020Y1108738D01*
X3845115Y1108643D01*
X3845306Y1108548D01*
X3845496Y1108262D01*
X3845877Y1107882D01*
X3846353Y1107406D01*
X3846829Y1106834D01*
X3847305Y1106073D01*
X3847876Y1105311D01*
X3848828Y1103502D01*
X3849780Y1101313D01*
X3850161Y1100075D01*
X3850351Y1098838D01*
X3850542Y1097410D01*
X3850637Y1095982D01*
Y1095791D01*
Y1095315D01*
X3850542Y1094458D01*
X3850446Y1093506D01*
X3850161Y1092269D01*
X3849875Y1090841D01*
X3849399Y1089413D01*
X3848733Y1087890D01*
X3848638Y1087699D01*
X3848352Y1087223D01*
X3847876Y1086366D01*
X3847305Y1085319D01*
X3846448Y1083986D01*
X3845401Y1082463D01*
X3844068Y1080845D01*
X3842640Y1079036D01*
X3842545Y1078941D01*
X3842259Y1078560D01*
X3841688Y1077894D01*
X3840926Y1077037D01*
X3839974Y1075990D01*
X3838832Y1074657D01*
X3837499Y1073134D01*
X3835881Y1071420D01*
X3835786Y1071325D01*
X3835690Y1071230D01*
X3835405Y1070944D01*
X3835024Y1070563D01*
X3834548Y1069992D01*
X3833977Y1069421D01*
X3833310Y1068659D01*
X3832549Y1067898D01*
X3831597Y1066946D01*
X3830550Y1065803D01*
X3829502Y1064661D01*
X3828265Y1063423D01*
X3826932Y1061995D01*
X3825504Y1060472D01*
X3823886Y1058854D01*
X3822267Y1057140D01*
X3851018D01*
Y1050000D01*
X3813033D01*
Y1057140D01*
X3813128Y1057235D01*
X3813414Y1057521D01*
X3813794Y1057902D01*
X3814366Y1058568D01*
X3815032Y1059234D01*
X3815794Y1060091D01*
X3816650Y1061043D01*
X3817698Y1061995D01*
X3819792Y1064280D01*
X3822077Y1066660D01*
X3824362Y1069230D01*
X3826646Y1071610D01*
X3826742Y1071706D01*
X3826932Y1071896D01*
X3827218Y1072182D01*
X3827598Y1072658D01*
X3828646Y1073800D01*
X3829883Y1075133D01*
X3831216Y1076561D01*
X3832549Y1078084D01*
X3833786Y1079417D01*
X3834834Y1080559D01*
X3834929Y1080654D01*
X3835024Y1080750D01*
X3835214Y1081035D01*
X3835500Y1081416D01*
X3836262Y1082368D01*
X3837118Y1083510D01*
X3838070Y1084843D01*
X3838927Y1086271D01*
X3839784Y1087604D01*
X3840450Y1088842D01*
X3840546Y1089032D01*
X3840736Y1089413D01*
X3840926Y1089984D01*
X3841212Y1090841D01*
X3841498Y1091793D01*
X3841783Y1092935D01*
X3841878Y1094078D01*
X3841974Y1095315D01*
Y1095410D01*
Y1095506D01*
Y1095791D01*
Y1096172D01*
X3841783Y1097124D01*
X3841593Y1098266D01*
X3841212Y1099599D01*
X3840641Y1101027D01*
X3839879Y1102265D01*
X3838832Y1103502D01*
X3838737Y1103598D01*
X3838261Y1103978D01*
X3837594Y1104454D01*
X3836642Y1105026D01*
X3835405Y1105597D01*
X3833977Y1106073D01*
X3832263Y1106454D01*
X3830359Y1106549D01*
X3829693D01*
X3828931Y1106454D01*
X3827979Y1106358D01*
X3826742Y1106168D01*
X3825409Y1105978D01*
X3823886Y1105597D01*
X3822362Y1105121D01*
X3822172Y1105026D01*
X3821601Y1104835D01*
X3820839Y1104550D01*
X3819697Y1104074D01*
X3818364Y1103502D01*
X3816841Y1102741D01*
X3815222Y1101884D01*
X3813509Y1100932D01*
Y1109500D01*
X3813604D01*
X3813699Y1109595D01*
X3814270Y1109786D01*
X3815127Y1110166D01*
X3816174Y1110642D01*
X3817507Y1111118D01*
X3818935Y1111594D01*
X3821982Y1112546D01*
X3822077D01*
X3822172Y1112642D01*
X3822743Y1112737D01*
X3823505Y1112927D01*
X3824552Y1113118D01*
X3825790Y1113308D01*
X3827218Y1113498D01*
X3828646Y1113689D01*
X3831026D01*
X3831692Y1113594D01*
D02*
G37*
G36*
X3787805Y1057140D02*
X3800847D01*
Y1050000D01*
X3766290D01*
Y1057140D01*
X3779427D01*
Y1105026D01*
X3765242Y1101789D01*
Y1109500D01*
X3779332Y1112642D01*
X3787805D01*
Y1057140D01*
D02*
G37*
G36*
X3632724D02*
X3645766D01*
Y1050000D01*
X3611209D01*
Y1057140D01*
X3624346D01*
Y1105026D01*
X3610162Y1101789D01*
Y1109500D01*
X3624251Y1112642D01*
X3632724D01*
Y1057140D01*
D02*
G37*
G36*
X3529337D02*
X3542379D01*
Y1050000D01*
X3507822D01*
Y1057140D01*
X3520959D01*
Y1105026D01*
X3506774Y1101789D01*
Y1109500D01*
X3520864Y1112642D01*
X3529337D01*
Y1057140D01*
D02*
G37*
G36*
X3477643D02*
X3490686D01*
Y1050000D01*
X3456128D01*
Y1057140D01*
X3469266D01*
Y1105026D01*
X3455081Y1101789D01*
Y1109500D01*
X3469170Y1112642D01*
X3477643D01*
Y1057140D01*
D02*
G37*
G36*
X3366450Y1113594D02*
X3367211Y1113498D01*
X3368163Y1113403D01*
X3369115Y1113308D01*
X3370258Y1113118D01*
X3372638Y1112451D01*
X3375113Y1111594D01*
X3376350Y1111023D01*
X3377493Y1110357D01*
X3378730Y1109595D01*
X3379778Y1108738D01*
X3379873Y1108643D01*
X3380063Y1108548D01*
X3380254Y1108262D01*
X3380634Y1107882D01*
X3381110Y1107406D01*
X3381586Y1106834D01*
X3382062Y1106073D01*
X3382634Y1105311D01*
X3383586Y1103502D01*
X3384538Y1101313D01*
X3384918Y1100075D01*
X3385109Y1098838D01*
X3385299Y1097410D01*
X3385394Y1095982D01*
Y1095791D01*
Y1095315D01*
X3385299Y1094458D01*
X3385204Y1093506D01*
X3384918Y1092269D01*
X3384633Y1090841D01*
X3384157Y1089413D01*
X3383490Y1087890D01*
X3383395Y1087699D01*
X3383110Y1087223D01*
X3382634Y1086366D01*
X3382062Y1085319D01*
X3381206Y1083986D01*
X3380158Y1082463D01*
X3378826Y1080845D01*
X3377398Y1079036D01*
X3377302Y1078941D01*
X3377017Y1078560D01*
X3376446Y1077894D01*
X3375684Y1077037D01*
X3374732Y1075990D01*
X3373590Y1074657D01*
X3372257Y1073134D01*
X3370638Y1071420D01*
X3370543Y1071325D01*
X3370448Y1071230D01*
X3370162Y1070944D01*
X3369782Y1070563D01*
X3369306Y1069992D01*
X3368734Y1069421D01*
X3368068Y1068659D01*
X3367306Y1067898D01*
X3366354Y1066946D01*
X3365307Y1065803D01*
X3364260Y1064661D01*
X3363022Y1063423D01*
X3361690Y1061995D01*
X3360262Y1060472D01*
X3358643Y1058854D01*
X3357025Y1057140D01*
X3385775D01*
Y1050000D01*
X3347790D01*
Y1057140D01*
X3347886Y1057235D01*
X3348171Y1057521D01*
X3348552Y1057902D01*
X3349123Y1058568D01*
X3349790Y1059234D01*
X3350551Y1060091D01*
X3351408Y1061043D01*
X3352455Y1061995D01*
X3354550Y1064280D01*
X3356834Y1066660D01*
X3359119Y1069230D01*
X3361404Y1071610D01*
X3361499Y1071706D01*
X3361690Y1071896D01*
X3361975Y1072182D01*
X3362356Y1072658D01*
X3363403Y1073800D01*
X3364641Y1075133D01*
X3365974Y1076561D01*
X3367306Y1078084D01*
X3368544Y1079417D01*
X3369591Y1080559D01*
X3369686Y1080654D01*
X3369782Y1080750D01*
X3369972Y1081035D01*
X3370258Y1081416D01*
X3371019Y1082368D01*
X3371876Y1083510D01*
X3372828Y1084843D01*
X3373685Y1086271D01*
X3374542Y1087604D01*
X3375208Y1088842D01*
X3375303Y1089032D01*
X3375494Y1089413D01*
X3375684Y1089984D01*
X3375970Y1090841D01*
X3376255Y1091793D01*
X3376541Y1092935D01*
X3376636Y1094078D01*
X3376731Y1095315D01*
Y1095410D01*
Y1095506D01*
Y1095791D01*
Y1096172D01*
X3376541Y1097124D01*
X3376350Y1098266D01*
X3375970Y1099599D01*
X3375398Y1101027D01*
X3374637Y1102265D01*
X3373590Y1103502D01*
X3373494Y1103598D01*
X3373018Y1103978D01*
X3372352Y1104454D01*
X3371400Y1105026D01*
X3370162Y1105597D01*
X3368734Y1106073D01*
X3367021Y1106454D01*
X3365117Y1106549D01*
X3364450D01*
X3363689Y1106454D01*
X3362737Y1106358D01*
X3361499Y1106168D01*
X3360166Y1105978D01*
X3358643Y1105597D01*
X3357120Y1105121D01*
X3356930Y1105026D01*
X3356358Y1104835D01*
X3355597Y1104550D01*
X3354454Y1104074D01*
X3353122Y1103502D01*
X3351598Y1102741D01*
X3349980Y1101884D01*
X3348266Y1100932D01*
Y1109500D01*
X3348362D01*
X3348457Y1109595D01*
X3349028Y1109786D01*
X3349885Y1110166D01*
X3350932Y1110642D01*
X3352265Y1111118D01*
X3353693Y1111594D01*
X3356739Y1112546D01*
X3356834D01*
X3356930Y1112642D01*
X3357501Y1112737D01*
X3358262Y1112927D01*
X3359310Y1113118D01*
X3360547Y1113308D01*
X3361975Y1113498D01*
X3363403Y1113689D01*
X3365783D01*
X3366450Y1113594D01*
D02*
G37*
G36*
X3322562Y1057140D02*
X3335605D01*
Y1050000D01*
X3301047D01*
Y1057140D01*
X3314185D01*
Y1105026D01*
X3300000Y1101789D01*
Y1109500D01*
X3314090Y1112642D01*
X3322562D01*
Y1057140D01*
D02*
G37*
G36*
X4143567Y1113594D02*
X4144234D01*
X4145090Y1113403D01*
X4146042Y1113213D01*
X4147185Y1113022D01*
X4148327Y1112642D01*
X4149565Y1112261D01*
X4150802Y1111690D01*
X4152040Y1111023D01*
X4153278Y1110166D01*
X4154515Y1109214D01*
X4155753Y1108167D01*
X4156800Y1106834D01*
X4157847Y1105406D01*
X4157942Y1105311D01*
X4158038Y1105026D01*
X4158323Y1104550D01*
X4158609Y1103883D01*
X4159085Y1103026D01*
X4159466Y1101979D01*
X4159942Y1100742D01*
X4160418Y1099314D01*
X4160894Y1097695D01*
X4161370Y1095886D01*
X4161846Y1093887D01*
X4162226Y1091698D01*
X4162512Y1089318D01*
X4162798Y1086842D01*
X4162893Y1084082D01*
X4162988Y1081130D01*
Y1080940D01*
Y1080464D01*
Y1079607D01*
X4162893Y1078465D01*
X4162798Y1077132D01*
X4162702Y1075609D01*
X4162607Y1073895D01*
X4162322Y1072086D01*
X4162036Y1070182D01*
X4161750Y1068183D01*
X4160798Y1064185D01*
X4160227Y1062186D01*
X4159561Y1060377D01*
X4158799Y1058568D01*
X4157847Y1056950D01*
X4157752Y1056854D01*
X4157657Y1056569D01*
X4157276Y1056188D01*
X4156895Y1055712D01*
X4156324Y1055046D01*
X4155658Y1054379D01*
X4154896Y1053618D01*
X4154039Y1052856D01*
X4152992Y1052094D01*
X4151850Y1051333D01*
X4150612Y1050666D01*
X4149279Y1050000D01*
X4147756Y1049524D01*
X4146138Y1049143D01*
X4144424Y1048858D01*
X4142615Y1048762D01*
X4142139D01*
X4141663Y1048858D01*
X4140997D01*
X4140140Y1049048D01*
X4139188Y1049238D01*
X4138141Y1049429D01*
X4136998Y1049810D01*
X4135761Y1050190D01*
X4134523Y1050762D01*
X4133286Y1051428D01*
X4132048Y1052190D01*
X4130810Y1053142D01*
X4129573Y1054284D01*
X4128526Y1055522D01*
X4127478Y1056950D01*
X4127383Y1057045D01*
X4127288Y1057330D01*
X4127002Y1057806D01*
X4126717Y1058473D01*
X4126336Y1059330D01*
X4125860Y1060377D01*
X4125384Y1061614D01*
X4125003Y1063042D01*
X4124527Y1064661D01*
X4124051Y1066470D01*
X4123575Y1068469D01*
X4123194Y1070563D01*
X4122909Y1072943D01*
X4122623Y1075514D01*
X4122528Y1078179D01*
X4122433Y1081130D01*
Y1081321D01*
Y1081797D01*
Y1082654D01*
X4122528Y1083796D01*
X4122623Y1085129D01*
X4122718Y1086652D01*
X4122814Y1088366D01*
X4123099Y1090174D01*
X4123290Y1092174D01*
X4123670Y1094173D01*
X4124527Y1098171D01*
X4125098Y1100170D01*
X4125860Y1101979D01*
X4126622Y1103788D01*
X4127478Y1105406D01*
X4127574Y1105502D01*
X4127764Y1105787D01*
X4128050Y1106168D01*
X4128430Y1106739D01*
X4129002Y1107310D01*
X4129668Y1108072D01*
X4130430Y1108738D01*
X4131286Y1109595D01*
X4132334Y1110357D01*
X4133476Y1111118D01*
X4134714Y1111785D01*
X4136046Y1112356D01*
X4137474Y1112927D01*
X4139093Y1113308D01*
X4140806Y1113594D01*
X4142615Y1113689D01*
X4143091D01*
X4143567Y1113594D01*
D02*
G37*
G36*
X3560467Y1042098D02*
X3552470D01*
X3585505Y1112642D01*
X3593502D01*
X3560467Y1042098D01*
D02*
G37*
G36*
X3405386D02*
X3397390D01*
X3430424Y1112642D01*
X3438421D01*
X3405386Y1042098D01*
D02*
G37*
G36*
X3838356Y1205406D02*
X3830645D01*
Y1215212D01*
X3838356D01*
Y1205406D01*
D02*
G37*
G36*
X3734969D02*
X3727258D01*
Y1215212D01*
X3734969D01*
Y1205406D01*
D02*
G37*
G36*
X3954976Y1150000D02*
X3947265D01*
Y1155902D01*
X3947170Y1155712D01*
X3946884Y1155331D01*
X3946503Y1154665D01*
X3945837Y1153903D01*
X3945075Y1153046D01*
X3944218Y1152190D01*
X3943171Y1151333D01*
X3942029Y1150571D01*
X3941934Y1150476D01*
X3941458Y1150286D01*
X3940791Y1150000D01*
X3939934Y1149714D01*
X3938887Y1149334D01*
X3937650Y1149048D01*
X3936222Y1148858D01*
X3934698Y1148762D01*
X3933842D01*
X3933270Y1148858D01*
X3932604Y1148953D01*
X3931747Y1149143D01*
X3929843Y1149619D01*
X3928796Y1149905D01*
X3927654Y1150381D01*
X3926511Y1150857D01*
X3925464Y1151523D01*
X3924322Y1152285D01*
X3923274Y1153142D01*
X3922227Y1154189D01*
X3921275Y1155331D01*
X3921180Y1155426D01*
X3921085Y1155617D01*
X3920799Y1155998D01*
X3920514Y1156569D01*
X3920133Y1157235D01*
X3919752Y1157997D01*
X3919276Y1158949D01*
X3918895Y1160091D01*
X3918419Y1161329D01*
X3917943Y1162662D01*
X3917562Y1164185D01*
X3917182Y1165803D01*
X3916896Y1167517D01*
X3916610Y1169421D01*
X3916515Y1171420D01*
X3916420Y1173514D01*
Y1173610D01*
Y1173990D01*
Y1174657D01*
X3916515Y1175418D01*
X3916610Y1176370D01*
X3916706Y1177513D01*
X3916801Y1178750D01*
X3916991Y1180083D01*
X3917562Y1182939D01*
X3918514Y1185986D01*
X3918990Y1187414D01*
X3919657Y1188842D01*
X3920418Y1190270D01*
X3921275Y1191507D01*
X3921370Y1191602D01*
X3921466Y1191793D01*
X3921751Y1192078D01*
X3922227Y1192554D01*
X3922703Y1193030D01*
X3923274Y1193602D01*
X3924036Y1194173D01*
X3924798Y1194839D01*
X3925750Y1195410D01*
X3926702Y1195982D01*
X3928986Y1197029D01*
X3930319Y1197505D01*
X3931652Y1197790D01*
X3933175Y1197981D01*
X3934698Y1198076D01*
X3935365D01*
X3936222Y1197981D01*
X3937174Y1197886D01*
X3938316Y1197600D01*
X3939649Y1197314D01*
X3940886Y1196838D01*
X3942124Y1196172D01*
X3942314Y1196077D01*
X3942695Y1195791D01*
X3943266Y1195410D01*
X3944028Y1194839D01*
X3944790Y1194078D01*
X3945646Y1193126D01*
X3946503Y1192078D01*
X3947265Y1190841D01*
Y1215212D01*
X3954976D01*
Y1150000D01*
D02*
G37*
G36*
X3696508D02*
X3688797D01*
Y1155902D01*
X3688702Y1155712D01*
X3688416Y1155331D01*
X3688035Y1154665D01*
X3687369Y1153903D01*
X3686607Y1153046D01*
X3685750Y1152190D01*
X3684703Y1151333D01*
X3683561Y1150571D01*
X3683466Y1150476D01*
X3682990Y1150286D01*
X3682323Y1150000D01*
X3681466Y1149714D01*
X3680419Y1149334D01*
X3679182Y1149048D01*
X3677754Y1148858D01*
X3676230Y1148762D01*
X3675374D01*
X3674802Y1148858D01*
X3674136Y1148953D01*
X3673279Y1149143D01*
X3671375Y1149619D01*
X3670328Y1149905D01*
X3669186Y1150381D01*
X3668043Y1150857D01*
X3666996Y1151523D01*
X3665854Y1152285D01*
X3664806Y1153142D01*
X3663759Y1154189D01*
X3662807Y1155331D01*
X3662712Y1155426D01*
X3662617Y1155617D01*
X3662331Y1155998D01*
X3662046Y1156569D01*
X3661665Y1157235D01*
X3661284Y1157997D01*
X3660808Y1158949D01*
X3660427Y1160091D01*
X3659951Y1161329D01*
X3659475Y1162662D01*
X3659094Y1164185D01*
X3658714Y1165803D01*
X3658428Y1167517D01*
X3658142Y1169421D01*
X3658047Y1171420D01*
X3657952Y1173514D01*
Y1173610D01*
Y1173990D01*
Y1174657D01*
X3658047Y1175418D01*
X3658142Y1176370D01*
X3658238Y1177513D01*
X3658333Y1178750D01*
X3658523Y1180083D01*
X3659094Y1182939D01*
X3660046Y1185986D01*
X3660522Y1187414D01*
X3661189Y1188842D01*
X3661950Y1190270D01*
X3662807Y1191507D01*
X3662902Y1191602D01*
X3662998Y1191793D01*
X3663283Y1192078D01*
X3663759Y1192554D01*
X3664235Y1193030D01*
X3664806Y1193602D01*
X3665568Y1194173D01*
X3666330Y1194839D01*
X3667282Y1195410D01*
X3668234Y1195982D01*
X3670518Y1197029D01*
X3671851Y1197505D01*
X3673184Y1197790D01*
X3674707Y1197981D01*
X3676230Y1198076D01*
X3676897D01*
X3677754Y1197981D01*
X3678706Y1197886D01*
X3679848Y1197600D01*
X3681181Y1197314D01*
X3682418Y1196838D01*
X3683656Y1196172D01*
X3683846Y1196077D01*
X3684227Y1195791D01*
X3684798Y1195410D01*
X3685560Y1194839D01*
X3686322Y1194078D01*
X3687178Y1193126D01*
X3688035Y1192078D01*
X3688797Y1190841D01*
Y1215212D01*
X3696508D01*
Y1150000D01*
D02*
G37*
G36*
X3423379Y1197981D02*
X3424426Y1197886D01*
X3425664Y1197790D01*
X3428234Y1197314D01*
X3428425D01*
X3428806Y1197219D01*
X3429567Y1197029D01*
X3430424Y1196838D01*
X3431471Y1196553D01*
X3432614Y1196172D01*
X3435184Y1195220D01*
Y1187699D01*
X3434994Y1187794D01*
X3434613Y1187985D01*
X3433946Y1188366D01*
X3433090Y1188746D01*
X3432042Y1189222D01*
X3430900Y1189698D01*
X3428425Y1190555D01*
X3428234Y1190650D01*
X3427854Y1190746D01*
X3427187Y1190936D01*
X3426330Y1191126D01*
X3425283Y1191317D01*
X3424141Y1191412D01*
X3422903Y1191602D01*
X3420809D01*
X3419857Y1191507D01*
X3418714Y1191412D01*
X3417477Y1191222D01*
X3416144Y1190841D01*
X3414906Y1190460D01*
X3413859Y1189889D01*
X3413764Y1189794D01*
X3413478Y1189603D01*
X3413002Y1189127D01*
X3412622Y1188556D01*
X3412146Y1187890D01*
X3411670Y1186938D01*
X3411384Y1185890D01*
X3411289Y1184653D01*
Y1184558D01*
Y1184177D01*
X3411384Y1183606D01*
X3411574Y1182939D01*
X3411765Y1182178D01*
X3412050Y1181321D01*
X3412526Y1180654D01*
X3413193Y1179988D01*
X3413288Y1179893D01*
X3413574Y1179702D01*
X3414240Y1179417D01*
X3415097Y1179036D01*
X3415668Y1178846D01*
X3416334Y1178560D01*
X3417096Y1178370D01*
X3418048Y1178084D01*
X3419000Y1177798D01*
X3420142Y1177513D01*
X3421380Y1177227D01*
X3422713Y1176942D01*
X3425854Y1176370D01*
X3425950D01*
X3426140Y1176275D01*
X3426426D01*
X3426806Y1176180D01*
X3427854Y1175894D01*
X3429091Y1175418D01*
X3430519Y1174847D01*
X3431947Y1174086D01*
X3433280Y1173134D01*
X3434518Y1171991D01*
X3434613Y1171801D01*
X3434994Y1171420D01*
X3435470Y1170658D01*
X3436041Y1169706D01*
X3436612Y1168469D01*
X3437088Y1167041D01*
X3437469Y1165422D01*
X3437564Y1163518D01*
Y1163423D01*
Y1163233D01*
Y1162852D01*
X3437469Y1162376D01*
X3437374Y1161805D01*
X3437278Y1161138D01*
X3436993Y1159520D01*
X3436326Y1157806D01*
X3435470Y1155998D01*
X3434898Y1155141D01*
X3434232Y1154284D01*
X3433470Y1153427D01*
X3432614Y1152666D01*
X3432518D01*
X3432423Y1152475D01*
X3432138Y1152285D01*
X3431662Y1152094D01*
X3431186Y1151809D01*
X3430614Y1151428D01*
X3429853Y1151047D01*
X3428996Y1150762D01*
X3428139Y1150381D01*
X3427092Y1150000D01*
X3425950Y1149714D01*
X3424712Y1149334D01*
X3423379Y1149143D01*
X3421951Y1148953D01*
X3418810Y1148762D01*
X3417477D01*
X3416620Y1148858D01*
X3415478Y1148953D01*
X3414240Y1149048D01*
X3412907Y1149238D01*
X3411479Y1149524D01*
X3411289D01*
X3410813Y1149619D01*
X3410051Y1149810D01*
X3409004Y1150095D01*
X3407766Y1150381D01*
X3406434Y1150762D01*
X3404910Y1151142D01*
X3403292Y1151714D01*
Y1159710D01*
X3403387D01*
X3403482Y1159615D01*
X3404054Y1159330D01*
X3404815Y1158949D01*
X3405958Y1158473D01*
X3407195Y1157902D01*
X3408528Y1157330D01*
X3410051Y1156759D01*
X3411479Y1156283D01*
X3411670D01*
X3412146Y1156093D01*
X3412907Y1155998D01*
X3413954Y1155807D01*
X3415097Y1155617D01*
X3416334Y1155426D01*
X3417667Y1155331D01*
X3419000Y1155236D01*
X3419857D01*
X3420714Y1155331D01*
X3421856Y1155522D01*
X3423189Y1155712D01*
X3424426Y1156093D01*
X3425759Y1156569D01*
X3426902Y1157235D01*
X3426997Y1157330D01*
X3427378Y1157616D01*
X3427854Y1158092D01*
X3428330Y1158758D01*
X3428901Y1159615D01*
X3429282Y1160567D01*
X3429662Y1161710D01*
X3429758Y1163042D01*
Y1163138D01*
Y1163328D01*
X3429662Y1163518D01*
X3429567Y1163899D01*
X3429186Y1164851D01*
X3428901Y1165422D01*
X3428520Y1165994D01*
X3427949Y1166660D01*
X3427282Y1167231D01*
X3426426Y1167898D01*
X3425378Y1168469D01*
X3424236Y1169040D01*
X3422903Y1169611D01*
X3421285Y1170087D01*
X3419476Y1170468D01*
X3419095Y1170563D01*
X3416239Y1171134D01*
X3416144D01*
X3415954Y1171230D01*
X3415573Y1171325D01*
X3415192Y1171420D01*
X3414621Y1171515D01*
X3413954Y1171706D01*
X3412526Y1172182D01*
X3410908Y1172753D01*
X3409290Y1173514D01*
X3407862Y1174466D01*
X3406529Y1175514D01*
X3406434Y1175704D01*
X3406053Y1176085D01*
X3405577Y1176751D01*
X3405006Y1177798D01*
X3404434Y1178941D01*
X3403958Y1180464D01*
X3403578Y1182082D01*
X3403482Y1183986D01*
Y1184082D01*
Y1184272D01*
Y1184653D01*
X3403578Y1185129D01*
Y1185605D01*
X3403768Y1186271D01*
X3404054Y1187794D01*
X3404625Y1189413D01*
X3405386Y1191222D01*
X3406529Y1192840D01*
X3407290Y1193602D01*
X3408052Y1194363D01*
X3408147D01*
X3408242Y1194554D01*
X3408528Y1194744D01*
X3408909Y1194934D01*
X3409385Y1195220D01*
X3409956Y1195506D01*
X3410622Y1195886D01*
X3411384Y1196267D01*
X3412241Y1196553D01*
X3413288Y1196934D01*
X3414335Y1197219D01*
X3415478Y1197505D01*
X3416715Y1197695D01*
X3418143Y1197886D01*
X3421094Y1198076D01*
X3422427D01*
X3423379Y1197981D01*
D02*
G37*
G36*
X3994008Y1181892D02*
X3983441D01*
Y1194554D01*
X3994008D01*
Y1181892D01*
D02*
G37*
G36*
X3597405Y1150000D02*
X3589598D01*
Y1205311D01*
X3578365Y1172277D01*
X3571986D01*
X3560848Y1205311D01*
Y1150000D01*
X3553042D01*
Y1212642D01*
X3564275D01*
X3575128Y1180654D01*
X3586076Y1212642D01*
X3597405D01*
Y1150000D01*
D02*
G37*
G36*
X3994008D02*
X3983441D01*
Y1162757D01*
X3994008D01*
Y1150000D01*
D02*
G37*
G36*
X3838356Y1155998D02*
X3853683D01*
Y1150000D01*
X3815318D01*
Y1155998D01*
X3830645D01*
Y1190936D01*
X3818650D01*
Y1196934D01*
X3838356D01*
Y1155998D01*
D02*
G37*
G36*
X3800847Y1208834D02*
X3791327D01*
X3790661Y1208738D01*
X3789709Y1208643D01*
X3788757Y1208453D01*
X3787900Y1208072D01*
X3786948Y1207691D01*
X3786282Y1207120D01*
X3786186Y1207025D01*
X3785996Y1206834D01*
X3785806Y1206358D01*
X3785520Y1205692D01*
X3785139Y1204835D01*
X3784949Y1203788D01*
X3784758Y1202550D01*
X3784663Y1201027D01*
Y1196934D01*
X3800847D01*
Y1190936D01*
X3784663D01*
Y1150000D01*
X3776952D01*
Y1190936D01*
X3764386D01*
Y1196934D01*
X3776952D01*
Y1200170D01*
Y1200266D01*
Y1200551D01*
Y1200932D01*
X3777047Y1201408D01*
Y1202074D01*
X3777142Y1202836D01*
X3777428Y1204454D01*
X3777809Y1206358D01*
X3778475Y1208167D01*
X3779332Y1209976D01*
X3779903Y1210738D01*
X3780474Y1211499D01*
X3780665Y1211690D01*
X3781141Y1212070D01*
X3781998Y1212642D01*
X3783140Y1213403D01*
X3784758Y1214070D01*
X3786662Y1214641D01*
X3788852Y1215022D01*
X3791518Y1215212D01*
X3800847D01*
Y1208834D01*
D02*
G37*
G36*
X3734969Y1155998D02*
X3750296D01*
Y1150000D01*
X3711930D01*
Y1155998D01*
X3727258D01*
Y1190936D01*
X3715262D01*
Y1196934D01*
X3734969D01*
Y1155998D01*
D02*
G37*
G36*
X3471741Y1196934D02*
X3489258D01*
Y1190936D01*
X3471741D01*
Y1165422D01*
Y1165327D01*
Y1165232D01*
Y1164946D01*
Y1164566D01*
X3471836Y1163709D01*
X3472026Y1162566D01*
X3472217Y1161424D01*
X3472502Y1160186D01*
X3472978Y1159139D01*
X3473645Y1158187D01*
X3473740Y1158092D01*
X3474026Y1157902D01*
X3474502Y1157521D01*
X3475263Y1157235D01*
X3476215Y1156854D01*
X3477358Y1156474D01*
X3478786Y1156283D01*
X3480499Y1156188D01*
X3489258D01*
Y1150000D01*
X3478881D01*
X3478310Y1150095D01*
X3477643D01*
X3476786Y1150190D01*
X3474978Y1150476D01*
X3472978Y1150857D01*
X3470979Y1151428D01*
X3469075Y1152285D01*
X3468314Y1152856D01*
X3467552Y1153427D01*
X3467362Y1153618D01*
X3466981Y1154094D01*
X3466410Y1154950D01*
X3466124Y1155617D01*
X3465838Y1156283D01*
X3465458Y1157045D01*
X3465172Y1157902D01*
X3464886Y1158854D01*
X3464601Y1159996D01*
X3464315Y1161138D01*
X3464220Y1162471D01*
X3464030Y1163899D01*
Y1165422D01*
Y1190936D01*
X3451463D01*
Y1196934D01*
X3464030D01*
Y1210262D01*
X3471741D01*
Y1196934D01*
D02*
G37*
G36*
X3369591Y1197981D02*
X3370924Y1197886D01*
X3372447Y1197600D01*
X3374161Y1197314D01*
X3375779Y1196838D01*
X3377398Y1196267D01*
X3377493D01*
X3377588Y1196172D01*
X3378064Y1195982D01*
X3378826Y1195506D01*
X3379778Y1195030D01*
X3380920Y1194268D01*
X3382062Y1193411D01*
X3383110Y1192364D01*
X3384157Y1191126D01*
X3384252Y1191031D01*
X3384442Y1190746D01*
X3384633Y1190270D01*
X3385014Y1189698D01*
X3385394Y1188937D01*
X3385680Y1188080D01*
X3386061Y1187128D01*
X3386346Y1185986D01*
Y1185890D01*
X3386442Y1185414D01*
X3386632Y1184653D01*
X3386727Y1183701D01*
X3386918Y1182368D01*
X3387013Y1180845D01*
X3387108Y1178941D01*
Y1176751D01*
Y1150000D01*
X3379397D01*
Y1156950D01*
X3379302Y1156759D01*
X3378921Y1156283D01*
X3378350Y1155522D01*
X3377683Y1154570D01*
X3376731Y1153522D01*
X3375589Y1152475D01*
X3374351Y1151523D01*
X3373018Y1150666D01*
X3372828Y1150571D01*
X3372352Y1150381D01*
X3371590Y1150095D01*
X3370543Y1149714D01*
X3369210Y1149334D01*
X3367687Y1149048D01*
X3365878Y1148858D01*
X3363974Y1148762D01*
X3363308D01*
X3362832Y1148858D01*
X3362166D01*
X3361499Y1148953D01*
X3359881Y1149238D01*
X3358072Y1149714D01*
X3356168Y1150476D01*
X3354264Y1151428D01*
X3352550Y1152761D01*
Y1152856D01*
X3352360Y1152951D01*
X3351884Y1153522D01*
X3351218Y1154379D01*
X3350456Y1155617D01*
X3349599Y1157140D01*
X3348933Y1159044D01*
X3348457Y1161138D01*
X3348362Y1162376D01*
X3348266Y1163614D01*
Y1163709D01*
Y1163994D01*
Y1164375D01*
X3348362Y1164946D01*
X3348457Y1165518D01*
X3348552Y1166279D01*
X3348933Y1167993D01*
X3349504Y1169992D01*
X3350456Y1171896D01*
X3351122Y1172943D01*
X3351789Y1173800D01*
X3352550Y1174752D01*
X3353502Y1175514D01*
X3353598Y1175609D01*
X3353788Y1175704D01*
X3354074Y1175894D01*
X3354454Y1176180D01*
X3355026Y1176466D01*
X3355692Y1176846D01*
X3356454Y1177227D01*
X3357406Y1177608D01*
X3358453Y1177989D01*
X3359595Y1178274D01*
X3360833Y1178655D01*
X3362261Y1178941D01*
X3363689Y1179226D01*
X3365307Y1179417D01*
X3367116Y1179607D01*
X3379397D01*
Y1180750D01*
Y1180845D01*
Y1181035D01*
Y1181321D01*
X3379302Y1181702D01*
X3379206Y1182654D01*
X3379016Y1183891D01*
X3378635Y1185224D01*
X3378159Y1186557D01*
X3377398Y1187890D01*
X3376446Y1188937D01*
X3376350Y1189032D01*
X3375874Y1189318D01*
X3375208Y1189794D01*
X3374256Y1190270D01*
X3373018Y1190650D01*
X3371495Y1191126D01*
X3369686Y1191412D01*
X3367497Y1191507D01*
X3366830D01*
X3366069Y1191412D01*
X3365022D01*
X3363784Y1191222D01*
X3362451Y1191031D01*
X3361023Y1190746D01*
X3359500Y1190365D01*
X3359310Y1190270D01*
X3358834Y1190174D01*
X3358072Y1189889D01*
X3357025Y1189508D01*
X3355882Y1189032D01*
X3354550Y1188461D01*
X3353122Y1187794D01*
X3351694Y1187033D01*
Y1194744D01*
X3351789D01*
X3351884Y1194839D01*
X3352455Y1195030D01*
X3353217Y1195315D01*
X3354264Y1195696D01*
X3355502Y1196077D01*
X3356834Y1196458D01*
X3359786Y1197219D01*
X3359976D01*
X3360452Y1197314D01*
X3361214Y1197505D01*
X3362261Y1197695D01*
X3363403Y1197790D01*
X3364736Y1197981D01*
X3367497Y1198076D01*
X3368449D01*
X3369591Y1197981D01*
D02*
G37*
G36*
X3308473Y1157140D02*
X3338746D01*
Y1150000D01*
X3300000D01*
Y1212642D01*
X3308473D01*
Y1157140D01*
D02*
G37*
G36*
X3888336Y1197981D02*
X3889098Y1197886D01*
X3889954Y1197790D01*
X3890906Y1197600D01*
X3891954Y1197314D01*
X3894238Y1196553D01*
X3895476Y1196077D01*
X3896618Y1195506D01*
X3897761Y1194839D01*
X3898903Y1193982D01*
X3899950Y1193030D01*
X3900998Y1191983D01*
X3901093Y1191888D01*
X3901188Y1191698D01*
X3901474Y1191317D01*
X3901854Y1190841D01*
X3902235Y1190270D01*
X3902616Y1189508D01*
X3903092Y1188651D01*
X3903663Y1187604D01*
X3904139Y1186462D01*
X3904615Y1185224D01*
X3904996Y1183891D01*
X3905377Y1182368D01*
X3905758Y1180750D01*
X3906043Y1179036D01*
X3906138Y1177227D01*
X3906234Y1175323D01*
Y1171610D01*
X3872723D01*
Y1171325D01*
Y1171230D01*
Y1170944D01*
Y1170563D01*
X3872818Y1170087D01*
Y1169421D01*
X3872914Y1168659D01*
X3873199Y1166946D01*
X3873675Y1165042D01*
X3874437Y1163042D01*
X3875389Y1161138D01*
X3876722Y1159425D01*
X3876817D01*
X3876912Y1159234D01*
X3877483Y1158758D01*
X3878435Y1158092D01*
X3879673Y1157426D01*
X3881291Y1156664D01*
X3883195Y1155998D01*
X3885480Y1155522D01*
X3886718Y1155426D01*
X3888050Y1155331D01*
X3888717D01*
X3889478Y1155426D01*
X3890430Y1155522D01*
X3891573Y1155617D01*
X3892906Y1155807D01*
X3894238Y1156093D01*
X3895762Y1156474D01*
X3895952Y1156569D01*
X3896428Y1156664D01*
X3897285Y1156950D01*
X3898332Y1157330D01*
X3899665Y1157902D01*
X3901093Y1158473D01*
X3902711Y1159234D01*
X3904425Y1160091D01*
Y1152380D01*
X3904330D01*
X3904234Y1152285D01*
X3903663Y1152094D01*
X3902806Y1151809D01*
X3901664Y1151333D01*
X3900331Y1150952D01*
X3898903Y1150476D01*
X3895857Y1149714D01*
X3895666D01*
X3895190Y1149524D01*
X3894334Y1149429D01*
X3893382Y1149238D01*
X3892144Y1149048D01*
X3890811Y1148953D01*
X3887955Y1148762D01*
X3886908D01*
X3886146Y1148858D01*
X3885194Y1148953D01*
X3884147Y1149143D01*
X3883005Y1149334D01*
X3881672Y1149619D01*
X3879006Y1150381D01*
X3877578Y1150857D01*
X3876150Y1151523D01*
X3874722Y1152285D01*
X3873294Y1153142D01*
X3872057Y1154094D01*
X3870819Y1155236D01*
X3870724Y1155331D01*
X3870534Y1155522D01*
X3870248Y1155902D01*
X3869867Y1156474D01*
X3869391Y1157140D01*
X3868915Y1157902D01*
X3868344Y1158854D01*
X3867773Y1159996D01*
X3867202Y1161234D01*
X3866630Y1162566D01*
X3866154Y1164090D01*
X3865678Y1165708D01*
X3865298Y1167422D01*
X3865012Y1169326D01*
X3864822Y1171325D01*
X3864726Y1173419D01*
Y1173514D01*
Y1173895D01*
Y1174466D01*
X3864822Y1175323D01*
X3864917Y1176275D01*
X3865012Y1177322D01*
X3865202Y1178560D01*
X3865488Y1179893D01*
X3866154Y1182749D01*
X3866726Y1184177D01*
X3867297Y1185700D01*
X3867963Y1187223D01*
X3868725Y1188651D01*
X3869677Y1189984D01*
X3870724Y1191317D01*
X3870819Y1191412D01*
X3871010Y1191602D01*
X3871390Y1191983D01*
X3871866Y1192364D01*
X3872438Y1192840D01*
X3873199Y1193411D01*
X3874056Y1194078D01*
X3875008Y1194744D01*
X3876055Y1195315D01*
X3877293Y1195982D01*
X3878626Y1196553D01*
X3880054Y1197029D01*
X3881577Y1197410D01*
X3883195Y1197790D01*
X3885004Y1197981D01*
X3886813Y1198076D01*
X3887670D01*
X3888336Y1197981D01*
D02*
G37*
G36*
X3628440D02*
X3629297Y1197886D01*
X3630154Y1197695D01*
X3631201Y1197505D01*
X3632343Y1197314D01*
X3634818Y1196553D01*
X3636056Y1195982D01*
X3637294Y1195410D01*
X3638436Y1194649D01*
X3639674Y1193792D01*
X3640721Y1192840D01*
X3641768Y1191698D01*
X3641863Y1191602D01*
X3641958Y1191412D01*
X3642244Y1191031D01*
X3642625Y1190555D01*
X3643006Y1189889D01*
X3643386Y1189032D01*
X3643862Y1188080D01*
X3644434Y1187033D01*
X3644910Y1185795D01*
X3645386Y1184462D01*
X3645766Y1182939D01*
X3646147Y1181321D01*
X3646528Y1179512D01*
X3646814Y1177608D01*
X3646909Y1175609D01*
X3647004Y1173419D01*
Y1173324D01*
Y1172848D01*
Y1172277D01*
X3646909Y1171420D01*
X3646814Y1170468D01*
X3646718Y1169230D01*
X3646528Y1167993D01*
X3646338Y1166565D01*
X3645766Y1163614D01*
X3644814Y1160567D01*
X3644243Y1159044D01*
X3643482Y1157616D01*
X3642720Y1156283D01*
X3641768Y1155046D01*
X3641673Y1154950D01*
X3641578Y1154760D01*
X3641197Y1154474D01*
X3640816Y1154094D01*
X3640245Y1153618D01*
X3639674Y1153046D01*
X3638817Y1152475D01*
X3637960Y1151904D01*
X3637008Y1151333D01*
X3635866Y1150762D01*
X3634628Y1150190D01*
X3633295Y1149714D01*
X3631867Y1149334D01*
X3630249Y1149048D01*
X3628630Y1148858D01*
X3626822Y1148762D01*
X3625870D01*
X3625203Y1148858D01*
X3624442Y1148953D01*
X3623490Y1149143D01*
X3622442Y1149334D01*
X3621300Y1149524D01*
X3618920Y1150286D01*
X3617682Y1150762D01*
X3616445Y1151428D01*
X3615207Y1152094D01*
X3614065Y1152951D01*
X3613018Y1153903D01*
X3611970Y1155046D01*
X3611875Y1155141D01*
X3611780Y1155331D01*
X3611494Y1155712D01*
X3611209Y1156188D01*
X3610828Y1156854D01*
X3610352Y1157711D01*
X3609876Y1158663D01*
X3609400Y1159710D01*
X3608924Y1160948D01*
X3608448Y1162281D01*
X3608067Y1163804D01*
X3607591Y1165422D01*
X3607306Y1167231D01*
X3607020Y1169135D01*
X3606925Y1171230D01*
X3606830Y1173419D01*
Y1173514D01*
Y1173990D01*
Y1174562D01*
X3606925Y1175418D01*
X3607020Y1176370D01*
X3607115Y1177513D01*
X3607306Y1178750D01*
X3607496Y1180178D01*
X3608067Y1183130D01*
X3609019Y1186176D01*
X3609590Y1187604D01*
X3610257Y1189127D01*
X3611114Y1190460D01*
X3611970Y1191698D01*
X3612066Y1191793D01*
X3612256Y1191983D01*
X3612542Y1192269D01*
X3612922Y1192745D01*
X3613494Y1193221D01*
X3614065Y1193697D01*
X3614922Y1194268D01*
X3615778Y1194934D01*
X3616730Y1195506D01*
X3617873Y1196077D01*
X3619110Y1196553D01*
X3620443Y1197124D01*
X3621871Y1197505D01*
X3623394Y1197790D01*
X3625013Y1197981D01*
X3626822Y1198076D01*
X3627774D01*
X3628440Y1197981D01*
D02*
G37*
G36*
X3326656Y1415117D02*
X3327418D01*
X3329131Y1414926D01*
X3331035Y1414641D01*
X3333130Y1414165D01*
X3335319Y1413594D01*
X3337414Y1412832D01*
X3337509D01*
X3337699Y1412737D01*
X3337985Y1412642D01*
X3338366Y1412451D01*
X3339318Y1411880D01*
X3340555Y1411118D01*
X3341888Y1410166D01*
X3343316Y1409024D01*
X3344649Y1407691D01*
X3345791Y1406073D01*
X3345886Y1405882D01*
X3346267Y1405311D01*
X3346743Y1404359D01*
X3347314Y1403217D01*
X3347886Y1401694D01*
X3348362Y1399980D01*
X3348838Y1398076D01*
X3349028Y1396077D01*
X3340936Y1395506D01*
Y1395601D01*
Y1395791D01*
X3340841Y1396077D01*
X3340746Y1396458D01*
X3340555Y1397600D01*
X3340174Y1398933D01*
X3339508Y1400361D01*
X3338746Y1401884D01*
X3337794Y1403312D01*
X3336462Y1404550D01*
X3336271Y1404645D01*
X3335795Y1405026D01*
X3334843Y1405502D01*
X3333606Y1406168D01*
X3332082Y1406739D01*
X3330083Y1407215D01*
X3327798Y1407596D01*
X3325228Y1407691D01*
X3323990D01*
X3323324Y1407596D01*
X3322658Y1407501D01*
X3320944Y1407310D01*
X3319135Y1407025D01*
X3317326Y1406454D01*
X3315613Y1405787D01*
X3314756Y1405311D01*
X3314090Y1404835D01*
X3313899Y1404740D01*
X3313518Y1404359D01*
X3312947Y1403693D01*
X3312376Y1402931D01*
X3311710Y1401884D01*
X3311138Y1400742D01*
X3310758Y1399409D01*
X3310567Y1397981D01*
Y1397790D01*
Y1397410D01*
X3310662Y1396743D01*
X3310853Y1395982D01*
X3311138Y1395125D01*
X3311614Y1394173D01*
X3312186Y1393221D01*
X3313042Y1392364D01*
X3313138Y1392269D01*
X3313614Y1391983D01*
X3313899Y1391793D01*
X3314375Y1391507D01*
X3314851Y1391222D01*
X3315518Y1390936D01*
X3316279Y1390555D01*
X3317231Y1390270D01*
X3318278Y1389794D01*
X3319421Y1389413D01*
X3320754Y1389032D01*
X3322277Y1388556D01*
X3323990Y1388175D01*
X3325799Y1387699D01*
X3325894D01*
X3326275Y1387604D01*
X3326751Y1387509D01*
X3327513Y1387318D01*
X3328370Y1387128D01*
X3329322Y1386842D01*
X3331511Y1386366D01*
X3333796Y1385700D01*
X3336176Y1385034D01*
X3337223Y1384748D01*
X3338270Y1384367D01*
X3339222Y1383986D01*
X3339984Y1383701D01*
X3340079D01*
X3340270Y1383606D01*
X3340555Y1383415D01*
X3340936Y1383225D01*
X3341888Y1382654D01*
X3343126Y1381892D01*
X3344458Y1380940D01*
X3345886Y1379893D01*
X3347124Y1378560D01*
X3348266Y1377132D01*
X3348362Y1376942D01*
X3348647Y1376466D01*
X3349123Y1375609D01*
X3349599Y1374562D01*
X3350075Y1373229D01*
X3350551Y1371706D01*
X3350837Y1369992D01*
X3350932Y1368088D01*
Y1367993D01*
Y1367898D01*
Y1367612D01*
Y1367231D01*
X3350742Y1366184D01*
X3350551Y1364946D01*
X3350170Y1363423D01*
X3349694Y1361805D01*
X3348933Y1360091D01*
X3347981Y1358378D01*
Y1358282D01*
X3347886Y1358187D01*
X3347410Y1357616D01*
X3346743Y1356854D01*
X3345791Y1355807D01*
X3344649Y1354760D01*
X3343126Y1353522D01*
X3341507Y1352475D01*
X3339508Y1351428D01*
X3339413D01*
X3339222Y1351333D01*
X3338937Y1351238D01*
X3338556Y1351047D01*
X3338080Y1350857D01*
X3337414Y1350666D01*
X3335986Y1350190D01*
X3334082Y1349714D01*
X3332082Y1349334D01*
X3329702Y1349048D01*
X3327227Y1348953D01*
X3325799D01*
X3325038Y1349048D01*
X3324181D01*
X3323229Y1349143D01*
X3322182Y1349238D01*
X3319897Y1349524D01*
X3317422Y1350000D01*
X3314946Y1350571D01*
X3312662Y1351428D01*
X3312566D01*
X3312376Y1351523D01*
X3312090Y1351714D01*
X3311710Y1351904D01*
X3310662Y1352475D01*
X3309330Y1353332D01*
X3307806Y1354379D01*
X3306283Y1355712D01*
X3304760Y1357235D01*
X3303427Y1359044D01*
Y1359139D01*
X3303332Y1359234D01*
X3303142Y1359520D01*
X3302951Y1359996D01*
X3302666Y1360472D01*
X3302380Y1361043D01*
X3301714Y1362471D01*
X3301142Y1364185D01*
X3300571Y1366089D01*
X3300190Y1368278D01*
X3300000Y1370658D01*
X3307997Y1371325D01*
Y1371230D01*
Y1371134D01*
X3308092Y1370563D01*
X3308282Y1369611D01*
X3308473Y1368469D01*
X3308854Y1367231D01*
X3309330Y1365898D01*
X3309901Y1364566D01*
X3310567Y1363328D01*
X3310662Y1363233D01*
X3310948Y1362852D01*
X3311424Y1362281D01*
X3312186Y1361614D01*
X3313042Y1360758D01*
X3314185Y1359996D01*
X3315518Y1359139D01*
X3317041Y1358378D01*
X3317136D01*
X3317231Y1358282D01*
X3317802Y1358092D01*
X3318754Y1357806D01*
X3319897Y1357426D01*
X3321325Y1357045D01*
X3323038Y1356759D01*
X3324847Y1356569D01*
X3326846Y1356474D01*
X3327703D01*
X3328560Y1356569D01*
X3329702Y1356664D01*
X3331035Y1356854D01*
X3332463Y1357045D01*
X3333891Y1357426D01*
X3335319Y1357902D01*
X3335510Y1357997D01*
X3335890Y1358187D01*
X3336557Y1358473D01*
X3337414Y1358949D01*
X3338270Y1359520D01*
X3339222Y1360186D01*
X3340079Y1360948D01*
X3340841Y1361805D01*
X3340936Y1361900D01*
X3341126Y1362281D01*
X3341412Y1362757D01*
X3341793Y1363423D01*
X3342174Y1364280D01*
X3342459Y1365232D01*
X3342650Y1366279D01*
X3342745Y1367326D01*
Y1367422D01*
Y1367802D01*
X3342650Y1368374D01*
X3342554Y1369135D01*
X3342364Y1369992D01*
X3341983Y1370849D01*
X3341602Y1371706D01*
X3341031Y1372562D01*
X3340936Y1372658D01*
X3340746Y1372943D01*
X3340270Y1373324D01*
X3339698Y1373895D01*
X3338842Y1374466D01*
X3337890Y1375133D01*
X3336652Y1375799D01*
X3335224Y1376370D01*
X3335129Y1376466D01*
X3334653Y1376561D01*
X3333986Y1376846D01*
X3333415Y1376942D01*
X3332844Y1377132D01*
X3332082Y1377322D01*
X3331321Y1377608D01*
X3330369Y1377894D01*
X3329322Y1378179D01*
X3328179Y1378465D01*
X3326846Y1378750D01*
X3325418Y1379131D01*
X3323800Y1379512D01*
X3323705D01*
X3323419Y1379607D01*
X3322943Y1379702D01*
X3322372Y1379893D01*
X3321610Y1380083D01*
X3320849Y1380274D01*
X3318945Y1380845D01*
X3316850Y1381416D01*
X3314851Y1382082D01*
X3312947Y1382749D01*
X3312186Y1383130D01*
X3311424Y1383510D01*
X3311329D01*
X3311234Y1383606D01*
X3310662Y1383986D01*
X3309901Y1384462D01*
X3308854Y1385129D01*
X3307711Y1385986D01*
X3306569Y1387033D01*
X3305522Y1388175D01*
X3304570Y1389413D01*
X3304474Y1389603D01*
X3304189Y1390079D01*
X3303903Y1390841D01*
X3303522Y1391793D01*
X3303046Y1392935D01*
X3302761Y1394363D01*
X3302475Y1395886D01*
X3302380Y1397505D01*
Y1397600D01*
Y1397695D01*
Y1397981D01*
Y1398362D01*
X3302570Y1399218D01*
X3302761Y1400456D01*
X3303046Y1401884D01*
X3303522Y1403407D01*
X3304189Y1404930D01*
X3305046Y1406549D01*
Y1406644D01*
X3305141Y1406739D01*
X3305522Y1407215D01*
X3306188Y1407977D01*
X3307140Y1408929D01*
X3308282Y1409976D01*
X3309615Y1411118D01*
X3311234Y1412166D01*
X3313138Y1413022D01*
X3313233D01*
X3313423Y1413118D01*
X3313709Y1413213D01*
X3314090Y1413403D01*
X3314566Y1413498D01*
X3315137Y1413689D01*
X3316565Y1414165D01*
X3318374Y1414546D01*
X3320373Y1414831D01*
X3322562Y1415117D01*
X3324847Y1415212D01*
X3326085D01*
X3326656Y1415117D01*
D02*
G37*
G36*
X3391868D02*
X3392725Y1415022D01*
X3393677Y1414926D01*
X3394724Y1414831D01*
X3395962Y1414641D01*
X3398437Y1413974D01*
X3401198Y1413118D01*
X3402530Y1412546D01*
X3403863Y1411880D01*
X3405196Y1411118D01*
X3406434Y1410262D01*
X3406529Y1410166D01*
X3406719Y1410071D01*
X3407100Y1409786D01*
X3407481Y1409405D01*
X3408052Y1408834D01*
X3408623Y1408262D01*
X3409290Y1407501D01*
X3410051Y1406739D01*
X3410813Y1405787D01*
X3411574Y1404740D01*
X3412336Y1403693D01*
X3413098Y1402455D01*
X3413859Y1401122D01*
X3414526Y1399694D01*
X3415097Y1398171D01*
X3415668Y1396553D01*
X3407290Y1394554D01*
Y1394649D01*
X3407195Y1394839D01*
X3407100Y1395220D01*
X3406910Y1395696D01*
X3406624Y1396267D01*
X3406338Y1396934D01*
X3405577Y1398457D01*
X3404720Y1400075D01*
X3403578Y1401789D01*
X3402245Y1403407D01*
X3400722Y1404740D01*
X3400531Y1404835D01*
X3399960Y1405216D01*
X3399103Y1405787D01*
X3397866Y1406358D01*
X3396342Y1406930D01*
X3394534Y1407501D01*
X3392439Y1407882D01*
X3390154Y1407977D01*
X3389393D01*
X3388917Y1407882D01*
X3388250D01*
X3387584Y1407786D01*
X3385870Y1407501D01*
X3383871Y1407120D01*
X3381777Y1406454D01*
X3379778Y1405597D01*
X3377778Y1404359D01*
X3377683D01*
X3377588Y1404169D01*
X3377017Y1403693D01*
X3376065Y1402931D01*
X3375018Y1401884D01*
X3373875Y1400456D01*
X3372733Y1398838D01*
X3371686Y1396934D01*
X3370829Y1394839D01*
Y1394744D01*
X3370734Y1394554D01*
X3370638Y1394268D01*
X3370543Y1393792D01*
X3370353Y1393316D01*
X3370162Y1392650D01*
X3369877Y1391126D01*
X3369496Y1389222D01*
X3369115Y1387128D01*
X3368925Y1384938D01*
X3368830Y1382558D01*
Y1382463D01*
Y1382178D01*
Y1381797D01*
Y1381226D01*
X3368925Y1380464D01*
Y1379607D01*
X3369020Y1378750D01*
X3369115Y1377703D01*
X3369401Y1375514D01*
X3369877Y1373038D01*
X3370448Y1370658D01*
X3371210Y1368278D01*
Y1368183D01*
X3371305Y1367993D01*
X3371495Y1367707D01*
X3371686Y1367326D01*
X3372257Y1366184D01*
X3373018Y1364851D01*
X3374066Y1363328D01*
X3375303Y1361900D01*
X3376826Y1360377D01*
X3378540Y1359139D01*
X3378635D01*
X3378730Y1359044D01*
X3379016Y1358854D01*
X3379397Y1358663D01*
X3380444Y1358187D01*
X3381777Y1357711D01*
X3383395Y1357140D01*
X3385299Y1356664D01*
X3387298Y1356283D01*
X3389488Y1356188D01*
X3390154D01*
X3390630Y1356283D01*
X3391297D01*
X3391963Y1356378D01*
X3393677Y1356664D01*
X3395486Y1357235D01*
X3397485Y1357902D01*
X3399579Y1358949D01*
X3400531Y1359520D01*
X3401483Y1360282D01*
X3401578Y1360377D01*
X3401674Y1360472D01*
X3401959Y1360758D01*
X3402245Y1361043D01*
X3402721Y1361519D01*
X3403102Y1361995D01*
X3404149Y1363328D01*
X3405291Y1365042D01*
X3406434Y1367136D01*
X3407481Y1369611D01*
X3408242Y1372467D01*
X3416715Y1370278D01*
Y1370182D01*
X3416620Y1369802D01*
X3416430Y1369326D01*
X3416239Y1368564D01*
X3415858Y1367707D01*
X3415478Y1366660D01*
X3415097Y1365613D01*
X3414526Y1364375D01*
X3413193Y1361805D01*
X3411574Y1359234D01*
X3410527Y1357902D01*
X3409480Y1356664D01*
X3408338Y1355426D01*
X3407100Y1354379D01*
X3407005Y1354284D01*
X3406814Y1354189D01*
X3406434Y1353903D01*
X3405862Y1353522D01*
X3405196Y1353142D01*
X3404339Y1352666D01*
X3403482Y1352190D01*
X3402340Y1351714D01*
X3401198Y1351142D01*
X3399865Y1350666D01*
X3398532Y1350190D01*
X3397009Y1349810D01*
X3395390Y1349429D01*
X3393772Y1349143D01*
X3391963Y1349048D01*
X3390154Y1348953D01*
X3389202D01*
X3388441Y1349048D01*
X3387584D01*
X3386537Y1349143D01*
X3385394Y1349334D01*
X3384157Y1349524D01*
X3381491Y1350000D01*
X3378635Y1350762D01*
X3375874Y1351809D01*
X3374542Y1352380D01*
X3373304Y1353142D01*
X3373209Y1353237D01*
X3373018Y1353332D01*
X3372733Y1353618D01*
X3372257Y1353903D01*
X3371686Y1354379D01*
X3371114Y1354855D01*
X3369686Y1356283D01*
X3368068Y1357997D01*
X3366354Y1360091D01*
X3364831Y1362471D01*
X3363403Y1365327D01*
Y1365422D01*
X3363308Y1365708D01*
X3363118Y1366089D01*
X3362927Y1366755D01*
X3362642Y1367422D01*
X3362356Y1368374D01*
X3362070Y1369326D01*
X3361785Y1370468D01*
X3361404Y1371706D01*
X3361118Y1373038D01*
X3360642Y1375990D01*
X3360262Y1379131D01*
X3360071Y1382558D01*
Y1382654D01*
Y1383034D01*
Y1383510D01*
X3360166Y1384272D01*
Y1385129D01*
X3360262Y1386081D01*
X3360357Y1387223D01*
X3360547Y1388461D01*
X3361023Y1391222D01*
X3361690Y1394173D01*
X3362642Y1397124D01*
X3363879Y1399980D01*
Y1400075D01*
X3364070Y1400266D01*
X3364260Y1400646D01*
X3364546Y1401218D01*
X3365022Y1401789D01*
X3365498Y1402550D01*
X3366640Y1404169D01*
X3368163Y1405978D01*
X3370067Y1407882D01*
X3372257Y1409690D01*
X3374732Y1411309D01*
X3374827D01*
X3375018Y1411499D01*
X3375398Y1411690D01*
X3375970Y1411880D01*
X3376636Y1412261D01*
X3377398Y1412546D01*
X3378350Y1412927D01*
X3379302Y1413308D01*
X3380444Y1413594D01*
X3381586Y1413974D01*
X3384252Y1414641D01*
X3387108Y1415022D01*
X3390250Y1415212D01*
X3391202D01*
X3391868Y1415117D01*
D02*
G37*
G36*
X3606449Y1387509D02*
X3597500D01*
Y1396458D01*
X3606449D01*
Y1387509D01*
D02*
G37*
G36*
X3705933Y1350000D02*
X3696984D01*
Y1358949D01*
X3705933D01*
Y1350000D01*
D02*
G37*
G36*
X3672422D02*
X3664521D01*
Y1399980D01*
X3664426Y1399885D01*
X3664045Y1399504D01*
X3663378Y1399028D01*
X3662522Y1398266D01*
X3661474Y1397505D01*
X3660142Y1396553D01*
X3658618Y1395601D01*
X3657000Y1394554D01*
X3656905D01*
X3656810Y1394458D01*
X3656238Y1394078D01*
X3655382Y1393602D01*
X3654239Y1393030D01*
X3653002Y1392364D01*
X3651669Y1391793D01*
X3650241Y1391126D01*
X3648813Y1390555D01*
Y1398171D01*
X3648908D01*
X3649098Y1398266D01*
X3649479Y1398457D01*
X3649955Y1398742D01*
X3650526Y1399028D01*
X3651193Y1399409D01*
X3652716Y1400266D01*
X3654525Y1401313D01*
X3656429Y1402550D01*
X3658333Y1403978D01*
X3660237Y1405597D01*
X3660332Y1405692D01*
X3660427Y1405787D01*
X3661094Y1406358D01*
X3661950Y1407215D01*
X3662998Y1408358D01*
X3664140Y1409690D01*
X3665282Y1411118D01*
X3666425Y1412642D01*
X3667282Y1414260D01*
X3672422D01*
Y1350000D01*
D02*
G37*
G36*
X3606449D02*
X3597500D01*
Y1358949D01*
X3606449D01*
Y1350000D01*
D02*
G37*
G36*
X3583125Y1406549D02*
X3545235D01*
Y1386938D01*
X3580745D01*
Y1379417D01*
X3545235D01*
Y1357521D01*
X3584648D01*
Y1350000D01*
X3536762D01*
Y1414070D01*
X3583125D01*
Y1406549D01*
D02*
G37*
G36*
X3494970Y1357521D02*
X3526481D01*
Y1350000D01*
X3486497D01*
Y1414070D01*
X3494970D01*
Y1357521D01*
D02*
G37*
G36*
X3479928Y1350000D02*
X3470313D01*
X3462887Y1369421D01*
X3436041D01*
X3429091Y1350000D01*
X3420142D01*
X3444514Y1414070D01*
X3453843D01*
X3479928Y1350000D01*
D02*
G37*
G36*
X3789899Y1414165D02*
X3791137Y1413974D01*
X3792565Y1413784D01*
X3794088Y1413403D01*
X3795611Y1412832D01*
X3797134Y1412166D01*
X3797325Y1412070D01*
X3797801Y1411785D01*
X3798467Y1411309D01*
X3799419Y1410642D01*
X3800371Y1409786D01*
X3801514Y1408738D01*
X3802561Y1407596D01*
X3803513Y1406168D01*
X3803608Y1405978D01*
X3803894Y1405502D01*
X3804370Y1404645D01*
X3804941Y1403502D01*
X3805607Y1402170D01*
X3806274Y1400551D01*
X3806940Y1398647D01*
X3807511Y1396648D01*
Y1396553D01*
X3807606Y1396362D01*
X3807702Y1396077D01*
X3807797Y1395601D01*
X3807892Y1395030D01*
X3807987Y1394363D01*
X3808178Y1393602D01*
X3808273Y1392650D01*
X3808463Y1391602D01*
X3808558Y1390460D01*
X3808654Y1389222D01*
X3808844Y1387890D01*
X3808939Y1386462D01*
Y1384938D01*
X3809034Y1383225D01*
Y1381511D01*
Y1381416D01*
Y1381035D01*
Y1380464D01*
Y1379607D01*
X3808939Y1378655D01*
Y1377608D01*
X3808844Y1376370D01*
X3808749Y1375038D01*
X3808463Y1372182D01*
X3807987Y1369135D01*
X3807416Y1366089D01*
X3807035Y1364661D01*
X3806654Y1363328D01*
Y1363233D01*
X3806559Y1363042D01*
X3806369Y1362662D01*
X3806274Y1362186D01*
X3805988Y1361614D01*
X3805702Y1360948D01*
X3804941Y1359425D01*
X3803989Y1357711D01*
X3802751Y1355902D01*
X3801323Y1354189D01*
X3799705Y1352666D01*
X3799610D01*
X3799514Y1352475D01*
X3799229Y1352285D01*
X3798848Y1352094D01*
X3797896Y1351523D01*
X3796563Y1350857D01*
X3794850Y1350095D01*
X3792850Y1349524D01*
X3790661Y1349143D01*
X3788090Y1348953D01*
X3787234D01*
X3786567Y1349048D01*
X3785806Y1349143D01*
X3784854Y1349334D01*
X3783902Y1349524D01*
X3782854Y1349810D01*
X3781712Y1350095D01*
X3780474Y1350571D01*
X3779237Y1351047D01*
X3778094Y1351714D01*
X3776857Y1352475D01*
X3775714Y1353332D01*
X3774572Y1354379D01*
X3773525Y1355522D01*
X3773430Y1355617D01*
X3773239Y1355902D01*
X3772954Y1356378D01*
X3772573Y1357045D01*
X3772097Y1357902D01*
X3771526Y1359044D01*
X3770954Y1360282D01*
X3770383Y1361805D01*
X3769812Y1363518D01*
X3769241Y1365422D01*
X3768670Y1367517D01*
X3768194Y1369897D01*
X3767813Y1372467D01*
X3767527Y1375228D01*
X3767337Y1378274D01*
X3767242Y1381511D01*
Y1381606D01*
Y1381987D01*
Y1382558D01*
Y1383415D01*
X3767337Y1384367D01*
Y1385510D01*
X3767432Y1386747D01*
X3767527Y1388080D01*
X3767813Y1390936D01*
X3768194Y1393982D01*
X3768765Y1397029D01*
X3769146Y1398457D01*
X3769526Y1399790D01*
Y1399885D01*
X3769622Y1400075D01*
X3769812Y1400456D01*
X3770002Y1400932D01*
X3770193Y1401503D01*
X3770478Y1402170D01*
X3771335Y1403693D01*
X3772287Y1405406D01*
X3773430Y1407215D01*
X3774858Y1408929D01*
X3776476Y1410452D01*
X3776571D01*
X3776666Y1410642D01*
X3776952Y1410833D01*
X3777333Y1411023D01*
X3777809Y1411309D01*
X3778285Y1411690D01*
X3779713Y1412356D01*
X3781331Y1413022D01*
X3783330Y1413689D01*
X3785615Y1414070D01*
X3788090Y1414260D01*
X3788947D01*
X3789899Y1414165D01*
D02*
G37*
G36*
X3740110D02*
X3741347Y1413974D01*
X3742775Y1413784D01*
X3744298Y1413403D01*
X3745822Y1412832D01*
X3747345Y1412166D01*
X3747535Y1412070D01*
X3748011Y1411785D01*
X3748678Y1411309D01*
X3749630Y1410642D01*
X3750582Y1409786D01*
X3751724Y1408738D01*
X3752771Y1407596D01*
X3753723Y1406168D01*
X3753818Y1405978D01*
X3754104Y1405502D01*
X3754580Y1404645D01*
X3755151Y1403502D01*
X3755818Y1402170D01*
X3756484Y1400551D01*
X3757150Y1398647D01*
X3757722Y1396648D01*
Y1396553D01*
X3757817Y1396362D01*
X3757912Y1396077D01*
X3758007Y1395601D01*
X3758102Y1395030D01*
X3758198Y1394363D01*
X3758388Y1393602D01*
X3758483Y1392650D01*
X3758674Y1391602D01*
X3758769Y1390460D01*
X3758864Y1389222D01*
X3759054Y1387890D01*
X3759150Y1386462D01*
Y1384938D01*
X3759245Y1383225D01*
Y1381511D01*
Y1381416D01*
Y1381035D01*
Y1380464D01*
Y1379607D01*
X3759150Y1378655D01*
Y1377608D01*
X3759054Y1376370D01*
X3758959Y1375038D01*
X3758674Y1372182D01*
X3758198Y1369135D01*
X3757626Y1366089D01*
X3757246Y1364661D01*
X3756865Y1363328D01*
Y1363233D01*
X3756770Y1363042D01*
X3756579Y1362662D01*
X3756484Y1362186D01*
X3756198Y1361614D01*
X3755913Y1360948D01*
X3755151Y1359425D01*
X3754199Y1357711D01*
X3752962Y1355902D01*
X3751534Y1354189D01*
X3749915Y1352666D01*
X3749820D01*
X3749725Y1352475D01*
X3749439Y1352285D01*
X3749058Y1352094D01*
X3748106Y1351523D01*
X3746774Y1350857D01*
X3745060Y1350095D01*
X3743061Y1349524D01*
X3740871Y1349143D01*
X3738301Y1348953D01*
X3737444D01*
X3736778Y1349048D01*
X3736016Y1349143D01*
X3735064Y1349334D01*
X3734112Y1349524D01*
X3733065Y1349810D01*
X3731922Y1350095D01*
X3730685Y1350571D01*
X3729447Y1351047D01*
X3728305Y1351714D01*
X3727067Y1352475D01*
X3725925Y1353332D01*
X3724782Y1354379D01*
X3723735Y1355522D01*
X3723640Y1355617D01*
X3723450Y1355902D01*
X3723164Y1356378D01*
X3722783Y1357045D01*
X3722307Y1357902D01*
X3721736Y1359044D01*
X3721165Y1360282D01*
X3720594Y1361805D01*
X3720022Y1363518D01*
X3719451Y1365422D01*
X3718880Y1367517D01*
X3718404Y1369897D01*
X3718023Y1372467D01*
X3717738Y1375228D01*
X3717547Y1378274D01*
X3717452Y1381511D01*
Y1381606D01*
Y1381987D01*
Y1382558D01*
Y1383415D01*
X3717547Y1384367D01*
Y1385510D01*
X3717642Y1386747D01*
X3717738Y1388080D01*
X3718023Y1390936D01*
X3718404Y1393982D01*
X3718975Y1397029D01*
X3719356Y1398457D01*
X3719737Y1399790D01*
Y1399885D01*
X3719832Y1400075D01*
X3720022Y1400456D01*
X3720213Y1400932D01*
X3720403Y1401503D01*
X3720689Y1402170D01*
X3721546Y1403693D01*
X3722498Y1405406D01*
X3723640Y1407215D01*
X3725068Y1408929D01*
X3726686Y1410452D01*
X3726782D01*
X3726877Y1410642D01*
X3727162Y1410833D01*
X3727543Y1411023D01*
X3728019Y1411309D01*
X3728495Y1411690D01*
X3729923Y1412356D01*
X3731542Y1413022D01*
X3733541Y1413689D01*
X3735826Y1414070D01*
X3738301Y1414260D01*
X3739158D01*
X3740110Y1414165D01*
D02*
G37*
G36*
X3581506Y1313594D02*
X3582363Y1313498D01*
X3583410Y1313403D01*
X3585695Y1313022D01*
X3585886D01*
X3586266Y1312927D01*
X3586838Y1312737D01*
X3587599Y1312546D01*
X3588551Y1312261D01*
X3589598Y1311975D01*
X3591788Y1311214D01*
Y1303407D01*
X3591693Y1303502D01*
X3591312Y1303693D01*
X3590741Y1303978D01*
X3590074Y1304264D01*
X3589218Y1304645D01*
X3588266Y1305026D01*
X3586076Y1305692D01*
X3585981D01*
X3585600Y1305787D01*
X3584934Y1305978D01*
X3584172Y1306168D01*
X3583315Y1306263D01*
X3582268Y1306454D01*
X3579888Y1306549D01*
X3579126D01*
X3578555Y1306454D01*
X3577889Y1306358D01*
X3577127Y1306263D01*
X3575414Y1305787D01*
X3573414Y1305026D01*
X3572367Y1304550D01*
X3571415Y1303978D01*
X3570368Y1303312D01*
X3569416Y1302455D01*
X3568559Y1301503D01*
X3567702Y1300456D01*
Y1300361D01*
X3567512Y1300170D01*
X3567322Y1299790D01*
X3567036Y1299314D01*
X3566750Y1298647D01*
X3566370Y1297886D01*
X3566084Y1297029D01*
X3565703Y1295982D01*
X3565322Y1294744D01*
X3564942Y1293411D01*
X3564561Y1291983D01*
X3564275Y1290365D01*
X3563990Y1288556D01*
X3563799Y1286747D01*
X3563704Y1284748D01*
X3563613Y1282658D01*
X3563704Y1282749D01*
X3563990Y1283225D01*
X3564466Y1283986D01*
X3565037Y1284938D01*
X3565798Y1285986D01*
X3566750Y1287033D01*
X3567893Y1288080D01*
X3569130Y1289032D01*
X3569321Y1289127D01*
X3569797Y1289413D01*
X3570558Y1289794D01*
X3571510Y1290174D01*
X3572748Y1290555D01*
X3574081Y1290936D01*
X3575699Y1291222D01*
X3577318Y1291317D01*
X3578174D01*
X3578841Y1291222D01*
X3579602Y1291126D01*
X3580459Y1291031D01*
X3581411Y1290841D01*
X3582458Y1290650D01*
X3584743Y1289984D01*
X3585886Y1289508D01*
X3587028Y1288937D01*
X3588170Y1288270D01*
X3589313Y1287604D01*
X3590360Y1286652D01*
X3591312Y1285700D01*
X3591407Y1285605D01*
X3591502Y1285414D01*
X3591788Y1285129D01*
X3592074Y1284653D01*
X3592454Y1284082D01*
X3592930Y1283415D01*
X3593406Y1282558D01*
X3593882Y1281702D01*
X3594263Y1280654D01*
X3594739Y1279417D01*
X3595215Y1278179D01*
X3595596Y1276751D01*
X3595882Y1275228D01*
X3596167Y1273610D01*
X3596262Y1271896D01*
X3596358Y1269992D01*
Y1269897D01*
Y1269516D01*
Y1269040D01*
X3596262Y1268374D01*
X3596167Y1267517D01*
X3596072Y1266470D01*
X3595977Y1265422D01*
X3595691Y1264280D01*
X3595120Y1261710D01*
X3594168Y1259139D01*
X3593597Y1257806D01*
X3592930Y1256569D01*
X3592169Y1255426D01*
X3591217Y1254284D01*
X3591122Y1254189D01*
X3591026Y1254094D01*
X3590646Y1253808D01*
X3590265Y1253427D01*
X3589789Y1253046D01*
X3589122Y1252570D01*
X3588361Y1251999D01*
X3587504Y1251523D01*
X3586552Y1251047D01*
X3585410Y1250476D01*
X3584267Y1250000D01*
X3583030Y1249619D01*
X3581602Y1249238D01*
X3580078Y1249048D01*
X3578555Y1248858D01*
X3576842Y1248762D01*
X3576366D01*
X3575794Y1248858D01*
X3575033D01*
X3574176Y1249048D01*
X3573129Y1249143D01*
X3571986Y1249429D01*
X3570749Y1249714D01*
X3569416Y1250190D01*
X3568083Y1250666D01*
X3566750Y1251333D01*
X3565513Y1252094D01*
X3564180Y1252951D01*
X3562942Y1253998D01*
X3561895Y1255236D01*
X3560848Y1256569D01*
X3560753Y1256664D01*
X3560658Y1256950D01*
X3560372Y1257426D01*
X3560086Y1258092D01*
X3559706Y1258854D01*
X3559230Y1259901D01*
X3558754Y1261138D01*
X3558373Y1262566D01*
X3557897Y1264185D01*
X3557421Y1265994D01*
X3556945Y1267993D01*
X3556564Y1270182D01*
X3556278Y1272658D01*
X3555993Y1275228D01*
X3555898Y1278084D01*
X3555802Y1281130D01*
Y1281321D01*
Y1281797D01*
Y1282654D01*
X3555898Y1283701D01*
X3555993Y1285034D01*
X3556088Y1286557D01*
X3556278Y1288270D01*
X3556564Y1290079D01*
X3556850Y1292078D01*
X3557326Y1293982D01*
X3557802Y1296077D01*
X3558373Y1298076D01*
X3559039Y1299980D01*
X3559896Y1301884D01*
X3560848Y1303693D01*
X3561895Y1305311D01*
X3561990Y1305406D01*
X3562181Y1305692D01*
X3562562Y1306073D01*
X3563038Y1306644D01*
X3563704Y1307215D01*
X3564466Y1307977D01*
X3565322Y1308738D01*
X3566370Y1309500D01*
X3567607Y1310262D01*
X3568845Y1311023D01*
X3570368Y1311785D01*
X3571891Y1312356D01*
X3573605Y1312927D01*
X3575414Y1313308D01*
X3577413Y1313594D01*
X3579507Y1313689D01*
X3580650D01*
X3581506Y1313594D01*
D02*
G37*
G36*
X3842069D02*
X3843116Y1313498D01*
X3844354Y1313308D01*
X3846924Y1312832D01*
X3847114D01*
X3847495Y1312642D01*
X3848162Y1312451D01*
X3849018Y1312166D01*
X3850066Y1311785D01*
X3851208Y1311404D01*
X3853588Y1310262D01*
Y1301598D01*
X3853493Y1301694D01*
X3853017Y1301979D01*
X3852446Y1302455D01*
X3851589Y1303026D01*
X3850542Y1303598D01*
X3849399Y1304264D01*
X3848162Y1304835D01*
X3846829Y1305406D01*
X3846638Y1305502D01*
X3846258Y1305597D01*
X3845496Y1305882D01*
X3844639Y1306168D01*
X3843497Y1306358D01*
X3842354Y1306644D01*
X3841022Y1306739D01*
X3839689Y1306834D01*
X3838927D01*
X3838356Y1306739D01*
X3837690Y1306644D01*
X3836928Y1306454D01*
X3835119Y1306073D01*
X3833120Y1305311D01*
X3832073Y1304740D01*
X3831026Y1304169D01*
X3830074Y1303407D01*
X3829122Y1302550D01*
X3828265Y1301598D01*
X3827408Y1300456D01*
Y1300361D01*
X3827218Y1300170D01*
X3827027Y1299790D01*
X3826742Y1299218D01*
X3826456Y1298552D01*
X3826075Y1297790D01*
X3825790Y1296743D01*
X3825409Y1295696D01*
X3825028Y1294363D01*
X3824647Y1292935D01*
X3824266Y1291317D01*
X3823981Y1289603D01*
X3823695Y1287699D01*
X3823505Y1285700D01*
X3823410Y1283510D01*
X3823314Y1281130D01*
Y1280940D01*
Y1280559D01*
Y1279893D01*
X3823410Y1279036D01*
Y1277989D01*
X3823505Y1276751D01*
X3823695Y1275418D01*
X3823790Y1273895D01*
X3824362Y1270754D01*
X3825028Y1267612D01*
X3826075Y1264566D01*
X3826646Y1263138D01*
X3827408Y1261900D01*
X3827503Y1261805D01*
X3827598Y1261614D01*
X3827884Y1261329D01*
X3828170Y1260948D01*
X3828646Y1260472D01*
X3829122Y1259901D01*
X3829788Y1259330D01*
X3830454Y1258758D01*
X3831311Y1258187D01*
X3832168Y1257616D01*
X3833215Y1257045D01*
X3834358Y1256569D01*
X3835500Y1256188D01*
X3836833Y1255902D01*
X3838166Y1255712D01*
X3839689Y1255617D01*
X3840355D01*
X3841022Y1255712D01*
X3841974Y1255807D01*
X3843116Y1255902D01*
X3844354Y1256188D01*
X3845591Y1256474D01*
X3846924Y1256950D01*
X3847114Y1257045D01*
X3847495Y1257235D01*
X3848162Y1257521D01*
X3849114Y1257902D01*
X3850066Y1258473D01*
X3851208Y1259139D01*
X3852446Y1259996D01*
X3853588Y1260853D01*
Y1252190D01*
X3853493Y1252094D01*
X3853017Y1251904D01*
X3852350Y1251618D01*
X3851589Y1251238D01*
X3850542Y1250857D01*
X3849399Y1250381D01*
X3846924Y1249619D01*
X3846734D01*
X3846353Y1249524D01*
X3845686Y1249334D01*
X3844734Y1249238D01*
X3843687Y1249048D01*
X3842450Y1248858D01*
X3841117Y1248762D01*
X3839118D01*
X3838546Y1248858D01*
X3837690D01*
X3836738Y1249048D01*
X3835500Y1249238D01*
X3834262Y1249429D01*
X3832834Y1249810D01*
X3831406Y1250286D01*
X3829883Y1250857D01*
X3828360Y1251523D01*
X3826742Y1252380D01*
X3825218Y1253332D01*
X3823790Y1254474D01*
X3822362Y1255712D01*
X3821030Y1257235D01*
X3820934Y1257330D01*
X3820744Y1257616D01*
X3820458Y1258092D01*
X3819982Y1258758D01*
X3819506Y1259710D01*
X3818935Y1260758D01*
X3818364Y1261995D01*
X3817793Y1263423D01*
X3817126Y1265042D01*
X3816555Y1266755D01*
X3815984Y1268754D01*
X3815508Y1270849D01*
X3815032Y1273229D01*
X3814746Y1275704D01*
X3814556Y1278370D01*
X3814461Y1281130D01*
Y1281321D01*
Y1281797D01*
Y1282558D01*
X3814556Y1283701D01*
X3814651Y1284938D01*
X3814842Y1286462D01*
X3815032Y1288080D01*
X3815318Y1289889D01*
X3815603Y1291793D01*
X3816079Y1293697D01*
X3816650Y1295696D01*
X3817317Y1297695D01*
X3818078Y1299599D01*
X3818935Y1301503D01*
X3819982Y1303312D01*
X3821125Y1305026D01*
X3821220Y1305121D01*
X3821410Y1305406D01*
X3821791Y1305787D01*
X3822362Y1306358D01*
X3823029Y1307025D01*
X3823886Y1307786D01*
X3824838Y1308548D01*
X3825980Y1309405D01*
X3827218Y1310166D01*
X3828550Y1310928D01*
X3830074Y1311690D01*
X3831787Y1312356D01*
X3833596Y1312927D01*
X3835500Y1313308D01*
X3837499Y1313594D01*
X3839689Y1313689D01*
X3841117D01*
X3842069Y1313594D01*
D02*
G37*
G36*
X3477834Y1281892D02*
X3467266D01*
Y1294554D01*
X3477834D01*
Y1281892D01*
D02*
G37*
G36*
X3742014Y1270087D02*
X3720213D01*
Y1276942D01*
X3742014D01*
Y1270087D01*
D02*
G37*
G36*
X3440991Y1250000D02*
X3430234D01*
X3409099Y1301503D01*
Y1250000D01*
X3400912D01*
Y1312642D01*
X3411574D01*
X3432804Y1261043D01*
Y1312642D01*
X3440991D01*
Y1250000D01*
D02*
G37*
G36*
X4253142D02*
X4242861D01*
X4224582Y1312642D01*
X4233341D01*
X4248002Y1257045D01*
X4262662Y1312642D01*
X4271516D01*
X4253142Y1250000D01*
D02*
G37*
G36*
X4040561Y1313594D02*
X4041322D01*
X4042179Y1313403D01*
X4043226Y1313308D01*
X4044274Y1313118D01*
X4046654Y1312546D01*
X4049129Y1311690D01*
X4050271Y1311214D01*
X4051509Y1310547D01*
X4052651Y1309881D01*
X4053698Y1309024D01*
X4053794Y1308929D01*
X4053984Y1308834D01*
X4054174Y1308548D01*
X4054555Y1308167D01*
X4054936Y1307691D01*
X4055412Y1307215D01*
X4056459Y1305787D01*
X4057506Y1304074D01*
X4058363Y1301979D01*
X4058744Y1300837D01*
X4059030Y1299599D01*
X4059125Y1298266D01*
X4059220Y1296934D01*
Y1296838D01*
Y1296743D01*
Y1296458D01*
Y1296077D01*
X4059030Y1295125D01*
X4058839Y1293887D01*
X4058458Y1292554D01*
X4057982Y1291126D01*
X4057221Y1289698D01*
X4056269Y1288270D01*
X4056174Y1288080D01*
X4055698Y1287699D01*
X4055126Y1287128D01*
X4054174Y1286366D01*
X4053032Y1285605D01*
X4051604Y1284748D01*
X4049890Y1284082D01*
X4047986Y1283415D01*
X4048082D01*
X4048272Y1283320D01*
X4048558Y1283225D01*
X4049034Y1283130D01*
X4050081Y1282654D01*
X4051414Y1282082D01*
X4052937Y1281321D01*
X4054460Y1280274D01*
X4055983Y1279036D01*
X4057316Y1277608D01*
X4057506Y1277418D01*
X4057887Y1276846D01*
X4058363Y1275990D01*
X4059030Y1274752D01*
X4059601Y1273324D01*
X4060172Y1271515D01*
X4060553Y1269516D01*
X4060648Y1267231D01*
Y1267136D01*
Y1266850D01*
Y1266374D01*
X4060553Y1265803D01*
X4060458Y1265042D01*
X4060362Y1264185D01*
X4059886Y1262281D01*
X4059220Y1260091D01*
X4058744Y1258949D01*
X4058173Y1257806D01*
X4057506Y1256759D01*
X4056650Y1255617D01*
X4055793Y1254570D01*
X4054746Y1253618D01*
X4054650Y1253522D01*
X4054460Y1253427D01*
X4054174Y1253142D01*
X4053698Y1252856D01*
X4053127Y1252475D01*
X4052366Y1252094D01*
X4051509Y1251618D01*
X4050557Y1251238D01*
X4049510Y1250762D01*
X4048272Y1250286D01*
X4046939Y1249905D01*
X4045511Y1249524D01*
X4043988Y1249238D01*
X4042370Y1248953D01*
X4040656Y1248858D01*
X4038752Y1248762D01*
X4037134D01*
X4035991Y1248858D01*
X4034658Y1248953D01*
X4033135Y1249048D01*
X4031612Y1249238D01*
X4029898Y1249524D01*
X4029708D01*
X4029137Y1249714D01*
X4028280Y1249810D01*
X4027138Y1250095D01*
X4025805Y1250476D01*
X4024282Y1250857D01*
X4021140Y1251904D01*
Y1260377D01*
X4021235D01*
X4021330Y1260282D01*
X4021902Y1259996D01*
X4022663Y1259615D01*
X4023806Y1259139D01*
X4025043Y1258568D01*
X4026471Y1257997D01*
X4027994Y1257426D01*
X4029518Y1256950D01*
X4029708D01*
X4030279Y1256759D01*
X4031041Y1256664D01*
X4032088Y1256474D01*
X4033421Y1256283D01*
X4034754Y1256093D01*
X4036277Y1255998D01*
X4037800Y1255902D01*
X4038466D01*
X4038942Y1255998D01*
X4039514D01*
X4040180Y1256093D01*
X4041703Y1256283D01*
X4043417Y1256664D01*
X4045226Y1257235D01*
X4046939Y1257997D01*
X4048462Y1259044D01*
X4048653Y1259234D01*
X4049034Y1259615D01*
X4049700Y1260377D01*
X4050366Y1261329D01*
X4051033Y1262662D01*
X4051699Y1264185D01*
X4052080Y1265994D01*
X4052270Y1268088D01*
Y1268183D01*
Y1268374D01*
Y1268659D01*
X4052175Y1268945D01*
X4052080Y1269992D01*
X4051794Y1271230D01*
X4051318Y1272562D01*
X4050652Y1273990D01*
X4049700Y1275418D01*
X4048462Y1276751D01*
X4048272Y1276846D01*
X4047796Y1277227D01*
X4046939Y1277798D01*
X4045797Y1278370D01*
X4044369Y1278941D01*
X4042655Y1279512D01*
X4040656Y1279893D01*
X4038371Y1279988D01*
X4031993D01*
Y1286938D01*
X4039323D01*
X4040370Y1287033D01*
X4041703Y1287223D01*
X4043226Y1287509D01*
X4044750Y1287985D01*
X4046178Y1288556D01*
X4047510Y1289413D01*
X4047701Y1289508D01*
X4048082Y1289889D01*
X4048558Y1290460D01*
X4049224Y1291317D01*
X4049795Y1292269D01*
X4050366Y1293506D01*
X4050747Y1294934D01*
X4050842Y1296553D01*
Y1296648D01*
Y1296743D01*
Y1297314D01*
X4050652Y1298171D01*
X4050462Y1299218D01*
X4050081Y1300456D01*
X4049605Y1301694D01*
X4048843Y1302836D01*
X4047796Y1303883D01*
X4047701Y1303978D01*
X4047225Y1304264D01*
X4046558Y1304740D01*
X4045606Y1305216D01*
X4044369Y1305692D01*
X4042846Y1306168D01*
X4041037Y1306454D01*
X4039038Y1306549D01*
X4037610D01*
X4036658Y1306454D01*
X4035515Y1306358D01*
X4034182Y1306168D01*
X4032850Y1305978D01*
X4031326Y1305692D01*
X4031136D01*
X4030660Y1305502D01*
X4029803Y1305311D01*
X4028756Y1305026D01*
X4027518Y1304740D01*
X4026186Y1304264D01*
X4024662Y1303788D01*
X4023044Y1303217D01*
Y1311023D01*
X4023139D01*
X4023234Y1311118D01*
X4023520D01*
X4023901Y1311214D01*
X4024853Y1311499D01*
X4026090Y1311785D01*
X4027423Y1312070D01*
X4028946Y1312451D01*
X4030470Y1312737D01*
X4031993Y1313022D01*
X4032183D01*
X4032659Y1313118D01*
X4033421Y1313213D01*
X4034373Y1313403D01*
X4035515Y1313498D01*
X4036658Y1313594D01*
X4039038Y1313689D01*
X4039894D01*
X4040561Y1313594D01*
D02*
G37*
G36*
X4364812Y1271801D02*
X4373190D01*
Y1264946D01*
X4364812D01*
Y1250000D01*
X4356339D01*
Y1264946D01*
X4329874D01*
Y1272943D01*
X4355006Y1312642D01*
X4364812D01*
Y1271801D01*
D02*
G37*
G36*
X4216014Y1305502D02*
X4187264D01*
Y1286938D01*
X4214682D01*
Y1279798D01*
X4187264D01*
Y1257140D01*
X4216776D01*
Y1250000D01*
X4178791D01*
Y1312642D01*
X4216014D01*
Y1305502D01*
D02*
G37*
G36*
X4143853Y1312546D02*
X4144710D01*
X4145757Y1312356D01*
X4146804Y1312261D01*
X4148042Y1312070D01*
X4150612Y1311499D01*
X4153182Y1310642D01*
X4154515Y1310166D01*
X4155753Y1309500D01*
X4156990Y1308834D01*
X4158038Y1307977D01*
X4158133Y1307882D01*
X4158323Y1307786D01*
X4158514Y1307501D01*
X4158894Y1307120D01*
X4159275Y1306644D01*
X4159751Y1306073D01*
X4160322Y1305311D01*
X4160798Y1304550D01*
X4161274Y1303598D01*
X4161846Y1302646D01*
X4162322Y1301503D01*
X4162702Y1300266D01*
X4163083Y1299028D01*
X4163369Y1297600D01*
X4163464Y1296077D01*
X4163559Y1294458D01*
Y1294363D01*
Y1294173D01*
Y1293887D01*
X4163464Y1293411D01*
Y1292935D01*
X4163369Y1292269D01*
X4163178Y1290841D01*
X4162702Y1289222D01*
X4162131Y1287509D01*
X4161274Y1285890D01*
X4160132Y1284272D01*
X4159942Y1284082D01*
X4159466Y1283606D01*
X4158704Y1283034D01*
X4157657Y1282178D01*
X4156324Y1281416D01*
X4154706Y1280654D01*
X4152802Y1279988D01*
X4150612Y1279512D01*
X4150802D01*
X4151183Y1279322D01*
X4151754Y1279131D01*
X4152516Y1278750D01*
X4153373Y1278370D01*
X4154325Y1277798D01*
X4155277Y1277132D01*
X4156134Y1276275D01*
X4156229Y1276180D01*
X4156610Y1275799D01*
X4157086Y1275228D01*
X4157752Y1274276D01*
X4158609Y1273038D01*
X4159085Y1272277D01*
X4159561Y1271420D01*
X4160132Y1270468D01*
X4160703Y1269421D01*
X4161274Y1268278D01*
X4161941Y1267041D01*
X4170509Y1250000D01*
X4161370D01*
X4153849Y1265803D01*
Y1265898D01*
X4153754Y1266089D01*
X4153563Y1266470D01*
X4153278Y1266850D01*
X4152706Y1268088D01*
X4151945Y1269421D01*
X4150993Y1270849D01*
X4150041Y1272277D01*
X4148994Y1273514D01*
X4148518Y1274086D01*
X4148042Y1274466D01*
X4147946Y1274562D01*
X4147566Y1274752D01*
X4146994Y1275133D01*
X4146233Y1275514D01*
X4145281Y1275799D01*
X4144138Y1276180D01*
X4142806Y1276370D01*
X4141378Y1276466D01*
X4133286D01*
Y1250000D01*
X4124813D01*
Y1312642D01*
X4143091D01*
X4143853Y1312546D01*
D02*
G37*
G36*
X3957261Y1309024D02*
X3934794Y1250000D01*
X3926035D01*
X3947741Y1305502D01*
X3917848D01*
Y1312642D01*
X3957261D01*
Y1309024D01*
D02*
G37*
G36*
X3885385Y1313594D02*
X3886146Y1313498D01*
X3887098Y1313403D01*
X3888050Y1313308D01*
X3889193Y1313118D01*
X3891573Y1312451D01*
X3894048Y1311594D01*
X3895286Y1311023D01*
X3896428Y1310357D01*
X3897666Y1309595D01*
X3898713Y1308738D01*
X3898808Y1308643D01*
X3898998Y1308548D01*
X3899189Y1308262D01*
X3899570Y1307882D01*
X3900046Y1307406D01*
X3900522Y1306834D01*
X3900998Y1306073D01*
X3901569Y1305311D01*
X3902521Y1303502D01*
X3903473Y1301313D01*
X3903854Y1300075D01*
X3904044Y1298838D01*
X3904234Y1297410D01*
X3904330Y1295982D01*
Y1295791D01*
Y1295315D01*
X3904234Y1294458D01*
X3904139Y1293506D01*
X3903854Y1292269D01*
X3903568Y1290841D01*
X3903092Y1289413D01*
X3902426Y1287890D01*
X3902330Y1287699D01*
X3902045Y1287223D01*
X3901569Y1286366D01*
X3900998Y1285319D01*
X3900141Y1283986D01*
X3899094Y1282463D01*
X3897761Y1280845D01*
X3896333Y1279036D01*
X3896238Y1278941D01*
X3895952Y1278560D01*
X3895381Y1277894D01*
X3894619Y1277037D01*
X3893667Y1275990D01*
X3892525Y1274657D01*
X3891192Y1273134D01*
X3889574Y1271420D01*
X3889478Y1271325D01*
X3889383Y1271230D01*
X3889098Y1270944D01*
X3888717Y1270563D01*
X3888241Y1269992D01*
X3887670Y1269421D01*
X3887003Y1268659D01*
X3886242Y1267898D01*
X3885290Y1266946D01*
X3884242Y1265803D01*
X3883195Y1264661D01*
X3881958Y1263423D01*
X3880625Y1261995D01*
X3879197Y1260472D01*
X3877578Y1258854D01*
X3875960Y1257140D01*
X3904710D01*
Y1250000D01*
X3866726D01*
Y1257140D01*
X3866821Y1257235D01*
X3867106Y1257521D01*
X3867487Y1257902D01*
X3868058Y1258568D01*
X3868725Y1259234D01*
X3869486Y1260091D01*
X3870343Y1261043D01*
X3871390Y1261995D01*
X3873485Y1264280D01*
X3875770Y1266660D01*
X3878054Y1269230D01*
X3880339Y1271610D01*
X3880434Y1271706D01*
X3880625Y1271896D01*
X3880910Y1272182D01*
X3881291Y1272658D01*
X3882338Y1273800D01*
X3883576Y1275133D01*
X3884909Y1276561D01*
X3886242Y1278084D01*
X3887479Y1279417D01*
X3888526Y1280559D01*
X3888622Y1280654D01*
X3888717Y1280750D01*
X3888907Y1281035D01*
X3889193Y1281416D01*
X3889954Y1282368D01*
X3890811Y1283510D01*
X3891763Y1284843D01*
X3892620Y1286271D01*
X3893477Y1287604D01*
X3894143Y1288842D01*
X3894238Y1289032D01*
X3894429Y1289413D01*
X3894619Y1289984D01*
X3894905Y1290841D01*
X3895190Y1291793D01*
X3895476Y1292935D01*
X3895571Y1294078D01*
X3895666Y1295315D01*
Y1295410D01*
Y1295506D01*
Y1295791D01*
Y1296172D01*
X3895476Y1297124D01*
X3895286Y1298266D01*
X3894905Y1299599D01*
X3894334Y1301027D01*
X3893572Y1302265D01*
X3892525Y1303502D01*
X3892430Y1303598D01*
X3891954Y1303978D01*
X3891287Y1304454D01*
X3890335Y1305026D01*
X3889098Y1305597D01*
X3887670Y1306073D01*
X3885956Y1306454D01*
X3884052Y1306549D01*
X3883386D01*
X3882624Y1306454D01*
X3881672Y1306358D01*
X3880434Y1306168D01*
X3879102Y1305978D01*
X3877578Y1305597D01*
X3876055Y1305121D01*
X3875865Y1305026D01*
X3875294Y1304835D01*
X3874532Y1304550D01*
X3873390Y1304074D01*
X3872057Y1303502D01*
X3870534Y1302741D01*
X3868915Y1301884D01*
X3867202Y1300932D01*
Y1309500D01*
X3867297D01*
X3867392Y1309595D01*
X3867963Y1309786D01*
X3868820Y1310166D01*
X3869867Y1310642D01*
X3871200Y1311118D01*
X3872628Y1311594D01*
X3875674Y1312546D01*
X3875770D01*
X3875865Y1312642D01*
X3876436Y1312737D01*
X3877198Y1312927D01*
X3878245Y1313118D01*
X3879482Y1313308D01*
X3880910Y1313498D01*
X3882338Y1313689D01*
X3884718D01*
X3885385Y1313594D01*
D02*
G37*
G36*
X3776666Y1312546D02*
X3777714D01*
X3778856Y1312451D01*
X3780284Y1312261D01*
X3781712Y1311975D01*
X3783330Y1311690D01*
X3785044Y1311309D01*
X3786853Y1310738D01*
X3788566Y1310166D01*
X3790280Y1309405D01*
X3791994Y1308548D01*
X3793612Y1307501D01*
X3795135Y1306263D01*
X3796468Y1304930D01*
X3796563Y1304835D01*
X3796754Y1304550D01*
X3797134Y1304169D01*
X3797515Y1303502D01*
X3798086Y1302646D01*
X3798658Y1301694D01*
X3799229Y1300456D01*
X3799895Y1299123D01*
X3800562Y1297505D01*
X3801133Y1295791D01*
X3801704Y1293887D01*
X3802275Y1291698D01*
X3802656Y1289413D01*
X3803037Y1286842D01*
X3803227Y1284177D01*
X3803322Y1281226D01*
Y1281035D01*
Y1280559D01*
Y1279702D01*
X3803227Y1278560D01*
X3803132Y1277227D01*
X3802942Y1275704D01*
X3802751Y1274086D01*
X3802466Y1272277D01*
X3802085Y1270373D01*
X3801609Y1268374D01*
X3801133Y1266374D01*
X3800466Y1264470D01*
X3799610Y1262566D01*
X3798753Y1260758D01*
X3797706Y1259044D01*
X3796468Y1257521D01*
X3796373Y1257426D01*
X3796182Y1257235D01*
X3795706Y1256854D01*
X3795230Y1256378D01*
X3794469Y1255807D01*
X3793612Y1255141D01*
X3792565Y1254474D01*
X3791327Y1253808D01*
X3789899Y1253046D01*
X3788376Y1252380D01*
X3786567Y1251714D01*
X3784663Y1251142D01*
X3782664Y1250666D01*
X3780379Y1250286D01*
X3777904Y1250095D01*
X3775334Y1250000D01*
X3762672D01*
Y1312642D01*
X3776000D01*
X3776666Y1312546D01*
D02*
G37*
G36*
X3477834Y1250000D02*
X3467266D01*
Y1262757D01*
X3477834D01*
Y1250000D01*
D02*
G37*
G36*
X3319992Y1312546D02*
X3320849D01*
X3321896Y1312356D01*
X3323038Y1312261D01*
X3324181Y1312070D01*
X3326751Y1311499D01*
X3329417Y1310642D01*
X3330654Y1310071D01*
X3331892Y1309500D01*
X3333130Y1308738D01*
X3334177Y1307882D01*
X3334272Y1307786D01*
X3334367Y1307691D01*
X3334653Y1307406D01*
X3335034Y1307025D01*
X3335414Y1306454D01*
X3335890Y1305882D01*
X3336366Y1305216D01*
X3336938Y1304359D01*
X3337414Y1303407D01*
X3337890Y1302360D01*
X3338366Y1301218D01*
X3338746Y1299980D01*
X3339127Y1298647D01*
X3339413Y1297124D01*
X3339508Y1295601D01*
X3339603Y1293887D01*
Y1293792D01*
Y1293506D01*
Y1293030D01*
X3339508Y1292364D01*
X3339413Y1291602D01*
X3339318Y1290746D01*
X3339127Y1289698D01*
X3338937Y1288651D01*
X3338270Y1286462D01*
X3337890Y1285224D01*
X3337318Y1284082D01*
X3336652Y1282939D01*
X3335986Y1281892D01*
X3335129Y1280845D01*
X3334177Y1279893D01*
X3334082Y1279798D01*
X3333891Y1279702D01*
X3333606Y1279512D01*
X3333130Y1279131D01*
X3332558Y1278846D01*
X3331892Y1278465D01*
X3331130Y1277989D01*
X3330178Y1277608D01*
X3329131Y1277132D01*
X3327894Y1276751D01*
X3326656Y1276275D01*
X3325228Y1275990D01*
X3323610Y1275704D01*
X3321991Y1275418D01*
X3320182Y1275323D01*
X3318278Y1275228D01*
X3308473D01*
Y1250000D01*
X3300000D01*
Y1312642D01*
X3319326D01*
X3319992Y1312546D01*
D02*
G37*
G36*
X4300647Y1313594D02*
X4301314D01*
X4302170Y1313403D01*
X4303122Y1313213D01*
X4304265Y1313022D01*
X4305407Y1312642D01*
X4306645Y1312261D01*
X4307882Y1311690D01*
X4309120Y1311023D01*
X4310358Y1310166D01*
X4311595Y1309214D01*
X4312833Y1308167D01*
X4313880Y1306834D01*
X4314927Y1305406D01*
X4315022Y1305311D01*
X4315118Y1305026D01*
X4315403Y1304550D01*
X4315689Y1303883D01*
X4316165Y1303026D01*
X4316546Y1301979D01*
X4317022Y1300742D01*
X4317498Y1299314D01*
X4317974Y1297695D01*
X4318450Y1295886D01*
X4318926Y1293887D01*
X4319306Y1291698D01*
X4319592Y1289318D01*
X4319878Y1286842D01*
X4319973Y1284082D01*
X4320068Y1281130D01*
Y1280940D01*
Y1280464D01*
Y1279607D01*
X4319973Y1278465D01*
X4319878Y1277132D01*
X4319782Y1275609D01*
X4319687Y1273895D01*
X4319402Y1272086D01*
X4319116Y1270182D01*
X4318830Y1268183D01*
X4317878Y1264185D01*
X4317307Y1262186D01*
X4316641Y1260377D01*
X4315879Y1258568D01*
X4314927Y1256950D01*
X4314832Y1256854D01*
X4314737Y1256569D01*
X4314356Y1256188D01*
X4313975Y1255712D01*
X4313404Y1255046D01*
X4312738Y1254379D01*
X4311976Y1253618D01*
X4311119Y1252856D01*
X4310072Y1252094D01*
X4308930Y1251333D01*
X4307692Y1250666D01*
X4306359Y1250000D01*
X4304836Y1249524D01*
X4303218Y1249143D01*
X4301504Y1248858D01*
X4299695Y1248762D01*
X4299219D01*
X4298743Y1248858D01*
X4298077D01*
X4297220Y1249048D01*
X4296268Y1249238D01*
X4295221Y1249429D01*
X4294078Y1249810D01*
X4292841Y1250190D01*
X4291603Y1250762D01*
X4290366Y1251428D01*
X4289128Y1252190D01*
X4287890Y1253142D01*
X4286653Y1254284D01*
X4285606Y1255522D01*
X4284558Y1256950D01*
X4284463Y1257045D01*
X4284368Y1257330D01*
X4284082Y1257806D01*
X4283797Y1258473D01*
X4283416Y1259330D01*
X4282940Y1260377D01*
X4282464Y1261614D01*
X4282083Y1263042D01*
X4281607Y1264661D01*
X4281131Y1266470D01*
X4280655Y1268469D01*
X4280274Y1270563D01*
X4279989Y1272943D01*
X4279703Y1275514D01*
X4279608Y1278179D01*
X4279513Y1281130D01*
Y1281321D01*
Y1281797D01*
Y1282654D01*
X4279608Y1283796D01*
X4279703Y1285129D01*
X4279798Y1286652D01*
X4279894Y1288366D01*
X4280179Y1290174D01*
X4280370Y1292174D01*
X4280750Y1294173D01*
X4281607Y1298171D01*
X4282178Y1300170D01*
X4282940Y1301979D01*
X4283702Y1303788D01*
X4284558Y1305406D01*
X4284654Y1305502D01*
X4284844Y1305787D01*
X4285130Y1306168D01*
X4285510Y1306739D01*
X4286082Y1307310D01*
X4286748Y1308072D01*
X4287510Y1308738D01*
X4288366Y1309595D01*
X4289414Y1310357D01*
X4290556Y1311118D01*
X4291794Y1311785D01*
X4293126Y1312356D01*
X4294554Y1312927D01*
X4296173Y1313308D01*
X4297886Y1313594D01*
X4299695Y1313689D01*
X4300171D01*
X4300647Y1313594D01*
D02*
G37*
G36*
X3990486D02*
X3991152D01*
X3992009Y1313403D01*
X3992961Y1313213D01*
X3994103Y1313022D01*
X3995246Y1312642D01*
X3996483Y1312261D01*
X3997721Y1311690D01*
X3998958Y1311023D01*
X4000196Y1310166D01*
X4001434Y1309214D01*
X4002671Y1308167D01*
X4003718Y1306834D01*
X4004766Y1305406D01*
X4004861Y1305311D01*
X4004956Y1305026D01*
X4005242Y1304550D01*
X4005527Y1303883D01*
X4006003Y1303026D01*
X4006384Y1301979D01*
X4006860Y1300742D01*
X4007336Y1299314D01*
X4007812Y1297695D01*
X4008288Y1295886D01*
X4008764Y1293887D01*
X4009145Y1291698D01*
X4009430Y1289318D01*
X4009716Y1286842D01*
X4009811Y1284082D01*
X4009906Y1281130D01*
Y1280940D01*
Y1280464D01*
Y1279607D01*
X4009811Y1278465D01*
X4009716Y1277132D01*
X4009621Y1275609D01*
X4009526Y1273895D01*
X4009240Y1272086D01*
X4008954Y1270182D01*
X4008669Y1268183D01*
X4007717Y1264185D01*
X4007146Y1262186D01*
X4006479Y1260377D01*
X4005718Y1258568D01*
X4004766Y1256950D01*
X4004670Y1256854D01*
X4004575Y1256569D01*
X4004194Y1256188D01*
X4003814Y1255712D01*
X4003242Y1255046D01*
X4002576Y1254379D01*
X4001814Y1253618D01*
X4000958Y1252856D01*
X3999910Y1252094D01*
X3998768Y1251333D01*
X3997530Y1250666D01*
X3996198Y1250000D01*
X3994674Y1249524D01*
X3993056Y1249143D01*
X3991342Y1248858D01*
X3989534Y1248762D01*
X3989058D01*
X3988582Y1248858D01*
X3987915D01*
X3987058Y1249048D01*
X3986106Y1249238D01*
X3985059Y1249429D01*
X3983917Y1249810D01*
X3982679Y1250190D01*
X3981442Y1250762D01*
X3980204Y1251428D01*
X3978966Y1252190D01*
X3977729Y1253142D01*
X3976491Y1254284D01*
X3975444Y1255522D01*
X3974397Y1256950D01*
X3974302Y1257045D01*
X3974206Y1257330D01*
X3973921Y1257806D01*
X3973635Y1258473D01*
X3973254Y1259330D01*
X3972778Y1260377D01*
X3972302Y1261614D01*
X3971922Y1263042D01*
X3971446Y1264661D01*
X3970970Y1266470D01*
X3970494Y1268469D01*
X3970113Y1270563D01*
X3969827Y1272943D01*
X3969542Y1275514D01*
X3969446Y1278179D01*
X3969351Y1281130D01*
Y1281321D01*
Y1281797D01*
Y1282654D01*
X3969446Y1283796D01*
X3969542Y1285129D01*
X3969637Y1286652D01*
X3969732Y1288366D01*
X3970018Y1290174D01*
X3970208Y1292174D01*
X3970589Y1294173D01*
X3971446Y1298171D01*
X3972017Y1300170D01*
X3972778Y1301979D01*
X3973540Y1303788D01*
X3974397Y1305406D01*
X3974492Y1305502D01*
X3974682Y1305787D01*
X3974968Y1306168D01*
X3975349Y1306739D01*
X3975920Y1307310D01*
X3976586Y1308072D01*
X3977348Y1308738D01*
X3978205Y1309595D01*
X3979252Y1310357D01*
X3980394Y1311118D01*
X3981632Y1311785D01*
X3982965Y1312356D01*
X3984393Y1312927D01*
X3986011Y1313308D01*
X3987725Y1313594D01*
X3989534Y1313689D01*
X3990010D01*
X3990486Y1313594D01*
D02*
G37*
G36*
X3680324D02*
X3680990D01*
X3681847Y1313403D01*
X3682799Y1313213D01*
X3683942Y1313022D01*
X3685084Y1312642D01*
X3686322Y1312261D01*
X3687559Y1311690D01*
X3688797Y1311023D01*
X3690034Y1310166D01*
X3691272Y1309214D01*
X3692510Y1308167D01*
X3693557Y1306834D01*
X3694604Y1305406D01*
X3694699Y1305311D01*
X3694794Y1305026D01*
X3695080Y1304550D01*
X3695366Y1303883D01*
X3695842Y1303026D01*
X3696222Y1301979D01*
X3696698Y1300742D01*
X3697174Y1299314D01*
X3697650Y1297695D01*
X3698126Y1295886D01*
X3698602Y1293887D01*
X3698983Y1291698D01*
X3699269Y1289318D01*
X3699554Y1286842D01*
X3699650Y1284082D01*
X3699745Y1281130D01*
Y1280940D01*
Y1280464D01*
Y1279607D01*
X3699650Y1278465D01*
X3699554Y1277132D01*
X3699459Y1275609D01*
X3699364Y1273895D01*
X3699078Y1272086D01*
X3698793Y1270182D01*
X3698507Y1268183D01*
X3697555Y1264185D01*
X3696984Y1262186D01*
X3696318Y1260377D01*
X3695556Y1258568D01*
X3694604Y1256950D01*
X3694509Y1256854D01*
X3694414Y1256569D01*
X3694033Y1256188D01*
X3693652Y1255712D01*
X3693081Y1255046D01*
X3692414Y1254379D01*
X3691653Y1253618D01*
X3690796Y1252856D01*
X3689749Y1252094D01*
X3688606Y1251333D01*
X3687369Y1250666D01*
X3686036Y1250000D01*
X3684513Y1249524D01*
X3682894Y1249143D01*
X3681181Y1248858D01*
X3679372Y1248762D01*
X3678896D01*
X3678420Y1248858D01*
X3677754D01*
X3676897Y1249048D01*
X3675945Y1249238D01*
X3674898Y1249429D01*
X3673755Y1249810D01*
X3672518Y1250190D01*
X3671280Y1250762D01*
X3670042Y1251428D01*
X3668805Y1252190D01*
X3667567Y1253142D01*
X3666330Y1254284D01*
X3665282Y1255522D01*
X3664235Y1256950D01*
X3664140Y1257045D01*
X3664045Y1257330D01*
X3663759Y1257806D01*
X3663474Y1258473D01*
X3663093Y1259330D01*
X3662617Y1260377D01*
X3662141Y1261614D01*
X3661760Y1263042D01*
X3661284Y1264661D01*
X3660808Y1266470D01*
X3660332Y1268469D01*
X3659951Y1270563D01*
X3659666Y1272943D01*
X3659380Y1275514D01*
X3659285Y1278179D01*
X3659190Y1281130D01*
Y1281321D01*
Y1281797D01*
Y1282654D01*
X3659285Y1283796D01*
X3659380Y1285129D01*
X3659475Y1286652D01*
X3659570Y1288366D01*
X3659856Y1290174D01*
X3660046Y1292174D01*
X3660427Y1294173D01*
X3661284Y1298171D01*
X3661855Y1300170D01*
X3662617Y1301979D01*
X3663378Y1303788D01*
X3664235Y1305406D01*
X3664330Y1305502D01*
X3664521Y1305787D01*
X3664806Y1306168D01*
X3665187Y1306739D01*
X3665758Y1307310D01*
X3666425Y1308072D01*
X3667186Y1308738D01*
X3668043Y1309595D01*
X3669090Y1310357D01*
X3670233Y1311118D01*
X3671470Y1311785D01*
X3672803Y1312356D01*
X3674231Y1312927D01*
X3675850Y1313308D01*
X3677563Y1313594D01*
X3679372Y1313689D01*
X3679848D01*
X3680324Y1313594D01*
D02*
G37*
G36*
X3628630D02*
X3629297D01*
X3630154Y1313403D01*
X3631106Y1313213D01*
X3632248Y1313022D01*
X3633390Y1312642D01*
X3634628Y1312261D01*
X3635866Y1311690D01*
X3637103Y1311023D01*
X3638341Y1310166D01*
X3639578Y1309214D01*
X3640816Y1308167D01*
X3641863Y1306834D01*
X3642910Y1305406D01*
X3643006Y1305311D01*
X3643101Y1305026D01*
X3643386Y1304550D01*
X3643672Y1303883D01*
X3644148Y1303026D01*
X3644529Y1301979D01*
X3645005Y1300742D01*
X3645481Y1299314D01*
X3645957Y1297695D01*
X3646433Y1295886D01*
X3646909Y1293887D01*
X3647290Y1291698D01*
X3647575Y1289318D01*
X3647861Y1286842D01*
X3647956Y1284082D01*
X3648051Y1281130D01*
Y1280940D01*
Y1280464D01*
Y1279607D01*
X3647956Y1278465D01*
X3647861Y1277132D01*
X3647766Y1275609D01*
X3647670Y1273895D01*
X3647385Y1272086D01*
X3647099Y1270182D01*
X3646814Y1268183D01*
X3645862Y1264185D01*
X3645290Y1262186D01*
X3644624Y1260377D01*
X3643862Y1258568D01*
X3642910Y1256950D01*
X3642815Y1256854D01*
X3642720Y1256569D01*
X3642339Y1256188D01*
X3641958Y1255712D01*
X3641387Y1255046D01*
X3640721Y1254379D01*
X3639959Y1253618D01*
X3639102Y1252856D01*
X3638055Y1252094D01*
X3636913Y1251333D01*
X3635675Y1250666D01*
X3634342Y1250000D01*
X3632819Y1249524D01*
X3631201Y1249143D01*
X3629487Y1248858D01*
X3627678Y1248762D01*
X3627202D01*
X3626726Y1248858D01*
X3626060D01*
X3625203Y1249048D01*
X3624251Y1249238D01*
X3623204Y1249429D01*
X3622062Y1249810D01*
X3620824Y1250190D01*
X3619586Y1250762D01*
X3618349Y1251428D01*
X3617111Y1252190D01*
X3615874Y1253142D01*
X3614636Y1254284D01*
X3613589Y1255522D01*
X3612542Y1256950D01*
X3612446Y1257045D01*
X3612351Y1257330D01*
X3612066Y1257806D01*
X3611780Y1258473D01*
X3611399Y1259330D01*
X3610923Y1260377D01*
X3610447Y1261614D01*
X3610066Y1263042D01*
X3609590Y1264661D01*
X3609114Y1266470D01*
X3608638Y1268469D01*
X3608258Y1270563D01*
X3607972Y1272943D01*
X3607686Y1275514D01*
X3607591Y1278179D01*
X3607496Y1281130D01*
Y1281321D01*
Y1281797D01*
Y1282654D01*
X3607591Y1283796D01*
X3607686Y1285129D01*
X3607782Y1286652D01*
X3607877Y1288366D01*
X3608162Y1290174D01*
X3608353Y1292174D01*
X3608734Y1294173D01*
X3609590Y1298171D01*
X3610162Y1300170D01*
X3610923Y1301979D01*
X3611685Y1303788D01*
X3612542Y1305406D01*
X3612637Y1305502D01*
X3612827Y1305787D01*
X3613113Y1306168D01*
X3613494Y1306739D01*
X3614065Y1307310D01*
X3614731Y1308072D01*
X3615493Y1308738D01*
X3616350Y1309595D01*
X3617397Y1310357D01*
X3618539Y1311118D01*
X3619777Y1311785D01*
X3621110Y1312356D01*
X3622538Y1312927D01*
X3624156Y1313308D01*
X3625870Y1313594D01*
X3627678Y1313689D01*
X3628154D01*
X3628630Y1313594D01*
D02*
G37*
G36*
X3355692Y1242098D02*
X3347695D01*
X3380730Y1312642D01*
X3388726D01*
X3355692Y1242098D01*
D02*
G37*
G36*
X4118815Y1229722D02*
X4067122D01*
Y1233054D01*
X4118815D01*
Y1229722D01*
D02*
G37*
G36*
X4180424Y567410D02*
X4180995Y567314D01*
X4182423Y567124D01*
X4184042Y566743D01*
X4185755Y566172D01*
X4187564Y565410D01*
X4189278Y564363D01*
X4189373D01*
X4189468Y564268D01*
X4190039Y563792D01*
X4190801Y563126D01*
X4191848Y562174D01*
X4192990Y560936D01*
X4194133Y559413D01*
X4195180Y557699D01*
X4196132Y555700D01*
Y555605D01*
X4196227Y555414D01*
X4196322Y555129D01*
X4196513Y554748D01*
X4196703Y554177D01*
X4196894Y553606D01*
X4197370Y552082D01*
X4197750Y550274D01*
X4198131Y548274D01*
X4198417Y545990D01*
X4198512Y543514D01*
Y543419D01*
Y543229D01*
Y542848D01*
Y542277D01*
X4198417Y541706D01*
Y540944D01*
X4198226Y539230D01*
X4197846Y537231D01*
X4197465Y535042D01*
X4196798Y532852D01*
X4195942Y530662D01*
Y530567D01*
X4195846Y530377D01*
X4195656Y530091D01*
X4195466Y529710D01*
X4194894Y528663D01*
X4194038Y527426D01*
X4192990Y525998D01*
X4191753Y524570D01*
X4190230Y523142D01*
X4188516Y521904D01*
X4188421D01*
X4188326Y521809D01*
X4188040Y521618D01*
X4187659Y521428D01*
X4186707Y520952D01*
X4185374Y520476D01*
X4183851Y519905D01*
X4182138Y519429D01*
X4180234Y519048D01*
X4178234Y518953D01*
X4177568D01*
X4176806Y519048D01*
X4175854Y519143D01*
X4174807Y519334D01*
X4173665Y519619D01*
X4172427Y520000D01*
X4171190Y520571D01*
X4171094Y520666D01*
X4170714Y520857D01*
X4170142Y521238D01*
X4169381Y521714D01*
X4168619Y522285D01*
X4167762Y523046D01*
X4166906Y523808D01*
X4166144Y524760D01*
Y502198D01*
X4158242D01*
Y566458D01*
X4165478D01*
Y560365D01*
X4165573Y560555D01*
X4165954Y560936D01*
X4166430Y561602D01*
X4167096Y562364D01*
X4167953Y563221D01*
X4168905Y564078D01*
X4169952Y564934D01*
X4171094Y565696D01*
X4171285Y565791D01*
X4171666Y565982D01*
X4172332Y566267D01*
X4173284Y566648D01*
X4174426Y566934D01*
X4175759Y567219D01*
X4177282Y567410D01*
X4178901Y567505D01*
X4179853D01*
X4180424Y567410D01*
D02*
G37*
G36*
X4374442D02*
X4375679Y567314D01*
X4377202Y567124D01*
X4378821Y566838D01*
X4380439Y566458D01*
X4382058Y565886D01*
X4382153D01*
X4382248Y565791D01*
X4382724Y565601D01*
X4383486Y565220D01*
X4384342Y564744D01*
X4385390Y564173D01*
X4386342Y563411D01*
X4387294Y562554D01*
X4388150Y561602D01*
X4388246Y561507D01*
X4388436Y561126D01*
X4388817Y560555D01*
X4389293Y559698D01*
X4389674Y558651D01*
X4390150Y557509D01*
X4390530Y556081D01*
X4390911Y554462D01*
X4383200Y553415D01*
Y553606D01*
X4383105Y553986D01*
X4382914Y554653D01*
X4382629Y555414D01*
X4382153Y556271D01*
X4381677Y557223D01*
X4380915Y558175D01*
X4380058Y558937D01*
X4379963Y559032D01*
X4379582Y559222D01*
X4379011Y559603D01*
X4378250Y559984D01*
X4377298Y560365D01*
X4376060Y560746D01*
X4374632Y560936D01*
X4373014Y561031D01*
X4372157D01*
X4371205Y560936D01*
X4370062Y560841D01*
X4368730Y560555D01*
X4367492Y560270D01*
X4366254Y559794D01*
X4365302Y559222D01*
X4365207Y559127D01*
X4364922Y558937D01*
X4364541Y558556D01*
X4364160Y557985D01*
X4363779Y557414D01*
X4363398Y556652D01*
X4363113Y555890D01*
X4363018Y555034D01*
Y554938D01*
Y554748D01*
X4363113Y554462D01*
Y554082D01*
X4363398Y553225D01*
X4363970Y552273D01*
X4364065Y552178D01*
X4364160Y552082D01*
X4364731Y551511D01*
X4365112Y551226D01*
X4365588Y550845D01*
X4366254Y550464D01*
X4366921Y550178D01*
X4367016D01*
X4367206Y550083D01*
X4367587Y549988D01*
X4368254Y549702D01*
X4369206Y549417D01*
X4370348Y549131D01*
X4371110Y548846D01*
X4371966Y548655D01*
X4372823Y548370D01*
X4373870Y548084D01*
X4373966D01*
X4374251Y547989D01*
X4374632Y547894D01*
X4375203Y547703D01*
X4375870Y547513D01*
X4376726Y547322D01*
X4378440Y546846D01*
X4380344Y546275D01*
X4382343Y545609D01*
X4384057Y545038D01*
X4384818Y544752D01*
X4385485Y544466D01*
X4385675Y544371D01*
X4386056Y544181D01*
X4386627Y543895D01*
X4387389Y543419D01*
X4388246Y542848D01*
X4389102Y542086D01*
X4389959Y541230D01*
X4390721Y540278D01*
X4390816Y540182D01*
X4391006Y539802D01*
X4391292Y539230D01*
X4391673Y538469D01*
X4392054Y537517D01*
X4392339Y536374D01*
X4392530Y535042D01*
X4392625Y533614D01*
Y533423D01*
Y532947D01*
X4392530Y532186D01*
X4392339Y531234D01*
X4392054Y530091D01*
X4391578Y528854D01*
X4391006Y527521D01*
X4390245Y526188D01*
X4390150Y525998D01*
X4389864Y525617D01*
X4389293Y524950D01*
X4388531Y524189D01*
X4387579Y523332D01*
X4386437Y522380D01*
X4385104Y521523D01*
X4383581Y520762D01*
X4383390Y520666D01*
X4382819Y520476D01*
X4381962Y520190D01*
X4380725Y519905D01*
X4379297Y519524D01*
X4377678Y519238D01*
X4375870Y519048D01*
X4373870Y518953D01*
X4373014D01*
X4372347Y519048D01*
X4371586D01*
X4370729Y519143D01*
X4368730Y519429D01*
X4366540Y519905D01*
X4364255Y520476D01*
X4362066Y521428D01*
X4361018Y521999D01*
X4360066Y522666D01*
X4359971D01*
X4359876Y522856D01*
X4359305Y523427D01*
X4358543Y524284D01*
X4357496Y525522D01*
X4356544Y527045D01*
X4355497Y529044D01*
X4354640Y531329D01*
X4354069Y533899D01*
X4361875Y535137D01*
Y535042D01*
Y534946D01*
X4361970Y534375D01*
X4362256Y533518D01*
X4362542Y532471D01*
X4363018Y531329D01*
X4363589Y530091D01*
X4364446Y528949D01*
X4365398Y527902D01*
X4365588Y527806D01*
X4365969Y527521D01*
X4366635Y527140D01*
X4367587Y526664D01*
X4368825Y526188D01*
X4370253Y525807D01*
X4371966Y525522D01*
X4373870Y525426D01*
X4374727D01*
X4375679Y525522D01*
X4376917Y525712D01*
X4378154Y525998D01*
X4379487Y526378D01*
X4380725Y526854D01*
X4381867Y527616D01*
X4381962Y527711D01*
X4382248Y527997D01*
X4382724Y528473D01*
X4383200Y529044D01*
X4383676Y529806D01*
X4384152Y530758D01*
X4384438Y531710D01*
X4384533Y532757D01*
Y532852D01*
Y533233D01*
X4384438Y533709D01*
X4384247Y534280D01*
X4383962Y534946D01*
X4383486Y535613D01*
X4382914Y536374D01*
X4382153Y536946D01*
X4382058Y537041D01*
X4381772Y537136D01*
X4381296Y537326D01*
X4380534Y537707D01*
X4379487Y538088D01*
X4378059Y538469D01*
X4377298Y538754D01*
X4376346Y539040D01*
X4375298Y539326D01*
X4374156Y539611D01*
X4374061D01*
X4373775Y539706D01*
X4373299Y539802D01*
X4372728Y539992D01*
X4372062Y540182D01*
X4371205Y540373D01*
X4369396Y540944D01*
X4367397Y541515D01*
X4365398Y542182D01*
X4363589Y542753D01*
X4362827Y543134D01*
X4362161Y543419D01*
X4361970Y543514D01*
X4361590Y543705D01*
X4361018Y544086D01*
X4360257Y544562D01*
X4359495Y545228D01*
X4358638Y545990D01*
X4357782Y546846D01*
X4357115Y547798D01*
X4357020Y547894D01*
X4356830Y548274D01*
X4356544Y548846D01*
X4356258Y549702D01*
X4355973Y550559D01*
X4355687Y551702D01*
X4355497Y552844D01*
X4355402Y554082D01*
Y554272D01*
Y554653D01*
X4355497Y555224D01*
X4355592Y555986D01*
X4355687Y556842D01*
X4355973Y557794D01*
X4356258Y558842D01*
X4356734Y559794D01*
X4356830Y559889D01*
X4357020Y560270D01*
X4357306Y560746D01*
X4357782Y561317D01*
X4358353Y562078D01*
X4359019Y562840D01*
X4359781Y563602D01*
X4360638Y564268D01*
X4360733Y564363D01*
X4361018Y564458D01*
X4361399Y564744D01*
X4361970Y565030D01*
X4362637Y565410D01*
X4363494Y565791D01*
X4364446Y566172D01*
X4365588Y566553D01*
X4365778D01*
X4366159Y566743D01*
X4366826Y566838D01*
X4367682Y567029D01*
X4368730Y567219D01*
X4369872Y567314D01*
X4371110Y567505D01*
X4373394D01*
X4374442Y567410D01*
D02*
G37*
G36*
X4294854Y520000D02*
X4286667D01*
Y573598D01*
X4267913Y520000D01*
X4260297D01*
X4241828Y574550D01*
Y520000D01*
X4233641D01*
Y584070D01*
X4246398D01*
X4261534Y538659D01*
Y538564D01*
X4261630Y538374D01*
X4261725Y538088D01*
X4261915Y537612D01*
X4262296Y536470D01*
X4262677Y535137D01*
X4263248Y533614D01*
X4263724Y531995D01*
X4264200Y530472D01*
X4264581Y529139D01*
X4264676Y529330D01*
X4264771Y529806D01*
X4265057Y530567D01*
X4265438Y531710D01*
X4265914Y533233D01*
X4266485Y534946D01*
X4267246Y537041D01*
X4268008Y539421D01*
X4283430Y584070D01*
X4294854D01*
Y520000D01*
D02*
G37*
G36*
X4409856Y547703D02*
X4428420Y566458D01*
X4438606D01*
X4420899Y549131D01*
X4440415Y520000D01*
X4430705D01*
X4415282Y543705D01*
X4409856Y538374D01*
Y520000D01*
X4401954D01*
Y584070D01*
X4409856D01*
Y547703D01*
D02*
G37*
G36*
X4329126Y567410D02*
X4330459Y567314D01*
X4332078Y567124D01*
X4333696Y566934D01*
X4335219Y566553D01*
X4336742Y566077D01*
X4336933Y565982D01*
X4337314Y565791D01*
X4337980Y565506D01*
X4338837Y565125D01*
X4339694Y564554D01*
X4340646Y563982D01*
X4341407Y563316D01*
X4342169Y562554D01*
X4342264Y562459D01*
X4342454Y562174D01*
X4342740Y561698D01*
X4343121Y561126D01*
X4343597Y560365D01*
X4343978Y559413D01*
X4344358Y558366D01*
X4344644Y557223D01*
Y557128D01*
X4344739Y556842D01*
X4344834Y556271D01*
X4344930Y555605D01*
Y554558D01*
X4345025Y553320D01*
X4345120Y551797D01*
Y549988D01*
Y539421D01*
Y539326D01*
Y538945D01*
Y538374D01*
Y537707D01*
Y536755D01*
Y535803D01*
X4345215Y533614D01*
Y531234D01*
X4345310Y528949D01*
X4345406Y527902D01*
Y526950D01*
X4345501Y526188D01*
X4345596Y525522D01*
Y525426D01*
X4345691Y525046D01*
X4345786Y524474D01*
X4345977Y523808D01*
X4346262Y522951D01*
X4346643Y521999D01*
X4347500Y520000D01*
X4339313D01*
X4339218Y520095D01*
X4339122Y520476D01*
X4338932Y520952D01*
X4338646Y521618D01*
X4338361Y522475D01*
X4338170Y523522D01*
X4337980Y524570D01*
X4337790Y525807D01*
X4337599Y525617D01*
X4337028Y525236D01*
X4336171Y524570D01*
X4335124Y523713D01*
X4333791Y522856D01*
X4332363Y521999D01*
X4330840Y521142D01*
X4329317Y520476D01*
X4329126Y520381D01*
X4328650Y520286D01*
X4327794Y520000D01*
X4326746Y519714D01*
X4325414Y519429D01*
X4323986Y519238D01*
X4322367Y519048D01*
X4320654Y518953D01*
X4319892D01*
X4319416Y519048D01*
X4318750D01*
X4317988Y519143D01*
X4316274Y519429D01*
X4314370Y519905D01*
X4312466Y520476D01*
X4310562Y521428D01*
X4308849Y522666D01*
X4308658Y522856D01*
X4308182Y523332D01*
X4307516Y524189D01*
X4306850Y525236D01*
X4306088Y526664D01*
X4305422Y528282D01*
X4304946Y530091D01*
X4304850Y531138D01*
X4304755Y532186D01*
Y532376D01*
Y532757D01*
X4304850Y533423D01*
X4304946Y534280D01*
X4305136Y535232D01*
X4305422Y536279D01*
X4305802Y537422D01*
X4306278Y538469D01*
X4306374Y538564D01*
X4306564Y538945D01*
X4306850Y539421D01*
X4307326Y540087D01*
X4307897Y540849D01*
X4308658Y541610D01*
X4309420Y542277D01*
X4310277Y542943D01*
X4310372Y543038D01*
X4310753Y543229D01*
X4311229Y543514D01*
X4311990Y543895D01*
X4312847Y544371D01*
X4313799Y544752D01*
X4314846Y545228D01*
X4315989Y545609D01*
X4316084D01*
X4316465Y545704D01*
X4317036Y545799D01*
X4317798Y545990D01*
X4318750Y546180D01*
X4319987Y546370D01*
X4321415Y546561D01*
X4323034Y546751D01*
X4323129D01*
X4323414Y546846D01*
X4323986D01*
X4324652Y546942D01*
X4325414Y547037D01*
X4326270Y547227D01*
X4327318Y547322D01*
X4328365Y547513D01*
X4330745Y547894D01*
X4333030Y548370D01*
X4335219Y548941D01*
X4336266Y549226D01*
X4337123Y549512D01*
Y549607D01*
Y549798D01*
X4337218Y550369D01*
Y551035D01*
Y551321D01*
Y551511D01*
Y551606D01*
Y551702D01*
Y552273D01*
X4337123Y553130D01*
X4336933Y554177D01*
X4336647Y555319D01*
X4336266Y556462D01*
X4335695Y557414D01*
X4334934Y558270D01*
X4334838Y558366D01*
X4334362Y558746D01*
X4333696Y559127D01*
X4332649Y559698D01*
X4331411Y560174D01*
X4329793Y560650D01*
X4327984Y560936D01*
X4325890Y561031D01*
X4325033D01*
X4323986Y560936D01*
X4322843Y560746D01*
X4321510Y560555D01*
X4320082Y560174D01*
X4318845Y559698D01*
X4317702Y559032D01*
X4317607Y558937D01*
X4317226Y558651D01*
X4316750Y558175D01*
X4316179Y557509D01*
X4315608Y556557D01*
X4314942Y555319D01*
X4314370Y553891D01*
X4313799Y552178D01*
X4306088Y553225D01*
Y553320D01*
X4306183Y553415D01*
X4306278Y554082D01*
X4306564Y554938D01*
X4306945Y556081D01*
X4307421Y557318D01*
X4307992Y558651D01*
X4308658Y559889D01*
X4309515Y561126D01*
X4309610Y561222D01*
X4309991Y561602D01*
X4310467Y562174D01*
X4311324Y562840D01*
X4312276Y563602D01*
X4313418Y564363D01*
X4314846Y565125D01*
X4316465Y565791D01*
X4316560D01*
X4316655Y565886D01*
X4316941Y565982D01*
X4317322Y566077D01*
X4318274Y566362D01*
X4319511Y566648D01*
X4321034Y566934D01*
X4322843Y567219D01*
X4324842Y567410D01*
X4327032Y567505D01*
X4327984D01*
X4329126Y567410D01*
D02*
G37*
G36*
X4100742Y576549D02*
X4079607D01*
Y520000D01*
X4071134D01*
Y576549D01*
X4050000D01*
Y584070D01*
X4100742D01*
Y576549D01*
D02*
G37*
G36*
X4128826Y567410D02*
X4129587Y567314D01*
X4130539Y567219D01*
X4131586Y567029D01*
X4132824Y566743D01*
X4135299Y565982D01*
X4136537Y565506D01*
X4137870Y564839D01*
X4139202Y564173D01*
X4140535Y563316D01*
X4141773Y562364D01*
X4142915Y561222D01*
X4143010Y561126D01*
X4143201Y560936D01*
X4143486Y560555D01*
X4143867Y560079D01*
X4144343Y559413D01*
X4144819Y558651D01*
X4145390Y557699D01*
X4145962Y556652D01*
X4146533Y555510D01*
X4147104Y554177D01*
X4147580Y552749D01*
X4148056Y551226D01*
X4148437Y549512D01*
X4148722Y547703D01*
X4148913Y545799D01*
X4149008Y543800D01*
Y543705D01*
Y543419D01*
Y542943D01*
Y542372D01*
X4148913Y541610D01*
Y540658D01*
X4148818Y539706D01*
X4148627Y538659D01*
X4148342Y536470D01*
X4147866Y534090D01*
X4147199Y531805D01*
X4146247Y529710D01*
Y529615D01*
X4146152Y529520D01*
X4145962Y529234D01*
X4145771Y528854D01*
X4145105Y527902D01*
X4144248Y526759D01*
X4143201Y525522D01*
X4141868Y524189D01*
X4140250Y522856D01*
X4138441Y521714D01*
X4138346D01*
X4138250Y521618D01*
X4137965Y521428D01*
X4137584Y521333D01*
X4137108Y521047D01*
X4136537Y520857D01*
X4135109Y520381D01*
X4133395Y519810D01*
X4131491Y519429D01*
X4129397Y519048D01*
X4127207Y518953D01*
X4126255D01*
X4125589Y519048D01*
X4124732Y519143D01*
X4123780Y519238D01*
X4122733Y519429D01*
X4121590Y519714D01*
X4119115Y520476D01*
X4117782Y520952D01*
X4116450Y521523D01*
X4115212Y522285D01*
X4113879Y523142D01*
X4112642Y524094D01*
X4111499Y525141D01*
X4111404Y525236D01*
X4111214Y525426D01*
X4110928Y525807D01*
X4110547Y526283D01*
X4110071Y526950D01*
X4109595Y527711D01*
X4109024Y528663D01*
X4108548Y529806D01*
X4107977Y530948D01*
X4107406Y532281D01*
X4106930Y533804D01*
X4106454Y535422D01*
X4106073Y537136D01*
X4105787Y539040D01*
X4105597Y541039D01*
X4105502Y543229D01*
Y543419D01*
Y543800D01*
X4105597Y544466D01*
Y545323D01*
X4105692Y546370D01*
X4105882Y547608D01*
X4106073Y548941D01*
X4106358Y550464D01*
X4106739Y551987D01*
X4107215Y553510D01*
X4107786Y555129D01*
X4108548Y556652D01*
X4109310Y558175D01*
X4110262Y559698D01*
X4111404Y561031D01*
X4112642Y562269D01*
X4112737Y562364D01*
X4112927Y562459D01*
X4113213Y562745D01*
X4113689Y563126D01*
X4114260Y563506D01*
X4115022Y563887D01*
X4115783Y564363D01*
X4116735Y564934D01*
X4117687Y565410D01*
X4118830Y565886D01*
X4121305Y566648D01*
X4124161Y567314D01*
X4125589Y567410D01*
X4127207Y567505D01*
X4128159D01*
X4128826Y567410D01*
D02*
G37*
%LPC*%
G36*
X3975163Y1082658D02*
X3975158Y1082654D01*
Y1082558D01*
X3975163Y1082658D01*
D02*
G37*
G36*
X3988201Y1084653D02*
X3987725D01*
X3987344Y1084558D01*
X3986297Y1084462D01*
X3985059Y1084177D01*
X3983726Y1083701D01*
X3982298Y1083034D01*
X3980870Y1082082D01*
X3979633Y1080750D01*
X3979538Y1080559D01*
X3979157Y1080083D01*
X3978681Y1079131D01*
X3978110Y1077989D01*
X3977538Y1076370D01*
X3977062Y1074562D01*
X3976682Y1072467D01*
X3976586Y1069992D01*
Y1069897D01*
Y1069706D01*
Y1069326D01*
X3976682Y1068850D01*
Y1068278D01*
X3976777Y1067612D01*
X3976967Y1066089D01*
X3977348Y1064375D01*
X3977919Y1062566D01*
X3978586Y1060853D01*
X3979633Y1059234D01*
X3979823Y1059044D01*
X3980204Y1058663D01*
X3980870Y1057997D01*
X3981918Y1057330D01*
X3983155Y1056664D01*
X3984583Y1055998D01*
X3986297Y1055617D01*
X3988201Y1055426D01*
X3988772D01*
X3989153Y1055522D01*
X3990105Y1055617D01*
X3991342Y1055902D01*
X3992770Y1056283D01*
X3994103Y1056950D01*
X3995531Y1057806D01*
X3996674Y1059044D01*
X3996769Y1059234D01*
X3997150Y1059710D01*
X3997626Y1060567D01*
X3998102Y1061805D01*
X3998673Y1063328D01*
X3999054Y1065232D01*
X3999434Y1067422D01*
X3999530Y1069992D01*
Y1070087D01*
Y1070278D01*
Y1070658D01*
Y1071230D01*
X3999434Y1071801D01*
X3999339Y1072467D01*
X3999149Y1074086D01*
X3998863Y1075894D01*
X3998292Y1077703D01*
X3997626Y1079417D01*
X3996674Y1080940D01*
X3996578Y1081130D01*
X3996102Y1081511D01*
X3995436Y1082082D01*
X3994579Y1082844D01*
X3993342Y1083510D01*
X3991914Y1084082D01*
X3990200Y1084462D01*
X3988201Y1084653D01*
D02*
G37*
G36*
X3676516Y1107025D02*
X3675945D01*
X3675564Y1106930D01*
X3674612Y1106834D01*
X3673374Y1106549D01*
X3671946Y1106168D01*
X3670614Y1105502D01*
X3669186Y1104550D01*
X3668043Y1103312D01*
X3667948Y1103122D01*
X3667662Y1102646D01*
X3667186Y1101789D01*
X3666710Y1100551D01*
X3666139Y1099028D01*
X3665758Y1097124D01*
X3665378Y1094934D01*
X3665282Y1092364D01*
Y1092269D01*
Y1092078D01*
Y1091698D01*
Y1091222D01*
X3665378Y1090555D01*
X3665473Y1089889D01*
X3665663Y1088270D01*
X3665949Y1086557D01*
X3666425Y1084653D01*
X3667091Y1082939D01*
X3668043Y1081416D01*
X3668138Y1081226D01*
X3668614Y1080845D01*
X3669281Y1080274D01*
X3670138Y1079607D01*
X3671375Y1078941D01*
X3672803Y1078370D01*
X3674517Y1077989D01*
X3676516Y1077798D01*
X3677087D01*
X3677373Y1077894D01*
X3678420Y1077989D01*
X3679658Y1078274D01*
X3680990Y1078750D01*
X3682418Y1079417D01*
X3683751Y1080369D01*
X3684989Y1081606D01*
X3685084Y1081797D01*
X3685465Y1082368D01*
X3685941Y1083225D01*
X3686607Y1084462D01*
X3687178Y1085986D01*
X3687654Y1087794D01*
X3688035Y1089984D01*
X3688130Y1092364D01*
Y1092459D01*
Y1092650D01*
Y1093030D01*
Y1093506D01*
X3688035Y1094078D01*
X3687940Y1094744D01*
X3687750Y1096267D01*
X3687369Y1097981D01*
X3686798Y1099790D01*
X3686036Y1101503D01*
X3684989Y1103122D01*
X3684894Y1103312D01*
X3684418Y1103693D01*
X3683751Y1104359D01*
X3682799Y1105121D01*
X3681562Y1105787D01*
X3680134Y1106454D01*
X3678420Y1106834D01*
X3676516Y1107025D01*
D02*
G37*
G36*
X4246764Y1105692D02*
X4236958D01*
Y1082178D01*
X4247335D01*
X4247716Y1082273D01*
X4248763Y1082368D01*
X4250096Y1082558D01*
X4251524Y1082939D01*
X4253047Y1083510D01*
X4254570Y1084177D01*
X4255903Y1085224D01*
X4256094Y1085414D01*
X4256474Y1085795D01*
X4256950Y1086557D01*
X4257617Y1087509D01*
X4258188Y1088746D01*
X4258759Y1090174D01*
X4259140Y1091888D01*
X4259235Y1093887D01*
Y1093982D01*
Y1094173D01*
Y1094458D01*
X4259140Y1094839D01*
X4259045Y1095791D01*
X4258854Y1097124D01*
X4258378Y1098457D01*
X4257807Y1099885D01*
X4257046Y1101313D01*
X4255903Y1102550D01*
X4255713Y1102646D01*
X4255332Y1103026D01*
X4254570Y1103502D01*
X4253523Y1104169D01*
X4252286Y1104740D01*
X4250667Y1105216D01*
X4248858Y1105597D01*
X4246764Y1105692D01*
D02*
G37*
G36*
X4095872Y1104835D02*
X4076166Y1071801D01*
X4095872D01*
Y1104835D01*
D02*
G37*
G36*
X4142615Y1107025D02*
X4142044D01*
X4141663Y1106930D01*
X4140616Y1106644D01*
X4139283Y1106263D01*
X4137855Y1105406D01*
X4137094Y1104930D01*
X4136427Y1104264D01*
X4135666Y1103598D01*
X4134999Y1102646D01*
X4134333Y1101694D01*
X4133762Y1100551D01*
Y1100456D01*
X4133666Y1100266D01*
X4133476Y1099885D01*
X4133286Y1099314D01*
X4133095Y1098647D01*
X4132905Y1097886D01*
X4132619Y1096838D01*
X4132334Y1095696D01*
X4132048Y1094458D01*
X4131858Y1093030D01*
X4131572Y1091412D01*
X4131382Y1089698D01*
X4131191Y1087794D01*
X4131001Y1085700D01*
X4130906Y1083510D01*
Y1081130D01*
Y1080940D01*
Y1080559D01*
Y1079893D01*
X4131001Y1079036D01*
Y1077894D01*
X4131096Y1076656D01*
X4131191Y1075323D01*
X4131286Y1073895D01*
X4131572Y1070754D01*
X4132143Y1067517D01*
X4132429Y1065994D01*
X4132810Y1064470D01*
X4133286Y1063042D01*
X4133762Y1061805D01*
Y1061710D01*
X4133857Y1061519D01*
X4134047Y1061234D01*
X4134333Y1060853D01*
X4134999Y1059806D01*
X4135951Y1058663D01*
X4137189Y1057426D01*
X4138712Y1056474D01*
X4139569Y1055998D01*
X4140521Y1055712D01*
X4141568Y1055522D01*
X4142615Y1055426D01*
X4143186D01*
X4143567Y1055522D01*
X4144710Y1055807D01*
X4145947Y1056188D01*
X4147470Y1056950D01*
X4148137Y1057521D01*
X4148898Y1058092D01*
X4149660Y1058854D01*
X4150326Y1059710D01*
X4150993Y1060662D01*
X4151564Y1061805D01*
Y1061900D01*
X4151659Y1062090D01*
X4151850Y1062471D01*
X4152040Y1063042D01*
X4152230Y1063709D01*
X4152516Y1064470D01*
X4152802Y1065518D01*
X4153087Y1066660D01*
X4153278Y1067898D01*
X4153563Y1069326D01*
X4153849Y1070944D01*
X4154039Y1072658D01*
X4154230Y1074562D01*
X4154420Y1076561D01*
X4154515Y1078750D01*
Y1081130D01*
Y1081321D01*
Y1081702D01*
Y1082368D01*
Y1083225D01*
X4154420Y1084367D01*
X4154325Y1085605D01*
X4154230Y1086938D01*
X4154134Y1088461D01*
X4153754Y1091602D01*
X4153278Y1094839D01*
X4152897Y1096362D01*
X4152516Y1097886D01*
X4152040Y1099314D01*
X4151564Y1100551D01*
Y1100646D01*
X4151469Y1100837D01*
X4151278Y1101122D01*
X4150993Y1101598D01*
X4150326Y1102646D01*
X4149374Y1103788D01*
X4148042Y1105026D01*
X4146518Y1105978D01*
X4145662Y1106454D01*
X4144710Y1106739D01*
X4143662Y1106930D01*
X4142615Y1107025D01*
D02*
G37*
%LPD*%
G36*
X4143377Y1086938D02*
X4143948Y1086842D01*
X4144614Y1086652D01*
X4145281Y1086271D01*
X4145947Y1085890D01*
X4146614Y1085319D01*
X4146709Y1085224D01*
X4146899Y1085034D01*
X4147185Y1084653D01*
X4147470Y1084177D01*
X4147756Y1083606D01*
X4148042Y1082939D01*
X4148232Y1082178D01*
X4148327Y1081321D01*
Y1081226D01*
Y1080940D01*
X4148232Y1080559D01*
X4148137Y1079988D01*
X4147946Y1079322D01*
X4147566Y1078750D01*
X4147185Y1078084D01*
X4146614Y1077418D01*
X4146518Y1077322D01*
X4146328Y1077132D01*
X4145947Y1076942D01*
X4145471Y1076656D01*
X4144900Y1076275D01*
X4144234Y1076085D01*
X4143377Y1075894D01*
X4142520Y1075799D01*
X4142139D01*
X4141758Y1075894D01*
X4141187Y1075990D01*
X4140521Y1076180D01*
X4139950Y1076466D01*
X4139283Y1076846D01*
X4138617Y1077322D01*
X4138522Y1077418D01*
X4138426Y1077608D01*
X4138141Y1077989D01*
X4137855Y1078465D01*
X4137570Y1079036D01*
X4137379Y1079702D01*
X4137189Y1080464D01*
X4137094Y1081321D01*
Y1081416D01*
Y1081702D01*
X4137189Y1082178D01*
X4137284Y1082654D01*
X4137474Y1083320D01*
X4137760Y1083986D01*
X4138141Y1084653D01*
X4138712Y1085319D01*
X4138807Y1085414D01*
X4138998Y1085605D01*
X4139378Y1085890D01*
X4139759Y1086176D01*
X4140330Y1086462D01*
X4140997Y1086747D01*
X4141758Y1086938D01*
X4142520Y1087033D01*
X4142901D01*
X4143377Y1086938D01*
D02*
G37*
%LPC*%
G36*
X3935746Y1191507D02*
X3935174D01*
X3934889Y1191412D01*
X3933842Y1191317D01*
X3932604Y1190936D01*
X3931271Y1190365D01*
X3929843Y1189603D01*
X3928510Y1188461D01*
X3927939Y1187699D01*
X3927368Y1186938D01*
Y1186842D01*
X3927273Y1186747D01*
X3927082Y1186462D01*
X3926892Y1186081D01*
X3926702Y1185605D01*
X3926511Y1185034D01*
X3926226Y1184367D01*
X3925940Y1183510D01*
X3925654Y1182654D01*
X3925464Y1181606D01*
X3925178Y1180559D01*
X3924988Y1179322D01*
X3924798Y1177989D01*
X3924607Y1176561D01*
X3924512Y1175038D01*
Y1173419D01*
Y1173324D01*
Y1173038D01*
Y1172562D01*
X3924607Y1171896D01*
Y1171230D01*
X3924702Y1170278D01*
X3924893Y1168374D01*
X3925178Y1166089D01*
X3925750Y1163899D01*
X3926416Y1161710D01*
X3926892Y1160758D01*
X3927368Y1159806D01*
X3927463Y1159615D01*
X3927939Y1159139D01*
X3928606Y1158378D01*
X3929462Y1157616D01*
X3930700Y1156759D01*
X3932128Y1155998D01*
X3933842Y1155522D01*
X3934698Y1155426D01*
X3935746Y1155331D01*
X3936317D01*
X3936698Y1155426D01*
X3937650Y1155617D01*
X3938887Y1155902D01*
X3940315Y1156474D01*
X3941743Y1157235D01*
X3943076Y1158378D01*
X3943742Y1159139D01*
X3944314Y1159901D01*
Y1159996D01*
X3944409Y1160091D01*
X3944599Y1160377D01*
X3944790Y1160758D01*
X3944980Y1161234D01*
X3945266Y1161805D01*
X3945551Y1162471D01*
X3945837Y1163328D01*
X3946027Y1164185D01*
X3946313Y1165232D01*
X3946598Y1166279D01*
X3946789Y1167517D01*
X3946979Y1168850D01*
X3947170Y1170278D01*
X3947265Y1171801D01*
Y1173419D01*
Y1173514D01*
Y1173800D01*
Y1174276D01*
Y1174847D01*
X3947170Y1175609D01*
X3947074Y1176466D01*
X3946884Y1178465D01*
X3946503Y1180559D01*
X3946027Y1182844D01*
X3945266Y1184938D01*
X3944790Y1185986D01*
X3944314Y1186842D01*
Y1186938D01*
X3944218Y1187033D01*
X3943742Y1187604D01*
X3943076Y1188366D01*
X3942124Y1189222D01*
X3940886Y1190079D01*
X3939458Y1190746D01*
X3937745Y1191317D01*
X3936793Y1191412D01*
X3935746Y1191507D01*
D02*
G37*
G36*
X3677278D02*
X3676706D01*
X3676421Y1191412D01*
X3675374Y1191317D01*
X3674136Y1190936D01*
X3672803Y1190365D01*
X3671375Y1189603D01*
X3670042Y1188461D01*
X3669471Y1187699D01*
X3668900Y1186938D01*
Y1186842D01*
X3668805Y1186747D01*
X3668614Y1186462D01*
X3668424Y1186081D01*
X3668234Y1185605D01*
X3668043Y1185034D01*
X3667758Y1184367D01*
X3667472Y1183510D01*
X3667186Y1182654D01*
X3666996Y1181606D01*
X3666710Y1180559D01*
X3666520Y1179322D01*
X3666330Y1177989D01*
X3666139Y1176561D01*
X3666044Y1175038D01*
Y1173419D01*
Y1173324D01*
Y1173038D01*
Y1172562D01*
X3666139Y1171896D01*
Y1171230D01*
X3666234Y1170278D01*
X3666425Y1168374D01*
X3666710Y1166089D01*
X3667282Y1163899D01*
X3667948Y1161710D01*
X3668424Y1160758D01*
X3668900Y1159806D01*
X3668995Y1159615D01*
X3669471Y1159139D01*
X3670138Y1158378D01*
X3670994Y1157616D01*
X3672232Y1156759D01*
X3673660Y1155998D01*
X3675374Y1155522D01*
X3676230Y1155426D01*
X3677278Y1155331D01*
X3677849D01*
X3678230Y1155426D01*
X3679182Y1155617D01*
X3680419Y1155902D01*
X3681847Y1156474D01*
X3683275Y1157235D01*
X3684608Y1158378D01*
X3685274Y1159139D01*
X3685846Y1159901D01*
Y1159996D01*
X3685941Y1160091D01*
X3686131Y1160377D01*
X3686322Y1160758D01*
X3686512Y1161234D01*
X3686798Y1161805D01*
X3687083Y1162471D01*
X3687369Y1163328D01*
X3687559Y1164185D01*
X3687845Y1165232D01*
X3688130Y1166279D01*
X3688321Y1167517D01*
X3688511Y1168850D01*
X3688702Y1170278D01*
X3688797Y1171801D01*
Y1173419D01*
Y1173514D01*
Y1173800D01*
Y1174276D01*
Y1174847D01*
X3688702Y1175609D01*
X3688606Y1176466D01*
X3688416Y1178465D01*
X3688035Y1180559D01*
X3687559Y1182844D01*
X3686798Y1184938D01*
X3686322Y1185986D01*
X3685846Y1186842D01*
Y1186938D01*
X3685750Y1187033D01*
X3685274Y1187604D01*
X3684608Y1188366D01*
X3683656Y1189222D01*
X3682418Y1190079D01*
X3680990Y1190746D01*
X3679277Y1191317D01*
X3678325Y1191412D01*
X3677278Y1191507D01*
D02*
G37*
G36*
X3379397Y1173610D02*
X3368449D01*
X3367878Y1173514D01*
X3367211D01*
X3365783Y1173324D01*
X3364070Y1173038D01*
X3362356Y1172562D01*
X3360738Y1171991D01*
X3359310Y1171230D01*
X3359214Y1171134D01*
X3358834Y1170754D01*
X3358262Y1170182D01*
X3357691Y1169421D01*
X3357025Y1168469D01*
X3356549Y1167231D01*
X3356168Y1165803D01*
X3355978Y1164090D01*
Y1163899D01*
Y1163423D01*
X3356073Y1162662D01*
X3356263Y1161710D01*
X3356549Y1160662D01*
X3357025Y1159520D01*
X3357596Y1158473D01*
X3358453Y1157521D01*
X3358548Y1157426D01*
X3358929Y1157140D01*
X3359500Y1156759D01*
X3360357Y1156378D01*
X3361309Y1155998D01*
X3362546Y1155617D01*
X3363974Y1155331D01*
X3365593Y1155236D01*
X3366164D01*
X3366640Y1155331D01*
X3367211D01*
X3367782Y1155426D01*
X3369210Y1155807D01*
X3370829Y1156283D01*
X3372542Y1157045D01*
X3374161Y1158187D01*
X3374922Y1158854D01*
X3375589Y1159615D01*
Y1159710D01*
X3375779Y1159806D01*
X3375970Y1160091D01*
X3376160Y1160472D01*
X3376446Y1160853D01*
X3376731Y1161424D01*
X3377493Y1162757D01*
X3378159Y1164470D01*
X3378730Y1166565D01*
X3379206Y1169040D01*
X3379397Y1171801D01*
Y1173610D01*
D02*
G37*
G36*
X3886527Y1191507D02*
X3885956D01*
X3885575Y1191412D01*
X3884528Y1191317D01*
X3883290Y1191031D01*
X3881767Y1190650D01*
X3880244Y1189984D01*
X3878721Y1189032D01*
X3877293Y1187794D01*
X3877102Y1187604D01*
X3876722Y1187128D01*
X3876150Y1186271D01*
X3875484Y1185129D01*
X3874722Y1183701D01*
X3874056Y1181892D01*
X3873485Y1179798D01*
X3873104Y1177513D01*
X3898522Y1177608D01*
Y1177703D01*
Y1177894D01*
Y1178274D01*
X3898427Y1178750D01*
Y1179322D01*
X3898332Y1179893D01*
X3898046Y1181416D01*
X3897666Y1183130D01*
X3897094Y1184843D01*
X3896333Y1186462D01*
X3895286Y1187890D01*
X3895190Y1188080D01*
X3894714Y1188461D01*
X3894048Y1189032D01*
X3893096Y1189698D01*
X3891858Y1190365D01*
X3890335Y1190936D01*
X3888526Y1191317D01*
X3886527Y1191507D01*
D02*
G37*
G36*
X3626822D02*
X3626250D01*
X3625870Y1191412D01*
X3624822Y1191317D01*
X3623585Y1190936D01*
X3622157Y1190365D01*
X3620634Y1189603D01*
X3619206Y1188461D01*
X3618539Y1187699D01*
X3617968Y1186938D01*
Y1186842D01*
X3617873Y1186747D01*
X3617682Y1186462D01*
X3617492Y1186081D01*
X3617302Y1185605D01*
X3617016Y1185034D01*
X3616730Y1184367D01*
X3616540Y1183510D01*
X3616254Y1182654D01*
X3615969Y1181606D01*
X3615683Y1180559D01*
X3615493Y1179322D01*
X3615302Y1177989D01*
X3615112Y1176561D01*
X3615017Y1175038D01*
Y1173419D01*
Y1173324D01*
Y1173038D01*
Y1172562D01*
X3615112Y1171991D01*
Y1171230D01*
X3615207Y1170373D01*
X3615398Y1168374D01*
X3615778Y1166184D01*
X3616254Y1163899D01*
X3617016Y1161805D01*
X3617492Y1160853D01*
X3617968Y1159901D01*
Y1159806D01*
X3618158Y1159710D01*
X3618539Y1159234D01*
X3619206Y1158473D01*
X3620253Y1157616D01*
X3621490Y1156759D01*
X3623014Y1156093D01*
X3624822Y1155522D01*
X3625774Y1155426D01*
X3626822Y1155331D01*
X3627393D01*
X3627774Y1155426D01*
X3628821Y1155617D01*
X3630154Y1155902D01*
X3631582Y1156474D01*
X3633105Y1157235D01*
X3634533Y1158378D01*
X3635199Y1159139D01*
X3635770Y1159901D01*
Y1159996D01*
X3635866Y1160091D01*
X3636056Y1160377D01*
X3636246Y1160758D01*
X3636437Y1161234D01*
X3636722Y1161805D01*
X3637008Y1162471D01*
X3637294Y1163328D01*
X3637579Y1164185D01*
X3637865Y1165232D01*
X3638150Y1166279D01*
X3638341Y1167517D01*
X3638531Y1168850D01*
X3638722Y1170278D01*
X3638817Y1171801D01*
Y1173419D01*
Y1173514D01*
Y1173800D01*
Y1174276D01*
Y1174847D01*
X3638722Y1175609D01*
X3638626Y1176466D01*
X3638436Y1178465D01*
X3638055Y1180654D01*
X3637579Y1182939D01*
X3636818Y1185034D01*
X3636342Y1186081D01*
X3635770Y1186938D01*
Y1187033D01*
X3635675Y1187128D01*
X3635199Y1187699D01*
X3634533Y1188366D01*
X3633486Y1189222D01*
X3632248Y1190079D01*
X3630725Y1190841D01*
X3628916Y1191317D01*
X3627869Y1191412D01*
X3626822Y1191507D01*
D02*
G37*
G36*
X3448988Y1407406D02*
Y1407310D01*
X3448893Y1407120D01*
Y1406834D01*
X3448798Y1406358D01*
X3448607Y1405787D01*
X3448512Y1405121D01*
X3448131Y1403502D01*
X3447560Y1401694D01*
X3446989Y1399599D01*
X3446322Y1397410D01*
X3445466Y1395125D01*
X3438516Y1376370D01*
X3460222D01*
X3453558Y1393982D01*
Y1394078D01*
X3453462Y1394363D01*
X3453272Y1394744D01*
X3453082Y1395315D01*
X3452796Y1395982D01*
X3452510Y1396838D01*
X3451844Y1398742D01*
X3451082Y1400837D01*
X3450321Y1403026D01*
X3449654Y1405311D01*
X3448988Y1407406D01*
D02*
G37*
G36*
X3787995Y1407786D02*
X3787519D01*
X3787138Y1407691D01*
X3786091Y1407501D01*
X3784854Y1407215D01*
X3783521Y1406644D01*
X3782093Y1405787D01*
X3781331Y1405311D01*
X3780665Y1404645D01*
X3779998Y1403978D01*
X3779332Y1403122D01*
Y1403026D01*
X3779142Y1402836D01*
X3778951Y1402455D01*
X3778666Y1401979D01*
X3778380Y1401313D01*
X3778094Y1400456D01*
X3777714Y1399409D01*
X3777333Y1398266D01*
X3776952Y1396838D01*
X3776571Y1395315D01*
X3776286Y1393602D01*
X3776000Y1391602D01*
X3775714Y1389413D01*
X3775524Y1387033D01*
X3775429Y1384462D01*
X3775334Y1381606D01*
Y1381416D01*
Y1380940D01*
Y1380083D01*
X3775429Y1379036D01*
Y1377798D01*
X3775524Y1376370D01*
X3775619Y1374752D01*
X3775810Y1373038D01*
X3776190Y1369516D01*
X3776857Y1366089D01*
X3777238Y1364470D01*
X3777714Y1362947D01*
X3778285Y1361710D01*
X3778951Y1360567D01*
Y1360472D01*
X3779142Y1360377D01*
X3779618Y1359806D01*
X3780379Y1358949D01*
X3781522Y1357997D01*
X3782854Y1357045D01*
X3784378Y1356188D01*
X3786186Y1355617D01*
X3787138Y1355522D01*
X3788090Y1355426D01*
X3788662D01*
X3789042Y1355522D01*
X3789994Y1355712D01*
X3791232Y1356093D01*
X3792755Y1356664D01*
X3794278Y1357616D01*
X3795040Y1358187D01*
X3795802Y1358854D01*
X3796563Y1359710D01*
X3797230Y1360567D01*
Y1360662D01*
X3797420Y1360853D01*
X3797610Y1361138D01*
X3797801Y1361614D01*
X3798086Y1362281D01*
X3798372Y1363042D01*
X3798753Y1363994D01*
X3799134Y1365137D01*
X3799419Y1366470D01*
X3799800Y1367993D01*
X3800086Y1369706D01*
X3800371Y1371610D01*
X3800562Y1373800D01*
X3800752Y1376180D01*
X3800942Y1378750D01*
Y1381606D01*
Y1381797D01*
Y1382273D01*
Y1383130D01*
X3800847Y1384177D01*
Y1385414D01*
X3800752Y1386842D01*
X3800657Y1388461D01*
X3800466Y1390079D01*
X3800086Y1393602D01*
X3799419Y1397029D01*
X3798943Y1398647D01*
X3798467Y1400170D01*
X3797896Y1401408D01*
X3797230Y1402550D01*
Y1402646D01*
X3797039Y1402741D01*
X3796563Y1403407D01*
X3795802Y1404169D01*
X3794659Y1405216D01*
X3793326Y1406168D01*
X3791803Y1406930D01*
X3789994Y1407596D01*
X3789042Y1407691D01*
X3787995Y1407786D01*
D02*
G37*
G36*
X3738206D02*
X3737730D01*
X3737349Y1407691D01*
X3736302Y1407501D01*
X3735064Y1407215D01*
X3733731Y1406644D01*
X3732303Y1405787D01*
X3731542Y1405311D01*
X3730875Y1404645D01*
X3730209Y1403978D01*
X3729542Y1403122D01*
Y1403026D01*
X3729352Y1402836D01*
X3729162Y1402455D01*
X3728876Y1401979D01*
X3728590Y1401313D01*
X3728305Y1400456D01*
X3727924Y1399409D01*
X3727543Y1398266D01*
X3727162Y1396838D01*
X3726782Y1395315D01*
X3726496Y1393602D01*
X3726210Y1391602D01*
X3725925Y1389413D01*
X3725734Y1387033D01*
X3725639Y1384462D01*
X3725544Y1381606D01*
Y1381416D01*
Y1380940D01*
Y1380083D01*
X3725639Y1379036D01*
Y1377798D01*
X3725734Y1376370D01*
X3725830Y1374752D01*
X3726020Y1373038D01*
X3726401Y1369516D01*
X3727067Y1366089D01*
X3727448Y1364470D01*
X3727924Y1362947D01*
X3728495Y1361710D01*
X3729162Y1360567D01*
Y1360472D01*
X3729352Y1360377D01*
X3729828Y1359806D01*
X3730590Y1358949D01*
X3731732Y1357997D01*
X3733065Y1357045D01*
X3734588Y1356188D01*
X3736397Y1355617D01*
X3737349Y1355522D01*
X3738301Y1355426D01*
X3738872D01*
X3739253Y1355522D01*
X3740205Y1355712D01*
X3741442Y1356093D01*
X3742966Y1356664D01*
X3744489Y1357616D01*
X3745250Y1358187D01*
X3746012Y1358854D01*
X3746774Y1359710D01*
X3747440Y1360567D01*
Y1360662D01*
X3747630Y1360853D01*
X3747821Y1361138D01*
X3748011Y1361614D01*
X3748297Y1362281D01*
X3748582Y1363042D01*
X3748963Y1363994D01*
X3749344Y1365137D01*
X3749630Y1366470D01*
X3750010Y1367993D01*
X3750296Y1369706D01*
X3750582Y1371610D01*
X3750772Y1373800D01*
X3750962Y1376180D01*
X3751153Y1378750D01*
Y1381606D01*
Y1381797D01*
Y1382273D01*
Y1383130D01*
X3751058Y1384177D01*
Y1385414D01*
X3750962Y1386842D01*
X3750867Y1388461D01*
X3750677Y1390079D01*
X3750296Y1393602D01*
X3749630Y1397029D01*
X3749154Y1398647D01*
X3748678Y1400170D01*
X3748106Y1401408D01*
X3747440Y1402550D01*
Y1402646D01*
X3747250Y1402741D01*
X3746774Y1403407D01*
X3746012Y1404169D01*
X3744870Y1405216D01*
X3743537Y1406168D01*
X3742014Y1406930D01*
X3740205Y1407596D01*
X3739253Y1407691D01*
X3738206Y1407786D01*
D02*
G37*
G36*
X3563613Y1282658D02*
X3563609Y1282654D01*
Y1282558D01*
X3563613Y1282658D01*
D02*
G37*
G36*
X3576651Y1284653D02*
X3576175D01*
X3575794Y1284558D01*
X3574747Y1284462D01*
X3573510Y1284177D01*
X3572177Y1283701D01*
X3570749Y1283034D01*
X3569321Y1282082D01*
X3568083Y1280750D01*
X3567988Y1280559D01*
X3567607Y1280083D01*
X3567131Y1279131D01*
X3566560Y1277989D01*
X3565989Y1276370D01*
X3565513Y1274562D01*
X3565132Y1272467D01*
X3565037Y1269992D01*
Y1269897D01*
Y1269706D01*
Y1269326D01*
X3565132Y1268850D01*
Y1268278D01*
X3565227Y1267612D01*
X3565418Y1266089D01*
X3565798Y1264375D01*
X3566370Y1262566D01*
X3567036Y1260853D01*
X3568083Y1259234D01*
X3568274Y1259044D01*
X3568654Y1258663D01*
X3569321Y1257997D01*
X3570368Y1257330D01*
X3571606Y1256664D01*
X3573034Y1255998D01*
X3574747Y1255617D01*
X3576651Y1255426D01*
X3577222D01*
X3577603Y1255522D01*
X3578555Y1255617D01*
X3579793Y1255902D01*
X3581221Y1256283D01*
X3582554Y1256950D01*
X3583982Y1257806D01*
X3585124Y1259044D01*
X3585219Y1259234D01*
X3585600Y1259710D01*
X3586076Y1260567D01*
X3586552Y1261805D01*
X3587123Y1263328D01*
X3587504Y1265232D01*
X3587885Y1267422D01*
X3587980Y1269992D01*
Y1270087D01*
Y1270278D01*
Y1270658D01*
Y1271230D01*
X3587885Y1271801D01*
X3587790Y1272467D01*
X3587599Y1274086D01*
X3587314Y1275894D01*
X3586742Y1277703D01*
X3586076Y1279417D01*
X3585124Y1280940D01*
X3585029Y1281130D01*
X3584553Y1281511D01*
X3583886Y1282082D01*
X3583030Y1282844D01*
X3581792Y1283510D01*
X3580364Y1284082D01*
X3578650Y1284462D01*
X3576651Y1284653D01*
D02*
G37*
G36*
X4356339Y1304835D02*
X4336633Y1271801D01*
X4356339D01*
Y1304835D01*
D02*
G37*
G36*
X4142139Y1305692D02*
X4133286D01*
Y1283415D01*
X4143567D01*
X4144614Y1283606D01*
X4145947Y1283796D01*
X4147375Y1284082D01*
X4148898Y1284558D01*
X4150326Y1285224D01*
X4151564Y1286081D01*
X4151659Y1286176D01*
X4152040Y1286557D01*
X4152516Y1287223D01*
X4153087Y1288175D01*
X4153658Y1289318D01*
X4154134Y1290746D01*
X4154515Y1292459D01*
X4154610Y1294458D01*
Y1294554D01*
Y1294744D01*
Y1294934D01*
Y1295315D01*
X4154420Y1296362D01*
X4154230Y1297505D01*
X4153849Y1298838D01*
X4153278Y1300266D01*
X4152421Y1301598D01*
X4151374Y1302741D01*
X4151183Y1302836D01*
X4150802Y1303217D01*
X4150041Y1303693D01*
X4149089Y1304264D01*
X4147756Y1304740D01*
X4146138Y1305216D01*
X4144329Y1305597D01*
X4142139Y1305692D01*
D02*
G37*
G36*
X3775143D02*
X3771145D01*
Y1256950D01*
X3776190D01*
X3776857Y1257045D01*
X3777714Y1257140D01*
X3778761Y1257235D01*
X3779808Y1257426D01*
X3781046Y1257616D01*
X3783521Y1258187D01*
X3785996Y1259139D01*
X3787138Y1259806D01*
X3788186Y1260472D01*
X3789233Y1261234D01*
X3790090Y1262186D01*
X3790185Y1262281D01*
X3790280Y1262471D01*
X3790470Y1262757D01*
X3790756Y1263233D01*
X3791042Y1263804D01*
X3791422Y1264566D01*
X3791803Y1265518D01*
X3792279Y1266565D01*
X3792660Y1267707D01*
X3793041Y1269135D01*
X3793422Y1270658D01*
X3793707Y1272467D01*
X3793993Y1274371D01*
X3794183Y1276466D01*
X3794374Y1278750D01*
Y1281226D01*
Y1281416D01*
Y1281797D01*
Y1282558D01*
X3794278Y1283510D01*
Y1284653D01*
X3794183Y1285890D01*
X3793993Y1287318D01*
X3793802Y1288842D01*
X3793326Y1291983D01*
X3792565Y1295125D01*
X3792089Y1296648D01*
X3791518Y1298076D01*
X3790851Y1299314D01*
X3790090Y1300361D01*
Y1300456D01*
X3789899Y1300551D01*
X3789614Y1300837D01*
X3789233Y1301218D01*
X3788757Y1301598D01*
X3788186Y1302074D01*
X3787519Y1302550D01*
X3786662Y1303026D01*
X3785710Y1303502D01*
X3784568Y1303978D01*
X3783426Y1304454D01*
X3781998Y1304835D01*
X3780474Y1305216D01*
X3778856Y1305502D01*
X3777047Y1305597D01*
X3775143Y1305692D01*
D02*
G37*
G36*
X3318278D02*
X3308473D01*
Y1282178D01*
X3318850D01*
X3319230Y1282273D01*
X3320278Y1282368D01*
X3321610Y1282558D01*
X3323038Y1282939D01*
X3324562Y1283510D01*
X3326085Y1284177D01*
X3327418Y1285224D01*
X3327608Y1285414D01*
X3327989Y1285795D01*
X3328465Y1286557D01*
X3329131Y1287509D01*
X3329702Y1288746D01*
X3330274Y1290174D01*
X3330654Y1291888D01*
X3330750Y1293887D01*
Y1293982D01*
Y1294173D01*
Y1294458D01*
X3330654Y1294839D01*
X3330559Y1295791D01*
X3330369Y1297124D01*
X3329893Y1298457D01*
X3329322Y1299885D01*
X3328560Y1301313D01*
X3327418Y1302550D01*
X3327227Y1302646D01*
X3326846Y1303026D01*
X3326085Y1303502D01*
X3325038Y1304169D01*
X3323800Y1304740D01*
X3322182Y1305216D01*
X3320373Y1305597D01*
X3318278Y1305692D01*
D02*
G37*
G36*
X4299695Y1307025D02*
X4299124D01*
X4298743Y1306930D01*
X4297696Y1306644D01*
X4296363Y1306263D01*
X4294935Y1305406D01*
X4294174Y1304930D01*
X4293507Y1304264D01*
X4292746Y1303598D01*
X4292079Y1302646D01*
X4291413Y1301694D01*
X4290842Y1300551D01*
Y1300456D01*
X4290746Y1300266D01*
X4290556Y1299885D01*
X4290366Y1299314D01*
X4290175Y1298647D01*
X4289985Y1297886D01*
X4289699Y1296838D01*
X4289414Y1295696D01*
X4289128Y1294458D01*
X4288938Y1293030D01*
X4288652Y1291412D01*
X4288462Y1289698D01*
X4288271Y1287794D01*
X4288081Y1285700D01*
X4287986Y1283510D01*
Y1281130D01*
Y1280940D01*
Y1280559D01*
Y1279893D01*
X4288081Y1279036D01*
Y1277894D01*
X4288176Y1276656D01*
X4288271Y1275323D01*
X4288366Y1273895D01*
X4288652Y1270754D01*
X4289223Y1267517D01*
X4289509Y1265994D01*
X4289890Y1264470D01*
X4290366Y1263042D01*
X4290842Y1261805D01*
Y1261710D01*
X4290937Y1261519D01*
X4291127Y1261234D01*
X4291413Y1260853D01*
X4292079Y1259806D01*
X4293031Y1258663D01*
X4294269Y1257426D01*
X4295792Y1256474D01*
X4296649Y1255998D01*
X4297601Y1255712D01*
X4298648Y1255522D01*
X4299695Y1255426D01*
X4300266D01*
X4300647Y1255522D01*
X4301790Y1255807D01*
X4303027Y1256188D01*
X4304550Y1256950D01*
X4305217Y1257521D01*
X4305978Y1258092D01*
X4306740Y1258854D01*
X4307406Y1259710D01*
X4308073Y1260662D01*
X4308644Y1261805D01*
Y1261900D01*
X4308739Y1262090D01*
X4308930Y1262471D01*
X4309120Y1263042D01*
X4309310Y1263709D01*
X4309596Y1264470D01*
X4309882Y1265518D01*
X4310167Y1266660D01*
X4310358Y1267898D01*
X4310643Y1269326D01*
X4310929Y1270944D01*
X4311119Y1272658D01*
X4311310Y1274562D01*
X4311500Y1276561D01*
X4311595Y1278750D01*
Y1281130D01*
Y1281321D01*
Y1281702D01*
Y1282368D01*
Y1283225D01*
X4311500Y1284367D01*
X4311405Y1285605D01*
X4311310Y1286938D01*
X4311214Y1288461D01*
X4310834Y1291602D01*
X4310358Y1294839D01*
X4309977Y1296362D01*
X4309596Y1297886D01*
X4309120Y1299314D01*
X4308644Y1300551D01*
Y1300646D01*
X4308549Y1300837D01*
X4308358Y1301122D01*
X4308073Y1301598D01*
X4307406Y1302646D01*
X4306454Y1303788D01*
X4305122Y1305026D01*
X4303598Y1305978D01*
X4302742Y1306454D01*
X4301790Y1306739D01*
X4300742Y1306930D01*
X4299695Y1307025D01*
D02*
G37*
%LPD*%
G36*
X4300457Y1286938D02*
X4301028Y1286842D01*
X4301694Y1286652D01*
X4302361Y1286271D01*
X4303027Y1285890D01*
X4303694Y1285319D01*
X4303789Y1285224D01*
X4303979Y1285034D01*
X4304265Y1284653D01*
X4304550Y1284177D01*
X4304836Y1283606D01*
X4305122Y1282939D01*
X4305312Y1282178D01*
X4305407Y1281321D01*
Y1281226D01*
Y1280940D01*
X4305312Y1280559D01*
X4305217Y1279988D01*
X4305026Y1279322D01*
X4304646Y1278750D01*
X4304265Y1278084D01*
X4303694Y1277418D01*
X4303598Y1277322D01*
X4303408Y1277132D01*
X4303027Y1276942D01*
X4302551Y1276656D01*
X4301980Y1276275D01*
X4301314Y1276085D01*
X4300457Y1275894D01*
X4299600Y1275799D01*
X4299219D01*
X4298838Y1275894D01*
X4298267Y1275990D01*
X4297601Y1276180D01*
X4297030Y1276466D01*
X4296363Y1276846D01*
X4295697Y1277322D01*
X4295602Y1277418D01*
X4295506Y1277608D01*
X4295221Y1277989D01*
X4294935Y1278465D01*
X4294650Y1279036D01*
X4294459Y1279702D01*
X4294269Y1280464D01*
X4294174Y1281321D01*
Y1281416D01*
Y1281702D01*
X4294269Y1282178D01*
X4294364Y1282654D01*
X4294554Y1283320D01*
X4294840Y1283986D01*
X4295221Y1284653D01*
X4295792Y1285319D01*
X4295887Y1285414D01*
X4296078Y1285605D01*
X4296458Y1285890D01*
X4296839Y1286176D01*
X4297410Y1286462D01*
X4298077Y1286747D01*
X4298838Y1286938D01*
X4299600Y1287033D01*
X4299981D01*
X4300457Y1286938D01*
D02*
G37*
%LPC*%
G36*
X3989534Y1307025D02*
X3988962D01*
X3988582Y1306930D01*
X3987534Y1306644D01*
X3986202Y1306263D01*
X3984774Y1305406D01*
X3984012Y1304930D01*
X3983346Y1304264D01*
X3982584Y1303598D01*
X3981918Y1302646D01*
X3981251Y1301694D01*
X3980680Y1300551D01*
Y1300456D01*
X3980585Y1300266D01*
X3980394Y1299885D01*
X3980204Y1299314D01*
X3980014Y1298647D01*
X3979823Y1297886D01*
X3979538Y1296838D01*
X3979252Y1295696D01*
X3978966Y1294458D01*
X3978776Y1293030D01*
X3978490Y1291412D01*
X3978300Y1289698D01*
X3978110Y1287794D01*
X3977919Y1285700D01*
X3977824Y1283510D01*
Y1281130D01*
Y1280940D01*
Y1280559D01*
Y1279893D01*
X3977919Y1279036D01*
Y1277894D01*
X3978014Y1276656D01*
X3978110Y1275323D01*
X3978205Y1273895D01*
X3978490Y1270754D01*
X3979062Y1267517D01*
X3979347Y1265994D01*
X3979728Y1264470D01*
X3980204Y1263042D01*
X3980680Y1261805D01*
Y1261710D01*
X3980775Y1261519D01*
X3980966Y1261234D01*
X3981251Y1260853D01*
X3981918Y1259806D01*
X3982870Y1258663D01*
X3984107Y1257426D01*
X3985630Y1256474D01*
X3986487Y1255998D01*
X3987439Y1255712D01*
X3988486Y1255522D01*
X3989534Y1255426D01*
X3990105D01*
X3990486Y1255522D01*
X3991628Y1255807D01*
X3992866Y1256188D01*
X3994389Y1256950D01*
X3995055Y1257521D01*
X3995817Y1258092D01*
X3996578Y1258854D01*
X3997245Y1259710D01*
X3997911Y1260662D01*
X3998482Y1261805D01*
Y1261900D01*
X3998578Y1262090D01*
X3998768Y1262471D01*
X3998958Y1263042D01*
X3999149Y1263709D01*
X3999434Y1264470D01*
X3999720Y1265518D01*
X4000006Y1266660D01*
X4000196Y1267898D01*
X4000482Y1269326D01*
X4000767Y1270944D01*
X4000958Y1272658D01*
X4001148Y1274562D01*
X4001338Y1276561D01*
X4001434Y1278750D01*
Y1281130D01*
Y1281321D01*
Y1281702D01*
Y1282368D01*
Y1283225D01*
X4001338Y1284367D01*
X4001243Y1285605D01*
X4001148Y1286938D01*
X4001053Y1288461D01*
X4000672Y1291602D01*
X4000196Y1294839D01*
X3999815Y1296362D01*
X3999434Y1297886D01*
X3998958Y1299314D01*
X3998482Y1300551D01*
Y1300646D01*
X3998387Y1300837D01*
X3998197Y1301122D01*
X3997911Y1301598D01*
X3997245Y1302646D01*
X3996293Y1303788D01*
X3994960Y1305026D01*
X3993437Y1305978D01*
X3992580Y1306454D01*
X3991628Y1306739D01*
X3990581Y1306930D01*
X3989534Y1307025D01*
D02*
G37*
%LPD*%
G36*
X3990295Y1286938D02*
X3990866Y1286842D01*
X3991533Y1286652D01*
X3992199Y1286271D01*
X3992866Y1285890D01*
X3993532Y1285319D01*
X3993627Y1285224D01*
X3993818Y1285034D01*
X3994103Y1284653D01*
X3994389Y1284177D01*
X3994674Y1283606D01*
X3994960Y1282939D01*
X3995150Y1282178D01*
X3995246Y1281321D01*
Y1281226D01*
Y1280940D01*
X3995150Y1280559D01*
X3995055Y1279988D01*
X3994865Y1279322D01*
X3994484Y1278750D01*
X3994103Y1278084D01*
X3993532Y1277418D01*
X3993437Y1277322D01*
X3993246Y1277132D01*
X3992866Y1276942D01*
X3992390Y1276656D01*
X3991818Y1276275D01*
X3991152Y1276085D01*
X3990295Y1275894D01*
X3989438Y1275799D01*
X3989058D01*
X3988677Y1275894D01*
X3988106Y1275990D01*
X3987439Y1276180D01*
X3986868Y1276466D01*
X3986202Y1276846D01*
X3985535Y1277322D01*
X3985440Y1277418D01*
X3985345Y1277608D01*
X3985059Y1277989D01*
X3984774Y1278465D01*
X3984488Y1279036D01*
X3984298Y1279702D01*
X3984107Y1280464D01*
X3984012Y1281321D01*
Y1281416D01*
Y1281702D01*
X3984107Y1282178D01*
X3984202Y1282654D01*
X3984393Y1283320D01*
X3984678Y1283986D01*
X3985059Y1284653D01*
X3985630Y1285319D01*
X3985726Y1285414D01*
X3985916Y1285605D01*
X3986297Y1285890D01*
X3986678Y1286176D01*
X3987249Y1286462D01*
X3987915Y1286747D01*
X3988677Y1286938D01*
X3989438Y1287033D01*
X3989819D01*
X3990295Y1286938D01*
D02*
G37*
%LPC*%
G36*
X3679372Y1307025D02*
X3678801D01*
X3678420Y1306930D01*
X3677373Y1306644D01*
X3676040Y1306263D01*
X3674612Y1305406D01*
X3673850Y1304930D01*
X3673184Y1304264D01*
X3672422Y1303598D01*
X3671756Y1302646D01*
X3671090Y1301694D01*
X3670518Y1300551D01*
Y1300456D01*
X3670423Y1300266D01*
X3670233Y1299885D01*
X3670042Y1299314D01*
X3669852Y1298647D01*
X3669662Y1297886D01*
X3669376Y1296838D01*
X3669090Y1295696D01*
X3668805Y1294458D01*
X3668614Y1293030D01*
X3668329Y1291412D01*
X3668138Y1289698D01*
X3667948Y1287794D01*
X3667758Y1285700D01*
X3667662Y1283510D01*
Y1281130D01*
Y1280940D01*
Y1280559D01*
Y1279893D01*
X3667758Y1279036D01*
Y1277894D01*
X3667853Y1276656D01*
X3667948Y1275323D01*
X3668043Y1273895D01*
X3668329Y1270754D01*
X3668900Y1267517D01*
X3669186Y1265994D01*
X3669566Y1264470D01*
X3670042Y1263042D01*
X3670518Y1261805D01*
Y1261710D01*
X3670614Y1261519D01*
X3670804Y1261234D01*
X3671090Y1260853D01*
X3671756Y1259806D01*
X3672708Y1258663D01*
X3673946Y1257426D01*
X3675469Y1256474D01*
X3676326Y1255998D01*
X3677278Y1255712D01*
X3678325Y1255522D01*
X3679372Y1255426D01*
X3679943D01*
X3680324Y1255522D01*
X3681466Y1255807D01*
X3682704Y1256188D01*
X3684227Y1256950D01*
X3684894Y1257521D01*
X3685655Y1258092D01*
X3686417Y1258854D01*
X3687083Y1259710D01*
X3687750Y1260662D01*
X3688321Y1261805D01*
Y1261900D01*
X3688416Y1262090D01*
X3688606Y1262471D01*
X3688797Y1263042D01*
X3688987Y1263709D01*
X3689273Y1264470D01*
X3689558Y1265518D01*
X3689844Y1266660D01*
X3690034Y1267898D01*
X3690320Y1269326D01*
X3690606Y1270944D01*
X3690796Y1272658D01*
X3690986Y1274562D01*
X3691177Y1276561D01*
X3691272Y1278750D01*
Y1281130D01*
Y1281321D01*
Y1281702D01*
Y1282368D01*
Y1283225D01*
X3691177Y1284367D01*
X3691082Y1285605D01*
X3690986Y1286938D01*
X3690891Y1288461D01*
X3690510Y1291602D01*
X3690034Y1294839D01*
X3689654Y1296362D01*
X3689273Y1297886D01*
X3688797Y1299314D01*
X3688321Y1300551D01*
Y1300646D01*
X3688226Y1300837D01*
X3688035Y1301122D01*
X3687750Y1301598D01*
X3687083Y1302646D01*
X3686131Y1303788D01*
X3684798Y1305026D01*
X3683275Y1305978D01*
X3682418Y1306454D01*
X3681466Y1306739D01*
X3680419Y1306930D01*
X3679372Y1307025D01*
D02*
G37*
%LPD*%
G36*
X3680134Y1286938D02*
X3680705Y1286842D01*
X3681371Y1286652D01*
X3682038Y1286271D01*
X3682704Y1285890D01*
X3683370Y1285319D01*
X3683466Y1285224D01*
X3683656Y1285034D01*
X3683942Y1284653D01*
X3684227Y1284177D01*
X3684513Y1283606D01*
X3684798Y1282939D01*
X3684989Y1282178D01*
X3685084Y1281321D01*
Y1281226D01*
Y1280940D01*
X3684989Y1280559D01*
X3684894Y1279988D01*
X3684703Y1279322D01*
X3684322Y1278750D01*
X3683942Y1278084D01*
X3683370Y1277418D01*
X3683275Y1277322D01*
X3683085Y1277132D01*
X3682704Y1276942D01*
X3682228Y1276656D01*
X3681657Y1276275D01*
X3680990Y1276085D01*
X3680134Y1275894D01*
X3679277Y1275799D01*
X3678896D01*
X3678515Y1275894D01*
X3677944Y1275990D01*
X3677278Y1276180D01*
X3676706Y1276466D01*
X3676040Y1276846D01*
X3675374Y1277322D01*
X3675278Y1277418D01*
X3675183Y1277608D01*
X3674898Y1277989D01*
X3674612Y1278465D01*
X3674326Y1279036D01*
X3674136Y1279702D01*
X3673946Y1280464D01*
X3673850Y1281321D01*
Y1281416D01*
Y1281702D01*
X3673946Y1282178D01*
X3674041Y1282654D01*
X3674231Y1283320D01*
X3674517Y1283986D01*
X3674898Y1284653D01*
X3675469Y1285319D01*
X3675564Y1285414D01*
X3675754Y1285605D01*
X3676135Y1285890D01*
X3676516Y1286176D01*
X3677087Y1286462D01*
X3677754Y1286747D01*
X3678515Y1286938D01*
X3679277Y1287033D01*
X3679658D01*
X3680134Y1286938D01*
D02*
G37*
%LPC*%
G36*
X3627678Y1307025D02*
X3627107D01*
X3626726Y1306930D01*
X3625679Y1306644D01*
X3624346Y1306263D01*
X3622918Y1305406D01*
X3622157Y1304930D01*
X3621490Y1304264D01*
X3620729Y1303598D01*
X3620062Y1302646D01*
X3619396Y1301694D01*
X3618825Y1300551D01*
Y1300456D01*
X3618730Y1300266D01*
X3618539Y1299885D01*
X3618349Y1299314D01*
X3618158Y1298647D01*
X3617968Y1297886D01*
X3617682Y1296838D01*
X3617397Y1295696D01*
X3617111Y1294458D01*
X3616921Y1293030D01*
X3616635Y1291412D01*
X3616445Y1289698D01*
X3616254Y1287794D01*
X3616064Y1285700D01*
X3615969Y1283510D01*
Y1281130D01*
Y1280940D01*
Y1280559D01*
Y1279893D01*
X3616064Y1279036D01*
Y1277894D01*
X3616159Y1276656D01*
X3616254Y1275323D01*
X3616350Y1273895D01*
X3616635Y1270754D01*
X3617206Y1267517D01*
X3617492Y1265994D01*
X3617873Y1264470D01*
X3618349Y1263042D01*
X3618825Y1261805D01*
Y1261710D01*
X3618920Y1261519D01*
X3619110Y1261234D01*
X3619396Y1260853D01*
X3620062Y1259806D01*
X3621014Y1258663D01*
X3622252Y1257426D01*
X3623775Y1256474D01*
X3624632Y1255998D01*
X3625584Y1255712D01*
X3626631Y1255522D01*
X3627678Y1255426D01*
X3628250D01*
X3628630Y1255522D01*
X3629773Y1255807D01*
X3631010Y1256188D01*
X3632534Y1256950D01*
X3633200Y1257521D01*
X3633962Y1258092D01*
X3634723Y1258854D01*
X3635390Y1259710D01*
X3636056Y1260662D01*
X3636627Y1261805D01*
Y1261900D01*
X3636722Y1262090D01*
X3636913Y1262471D01*
X3637103Y1263042D01*
X3637294Y1263709D01*
X3637579Y1264470D01*
X3637865Y1265518D01*
X3638150Y1266660D01*
X3638341Y1267898D01*
X3638626Y1269326D01*
X3638912Y1270944D01*
X3639102Y1272658D01*
X3639293Y1274562D01*
X3639483Y1276561D01*
X3639578Y1278750D01*
Y1281130D01*
Y1281321D01*
Y1281702D01*
Y1282368D01*
Y1283225D01*
X3639483Y1284367D01*
X3639388Y1285605D01*
X3639293Y1286938D01*
X3639198Y1288461D01*
X3638817Y1291602D01*
X3638341Y1294839D01*
X3637960Y1296362D01*
X3637579Y1297886D01*
X3637103Y1299314D01*
X3636627Y1300551D01*
Y1300646D01*
X3636532Y1300837D01*
X3636342Y1301122D01*
X3636056Y1301598D01*
X3635390Y1302646D01*
X3634438Y1303788D01*
X3633105Y1305026D01*
X3631582Y1305978D01*
X3630725Y1306454D01*
X3629773Y1306739D01*
X3628726Y1306930D01*
X3627678Y1307025D01*
D02*
G37*
%LPD*%
G36*
X3628440Y1286938D02*
X3629011Y1286842D01*
X3629678Y1286652D01*
X3630344Y1286271D01*
X3631010Y1285890D01*
X3631677Y1285319D01*
X3631772Y1285224D01*
X3631962Y1285034D01*
X3632248Y1284653D01*
X3632534Y1284177D01*
X3632819Y1283606D01*
X3633105Y1282939D01*
X3633295Y1282178D01*
X3633390Y1281321D01*
Y1281226D01*
Y1280940D01*
X3633295Y1280559D01*
X3633200Y1279988D01*
X3633010Y1279322D01*
X3632629Y1278750D01*
X3632248Y1278084D01*
X3631677Y1277418D01*
X3631582Y1277322D01*
X3631391Y1277132D01*
X3631010Y1276942D01*
X3630534Y1276656D01*
X3629963Y1276275D01*
X3629297Y1276085D01*
X3628440Y1275894D01*
X3627583Y1275799D01*
X3627202D01*
X3626822Y1275894D01*
X3626250Y1275990D01*
X3625584Y1276180D01*
X3625013Y1276466D01*
X3624346Y1276846D01*
X3623680Y1277322D01*
X3623585Y1277418D01*
X3623490Y1277608D01*
X3623204Y1277989D01*
X3622918Y1278465D01*
X3622633Y1279036D01*
X3622442Y1279702D01*
X3622252Y1280464D01*
X3622157Y1281321D01*
Y1281416D01*
Y1281702D01*
X3622252Y1282178D01*
X3622347Y1282654D01*
X3622538Y1283320D01*
X3622823Y1283986D01*
X3623204Y1284653D01*
X3623775Y1285319D01*
X3623870Y1285414D01*
X3624061Y1285605D01*
X3624442Y1285890D01*
X3624822Y1286176D01*
X3625394Y1286462D01*
X3626060Y1286747D01*
X3626822Y1286938D01*
X3627583Y1287033D01*
X3627964D01*
X3628440Y1286938D01*
D02*
G37*
%LPC*%
G36*
X4179091Y561317D02*
X4177663D01*
X4177282Y561222D01*
X4176330Y561031D01*
X4175188Y560746D01*
X4173760Y560174D01*
X4172237Y559318D01*
X4171475Y558746D01*
X4170809Y558175D01*
X4170047Y557414D01*
X4169286Y556557D01*
Y556462D01*
X4169095Y556366D01*
X4168905Y556081D01*
X4168714Y555700D01*
X4168429Y555224D01*
X4168048Y554653D01*
X4167762Y553891D01*
X4167382Y553130D01*
X4167001Y552178D01*
X4166715Y551226D01*
X4166334Y550083D01*
X4166049Y548846D01*
X4165858Y547513D01*
X4165668Y546085D01*
X4165478Y544562D01*
Y542943D01*
Y542848D01*
Y542562D01*
Y542086D01*
X4165573Y541515D01*
Y540754D01*
X4165668Y539897D01*
X4165954Y537898D01*
X4166334Y535803D01*
X4167001Y533614D01*
X4167858Y531519D01*
X4168429Y530567D01*
X4169000Y529710D01*
X4169190Y529520D01*
X4169666Y529044D01*
X4170428Y528378D01*
X4171475Y527616D01*
X4172713Y526759D01*
X4174236Y526093D01*
X4175950Y525617D01*
X4176806Y525522D01*
X4177758Y525426D01*
X4178234D01*
X4178615Y525522D01*
X4179567Y525617D01*
X4180805Y525998D01*
X4182233Y526474D01*
X4183756Y527235D01*
X4185279Y528378D01*
X4186041Y529044D01*
X4186707Y529806D01*
Y529901D01*
X4186898Y529996D01*
X4187088Y530282D01*
X4187278Y530662D01*
X4187564Y531138D01*
X4187850Y531710D01*
X4188230Y532376D01*
X4188611Y533233D01*
X4188897Y534090D01*
X4189278Y535137D01*
X4189563Y536279D01*
X4189849Y537517D01*
X4190039Y538850D01*
X4190230Y540373D01*
X4190420Y541896D01*
Y543610D01*
Y543705D01*
Y543990D01*
Y544466D01*
X4190325Y545038D01*
Y545799D01*
X4190230Y546656D01*
X4189944Y548560D01*
X4189563Y550750D01*
X4188897Y552939D01*
X4187945Y555034D01*
X4187374Y555986D01*
X4186707Y556842D01*
Y556938D01*
X4186517Y557033D01*
X4186041Y557509D01*
X4185279Y558270D01*
X4184327Y559127D01*
X4182994Y559889D01*
X4181566Y560650D01*
X4179948Y561126D01*
X4179091Y561317D01*
D02*
G37*
G36*
X4337123Y543324D02*
X4337028D01*
X4336933Y543229D01*
X4336647Y543134D01*
X4336266Y543038D01*
X4335886Y542848D01*
X4335314Y542658D01*
X4334648Y542467D01*
X4333886Y542277D01*
X4333030Y541991D01*
X4332078Y541801D01*
X4330935Y541515D01*
X4329793Y541325D01*
X4328555Y541039D01*
X4327222Y540754D01*
X4325699Y540563D01*
X4324176Y540278D01*
X4323986D01*
X4323414Y540182D01*
X4322558Y539992D01*
X4321510Y539802D01*
X4319226Y539326D01*
X4318178Y539040D01*
X4317322Y538754D01*
X4317226D01*
X4317036Y538564D01*
X4316655Y538374D01*
X4316179Y538088D01*
X4315132Y537326D01*
X4314180Y536184D01*
Y536089D01*
X4313990Y535898D01*
X4313894Y535518D01*
X4313704Y535042D01*
X4313323Y533899D01*
X4313228Y533233D01*
X4313133Y532471D01*
Y532376D01*
Y531995D01*
X4313228Y531329D01*
X4313418Y530662D01*
X4313704Y529806D01*
X4314180Y528949D01*
X4314751Y528092D01*
X4315513Y527235D01*
X4315608Y527140D01*
X4315989Y526950D01*
X4316465Y526569D01*
X4317322Y526188D01*
X4318274Y525807D01*
X4319416Y525426D01*
X4320844Y525236D01*
X4322462Y525141D01*
X4323224D01*
X4324081Y525236D01*
X4325223Y525426D01*
X4326461Y525617D01*
X4327794Y525902D01*
X4329222Y526378D01*
X4330554Y527045D01*
X4330745Y527140D01*
X4331126Y527426D01*
X4331792Y527902D01*
X4332554Y528473D01*
X4333410Y529234D01*
X4334362Y530186D01*
X4335124Y531329D01*
X4335886Y532566D01*
X4335981Y532662D01*
X4336076Y533042D01*
X4336266Y533709D01*
X4336552Y534566D01*
X4336742Y535613D01*
X4336933Y536946D01*
X4337028Y538564D01*
X4337123Y540373D01*
Y543324D01*
D02*
G37*
G36*
X4128254Y561031D02*
X4126636D01*
X4126255Y560936D01*
X4125113Y560841D01*
X4123780Y560460D01*
X4122257Y559984D01*
X4120543Y559127D01*
X4118925Y558080D01*
X4118163Y557318D01*
X4117402Y556557D01*
Y556462D01*
X4117211Y556366D01*
X4117021Y556081D01*
X4116830Y555700D01*
X4116545Y555224D01*
X4116164Y554748D01*
X4115878Y553986D01*
X4115498Y553225D01*
X4115117Y552368D01*
X4114831Y551416D01*
X4114450Y550274D01*
X4114165Y549131D01*
X4113974Y547798D01*
X4113784Y546370D01*
X4113594Y544847D01*
Y543229D01*
Y543134D01*
Y542848D01*
Y542372D01*
X4113689Y541801D01*
Y541039D01*
X4113784Y540182D01*
X4114070Y538183D01*
X4114546Y535994D01*
X4115212Y533804D01*
X4116164Y531710D01*
X4116735Y530662D01*
X4117402Y529806D01*
X4117497D01*
X4117592Y529615D01*
X4118068Y529139D01*
X4118925Y528378D01*
X4120067Y527616D01*
X4121495Y526854D01*
X4123209Y526093D01*
X4125113Y525617D01*
X4126160Y525522D01*
X4127207Y525426D01*
X4127778D01*
X4128159Y525522D01*
X4129302Y525617D01*
X4130634Y525998D01*
X4132158Y526474D01*
X4133871Y527235D01*
X4135490Y528378D01*
X4136251Y529044D01*
X4137013Y529806D01*
Y529901D01*
X4137203Y529996D01*
X4137394Y530282D01*
X4137584Y530662D01*
X4137965Y531138D01*
X4138250Y531710D01*
X4138631Y532376D01*
X4139012Y533233D01*
X4139298Y534090D01*
X4139678Y535137D01*
X4140059Y536184D01*
X4140345Y537422D01*
X4140535Y538754D01*
X4140726Y540182D01*
X4140916Y541801D01*
Y543419D01*
Y543514D01*
Y543800D01*
Y544276D01*
X4140821Y544847D01*
Y545609D01*
X4140726Y546370D01*
X4140440Y548274D01*
X4139964Y550464D01*
X4139202Y552654D01*
X4138250Y554748D01*
X4137584Y555700D01*
X4136918Y556557D01*
Y556652D01*
X4136727Y556747D01*
X4136251Y557223D01*
X4135394Y557985D01*
X4134252Y558842D01*
X4132824Y559603D01*
X4131206Y560365D01*
X4129302Y560841D01*
X4128254Y561031D01*
D02*
G37*
%LPD*%
D79*
X945000Y910000D02*
D03*
D80*
X530000Y320000D02*
D03*
X865000Y505000D02*
D03*
X1170000Y365000D02*
D03*
X1651000Y703000D02*
D03*
X1555000Y915000D02*
D03*
X1790000Y440000D02*
D03*
X2190000Y1290000D02*
D03*
X2550000Y2425000D02*
D03*
X2345000Y3060000D02*
D03*
X2115000D02*
D03*
X1385000Y3025000D02*
D03*
X295000Y2440000D02*
D03*
D114*
X2650000Y375000D02*
D03*
X2525000Y4550000D02*
D03*
X375000D02*
D03*
D120*
X2695000Y3645000D02*
D03*
D122*
X150000Y545000D02*
D03*
Y645000D02*
D03*
Y745000D02*
D03*
X250000D02*
D03*
Y845000D02*
D03*
Y645000D02*
D03*
Y545000D02*
D03*
D124*
X2350512Y4047953D02*
D03*
X2039488D02*
D03*
X1600512D02*
D03*
X1289488D02*
D03*
X850512D02*
D03*
X539488D02*
D03*
D125*
X2480433Y4670000D02*
D03*
X1909567D02*
D03*
X1730433D02*
D03*
X1159567D02*
D03*
X980433D02*
D03*
X409567D02*
D03*
D127*
X725000Y750000D02*
D03*
X1050000D02*
D03*
X155000Y1910000D02*
D03*
D128*
X725000Y450000D02*
D03*
X1050000D02*
D03*
Y550000D02*
D03*
Y650000D02*
D03*
X725000D02*
D03*
Y550000D02*
D03*
X155000Y1610000D02*
D03*
Y1710000D02*
D03*
Y1810000D02*
D03*
D129*
X2545000Y85000D02*
D03*
X2450000Y1175000D02*
D03*
Y1275000D02*
D03*
X2350000Y1325000D02*
D03*
Y1225000D02*
D03*
Y1425000D02*
D03*
X2450000Y1375000D02*
D03*
X85000Y4355000D02*
D03*
D130*
X2700000Y1100000D02*
D03*
Y1500000D02*
D03*
D131*
X175000Y175000D02*
D03*
X2725000D02*
D03*
Y4625000D02*
D03*
X175000D02*
D03*
D132*
X2665630Y543150D02*
D03*
X2744370D02*
D03*
Y621890D02*
D03*
X2665630D02*
D03*
Y700630D02*
D03*
X2744370D02*
D03*
Y779370D02*
D03*
X2665630D02*
D03*
Y858110D02*
D03*
X2744370D02*
D03*
Y936850D02*
D03*
D133*
X929370Y96890D02*
D03*
X2134370D02*
D03*
X2405630Y921221D02*
D03*
X2665630Y936850D02*
D03*
D134*
X150000Y845000D02*
D03*
D135*
X638453Y885748D02*
D03*
X1187412Y920000D02*
D03*
X1230000Y820000D02*
D03*
X1350000Y829252D02*
D03*
X2070000Y910000D02*
D03*
X1735000Y1105000D02*
D03*
X1400000D02*
D03*
X1410000Y1145000D02*
D03*
X1280000Y1365000D02*
D03*
X1220000Y1510000D02*
D03*
X1025000Y1530000D02*
D03*
X1015000Y1495000D02*
D03*
Y1460000D02*
D03*
X1045000Y1440000D02*
D03*
X1065000Y1355000D02*
D03*
X1052500Y1642500D02*
D03*
X1095500Y1634500D02*
D03*
X1065000Y1315000D02*
D03*
X1015000D02*
D03*
X982000Y1297000D02*
D03*
X1005000Y1270000D02*
D03*
X995000Y1165000D02*
D03*
X980000Y1125000D02*
D03*
X940000Y1135000D02*
D03*
X1075000Y1120000D02*
D03*
X1150000Y1085000D02*
D03*
X1225000Y945000D02*
D03*
X1000000D02*
D03*
X825000Y1615000D02*
D03*
X715000Y1610000D02*
D03*
X640000Y1625000D02*
D03*
X525000Y1770000D02*
D03*
X760000Y1775000D02*
D03*
X530000Y1320000D02*
D03*
X505000Y1295000D02*
D03*
X650000Y1115000D02*
D03*
X675000Y1095000D02*
D03*
X735000Y1085000D02*
D03*
X795000Y1105000D02*
D03*
X615000Y935000D02*
D03*
X410000Y1775000D02*
D03*
X420000Y1075000D02*
D03*
X150000Y1060000D02*
D03*
X145000Y1145000D02*
D03*
X95000Y1105000D02*
D03*
X170000Y1250000D02*
D03*
X215000D02*
D03*
X330000Y930000D02*
D03*
X395000Y660000D02*
D03*
X400000Y540000D02*
D03*
X995000Y1785000D02*
D03*
X920000Y1890000D02*
D03*
X860000D02*
D03*
X805000Y1780000D02*
D03*
X500000Y1875000D02*
D03*
X440000Y1850000D02*
D03*
X80000Y3300000D02*
D03*
D136*
X550000Y1140000D02*
D03*
Y1185000D02*
D03*
X525000Y1215000D02*
D03*
D137*
X945000Y2395000D02*
D03*
Y2485000D02*
D03*
X900000D02*
D03*
Y2440000D02*
D03*
Y2395000D02*
D03*
X855000D02*
D03*
X810000D02*
D03*
Y2440000D02*
D03*
Y2485000D02*
D03*
X855000D02*
D03*
Y2440000D02*
D03*
X735000Y2395000D02*
D03*
X690000D02*
D03*
X645000D02*
D03*
X600000D02*
D03*
Y2440000D02*
D03*
X645000D02*
D03*
X690000D02*
D03*
Y2485000D02*
D03*
X735000D02*
D03*
X645000D02*
D03*
X600000D02*
D03*
D138*
X1035000Y2410000D02*
D03*
Y2460000D02*
D03*
Y2510000D02*
D03*
Y2560000D02*
D03*
Y2610000D02*
D03*
Y2660000D02*
D03*
D190*
X839291Y1464251D02*
D03*
D191*
X1500000Y2163000D02*
D03*
Y2407000D02*
D03*
X2150000Y2867000D02*
D03*
X775000D02*
D03*
Y2623000D02*
D03*
D192*
X1500000Y2220000D02*
D03*
Y2350000D02*
D03*
X2150000Y2680000D02*
D03*
Y2810000D02*
D03*
X775000D02*
D03*
Y2680000D02*
D03*
D193*
X2150000Y2623000D02*
D03*
D194*
X903858Y1167992D02*
D03*
Y1384527D02*
D03*
Y1404213D02*
D03*
Y1423898D02*
D03*
Y1443583D02*
D03*
Y1463268D02*
D03*
Y1482953D02*
D03*
Y1502638D02*
D03*
Y1522323D02*
D03*
Y1542008D02*
D03*
X636142D02*
D03*
Y1502638D02*
D03*
Y1482953D02*
D03*
Y1463268D02*
D03*
Y1443583D02*
D03*
Y1404213D02*
D03*
Y1384527D02*
D03*
Y1167992D02*
D03*
D195*
X657795Y1187677D02*
D03*
Y1207362D02*
D03*
Y1227047D02*
D03*
Y1246732D02*
D03*
X882205D02*
D03*
Y1266417D02*
D03*
Y1286102D02*
D03*
Y1305787D02*
D03*
Y1325472D02*
D03*
Y1345158D02*
D03*
Y1227047D02*
D03*
Y1207362D02*
D03*
Y1187677D02*
D03*
Y1364842D02*
D03*
D196*
X661732Y1142402D02*
D03*
X681417D02*
D03*
X701102D02*
D03*
X720787D02*
D03*
X740472D02*
D03*
X760157D02*
D03*
X779842D02*
D03*
X799527D02*
D03*
X819212D02*
D03*
X838898D02*
D03*
X858583D02*
D03*
X878268D02*
D03*
X878268Y1567598D02*
D03*
X858583D02*
D03*
X838898D02*
D03*
X819213D02*
D03*
X799528D02*
D03*
X760158D02*
D03*
X740472D02*
D03*
X720787D02*
D03*
X681417D02*
D03*
X661732D02*
D03*
D197*
X651890Y1286102D02*
D03*
Y1305787D02*
D03*
Y1325472D02*
D03*
Y1364842D02*
D03*
D198*
X770000Y1355000D02*
D03*
D199*
X1772913Y1940000D02*
D03*
X1887087D02*
D03*
X1415000Y2065000D02*
D03*
X1295000D02*
D03*
X1227087D02*
D03*
X1112913D02*
D03*
X610000Y3115000D02*
D03*
X490000D02*
D03*
D200*
X585000Y495000D02*
D03*
X645000D02*
D03*
X1255000Y450000D02*
D03*
X1315000D02*
D03*
X1370000Y400000D02*
D03*
X1430000D02*
D03*
X1470000Y100000D02*
D03*
X1530000D02*
D03*
X1515000Y830000D02*
D03*
X1575000D02*
D03*
X1980000Y950000D02*
D03*
X2040000D02*
D03*
Y1145000D02*
D03*
X1995000D02*
D03*
X1935000D02*
D03*
X2100000D02*
D03*
X1370000Y1165000D02*
D03*
Y1110000D02*
D03*
X1345000Y1290000D02*
D03*
X1240000Y1390000D02*
D03*
X1180000D02*
D03*
X1140000Y1465000D02*
D03*
X1080000D02*
D03*
X1160000Y1680000D02*
D03*
X1220000D02*
D03*
X1195000Y1755000D02*
D03*
X1135000D02*
D03*
X1180000Y1335000D02*
D03*
X1240000D02*
D03*
X1285000Y1290000D02*
D03*
X1240000Y1235000D02*
D03*
X1180000D02*
D03*
X1120000Y1190000D02*
D03*
X1060000D02*
D03*
X1180000Y1085000D02*
D03*
X1240000D02*
D03*
X1310000Y1110000D02*
D03*
Y1165000D02*
D03*
X1185000Y1025000D02*
D03*
X1125000D02*
D03*
X1160000Y770000D02*
D03*
X1220000D02*
D03*
X935000Y665000D02*
D03*
X855000Y1035000D02*
D03*
X795000D02*
D03*
X765000Y890000D02*
D03*
X825000D02*
D03*
X875000Y665000D02*
D03*
X615000Y735000D02*
D03*
X555000D02*
D03*
X515000D02*
D03*
X455000D02*
D03*
X140000Y1415000D02*
D03*
X80000D02*
D03*
X480000Y3050000D02*
D03*
X540000D02*
D03*
X2375000Y305000D02*
D03*
X2435000D02*
D03*
D201*
X1395000Y505000D02*
D03*
X1625000D02*
D03*
D202*
X530000Y320000D02*
D03*
X865000Y505000D02*
D03*
X1170000Y365000D02*
D03*
X1651000Y703000D02*
D03*
X1555000Y915000D02*
D03*
X1790000Y440000D02*
D03*
X2190000Y1290000D02*
D03*
X2550000Y2425000D02*
D03*
X2345000Y3060000D02*
D03*
X2115000D02*
D03*
X1385000Y3025000D02*
D03*
X1125000D02*
D03*
X295000Y2440000D02*
D03*
D203*
X1907000Y530000D02*
D03*
Y580000D02*
D03*
Y630000D02*
D03*
Y680000D02*
D03*
X2133000D02*
D03*
Y630000D02*
D03*
Y580000D02*
D03*
Y530000D02*
D03*
D204*
X577598Y557756D02*
D03*
X652402D02*
D03*
X615000Y652244D02*
D03*
X497401Y972756D02*
D03*
X137401Y1477756D02*
D03*
X62598D02*
D03*
X100000Y1572244D02*
D03*
X460000Y1067244D02*
D03*
X422598Y972756D02*
D03*
X1842599Y907244D02*
D03*
X1917402D02*
D03*
X1965000Y832244D02*
D03*
X1880000Y812756D02*
D03*
X1927598Y737756D02*
D03*
X2002401D02*
D03*
X2132598Y722756D02*
D03*
X2207401D02*
D03*
X2170000Y817244D02*
D03*
X1917401Y957756D02*
D03*
X1842598D02*
D03*
X1880000Y1052244D02*
D03*
D205*
X547244Y792598D02*
D03*
Y867402D02*
D03*
X452756Y830000D02*
D03*
X1992756Y1045000D02*
D03*
X2087244Y1082401D02*
D03*
Y1007598D02*
D03*
D206*
X1130000Y1345000D02*
D03*
Y1405000D02*
D03*
X910000Y1675000D02*
D03*
Y1735000D02*
D03*
X805000Y1750000D02*
D03*
Y1690000D02*
D03*
X745000Y1040000D02*
D03*
Y980000D02*
D03*
X425000Y1685000D02*
D03*
Y1745000D02*
D03*
X255000Y1345000D02*
D03*
Y1285000D02*
D03*
Y1235000D02*
D03*
Y1175000D02*
D03*
X175000Y1145000D02*
D03*
Y1085000D02*
D03*
X1830000Y590000D02*
D03*
Y530000D02*
D03*
X2295000Y130000D02*
D03*
Y70000D02*
D03*
D207*
X308898Y3175315D02*
D03*
D208*
X252795Y3155630D02*
D03*
Y3175315D02*
D03*
Y3195000D02*
D03*
X365000D02*
D03*
Y3175315D02*
D03*
Y3155630D02*
D03*
D209*
X2295000Y166600D02*
D03*
Y192200D02*
D03*
Y217800D02*
D03*
Y243400D02*
D03*
X2525000D02*
D03*
Y217800D02*
D03*
Y192200D02*
D03*
Y166600D02*
D03*
D210*
X605000Y1702598D02*
D03*
X685000D02*
D03*
D211*
X605000Y1802992D02*
D03*
X685000D02*
D03*
D212*
X365000Y1828071D02*
D03*
X455000D02*
D03*
Y1961929D02*
D03*
X365000D02*
D03*
D213*
X415000Y3167441D02*
D03*
Y3222559D02*
D03*
D214*
X144449Y3070000D02*
D03*
X325551D02*
D03*
X370551Y3280000D02*
D03*
X189449D02*
D03*
D215*
X1863268Y2585000D02*
D03*
Y2845000D02*
D03*
X1646732D02*
D03*
X1348268Y2840000D02*
D03*
Y2585000D02*
D03*
X1646732D02*
D03*
X1131732Y2840000D02*
D03*
Y2585000D02*
D03*
D216*
X1785000Y2020000D02*
D03*
Y2070000D02*
D03*
Y2120000D02*
D03*
Y2170000D02*
D03*
Y2260000D02*
D03*
Y2310000D02*
D03*
Y2360000D02*
D03*
Y2410000D02*
D03*
X1285000Y2320000D02*
D03*
Y2270000D02*
D03*
Y2220000D02*
D03*
Y2170000D02*
D03*
X490000Y3200000D02*
D03*
Y3250000D02*
D03*
Y3300000D02*
D03*
Y3350000D02*
D03*
D217*
X2020000Y2020000D02*
D03*
Y2260000D02*
D03*
X1050000Y2320000D02*
D03*
X725000Y3200000D02*
D03*
D218*
X2035000Y2070000D02*
D03*
Y2120000D02*
D03*
Y2170000D02*
D03*
Y2310000D02*
D03*
Y2360000D02*
D03*
Y2410000D02*
D03*
X1035000Y2270000D02*
D03*
Y2220000D02*
D03*
Y2170000D02*
D03*
X740000Y3250000D02*
D03*
Y3300000D02*
D03*
Y3350000D02*
D03*
D219*
X1935000Y2095000D02*
D03*
Y2335000D02*
D03*
X1135000Y2245000D02*
D03*
X640000Y3275000D02*
D03*
D220*
X2180000Y2285000D02*
D03*
X2230000D02*
D03*
X2280000D02*
D03*
X2130000D02*
D03*
X950000Y2280000D02*
D03*
X900000D02*
D03*
X850000D02*
D03*
X800000D02*
D03*
X740000D02*
D03*
X690000D02*
D03*
X640000D02*
D03*
X590000D02*
D03*
D221*
X2280000Y2520000D02*
D03*
X950000Y2515000D02*
D03*
X740000D02*
D03*
D222*
X2180000Y2535000D02*
D03*
X2230000D02*
D03*
X2130000D02*
D03*
X900000Y2530000D02*
D03*
X850000D02*
D03*
X800000D02*
D03*
X690000D02*
D03*
X640000D02*
D03*
X590000D02*
D03*
D223*
X2205000Y2435000D02*
D03*
X875000Y2430000D02*
D03*
X665000D02*
D03*
D224*
X1700000Y1970000D02*
D03*
Y2090000D02*
D03*
D225*
X2533000Y1250000D02*
D03*
X2777000D02*
D03*
X2737000Y1690000D02*
D03*
X2493000D02*
D03*
D226*
X495000Y595000D02*
D03*
Y655000D02*
D03*
X600000Y800000D02*
D03*
Y860000D02*
D03*
X795000Y640000D02*
D03*
Y580000D02*
D03*
X1200000Y620000D02*
D03*
X1260000D02*
D03*
Y680000D02*
D03*
X1200000D02*
D03*
X1430000Y1265000D02*
D03*
Y1325000D02*
D03*
X1830000Y695000D02*
D03*
Y635000D02*
D03*
X2070000Y740000D02*
D03*
Y800000D02*
D03*
X2270000Y405000D02*
D03*
Y345000D02*
D03*
X2210000Y870000D02*
D03*
Y930000D02*
D03*
X2255000Y1145000D02*
D03*
Y1205000D02*
D03*
X1790000D02*
D03*
Y1250000D02*
D03*
Y1310000D02*
D03*
Y1145000D02*
D03*
X920000Y1790000D02*
D03*
Y1850000D02*
D03*
X995000Y1745000D02*
D03*
Y1685000D02*
D03*
X1055000D02*
D03*
Y1745000D02*
D03*
X1185000Y1595000D02*
D03*
Y1535000D02*
D03*
X1120000Y1140000D02*
D03*
Y1080000D02*
D03*
X1075000Y1050000D02*
D03*
X1020000D02*
D03*
Y990000D02*
D03*
X1075000D02*
D03*
X960000D02*
D03*
Y1050000D02*
D03*
X755000Y1685000D02*
D03*
Y1745000D02*
D03*
X525000D02*
D03*
Y1685000D02*
D03*
X555000Y1045000D02*
D03*
X615000D02*
D03*
Y985000D02*
D03*
X555000D02*
D03*
X675000D02*
D03*
Y1045000D02*
D03*
X475000Y1685000D02*
D03*
Y1745000D02*
D03*
X470000Y1175000D02*
D03*
X410000D02*
D03*
Y1115000D02*
D03*
X470000D02*
D03*
X115000Y1085000D02*
D03*
Y1145000D02*
D03*
X195000Y1285000D02*
D03*
Y1345000D02*
D03*
X435000Y655000D02*
D03*
Y595000D02*
D03*
X530000Y1875000D02*
D03*
Y1935000D02*
D03*
X860000Y1850000D02*
D03*
Y1790000D02*
D03*
X80000Y3200000D02*
D03*
Y3260000D02*
D03*
Y3340000D02*
D03*
Y3400000D02*
D03*
D227*
X325000Y1260000D02*
D03*
X445000D02*
D03*
Y1445000D02*
D03*
X325000D02*
D03*
D228*
X1159000Y865000D02*
D03*
X1221000D02*
D03*
X1394000Y830000D02*
D03*
X1456000D02*
D03*
D229*
X345000Y1097599D02*
D03*
Y1172402D02*
D03*
X195000Y1467599D02*
D03*
Y1542402D02*
D03*
D230*
X257599Y1540000D02*
D03*
X332402D02*
D03*
D231*
X765000Y830000D02*
D03*
X825000D02*
D03*
X1125000Y965000D02*
D03*
X1185000D02*
D03*
X1180000Y1135000D02*
D03*
Y1185000D02*
D03*
X1240000D02*
D03*
Y1135000D02*
D03*
Y1285000D02*
D03*
X1180000D02*
D03*
X1095000Y1270000D02*
D03*
X1035000D02*
D03*
X1310000Y1215000D02*
D03*
X1370000D02*
D03*
X1245000Y1450000D02*
D03*
X1185000D02*
D03*
X1115000Y1525000D02*
D03*
Y1585000D02*
D03*
X1055000D02*
D03*
Y1525000D02*
D03*
X1240000Y1540000D02*
D03*
Y1595000D02*
D03*
X1300000D02*
D03*
Y1540000D02*
D03*
X860000Y975000D02*
D03*
X800000D02*
D03*
X290000Y1085000D02*
D03*
X230000D02*
D03*
D232*
X1640000Y1310000D02*
D03*
X1730000D02*
D03*
D233*
X2663504Y3487520D02*
D03*
Y3802480D02*
D03*
D234*
X1065000Y80000D02*
D03*
X1800000Y125000D02*
D03*
X530000Y1095000D02*
D03*
D235*
X850630Y96890D02*
D03*
Y175630D02*
D03*
Y254370D02*
D03*
Y333110D02*
D03*
X929370D02*
D03*
Y254370D02*
D03*
Y175630D02*
D03*
X2055630D02*
D03*
X2134370D02*
D03*
Y254370D02*
D03*
Y333110D02*
D03*
X2055630D02*
D03*
Y254370D02*
D03*
Y96890D02*
D03*
X2405630Y448779D02*
D03*
X2484370D02*
D03*
Y527520D02*
D03*
Y606260D02*
D03*
X2405630D02*
D03*
Y527520D02*
D03*
Y685000D02*
D03*
Y763740D02*
D03*
X2484370D02*
D03*
Y685000D02*
D03*
Y842480D02*
D03*
Y921221D02*
D03*
X2405630Y842480D02*
D03*
D236*
X2358425Y3175000D02*
D03*
Y3725000D02*
D03*
X2041575D02*
D03*
X1783425D02*
D03*
Y3175000D02*
D03*
X2041575D02*
D03*
X1466575Y3725000D02*
D03*
Y3175000D02*
D03*
X1208425Y3725000D02*
D03*
X1203425Y3180000D02*
D03*
X891575Y3725000D02*
D03*
X633425D02*
D03*
X886575Y3180000D02*
D03*
X316575Y3725000D02*
D03*
%TF.MD5,449e5a7a62d9e24fa22d5faf97563a1c*%
M02*
